%TF.GenerationSoftware,KiCad,Pcbnew,10.0.3*%
%TF.CreationDate,2026-08-06T21:18:31+02:00*%
%TF.ProjectId,new_PCB,6e65775f-5043-4422-9e6b-696361645f70,rev?*%
%TF.SameCoordinates,Original*%
%TF.FileFunction,Copper,L2,Bot*%
%TF.FilePolarity,Positive*%
%FSLAX46Y46*%
G04 Gerber Fmt 4.6, Leading zero omitted, Abs format (unit mm)*
G04 Created by KiCad (PCBNEW 10.0.3) date 2026-08-06 21:18:31*
%MOMM*%
%LPD*%
G01*
G04 APERTURE LIST*
G04 Aperture macros list*
%AMRoundRect*
0 Rectangle with rounded corners*
0 $1 Rounding radius*
0 $2 $3 $4 $5 $6 $7 $8 $9 X,Y pos of 4 corners*
0 Add a 4 corners polygon primitive as box body*
4,1,4,$2,$3,$4,$5,$6,$7,$8,$9,$2,$3,0*
0 Add four circle primitives for the rounded corners*
1,1,$1+$1,$2,$3*
1,1,$1+$1,$4,$5*
1,1,$1+$1,$6,$7*
1,1,$1+$1,$8,$9*
0 Add four rect primitives between the rounded corners*
20,1,$1+$1,$2,$3,$4,$5,0*
20,1,$1+$1,$4,$5,$6,$7,0*
20,1,$1+$1,$6,$7,$8,$9,0*
20,1,$1+$1,$8,$9,$2,$3,0*%
G04 Aperture macros list end*
%TA.AperFunction,ComponentPad*%
%ADD10R,3.716000X3.716000*%
%TD*%
%TA.AperFunction,ComponentPad*%
%ADD11C,3.716000*%
%TD*%
%TA.AperFunction,ComponentPad*%
%ADD12O,2.600000X1.300000*%
%TD*%
%TA.AperFunction,ComponentPad*%
%ADD13C,1.397000*%
%TD*%
%TA.AperFunction,ComponentPad*%
%ADD14C,1.600000*%
%TD*%
%TA.AperFunction,ComponentPad*%
%ADD15O,1.600000X1.600000*%
%TD*%
%TA.AperFunction,ComponentPad*%
%ADD16R,1.530000X1.530000*%
%TD*%
%TA.AperFunction,ComponentPad*%
%ADD17C,1.530000*%
%TD*%
%TA.AperFunction,ComponentPad*%
%ADD18RoundRect,0.250000X-0.550000X-0.550000X0.550000X-0.550000X0.550000X0.550000X-0.550000X0.550000X0*%
%TD*%
%TA.AperFunction,ViaPad*%
%ADD19C,0.600000*%
%TD*%
%TA.AperFunction,ViaPad*%
%ADD20C,1.000000*%
%TD*%
%TA.AperFunction,Conductor*%
%ADD21C,0.250000*%
%TD*%
G04 APERTURE END LIST*
D10*
%TO.P,J2,1,P_1*%
%TO.N,VBAT*%
X32035000Y-40665000D03*
D11*
%TO.P,J2,2,N_2*%
%TO.N,GND*%
X32035000Y-33465000D03*
D12*
%TO.P,J2,SH1,SHIELD_SH1*%
%TO.N,unconnected-(J2-SHIELD-PadSH1)*%
X26035000Y-30315000D03*
%TO.P,J2,SH2,SHIELD_SH2*%
%TO.N,unconnected-(J2-SHIELD-PadSH1)_1*%
X26035000Y-43815000D03*
%TD*%
D10*
%TO.P,J1,1,P_1*%
%TO.N,VBAT*%
X32035000Y-68770000D03*
D11*
%TO.P,J1,2,N_2*%
%TO.N,GND*%
X32035000Y-61570000D03*
D12*
%TO.P,J1,SH1,SHIELD_SH1*%
%TO.N,unconnected-(J1-SHIELD-PadSH1)*%
X26035000Y-58420000D03*
%TO.P,J1,SH2,SHIELD_SH2*%
%TO.N,unconnected-(J1-SHIELD-PadSH1)_1*%
X26035000Y-71920000D03*
%TD*%
D13*
%TO.P,J7,1,1_1*%
%TO.N,GND*%
X92500000Y-74930000D03*
%TO.P,J7,2,2_2*%
%TO.N,VBUS_1*%
X92500000Y-77430000D03*
%TO.P,J7,3,3_3*%
%TO.N,/SERVO_DATA2*%
X92500000Y-79930000D03*
%TD*%
D14*
%TO.P,U2,1,OUT+_1*%
%TO.N,+3.3V*%
X55372000Y-60452000D03*
%TO.P,U2,2,OUT+_2*%
%TO.N,unconnected-(U2-OUT+-Pad2)*%
X57912000Y-60452000D03*
D15*
%TO.P,U2,3,OUT-_3*%
%TO.N,unconnected-(U2-OUT--Pad3)*%
X66040000Y-60452000D03*
%TO.P,U2,4,OUT-_4*%
%TO.N,GND*%
X68580000Y-60452000D03*
%TO.P,U2,5,IN-_5*%
X68580000Y-41910000D03*
%TO.P,U2,6,IN-_6*%
%TO.N,unconnected-(U2-IN--Pad6)*%
X66040000Y-41910000D03*
D14*
%TO.P,U2,7,IN+_7*%
%TO.N,unconnected-(U2-IN+-Pad7)*%
X57912000Y-41910000D03*
%TO.P,U2,8,IN+_8*%
%TO.N,VBUS_2*%
X55372000Y-41910000D03*
%TD*%
D13*
%TO.P,J3,1,1_1*%
%TO.N,GND*%
X55000000Y-21590000D03*
%TO.P,J3,2,2_2*%
%TO.N,VBUS_2*%
X55000000Y-24090000D03*
%TO.P,J3,3,3_3*%
%TO.N,/SERVO_DATA1*%
X55000000Y-26590000D03*
%TD*%
%TO.P,J5,1,1_1*%
%TO.N,GND*%
X130000000Y-21590000D03*
%TO.P,J5,2,2_2*%
%TO.N,VBUS_2*%
X130000000Y-24090000D03*
%TO.P,J5,3,3_3*%
%TO.N,/SERVO_DATA1*%
X130000000Y-26590000D03*
%TD*%
D16*
%TO.P,U1,J1_1,3V3_J1_1*%
%TO.N,+3.3V*%
X143000000Y-43650500D03*
D17*
%TO.P,U1,J1_2,3V3_J1_2*%
X140460000Y-43650500D03*
%TO.P,U1,J1_3,RST_J1_3*%
%TO.N,unconnected-(U1-RST-PadJ1_3)*%
X137920000Y-43650500D03*
%TO.P,U1,J1_4,GPIO4_J1_4*%
%TO.N,/RX2*%
X135380000Y-43650500D03*
%TO.P,U1,J1_5,GPIO5_J1_5*%
%TO.N,/TX2*%
X132840000Y-43650500D03*
%TO.P,U1,J1_6,GPIO6_J1_6*%
%TO.N,unconnected-(U1-GPIO6-PadJ1_6)*%
X130300000Y-43650500D03*
%TO.P,U1,J1_7,GPIO7_J1_7*%
%TO.N,/TXEN1*%
X127760000Y-43650500D03*
%TO.P,U1,J1_8,GPIO15_J1_8*%
%TO.N,unconnected-(U1-GPIO15-PadJ1_8)*%
X125220000Y-43650500D03*
%TO.P,U1,J1_9,GPIO16_J1_9*%
%TO.N,unconnected-(U1-GPIO16-PadJ1_9)*%
X122680000Y-43650500D03*
%TO.P,U1,J1_10,GPIO17_J1_10*%
%TO.N,/TX1*%
X120140000Y-43650500D03*
%TO.P,U1,J1_11,GPIO18_J1_11*%
%TO.N,/RX1*%
X117600000Y-43650500D03*
%TO.P,U1,J1_12,GPIO8_J1_12*%
%TO.N,/TXEN2*%
X115060000Y-43650500D03*
%TO.P,U1,J1_13,GPIO3_J1_13*%
%TO.N,unconnected-(U1-GPIO3-PadJ1_13)*%
X112520000Y-43650500D03*
%TO.P,U1,J1_14,GPIO46_J1_14*%
%TO.N,unconnected-(U1-GPIO46-PadJ1_14)*%
X109980000Y-43650500D03*
%TO.P,U1,J1_15,GPIO9_J1_15*%
%TO.N,unconnected-(U1-GPIO9-PadJ1_15)*%
X107440000Y-43650500D03*
%TO.P,U1,J1_16,GPIO10_J1_16*%
%TO.N,unconnected-(U1-GPIO10-PadJ1_16)*%
X104900000Y-43650500D03*
%TO.P,U1,J1_17,GPIO11_J1_17*%
%TO.N,unconnected-(U1-GPIO11-PadJ1_17)*%
X102360000Y-43650500D03*
%TO.P,U1,J1_18,GPIO12_J1_18*%
%TO.N,unconnected-(U1-GPIO12-PadJ1_18)*%
X99820000Y-43650500D03*
%TO.P,U1,J1_19,GPIO13_J1_19*%
%TO.N,unconnected-(U1-GPIO13-PadJ1_19)*%
X97280000Y-43650500D03*
%TO.P,U1,J1_20,GPIO14_J1_20*%
%TO.N,unconnected-(U1-GPIO14-PadJ1_20)*%
X94740000Y-43650500D03*
%TO.P,U1,J1_21,5V0_J1_21*%
%TO.N,unconnected-(U1-5V0-PadJ1_21)*%
X92200000Y-43650500D03*
%TO.P,U1,J1_22,GND_J1_22*%
%TO.N,GND*%
X89660000Y-43650500D03*
%TO.P,U1,J3_1,GND_J3_1*%
X143000000Y-66510500D03*
%TO.P,U1,J3_2,U0TXD/GPIO43_J3_2*%
%TO.N,unconnected-(U1-U0TXD{slash}GPIO43-PadJ3_2)*%
X140460000Y-66510500D03*
%TO.P,U1,J3_3,U0RXD/GPIO44_J3_3*%
%TO.N,unconnected-(U1-U0RXD{slash}GPIO44-PadJ3_3)*%
X137920000Y-66510500D03*
%TO.P,U1,J3_4,GPIO1_J3_4*%
%TO.N,unconnected-(U1-GPIO1-PadJ3_4)*%
X135380000Y-66510500D03*
%TO.P,U1,J3_5,GPIO2_J3_5*%
%TO.N,unconnected-(U1-GPIO2-PadJ3_5)*%
X132840000Y-66510500D03*
%TO.P,U1,J3_6,MTMS/GPIO42_J3_6*%
%TO.N,unconnected-(U1-MTMS{slash}GPIO42-PadJ3_6)*%
X130300000Y-66510500D03*
%TO.P,U1,J3_7,MTDI/GPIO41_J3_7*%
%TO.N,unconnected-(U1-MTDI{slash}GPIO41-PadJ3_7)*%
X127760000Y-66510500D03*
%TO.P,U1,J3_8,MTDO/GPIO40_J3_8*%
%TO.N,unconnected-(U1-MTDO{slash}GPIO40-PadJ3_8)*%
X125220000Y-66510500D03*
%TO.P,U1,J3_9,MTCK/GPIO39_J3_9*%
%TO.N,unconnected-(U1-MTCK{slash}GPIO39-PadJ3_9)*%
X122680000Y-66510500D03*
%TO.P,U1,J3_10,GPIO38_J3_10*%
%TO.N,unconnected-(U1-GPIO38-PadJ3_10)*%
X120140000Y-66510500D03*
%TO.P,U1,J3_11,GPIO37_J3_11*%
%TO.N,unconnected-(U1-GPIO37-PadJ3_11)*%
X117600000Y-66510500D03*
%TO.P,U1,J3_12,GPIO36_J3_12*%
%TO.N,unconnected-(U1-GPIO36-PadJ3_12)*%
X115060000Y-66510500D03*
%TO.P,U1,J3_13,GPIO35_J3_13*%
%TO.N,unconnected-(U1-GPIO35-PadJ3_13)*%
X112520000Y-66510500D03*
%TO.P,U1,J3_14,GPIO0_J3_14*%
%TO.N,unconnected-(U1-GPIO0-PadJ3_14)*%
X109980000Y-66510500D03*
%TO.P,U1,J3_15,GPIO45_J3_15*%
%TO.N,unconnected-(U1-GPIO45-PadJ3_15)*%
X107440000Y-66510500D03*
%TO.P,U1,J3_16,GPIO48_J3_16*%
%TO.N,unconnected-(U1-GPIO48-PadJ3_16)*%
X104900000Y-66510500D03*
%TO.P,U1,J3_17,GPIO47_J3_17*%
%TO.N,unconnected-(U1-GPIO47-PadJ3_17)*%
X102360000Y-66510500D03*
%TO.P,U1,J3_18,GPIO21_J3_18*%
%TO.N,/BAT_LVL*%
X99820000Y-66510500D03*
%TO.P,U1,J3_19,USB_D+/GPIO20_J3_19*%
%TO.N,unconnected-(U1-USB_D+{slash}GPIO20-PadJ3_19)*%
X97280000Y-66510500D03*
%TO.P,U1,J3_20,USB_D-/GPIO19_J3_20*%
%TO.N,unconnected-(U1-USB_D-{slash}GPIO19-PadJ3_20)*%
X94740000Y-66510500D03*
%TO.P,U1,J3_21,GND_J3_21*%
%TO.N,GND*%
X92200000Y-66510500D03*
%TO.P,U1,J3_22,GND_J3_22*%
X89660000Y-66510500D03*
%TD*%
D13*
%TO.P,J8,1,1_1*%
%TO.N,GND*%
X130000000Y-74930000D03*
%TO.P,J8,2,2_2*%
%TO.N,VBUS_1*%
X130000000Y-77430000D03*
%TO.P,J8,3,3_3*%
%TO.N,/SERVO_DATA2*%
X130000000Y-79930000D03*
%TD*%
D18*
%TO.P,C2,1*%
%TO.N,VBUS_2*%
X55285000Y-35560000D03*
D14*
%TO.P,C2,2*%
%TO.N,GND*%
X57785000Y-35560000D03*
%TD*%
D13*
%TO.P,J6,1,1_1*%
%TO.N,GND*%
X55000000Y-74930000D03*
%TO.P,J6,2,2_2*%
%TO.N,VBUS_1*%
X55000000Y-77430000D03*
%TO.P,J6,3,3_3*%
%TO.N,/SERVO_DATA2*%
X55000000Y-79930000D03*
%TD*%
%TO.P,J4,1,1_1*%
%TO.N,GND*%
X92500000Y-21590000D03*
%TO.P,J4,2,2_2*%
%TO.N,VBUS_2*%
X92500000Y-24090000D03*
%TO.P,J4,3,3_3*%
%TO.N,/SERVO_DATA1*%
X92500000Y-26590000D03*
%TD*%
D19*
%TO.N,/RX1*%
X117602000Y-41275000D03*
X128397000Y-35179000D03*
D20*
%TO.N,GND*%
X111379000Y-48260000D03*
X123571000Y-48260000D03*
X128524000Y-33020000D03*
X114300000Y-38735000D03*
X113157000Y-38735000D03*
X112014000Y-38735000D03*
X113030000Y-29464000D03*
X111760000Y-29464000D03*
X114300000Y-29464000D03*
X110490000Y-29464000D03*
X109220000Y-29464000D03*
X107950000Y-29464000D03*
X36957000Y-33401000D03*
X64135000Y-39116000D03*
X43561000Y-61341000D03*
D19*
%TO.N,/TX1*%
X120015000Y-41275000D03*
%TO.N,/TXEN1*%
X127635000Y-41275000D03*
X137795000Y-31115000D03*
%TO.N,/TX1*%
X136525000Y-31115000D03*
%TD*%
%TO.N,/RX1*%
D21*
X118237000Y-40640000D02*
X117602000Y-41275000D01*
X128397000Y-37719000D02*
X125476000Y-40640000D01*
X125476000Y-40640000D02*
X118237000Y-40640000D01*
X128397000Y-35179000D02*
X128397000Y-37719000D01*
%TO.N,/TX1*%
X126365000Y-41275000D02*
X120015000Y-41275000D01*
X136525000Y-31115000D02*
X126365000Y-41275000D01*
%TO.N,/TXEN1*%
X137795000Y-31115000D02*
X127635000Y-41275000D01*
%TD*%
%TA.AperFunction,Conductor*%
%TO.N,GND*%
G36*
X151073039Y-17799685D02*
G01*
X151118794Y-17852489D01*
X151130000Y-17904000D01*
X151130000Y-40516000D01*
X151110315Y-40583039D01*
X151057511Y-40628794D01*
X151006000Y-40640000D01*
X144780000Y-40640000D01*
X144780000Y-68580000D01*
X151006000Y-68580000D01*
X151073039Y-68599685D01*
X151118794Y-68652489D01*
X151130000Y-68704000D01*
X151130000Y-83696000D01*
X151110315Y-83763039D01*
X151057511Y-83808794D01*
X151006000Y-83820000D01*
X19174000Y-83820000D01*
X19106961Y-83800315D01*
X19061206Y-83747511D01*
X19050000Y-83696000D01*
X19050000Y-79888711D01*
X22279500Y-79888711D01*
X22279500Y-80131288D01*
X22311161Y-80371785D01*
X22373947Y-80606104D01*
X22417437Y-80711097D01*
X22466776Y-80830212D01*
X22588064Y-81040289D01*
X22588066Y-81040292D01*
X22588067Y-81040293D01*
X22735733Y-81232736D01*
X22735739Y-81232743D01*
X22907256Y-81404260D01*
X22907262Y-81404265D01*
X23099711Y-81551936D01*
X23309788Y-81673224D01*
X23533900Y-81766054D01*
X23768211Y-81828838D01*
X23948586Y-81852584D01*
X24008711Y-81860500D01*
X24008712Y-81860500D01*
X24251289Y-81860500D01*
X24299388Y-81854167D01*
X24491789Y-81828838D01*
X24726100Y-81766054D01*
X24950212Y-81673224D01*
X25160289Y-81551936D01*
X25352738Y-81404265D01*
X25524265Y-81232738D01*
X25671936Y-81040289D01*
X25793224Y-80830212D01*
X25886054Y-80606100D01*
X25948838Y-80371789D01*
X25980500Y-80131288D01*
X25980500Y-79888712D01*
X25948838Y-79648211D01*
X25886054Y-79413900D01*
X25793224Y-79189788D01*
X25671936Y-78979711D01*
X25524265Y-78787262D01*
X25524260Y-78787256D01*
X25352743Y-78615739D01*
X25352736Y-78615733D01*
X25160293Y-78468067D01*
X25160292Y-78468066D01*
X25160289Y-78468064D01*
X24950212Y-78346776D01*
X24950205Y-78346773D01*
X24726104Y-78253947D01*
X24608944Y-78222554D01*
X24491789Y-78191162D01*
X24491788Y-78191161D01*
X24491785Y-78191161D01*
X24251289Y-78159500D01*
X24251288Y-78159500D01*
X24008712Y-78159500D01*
X24008711Y-78159500D01*
X23768214Y-78191161D01*
X23533895Y-78253947D01*
X23309794Y-78346773D01*
X23309785Y-78346777D01*
X23099706Y-78468067D01*
X22907263Y-78615733D01*
X22907256Y-78615739D01*
X22735739Y-78787256D01*
X22735733Y-78787263D01*
X22588067Y-78979706D01*
X22466777Y-79189785D01*
X22466773Y-79189794D01*
X22373947Y-79413895D01*
X22311161Y-79648214D01*
X22279500Y-79888711D01*
X19050000Y-79888711D01*
X19050000Y-77335631D01*
X53801000Y-77335631D01*
X53801000Y-77524368D01*
X53830522Y-77710763D01*
X53830523Y-77710767D01*
X53888843Y-77890256D01*
X53974523Y-78058413D01*
X54085454Y-78211096D01*
X54218904Y-78344546D01*
X54371587Y-78455477D01*
X54451034Y-78495957D01*
X54539739Y-78541155D01*
X54539741Y-78541155D01*
X54539744Y-78541157D01*
X54604105Y-78562069D01*
X54661780Y-78601507D01*
X54688978Y-78665866D01*
X54677063Y-78734712D01*
X54629819Y-78786188D01*
X54604107Y-78797929D01*
X54581775Y-78805185D01*
X54539739Y-78818844D01*
X54371586Y-78904523D01*
X54284475Y-78967813D01*
X54218904Y-79015454D01*
X54218902Y-79015456D01*
X54218901Y-79015456D01*
X54085456Y-79148901D01*
X54085456Y-79148902D01*
X54085454Y-79148904D01*
X54055752Y-79189785D01*
X53974523Y-79301586D01*
X53888844Y-79469741D01*
X53830522Y-79649236D01*
X53801000Y-79835631D01*
X53801000Y-80024368D01*
X53830522Y-80210763D01*
X53830523Y-80210767D01*
X53888843Y-80390256D01*
X53974523Y-80558413D01*
X54085454Y-80711096D01*
X54218904Y-80844546D01*
X54371587Y-80955477D01*
X54539744Y-81041157D01*
X54719233Y-81099477D01*
X54789134Y-81110548D01*
X54905632Y-81129000D01*
X54905637Y-81129000D01*
X55094368Y-81129000D01*
X55197920Y-81112598D01*
X55280767Y-81099477D01*
X55460256Y-81041157D01*
X55628413Y-80955477D01*
X55781096Y-80844546D01*
X55914546Y-80711096D01*
X56025477Y-80558413D01*
X56111157Y-80390256D01*
X56169477Y-80210767D01*
X56182598Y-80127920D01*
X56199000Y-80024368D01*
X56199000Y-79835631D01*
X56169477Y-79649236D01*
X56169477Y-79649233D01*
X56111157Y-79469744D01*
X56025477Y-79301587D01*
X55914546Y-79148904D01*
X55781096Y-79015454D01*
X55628413Y-78904523D01*
X55460256Y-78818843D01*
X55395894Y-78797930D01*
X55338219Y-78758493D01*
X55311021Y-78694135D01*
X55322936Y-78625288D01*
X55370180Y-78573813D01*
X55395892Y-78562070D01*
X55460256Y-78541157D01*
X55628413Y-78455477D01*
X55781096Y-78344546D01*
X55914546Y-78211096D01*
X56025477Y-78058413D01*
X56111157Y-77890256D01*
X56169477Y-77710767D01*
X56182598Y-77627920D01*
X56199000Y-77524368D01*
X56199000Y-77335631D01*
X91301000Y-77335631D01*
X91301000Y-77524368D01*
X91330522Y-77710763D01*
X91330523Y-77710767D01*
X91388843Y-77890256D01*
X91474523Y-78058413D01*
X91585454Y-78211096D01*
X91718904Y-78344546D01*
X91871587Y-78455477D01*
X91951034Y-78495957D01*
X92039739Y-78541155D01*
X92039741Y-78541155D01*
X92039744Y-78541157D01*
X92104105Y-78562069D01*
X92161780Y-78601507D01*
X92188978Y-78665866D01*
X92177063Y-78734712D01*
X92129819Y-78786188D01*
X92104107Y-78797929D01*
X92081775Y-78805185D01*
X92039739Y-78818844D01*
X91871586Y-78904523D01*
X91784475Y-78967813D01*
X91718904Y-79015454D01*
X91718902Y-79015456D01*
X91718901Y-79015456D01*
X91585456Y-79148901D01*
X91585456Y-79148902D01*
X91585454Y-79148904D01*
X91555752Y-79189785D01*
X91474523Y-79301586D01*
X91388844Y-79469741D01*
X91330522Y-79649236D01*
X91301000Y-79835631D01*
X91301000Y-80024368D01*
X91330522Y-80210763D01*
X91330523Y-80210767D01*
X91388843Y-80390256D01*
X91474523Y-80558413D01*
X91585454Y-80711096D01*
X91718904Y-80844546D01*
X91871587Y-80955477D01*
X92039744Y-81041157D01*
X92219233Y-81099477D01*
X92289134Y-81110548D01*
X92405632Y-81129000D01*
X92405637Y-81129000D01*
X92594368Y-81129000D01*
X92697920Y-81112598D01*
X92780767Y-81099477D01*
X92960256Y-81041157D01*
X93128413Y-80955477D01*
X93281096Y-80844546D01*
X93414546Y-80711096D01*
X93525477Y-80558413D01*
X93611157Y-80390256D01*
X93669477Y-80210767D01*
X93682598Y-80127920D01*
X93699000Y-80024368D01*
X93699000Y-79835631D01*
X93669477Y-79649236D01*
X93669477Y-79649233D01*
X93611157Y-79469744D01*
X93525477Y-79301587D01*
X93414546Y-79148904D01*
X93281096Y-79015454D01*
X93128413Y-78904523D01*
X92960256Y-78818843D01*
X92895894Y-78797930D01*
X92838219Y-78758493D01*
X92811021Y-78694135D01*
X92822936Y-78625288D01*
X92870180Y-78573813D01*
X92895892Y-78562070D01*
X92960256Y-78541157D01*
X93128413Y-78455477D01*
X93281096Y-78344546D01*
X93414546Y-78211096D01*
X93525477Y-78058413D01*
X93611157Y-77890256D01*
X93669477Y-77710767D01*
X93682598Y-77627920D01*
X93699000Y-77524368D01*
X93699000Y-77335631D01*
X128801000Y-77335631D01*
X128801000Y-77524368D01*
X128830522Y-77710763D01*
X128830523Y-77710767D01*
X128888843Y-77890256D01*
X128974523Y-78058413D01*
X129085454Y-78211096D01*
X129218904Y-78344546D01*
X129371587Y-78455477D01*
X129451034Y-78495957D01*
X129539739Y-78541155D01*
X129539741Y-78541155D01*
X129539744Y-78541157D01*
X129604105Y-78562069D01*
X129661780Y-78601507D01*
X129688978Y-78665866D01*
X129677063Y-78734712D01*
X129629819Y-78786188D01*
X129604107Y-78797929D01*
X129581775Y-78805185D01*
X129539739Y-78818844D01*
X129371586Y-78904523D01*
X129284475Y-78967813D01*
X129218904Y-79015454D01*
X129218902Y-79015456D01*
X129218901Y-79015456D01*
X129085456Y-79148901D01*
X129085456Y-79148902D01*
X129085454Y-79148904D01*
X129055752Y-79189785D01*
X128974523Y-79301586D01*
X128888844Y-79469741D01*
X128830522Y-79649236D01*
X128801000Y-79835631D01*
X128801000Y-80024368D01*
X128830522Y-80210763D01*
X128830523Y-80210767D01*
X128888843Y-80390256D01*
X128974523Y-80558413D01*
X129085454Y-80711096D01*
X129218904Y-80844546D01*
X129371587Y-80955477D01*
X129539744Y-81041157D01*
X129719233Y-81099477D01*
X129789134Y-81110548D01*
X129905632Y-81129000D01*
X129905637Y-81129000D01*
X130094368Y-81129000D01*
X130197920Y-81112598D01*
X130280767Y-81099477D01*
X130460256Y-81041157D01*
X130628413Y-80955477D01*
X130781096Y-80844546D01*
X130914546Y-80711096D01*
X131025477Y-80558413D01*
X131111157Y-80390256D01*
X131169477Y-80210767D01*
X131182598Y-80127920D01*
X131199000Y-80024368D01*
X131199000Y-79888711D01*
X144149500Y-79888711D01*
X144149500Y-80131288D01*
X144181161Y-80371785D01*
X144243947Y-80606104D01*
X144287437Y-80711097D01*
X144336776Y-80830212D01*
X144458064Y-81040289D01*
X144458066Y-81040292D01*
X144458067Y-81040293D01*
X144605733Y-81232736D01*
X144605739Y-81232743D01*
X144777256Y-81404260D01*
X144777262Y-81404265D01*
X144969711Y-81551936D01*
X145179788Y-81673224D01*
X145403900Y-81766054D01*
X145638211Y-81828838D01*
X145818586Y-81852584D01*
X145878711Y-81860500D01*
X145878712Y-81860500D01*
X146121289Y-81860500D01*
X146169388Y-81854167D01*
X146361789Y-81828838D01*
X146596100Y-81766054D01*
X146820212Y-81673224D01*
X147030289Y-81551936D01*
X147222738Y-81404265D01*
X147394265Y-81232738D01*
X147541936Y-81040289D01*
X147663224Y-80830212D01*
X147756054Y-80606100D01*
X147818838Y-80371789D01*
X147850500Y-80131288D01*
X147850500Y-79888712D01*
X147818838Y-79648211D01*
X147756054Y-79413900D01*
X147663224Y-79189788D01*
X147541936Y-78979711D01*
X147394265Y-78787262D01*
X147394260Y-78787256D01*
X147222743Y-78615739D01*
X147222736Y-78615733D01*
X147030293Y-78468067D01*
X147030292Y-78468066D01*
X147030289Y-78468064D01*
X146820212Y-78346776D01*
X146820205Y-78346773D01*
X146596104Y-78253947D01*
X146478944Y-78222554D01*
X146361789Y-78191162D01*
X146361788Y-78191161D01*
X146361785Y-78191161D01*
X146121289Y-78159500D01*
X146121288Y-78159500D01*
X145878712Y-78159500D01*
X145878711Y-78159500D01*
X145638214Y-78191161D01*
X145403895Y-78253947D01*
X145179794Y-78346773D01*
X145179785Y-78346777D01*
X144969706Y-78468067D01*
X144777263Y-78615733D01*
X144777256Y-78615739D01*
X144605739Y-78787256D01*
X144605733Y-78787263D01*
X144458067Y-78979706D01*
X144336777Y-79189785D01*
X144336773Y-79189794D01*
X144243947Y-79413895D01*
X144181161Y-79648214D01*
X144149500Y-79888711D01*
X131199000Y-79888711D01*
X131199000Y-79835631D01*
X131169477Y-79649236D01*
X131169477Y-79649233D01*
X131111157Y-79469744D01*
X131025477Y-79301587D01*
X130914546Y-79148904D01*
X130781096Y-79015454D01*
X130628413Y-78904523D01*
X130460256Y-78818843D01*
X130395894Y-78797930D01*
X130338219Y-78758493D01*
X130311021Y-78694135D01*
X130322936Y-78625288D01*
X130370180Y-78573813D01*
X130395892Y-78562070D01*
X130460256Y-78541157D01*
X130628413Y-78455477D01*
X130781096Y-78344546D01*
X130914546Y-78211096D01*
X131025477Y-78058413D01*
X131111157Y-77890256D01*
X131169477Y-77710767D01*
X131182598Y-77627920D01*
X131199000Y-77524368D01*
X131199000Y-77335631D01*
X131169477Y-77149236D01*
X131169477Y-77149233D01*
X131111157Y-76969744D01*
X131025477Y-76801587D01*
X130914546Y-76648904D01*
X130781096Y-76515454D01*
X130628413Y-76404523D01*
X130460260Y-76318844D01*
X130420698Y-76305989D01*
X130395085Y-76297667D01*
X130337411Y-76258230D01*
X130310213Y-76193871D01*
X130322128Y-76125025D01*
X130369373Y-76073549D01*
X130395088Y-76061806D01*
X130460058Y-76040696D01*
X130460064Y-76040694D01*
X130628151Y-75955048D01*
X130653255Y-75936808D01*
X130653256Y-75936808D01*
X130084095Y-75367647D01*
X130171571Y-75344208D01*
X130272930Y-75285689D01*
X130355689Y-75202930D01*
X130414208Y-75101571D01*
X130437647Y-75014094D01*
X131006808Y-75583256D01*
X131006808Y-75583255D01*
X131025048Y-75558151D01*
X131110694Y-75390064D01*
X131110695Y-75390061D01*
X131168988Y-75210650D01*
X131198500Y-75024323D01*
X131198500Y-74835676D01*
X131168988Y-74649349D01*
X131110695Y-74469938D01*
X131110694Y-74469935D01*
X131025046Y-74301844D01*
X131006809Y-74276743D01*
X131006808Y-74276743D01*
X130437647Y-74845904D01*
X130414208Y-74758429D01*
X130355689Y-74657070D01*
X130272930Y-74574311D01*
X130171571Y-74515792D01*
X130084094Y-74492352D01*
X130653255Y-73923190D01*
X130653255Y-73923189D01*
X130628153Y-73904952D01*
X130460063Y-73819305D01*
X130460061Y-73819304D01*
X130280650Y-73761011D01*
X130094323Y-73731500D01*
X129905677Y-73731500D01*
X129719349Y-73761011D01*
X129539938Y-73819304D01*
X129539936Y-73819305D01*
X129371844Y-73904953D01*
X129371839Y-73904957D01*
X129346743Y-73923188D01*
X129346743Y-73923191D01*
X129915906Y-74492352D01*
X129828429Y-74515792D01*
X129727070Y-74574311D01*
X129644311Y-74657070D01*
X129585792Y-74758429D01*
X129562352Y-74845905D01*
X128993191Y-74276743D01*
X128993188Y-74276743D01*
X128974957Y-74301839D01*
X128974953Y-74301844D01*
X128889305Y-74469936D01*
X128889304Y-74469938D01*
X128831011Y-74649349D01*
X128801500Y-74835676D01*
X128801500Y-75024323D01*
X128831011Y-75210650D01*
X128889304Y-75390061D01*
X128889305Y-75390063D01*
X128974952Y-75558153D01*
X128993189Y-75583255D01*
X128993190Y-75583255D01*
X129562352Y-75014093D01*
X129585792Y-75101571D01*
X129644311Y-75202930D01*
X129727070Y-75285689D01*
X129828429Y-75344208D01*
X129915905Y-75367647D01*
X129346743Y-75936808D01*
X129346743Y-75936809D01*
X129371844Y-75955046D01*
X129539935Y-76040694D01*
X129539938Y-76040695D01*
X129604912Y-76061806D01*
X129662587Y-76101243D01*
X129689786Y-76165602D01*
X129677872Y-76234448D01*
X129630628Y-76285924D01*
X129604915Y-76297667D01*
X129539744Y-76318843D01*
X129539738Y-76318845D01*
X129371586Y-76404523D01*
X129284475Y-76467813D01*
X129218904Y-76515454D01*
X129218902Y-76515456D01*
X129218901Y-76515456D01*
X129085456Y-76648901D01*
X129085456Y-76648902D01*
X129085454Y-76648904D01*
X129037813Y-76714475D01*
X128974523Y-76801586D01*
X128888844Y-76969741D01*
X128830522Y-77149236D01*
X128801000Y-77335631D01*
X93699000Y-77335631D01*
X93669477Y-77149236D01*
X93669477Y-77149233D01*
X93611157Y-76969744D01*
X93525477Y-76801587D01*
X93414546Y-76648904D01*
X93281096Y-76515454D01*
X93128413Y-76404523D01*
X92960260Y-76318844D01*
X92920698Y-76305989D01*
X92895085Y-76297667D01*
X92837411Y-76258230D01*
X92810213Y-76193871D01*
X92822128Y-76125025D01*
X92869373Y-76073549D01*
X92895088Y-76061806D01*
X92960058Y-76040696D01*
X92960064Y-76040694D01*
X93128151Y-75955048D01*
X93153255Y-75936808D01*
X93153256Y-75936808D01*
X92584095Y-75367647D01*
X92671571Y-75344208D01*
X92772930Y-75285689D01*
X92855689Y-75202930D01*
X92914208Y-75101571D01*
X92937647Y-75014095D01*
X93506808Y-75583256D01*
X93506808Y-75583255D01*
X93525048Y-75558151D01*
X93610694Y-75390064D01*
X93610695Y-75390061D01*
X93668988Y-75210650D01*
X93698500Y-75024323D01*
X93698500Y-74835676D01*
X93668988Y-74649349D01*
X93610695Y-74469938D01*
X93610694Y-74469935D01*
X93525046Y-74301844D01*
X93506809Y-74276743D01*
X93506808Y-74276743D01*
X92937647Y-74845904D01*
X92914208Y-74758429D01*
X92855689Y-74657070D01*
X92772930Y-74574311D01*
X92671571Y-74515792D01*
X92584094Y-74492352D01*
X93153255Y-73923190D01*
X93153255Y-73923189D01*
X93128153Y-73904952D01*
X92960063Y-73819305D01*
X92960061Y-73819304D01*
X92780650Y-73761011D01*
X92594323Y-73731500D01*
X92405677Y-73731500D01*
X92219349Y-73761011D01*
X92039938Y-73819304D01*
X92039936Y-73819305D01*
X91871844Y-73904953D01*
X91871839Y-73904957D01*
X91846743Y-73923188D01*
X91846743Y-73923191D01*
X92415906Y-74492352D01*
X92328429Y-74515792D01*
X92227070Y-74574311D01*
X92144311Y-74657070D01*
X92085792Y-74758429D01*
X92062352Y-74845905D01*
X91493191Y-74276743D01*
X91493188Y-74276743D01*
X91474957Y-74301839D01*
X91474953Y-74301844D01*
X91389305Y-74469936D01*
X91389304Y-74469938D01*
X91331011Y-74649349D01*
X91301500Y-74835676D01*
X91301500Y-75024323D01*
X91331011Y-75210650D01*
X91389304Y-75390061D01*
X91389305Y-75390063D01*
X91474952Y-75558153D01*
X91493189Y-75583255D01*
X91493190Y-75583255D01*
X92062352Y-75014093D01*
X92085792Y-75101571D01*
X92144311Y-75202930D01*
X92227070Y-75285689D01*
X92328429Y-75344208D01*
X92415905Y-75367647D01*
X91846743Y-75936808D01*
X91846743Y-75936809D01*
X91871844Y-75955046D01*
X92039935Y-76040694D01*
X92039938Y-76040695D01*
X92104912Y-76061806D01*
X92162587Y-76101243D01*
X92189786Y-76165602D01*
X92177872Y-76234448D01*
X92130628Y-76285924D01*
X92104915Y-76297667D01*
X92039744Y-76318843D01*
X92039738Y-76318845D01*
X91871586Y-76404523D01*
X91784475Y-76467813D01*
X91718904Y-76515454D01*
X91718902Y-76515456D01*
X91718901Y-76515456D01*
X91585456Y-76648901D01*
X91585456Y-76648902D01*
X91585454Y-76648904D01*
X91537813Y-76714475D01*
X91474523Y-76801586D01*
X91388844Y-76969741D01*
X91330522Y-77149236D01*
X91301000Y-77335631D01*
X56199000Y-77335631D01*
X56169477Y-77149236D01*
X56169477Y-77149233D01*
X56111157Y-76969744D01*
X56025477Y-76801587D01*
X55914546Y-76648904D01*
X55781096Y-76515454D01*
X55628413Y-76404523D01*
X55460260Y-76318844D01*
X55420698Y-76305989D01*
X55395085Y-76297667D01*
X55337411Y-76258230D01*
X55310213Y-76193871D01*
X55322128Y-76125025D01*
X55369373Y-76073549D01*
X55395088Y-76061806D01*
X55460058Y-76040696D01*
X55460064Y-76040694D01*
X55628151Y-75955048D01*
X55653255Y-75936808D01*
X55653256Y-75936808D01*
X55084095Y-75367647D01*
X55171571Y-75344208D01*
X55272930Y-75285689D01*
X55355689Y-75202930D01*
X55414208Y-75101571D01*
X55437647Y-75014095D01*
X56006808Y-75583256D01*
X56006808Y-75583255D01*
X56025048Y-75558151D01*
X56110694Y-75390064D01*
X56110695Y-75390061D01*
X56168988Y-75210650D01*
X56198500Y-75024323D01*
X56198500Y-74835676D01*
X56168988Y-74649349D01*
X56110695Y-74469938D01*
X56110694Y-74469935D01*
X56025046Y-74301844D01*
X56006809Y-74276743D01*
X56006808Y-74276743D01*
X55437647Y-74845904D01*
X55414208Y-74758429D01*
X55355689Y-74657070D01*
X55272930Y-74574311D01*
X55171571Y-74515792D01*
X55084094Y-74492352D01*
X55653255Y-73923190D01*
X55653255Y-73923189D01*
X55628153Y-73904952D01*
X55460063Y-73819305D01*
X55460061Y-73819304D01*
X55280650Y-73761011D01*
X55094323Y-73731500D01*
X54905677Y-73731500D01*
X54719349Y-73761011D01*
X54539938Y-73819304D01*
X54539936Y-73819305D01*
X54371844Y-73904953D01*
X54371839Y-73904957D01*
X54346743Y-73923188D01*
X54346743Y-73923191D01*
X54915906Y-74492352D01*
X54828429Y-74515792D01*
X54727070Y-74574311D01*
X54644311Y-74657070D01*
X54585792Y-74758429D01*
X54562352Y-74845905D01*
X53993191Y-74276743D01*
X53993188Y-74276743D01*
X53974957Y-74301839D01*
X53974953Y-74301844D01*
X53889305Y-74469936D01*
X53889304Y-74469938D01*
X53831011Y-74649349D01*
X53801500Y-74835676D01*
X53801500Y-75024323D01*
X53831011Y-75210650D01*
X53889304Y-75390061D01*
X53889305Y-75390063D01*
X53974952Y-75558153D01*
X53993189Y-75583255D01*
X53993190Y-75583255D01*
X54562352Y-75014093D01*
X54585792Y-75101571D01*
X54644311Y-75202930D01*
X54727070Y-75285689D01*
X54828429Y-75344208D01*
X54915905Y-75367647D01*
X54346743Y-75936808D01*
X54346743Y-75936809D01*
X54371844Y-75955046D01*
X54539935Y-76040694D01*
X54539938Y-76040695D01*
X54604912Y-76061806D01*
X54662587Y-76101243D01*
X54689786Y-76165602D01*
X54677872Y-76234448D01*
X54630628Y-76285924D01*
X54604915Y-76297667D01*
X54539744Y-76318843D01*
X54539738Y-76318845D01*
X54371586Y-76404523D01*
X54284475Y-76467813D01*
X54218904Y-76515454D01*
X54218902Y-76515456D01*
X54218901Y-76515456D01*
X54085456Y-76648901D01*
X54085456Y-76648902D01*
X54085454Y-76648904D01*
X54037813Y-76714475D01*
X53974523Y-76801586D01*
X53888844Y-76969741D01*
X53830522Y-77149236D01*
X53801000Y-77335631D01*
X19050000Y-77335631D01*
X19050000Y-71829448D01*
X24234500Y-71829448D01*
X24234500Y-72010551D01*
X24262829Y-72189410D01*
X24318787Y-72361636D01*
X24318788Y-72361639D01*
X24401006Y-72522997D01*
X24507441Y-72669494D01*
X24507445Y-72669499D01*
X24635500Y-72797554D01*
X24635505Y-72797558D01*
X24763287Y-72890396D01*
X24782006Y-72903996D01*
X24887484Y-72957740D01*
X24943360Y-72986211D01*
X24943363Y-72986212D01*
X25029476Y-73014191D01*
X25115591Y-73042171D01*
X25198429Y-73055291D01*
X25294449Y-73070500D01*
X25294454Y-73070500D01*
X26775551Y-73070500D01*
X26862259Y-73056765D01*
X26954409Y-73042171D01*
X27126639Y-72986211D01*
X27287994Y-72903996D01*
X27434501Y-72797553D01*
X27562553Y-72669501D01*
X27668996Y-72522994D01*
X27751211Y-72361639D01*
X27807171Y-72189409D01*
X27821765Y-72097259D01*
X27835500Y-72010551D01*
X27835500Y-71829448D01*
X27819019Y-71725397D01*
X27807171Y-71650591D01*
X27751211Y-71478361D01*
X27751211Y-71478360D01*
X27722740Y-71422484D01*
X27668996Y-71317006D01*
X27655396Y-71298287D01*
X27562558Y-71170505D01*
X27562554Y-71170500D01*
X27434499Y-71042445D01*
X27434494Y-71042441D01*
X27287997Y-70936006D01*
X27287996Y-70936005D01*
X27287994Y-70936004D01*
X27236300Y-70909664D01*
X27126639Y-70853788D01*
X27126636Y-70853787D01*
X26954410Y-70797829D01*
X26775551Y-70769500D01*
X26775546Y-70769500D01*
X25294454Y-70769500D01*
X25294449Y-70769500D01*
X25115589Y-70797829D01*
X24943363Y-70853787D01*
X24943360Y-70853788D01*
X24782002Y-70936006D01*
X24635505Y-71042441D01*
X24635500Y-71042445D01*
X24507445Y-71170500D01*
X24507441Y-71170505D01*
X24401006Y-71317002D01*
X24318788Y-71478360D01*
X24318787Y-71478363D01*
X24262829Y-71650589D01*
X24234500Y-71829448D01*
X19050000Y-71829448D01*
X19050000Y-66864135D01*
X29676500Y-66864135D01*
X29676500Y-70675870D01*
X29676501Y-70675876D01*
X29682908Y-70735483D01*
X29733202Y-70870328D01*
X29733206Y-70870335D01*
X29819452Y-70985544D01*
X29819455Y-70985547D01*
X29934664Y-71071793D01*
X29934671Y-71071797D01*
X30069517Y-71122091D01*
X30069516Y-71122091D01*
X30076444Y-71122835D01*
X30129127Y-71128500D01*
X33940872Y-71128499D01*
X34000483Y-71122091D01*
X34135331Y-71071796D01*
X34250546Y-70985546D01*
X34336796Y-70870331D01*
X34387091Y-70735483D01*
X34393500Y-70675873D01*
X34393499Y-66864128D01*
X34387091Y-66804517D01*
X34336796Y-66669669D01*
X34336795Y-66669668D01*
X34336793Y-66669664D01*
X34250547Y-66554455D01*
X34184933Y-66505336D01*
X34135330Y-66468203D01*
X34135328Y-66468202D01*
X34000482Y-66417908D01*
X34000483Y-66417908D01*
X33940883Y-66411501D01*
X33940881Y-66411500D01*
X33940873Y-66411500D01*
X33940864Y-66411500D01*
X30129129Y-66411500D01*
X30129123Y-66411501D01*
X30069516Y-66417908D01*
X29934671Y-66468202D01*
X29934664Y-66468206D01*
X29819455Y-66554452D01*
X29819452Y-66554455D01*
X29733206Y-66669664D01*
X29733202Y-66669671D01*
X29682908Y-66804517D01*
X29676508Y-66864054D01*
X29676501Y-66864123D01*
X29676500Y-66864135D01*
X19050000Y-66864135D01*
X19050000Y-66410936D01*
X88395000Y-66410936D01*
X88395000Y-66610063D01*
X88426147Y-66806722D01*
X88487679Y-66996094D01*
X88578077Y-67173508D01*
X88605580Y-67211363D01*
X88605581Y-67211364D01*
X89168871Y-66648074D01*
X89184755Y-66707353D01*
X89251898Y-66823647D01*
X89346853Y-66918602D01*
X89463147Y-66985745D01*
X89522425Y-67001628D01*
X88959134Y-67564917D01*
X88996994Y-67592424D01*
X89174405Y-67682820D01*
X89363777Y-67744352D01*
X89560437Y-67775500D01*
X89759563Y-67775500D01*
X89956222Y-67744352D01*
X90145594Y-67682820D01*
X90323005Y-67592424D01*
X90360863Y-67564918D01*
X90360863Y-67564917D01*
X89797574Y-67001628D01*
X89856853Y-66985745D01*
X89973147Y-66918602D01*
X90068102Y-66823647D01*
X90135245Y-66707353D01*
X90151128Y-66648074D01*
X90714417Y-67211363D01*
X90714418Y-67211363D01*
X90741924Y-67173505D01*
X90819515Y-67021227D01*
X90867490Y-66970431D01*
X90935311Y-66953636D01*
X91001446Y-66976174D01*
X91040485Y-67021227D01*
X91118077Y-67173508D01*
X91145580Y-67211363D01*
X91145581Y-67211364D01*
X91708871Y-66648074D01*
X91724755Y-66707353D01*
X91791898Y-66823647D01*
X91886853Y-66918602D01*
X92003147Y-66985745D01*
X92062425Y-67001628D01*
X91499134Y-67564917D01*
X91536994Y-67592424D01*
X91714405Y-67682820D01*
X91903777Y-67744352D01*
X92100437Y-67775500D01*
X92299563Y-67775500D01*
X92496222Y-67744352D01*
X92685594Y-67682820D01*
X92863005Y-67592424D01*
X92900863Y-67564918D01*
X92900863Y-67564917D01*
X92337574Y-67001628D01*
X92396853Y-66985745D01*
X92513147Y-66918602D01*
X92608102Y-66823647D01*
X92675245Y-66707353D01*
X92691128Y-66648074D01*
X93254417Y-67211363D01*
X93254418Y-67211363D01*
X93281924Y-67173505D01*
X93359234Y-67021777D01*
X93407208Y-66970981D01*
X93475029Y-66954186D01*
X93541164Y-66976723D01*
X93580204Y-67021777D01*
X93657514Y-67173505D01*
X93657647Y-67173766D01*
X93774731Y-67334918D01*
X93915582Y-67475769D01*
X94076734Y-67592853D01*
X94253304Y-67682820D01*
X94254219Y-67683286D01*
X94443657Y-67744838D01*
X94443658Y-67744838D01*
X94443661Y-67744839D01*
X94640403Y-67776000D01*
X94640404Y-67776000D01*
X94839596Y-67776000D01*
X94839597Y-67776000D01*
X95036339Y-67744839D01*
X95036342Y-67744838D01*
X95036343Y-67744838D01*
X95225780Y-67683286D01*
X95225780Y-67683285D01*
X95225783Y-67683285D01*
X95403266Y-67592853D01*
X95564418Y-67475769D01*
X95705269Y-67334918D01*
X95822353Y-67173766D01*
X95899515Y-67022327D01*
X95947490Y-66971531D01*
X96015311Y-66954736D01*
X96081446Y-66977273D01*
X96120485Y-67022327D01*
X96197647Y-67173766D01*
X96314731Y-67334918D01*
X96455582Y-67475769D01*
X96616734Y-67592853D01*
X96793304Y-67682820D01*
X96794219Y-67683286D01*
X96983657Y-67744838D01*
X96983658Y-67744838D01*
X96983661Y-67744839D01*
X97180403Y-67776000D01*
X97180404Y-67776000D01*
X97379596Y-67776000D01*
X97379597Y-67776000D01*
X97576339Y-67744839D01*
X97576342Y-67744838D01*
X97576343Y-67744838D01*
X97765780Y-67683286D01*
X97765780Y-67683285D01*
X97765783Y-67683285D01*
X97943266Y-67592853D01*
X98104418Y-67475769D01*
X98245269Y-67334918D01*
X98362353Y-67173766D01*
X98439515Y-67022327D01*
X98487490Y-66971531D01*
X98555311Y-66954736D01*
X98621446Y-66977273D01*
X98660485Y-67022327D01*
X98737647Y-67173766D01*
X98854731Y-67334918D01*
X98995582Y-67475769D01*
X99156734Y-67592853D01*
X99333304Y-67682820D01*
X99334219Y-67683286D01*
X99523657Y-67744838D01*
X99523658Y-67744838D01*
X99523661Y-67744839D01*
X99720403Y-67776000D01*
X99720404Y-67776000D01*
X99919596Y-67776000D01*
X99919597Y-67776000D01*
X100116339Y-67744839D01*
X100116342Y-67744838D01*
X100116343Y-67744838D01*
X100305780Y-67683286D01*
X100305780Y-67683285D01*
X100305783Y-67683285D01*
X100483266Y-67592853D01*
X100644418Y-67475769D01*
X100785269Y-67334918D01*
X100902353Y-67173766D01*
X100979515Y-67022327D01*
X101027490Y-66971531D01*
X101095311Y-66954736D01*
X101161446Y-66977273D01*
X101200485Y-67022327D01*
X101277647Y-67173766D01*
X101394731Y-67334918D01*
X101535582Y-67475769D01*
X101696734Y-67592853D01*
X101873304Y-67682820D01*
X101874219Y-67683286D01*
X102063657Y-67744838D01*
X102063658Y-67744838D01*
X102063661Y-67744839D01*
X102260403Y-67776000D01*
X102260404Y-67776000D01*
X102459596Y-67776000D01*
X102459597Y-67776000D01*
X102656339Y-67744839D01*
X102656342Y-67744838D01*
X102656343Y-67744838D01*
X102845780Y-67683286D01*
X102845780Y-67683285D01*
X102845783Y-67683285D01*
X103023266Y-67592853D01*
X103184418Y-67475769D01*
X103325269Y-67334918D01*
X103442353Y-67173766D01*
X103519515Y-67022327D01*
X103567490Y-66971531D01*
X103635311Y-66954736D01*
X103701446Y-66977273D01*
X103740485Y-67022327D01*
X103817647Y-67173766D01*
X103934731Y-67334918D01*
X104075582Y-67475769D01*
X104236734Y-67592853D01*
X104413304Y-67682820D01*
X104414219Y-67683286D01*
X104603657Y-67744838D01*
X104603658Y-67744838D01*
X104603661Y-67744839D01*
X104800403Y-67776000D01*
X104800404Y-67776000D01*
X104999596Y-67776000D01*
X104999597Y-67776000D01*
X105196339Y-67744839D01*
X105196342Y-67744838D01*
X105196343Y-67744838D01*
X105385780Y-67683286D01*
X105385780Y-67683285D01*
X105385783Y-67683285D01*
X105563266Y-67592853D01*
X105724418Y-67475769D01*
X105865269Y-67334918D01*
X105982353Y-67173766D01*
X106059515Y-67022327D01*
X106107490Y-66971531D01*
X106175311Y-66954736D01*
X106241446Y-66977273D01*
X106280485Y-67022327D01*
X106357647Y-67173766D01*
X106474731Y-67334918D01*
X106615582Y-67475769D01*
X106776734Y-67592853D01*
X106953304Y-67682820D01*
X106954219Y-67683286D01*
X107143657Y-67744838D01*
X107143658Y-67744838D01*
X107143661Y-67744839D01*
X107340403Y-67776000D01*
X107340404Y-67776000D01*
X107539596Y-67776000D01*
X107539597Y-67776000D01*
X107736339Y-67744839D01*
X107736342Y-67744838D01*
X107736343Y-67744838D01*
X107925780Y-67683286D01*
X107925780Y-67683285D01*
X107925783Y-67683285D01*
X108103266Y-67592853D01*
X108264418Y-67475769D01*
X108405269Y-67334918D01*
X108522353Y-67173766D01*
X108599515Y-67022327D01*
X108647490Y-66971531D01*
X108715311Y-66954736D01*
X108781446Y-66977273D01*
X108820485Y-67022327D01*
X108897647Y-67173766D01*
X109014731Y-67334918D01*
X109155582Y-67475769D01*
X109316734Y-67592853D01*
X109493304Y-67682820D01*
X109494219Y-67683286D01*
X109683657Y-67744838D01*
X109683658Y-67744838D01*
X109683661Y-67744839D01*
X109880403Y-67776000D01*
X109880404Y-67776000D01*
X110079596Y-67776000D01*
X110079597Y-67776000D01*
X110276339Y-67744839D01*
X110276342Y-67744838D01*
X110276343Y-67744838D01*
X110465780Y-67683286D01*
X110465780Y-67683285D01*
X110465783Y-67683285D01*
X110643266Y-67592853D01*
X110804418Y-67475769D01*
X110945269Y-67334918D01*
X111062353Y-67173766D01*
X111139515Y-67022327D01*
X111187490Y-66971531D01*
X111255311Y-66954736D01*
X111321446Y-66977273D01*
X111360485Y-67022327D01*
X111437647Y-67173766D01*
X111554731Y-67334918D01*
X111695582Y-67475769D01*
X111856734Y-67592853D01*
X112033304Y-67682820D01*
X112034219Y-67683286D01*
X112223657Y-67744838D01*
X112223658Y-67744838D01*
X112223661Y-67744839D01*
X112420403Y-67776000D01*
X112420404Y-67776000D01*
X112619596Y-67776000D01*
X112619597Y-67776000D01*
X112816339Y-67744839D01*
X112816342Y-67744838D01*
X112816343Y-67744838D01*
X113005780Y-67683286D01*
X113005780Y-67683285D01*
X113005783Y-67683285D01*
X113183266Y-67592853D01*
X113344418Y-67475769D01*
X113485269Y-67334918D01*
X113602353Y-67173766D01*
X113679515Y-67022327D01*
X113727490Y-66971531D01*
X113795311Y-66954736D01*
X113861446Y-66977273D01*
X113900485Y-67022327D01*
X113977647Y-67173766D01*
X114094731Y-67334918D01*
X114235582Y-67475769D01*
X114396734Y-67592853D01*
X114573304Y-67682820D01*
X114574219Y-67683286D01*
X114763657Y-67744838D01*
X114763658Y-67744838D01*
X114763661Y-67744839D01*
X114960403Y-67776000D01*
X114960404Y-67776000D01*
X115159596Y-67776000D01*
X115159597Y-67776000D01*
X115356339Y-67744839D01*
X115356342Y-67744838D01*
X115356343Y-67744838D01*
X115545780Y-67683286D01*
X115545780Y-67683285D01*
X115545783Y-67683285D01*
X115723266Y-67592853D01*
X115884418Y-67475769D01*
X116025269Y-67334918D01*
X116142353Y-67173766D01*
X116219515Y-67022327D01*
X116267490Y-66971531D01*
X116335311Y-66954736D01*
X116401446Y-66977273D01*
X116440485Y-67022327D01*
X116517647Y-67173766D01*
X116634731Y-67334918D01*
X116775582Y-67475769D01*
X116936734Y-67592853D01*
X117113304Y-67682820D01*
X117114219Y-67683286D01*
X117303657Y-67744838D01*
X117303658Y-67744838D01*
X117303661Y-67744839D01*
X117500403Y-67776000D01*
X117500404Y-67776000D01*
X117699596Y-67776000D01*
X117699597Y-67776000D01*
X117896339Y-67744839D01*
X117896342Y-67744838D01*
X117896343Y-67744838D01*
X118085780Y-67683286D01*
X118085780Y-67683285D01*
X118085783Y-67683285D01*
X118263266Y-67592853D01*
X118424418Y-67475769D01*
X118565269Y-67334918D01*
X118682353Y-67173766D01*
X118759515Y-67022327D01*
X118807490Y-66971531D01*
X118875311Y-66954736D01*
X118941446Y-66977273D01*
X118980485Y-67022327D01*
X119057647Y-67173766D01*
X119174731Y-67334918D01*
X119315582Y-67475769D01*
X119476734Y-67592853D01*
X119653304Y-67682820D01*
X119654219Y-67683286D01*
X119843657Y-67744838D01*
X119843658Y-67744838D01*
X119843661Y-67744839D01*
X120040403Y-67776000D01*
X120040404Y-67776000D01*
X120239596Y-67776000D01*
X120239597Y-67776000D01*
X120436339Y-67744839D01*
X120436342Y-67744838D01*
X120436343Y-67744838D01*
X120625780Y-67683286D01*
X120625780Y-67683285D01*
X120625783Y-67683285D01*
X120803266Y-67592853D01*
X120964418Y-67475769D01*
X121105269Y-67334918D01*
X121222353Y-67173766D01*
X121299515Y-67022327D01*
X121347490Y-66971531D01*
X121415311Y-66954736D01*
X121481446Y-66977273D01*
X121520485Y-67022327D01*
X121597647Y-67173766D01*
X121714731Y-67334918D01*
X121855582Y-67475769D01*
X122016734Y-67592853D01*
X122193304Y-67682820D01*
X122194219Y-67683286D01*
X122383657Y-67744838D01*
X122383658Y-67744838D01*
X122383661Y-67744839D01*
X122580403Y-67776000D01*
X122580404Y-67776000D01*
X122779596Y-67776000D01*
X122779597Y-67776000D01*
X122976339Y-67744839D01*
X122976342Y-67744838D01*
X122976343Y-67744838D01*
X123165780Y-67683286D01*
X123165780Y-67683285D01*
X123165783Y-67683285D01*
X123343266Y-67592853D01*
X123504418Y-67475769D01*
X123645269Y-67334918D01*
X123762353Y-67173766D01*
X123839515Y-67022327D01*
X123887490Y-66971531D01*
X123955311Y-66954736D01*
X124021446Y-66977273D01*
X124060485Y-67022327D01*
X124137647Y-67173766D01*
X124254731Y-67334918D01*
X124395582Y-67475769D01*
X124556734Y-67592853D01*
X124733304Y-67682820D01*
X124734219Y-67683286D01*
X124923657Y-67744838D01*
X124923658Y-67744838D01*
X124923661Y-67744839D01*
X125120403Y-67776000D01*
X125120404Y-67776000D01*
X125319596Y-67776000D01*
X125319597Y-67776000D01*
X125516339Y-67744839D01*
X125516342Y-67744838D01*
X125516343Y-67744838D01*
X125705780Y-67683286D01*
X125705780Y-67683285D01*
X125705783Y-67683285D01*
X125883266Y-67592853D01*
X126044418Y-67475769D01*
X126185269Y-67334918D01*
X126302353Y-67173766D01*
X126379515Y-67022327D01*
X126427490Y-66971531D01*
X126495311Y-66954736D01*
X126561446Y-66977273D01*
X126600485Y-67022327D01*
X126677647Y-67173766D01*
X126794731Y-67334918D01*
X126935582Y-67475769D01*
X127096734Y-67592853D01*
X127273304Y-67682820D01*
X127274219Y-67683286D01*
X127463657Y-67744838D01*
X127463658Y-67744838D01*
X127463661Y-67744839D01*
X127660403Y-67776000D01*
X127660404Y-67776000D01*
X127859596Y-67776000D01*
X127859597Y-67776000D01*
X128056339Y-67744839D01*
X128056342Y-67744838D01*
X128056343Y-67744838D01*
X128245780Y-67683286D01*
X128245780Y-67683285D01*
X128245783Y-67683285D01*
X128423266Y-67592853D01*
X128584418Y-67475769D01*
X128725269Y-67334918D01*
X128842353Y-67173766D01*
X128919515Y-67022327D01*
X128967490Y-66971531D01*
X129035311Y-66954736D01*
X129101446Y-66977273D01*
X129140485Y-67022327D01*
X129217647Y-67173766D01*
X129334731Y-67334918D01*
X129475582Y-67475769D01*
X129636734Y-67592853D01*
X129813304Y-67682820D01*
X129814219Y-67683286D01*
X130003657Y-67744838D01*
X130003658Y-67744838D01*
X130003661Y-67744839D01*
X130200403Y-67776000D01*
X130200404Y-67776000D01*
X130399596Y-67776000D01*
X130399597Y-67776000D01*
X130596339Y-67744839D01*
X130596342Y-67744838D01*
X130596343Y-67744838D01*
X130785780Y-67683286D01*
X130785780Y-67683285D01*
X130785783Y-67683285D01*
X130963266Y-67592853D01*
X131124418Y-67475769D01*
X131265269Y-67334918D01*
X131382353Y-67173766D01*
X131459515Y-67022327D01*
X131507490Y-66971531D01*
X131575311Y-66954736D01*
X131641446Y-66977273D01*
X131680485Y-67022327D01*
X131757647Y-67173766D01*
X131874731Y-67334918D01*
X132015582Y-67475769D01*
X132176734Y-67592853D01*
X132353304Y-67682820D01*
X132354219Y-67683286D01*
X132543657Y-67744838D01*
X132543658Y-67744838D01*
X132543661Y-67744839D01*
X132740403Y-67776000D01*
X132740404Y-67776000D01*
X132939596Y-67776000D01*
X132939597Y-67776000D01*
X133136339Y-67744839D01*
X133136342Y-67744838D01*
X133136343Y-67744838D01*
X133325780Y-67683286D01*
X133325780Y-67683285D01*
X133325783Y-67683285D01*
X133503266Y-67592853D01*
X133664418Y-67475769D01*
X133805269Y-67334918D01*
X133922353Y-67173766D01*
X133999515Y-67022327D01*
X134047490Y-66971531D01*
X134115311Y-66954736D01*
X134181446Y-66977273D01*
X134220485Y-67022327D01*
X134297647Y-67173766D01*
X134414731Y-67334918D01*
X134555582Y-67475769D01*
X134716734Y-67592853D01*
X134893304Y-67682820D01*
X134894219Y-67683286D01*
X135083657Y-67744838D01*
X135083658Y-67744838D01*
X135083661Y-67744839D01*
X135280403Y-67776000D01*
X135280404Y-67776000D01*
X135479596Y-67776000D01*
X135479597Y-67776000D01*
X135676339Y-67744839D01*
X135676342Y-67744838D01*
X135676343Y-67744838D01*
X135865780Y-67683286D01*
X135865780Y-67683285D01*
X135865783Y-67683285D01*
X136043266Y-67592853D01*
X136204418Y-67475769D01*
X136345269Y-67334918D01*
X136462353Y-67173766D01*
X136539515Y-67022327D01*
X136587490Y-66971531D01*
X136655311Y-66954736D01*
X136721446Y-66977273D01*
X136760485Y-67022327D01*
X136837647Y-67173766D01*
X136954731Y-67334918D01*
X137095582Y-67475769D01*
X137256734Y-67592853D01*
X137433304Y-67682820D01*
X137434219Y-67683286D01*
X137623657Y-67744838D01*
X137623658Y-67744838D01*
X137623661Y-67744839D01*
X137820403Y-67776000D01*
X137820404Y-67776000D01*
X138019596Y-67776000D01*
X138019597Y-67776000D01*
X138216339Y-67744839D01*
X138216342Y-67744838D01*
X138216343Y-67744838D01*
X138405780Y-67683286D01*
X138405780Y-67683285D01*
X138405783Y-67683285D01*
X138583266Y-67592853D01*
X138744418Y-67475769D01*
X138885269Y-67334918D01*
X139002353Y-67173766D01*
X139079515Y-67022327D01*
X139127490Y-66971531D01*
X139195311Y-66954736D01*
X139261446Y-66977273D01*
X139300485Y-67022327D01*
X139377647Y-67173766D01*
X139494731Y-67334918D01*
X139635582Y-67475769D01*
X139796734Y-67592853D01*
X139973304Y-67682820D01*
X139974219Y-67683286D01*
X140163657Y-67744838D01*
X140163658Y-67744838D01*
X140163661Y-67744839D01*
X140360403Y-67776000D01*
X140360404Y-67776000D01*
X140559596Y-67776000D01*
X140559597Y-67776000D01*
X140756339Y-67744839D01*
X140756342Y-67744838D01*
X140756343Y-67744838D01*
X140945780Y-67683286D01*
X140945780Y-67683285D01*
X140945783Y-67683285D01*
X141123266Y-67592853D01*
X141284418Y-67475769D01*
X141425269Y-67334918D01*
X141542353Y-67173766D01*
X141619795Y-67021776D01*
X141667769Y-66970981D01*
X141735590Y-66954186D01*
X141801725Y-66976723D01*
X141840765Y-67021777D01*
X141918077Y-67173508D01*
X141945580Y-67211363D01*
X141945581Y-67211364D01*
X142508871Y-66648074D01*
X142524755Y-66707353D01*
X142591898Y-66823647D01*
X142686853Y-66918602D01*
X142803147Y-66985745D01*
X142862425Y-67001628D01*
X142299134Y-67564917D01*
X142336994Y-67592424D01*
X142514405Y-67682820D01*
X142703777Y-67744352D01*
X142900437Y-67775500D01*
X143099563Y-67775500D01*
X143296222Y-67744352D01*
X143485594Y-67682820D01*
X143663005Y-67592424D01*
X143700863Y-67564918D01*
X143700863Y-67564917D01*
X143137574Y-67001628D01*
X143196853Y-66985745D01*
X143313147Y-66918602D01*
X143408102Y-66823647D01*
X143475245Y-66707353D01*
X143491128Y-66648074D01*
X144054417Y-67211363D01*
X144054418Y-67211363D01*
X144081924Y-67173505D01*
X144172320Y-66996094D01*
X144233852Y-66806722D01*
X144265000Y-66610063D01*
X144265000Y-66410936D01*
X144233852Y-66214277D01*
X144172320Y-66024905D01*
X144081924Y-65847494D01*
X144054417Y-65809635D01*
X144054417Y-65809634D01*
X143491128Y-66372924D01*
X143475245Y-66313647D01*
X143408102Y-66197353D01*
X143313147Y-66102398D01*
X143196853Y-66035255D01*
X143137574Y-66019371D01*
X143700864Y-65456081D01*
X143700863Y-65456080D01*
X143663008Y-65428577D01*
X143485594Y-65338179D01*
X143296222Y-65276647D01*
X143099563Y-65245500D01*
X142900437Y-65245500D01*
X142703777Y-65276647D01*
X142514405Y-65338179D01*
X142336990Y-65428577D01*
X142299135Y-65456080D01*
X142299135Y-65456081D01*
X142862425Y-66019371D01*
X142803147Y-66035255D01*
X142686853Y-66102398D01*
X142591898Y-66197353D01*
X142524755Y-66313647D01*
X142508871Y-66372925D01*
X141945581Y-65809635D01*
X141945580Y-65809635D01*
X141918075Y-65847493D01*
X141840764Y-65999223D01*
X141792790Y-66050018D01*
X141724969Y-66066813D01*
X141658834Y-66044275D01*
X141619795Y-65999222D01*
X141542486Y-65847496D01*
X141542353Y-65847234D01*
X141425269Y-65686082D01*
X141284418Y-65545231D01*
X141123266Y-65428147D01*
X140945780Y-65337713D01*
X140756342Y-65276161D01*
X140608782Y-65252790D01*
X140559597Y-65245000D01*
X140360403Y-65245000D01*
X140294822Y-65255387D01*
X140163659Y-65276161D01*
X140163656Y-65276161D01*
X139974219Y-65337713D01*
X139796733Y-65428147D01*
X139758286Y-65456081D01*
X139635582Y-65545231D01*
X139635580Y-65545233D01*
X139635579Y-65545233D01*
X139494733Y-65686079D01*
X139494733Y-65686080D01*
X139494731Y-65686082D01*
X139444447Y-65755290D01*
X139377647Y-65847233D01*
X139300485Y-65998672D01*
X139252510Y-66049468D01*
X139184689Y-66066263D01*
X139118554Y-66043725D01*
X139079515Y-65998672D01*
X139002486Y-65847496D01*
X139002353Y-65847234D01*
X138885269Y-65686082D01*
X138744418Y-65545231D01*
X138583266Y-65428147D01*
X138405780Y-65337713D01*
X138216342Y-65276161D01*
X138068782Y-65252790D01*
X138019597Y-65245000D01*
X137820403Y-65245000D01*
X137754822Y-65255387D01*
X137623659Y-65276161D01*
X137623656Y-65276161D01*
X137434219Y-65337713D01*
X137256733Y-65428147D01*
X137218286Y-65456081D01*
X137095582Y-65545231D01*
X137095580Y-65545233D01*
X137095579Y-65545233D01*
X136954733Y-65686079D01*
X136954733Y-65686080D01*
X136954731Y-65686082D01*
X136904447Y-65755290D01*
X136837647Y-65847233D01*
X136760485Y-65998672D01*
X136712510Y-66049468D01*
X136644689Y-66066263D01*
X136578554Y-66043725D01*
X136539515Y-65998672D01*
X136462486Y-65847496D01*
X136462353Y-65847234D01*
X136345269Y-65686082D01*
X136204418Y-65545231D01*
X136043266Y-65428147D01*
X135865780Y-65337713D01*
X135676342Y-65276161D01*
X135528782Y-65252790D01*
X135479597Y-65245000D01*
X135280403Y-65245000D01*
X135214822Y-65255387D01*
X135083659Y-65276161D01*
X135083656Y-65276161D01*
X134894219Y-65337713D01*
X134716733Y-65428147D01*
X134678286Y-65456081D01*
X134555582Y-65545231D01*
X134555580Y-65545233D01*
X134555579Y-65545233D01*
X134414733Y-65686079D01*
X134414733Y-65686080D01*
X134414731Y-65686082D01*
X134364447Y-65755290D01*
X134297647Y-65847233D01*
X134220485Y-65998672D01*
X134172510Y-66049468D01*
X134104689Y-66066263D01*
X134038554Y-66043725D01*
X133999515Y-65998672D01*
X133922486Y-65847496D01*
X133922353Y-65847234D01*
X133805269Y-65686082D01*
X133664418Y-65545231D01*
X133503266Y-65428147D01*
X133325780Y-65337713D01*
X133136342Y-65276161D01*
X132988782Y-65252790D01*
X132939597Y-65245000D01*
X132740403Y-65245000D01*
X132674822Y-65255387D01*
X132543659Y-65276161D01*
X132543656Y-65276161D01*
X132354219Y-65337713D01*
X132176733Y-65428147D01*
X132138286Y-65456081D01*
X132015582Y-65545231D01*
X132015580Y-65545233D01*
X132015579Y-65545233D01*
X131874733Y-65686079D01*
X131874733Y-65686080D01*
X131874731Y-65686082D01*
X131824447Y-65755290D01*
X131757647Y-65847233D01*
X131680485Y-65998672D01*
X131632510Y-66049468D01*
X131564689Y-66066263D01*
X131498554Y-66043725D01*
X131459515Y-65998672D01*
X131382486Y-65847496D01*
X131382353Y-65847234D01*
X131265269Y-65686082D01*
X131124418Y-65545231D01*
X130963266Y-65428147D01*
X130785780Y-65337713D01*
X130596342Y-65276161D01*
X130448782Y-65252790D01*
X130399597Y-65245000D01*
X130200403Y-65245000D01*
X130134822Y-65255387D01*
X130003659Y-65276161D01*
X130003656Y-65276161D01*
X129814219Y-65337713D01*
X129636733Y-65428147D01*
X129598286Y-65456081D01*
X129475582Y-65545231D01*
X129475580Y-65545233D01*
X129475579Y-65545233D01*
X129334733Y-65686079D01*
X129334733Y-65686080D01*
X129334731Y-65686082D01*
X129284447Y-65755290D01*
X129217647Y-65847233D01*
X129140485Y-65998672D01*
X129092510Y-66049468D01*
X129024689Y-66066263D01*
X128958554Y-66043725D01*
X128919515Y-65998672D01*
X128842486Y-65847496D01*
X128842353Y-65847234D01*
X128725269Y-65686082D01*
X128584418Y-65545231D01*
X128423266Y-65428147D01*
X128245780Y-65337713D01*
X128056342Y-65276161D01*
X127908782Y-65252790D01*
X127859597Y-65245000D01*
X127660403Y-65245000D01*
X127594822Y-65255387D01*
X127463659Y-65276161D01*
X127463656Y-65276161D01*
X127274219Y-65337713D01*
X127096733Y-65428147D01*
X127058286Y-65456081D01*
X126935582Y-65545231D01*
X126935580Y-65545233D01*
X126935579Y-65545233D01*
X126794733Y-65686079D01*
X126794733Y-65686080D01*
X126794731Y-65686082D01*
X126744447Y-65755290D01*
X126677647Y-65847233D01*
X126600485Y-65998672D01*
X126552510Y-66049468D01*
X126484689Y-66066263D01*
X126418554Y-66043725D01*
X126379515Y-65998672D01*
X126302486Y-65847496D01*
X126302353Y-65847234D01*
X126185269Y-65686082D01*
X126044418Y-65545231D01*
X125883266Y-65428147D01*
X125705780Y-65337713D01*
X125516342Y-65276161D01*
X125368782Y-65252790D01*
X125319597Y-65245000D01*
X125120403Y-65245000D01*
X125054822Y-65255387D01*
X124923659Y-65276161D01*
X124923656Y-65276161D01*
X124734219Y-65337713D01*
X124556733Y-65428147D01*
X124518286Y-65456081D01*
X124395582Y-65545231D01*
X124395580Y-65545233D01*
X124395579Y-65545233D01*
X124254733Y-65686079D01*
X124254733Y-65686080D01*
X124254731Y-65686082D01*
X124204447Y-65755290D01*
X124137647Y-65847233D01*
X124060485Y-65998672D01*
X124012510Y-66049468D01*
X123944689Y-66066263D01*
X123878554Y-66043725D01*
X123839515Y-65998672D01*
X123762486Y-65847496D01*
X123762353Y-65847234D01*
X123645269Y-65686082D01*
X123504418Y-65545231D01*
X123343266Y-65428147D01*
X123165780Y-65337713D01*
X122976342Y-65276161D01*
X122828782Y-65252790D01*
X122779597Y-65245000D01*
X122580403Y-65245000D01*
X122514822Y-65255387D01*
X122383659Y-65276161D01*
X122383656Y-65276161D01*
X122194219Y-65337713D01*
X122016733Y-65428147D01*
X121978286Y-65456081D01*
X121855582Y-65545231D01*
X121855580Y-65545233D01*
X121855579Y-65545233D01*
X121714733Y-65686079D01*
X121714733Y-65686080D01*
X121714731Y-65686082D01*
X121664447Y-65755290D01*
X121597647Y-65847233D01*
X121520485Y-65998672D01*
X121472510Y-66049468D01*
X121404689Y-66066263D01*
X121338554Y-66043725D01*
X121299515Y-65998672D01*
X121222486Y-65847496D01*
X121222353Y-65847234D01*
X121105269Y-65686082D01*
X120964418Y-65545231D01*
X120803266Y-65428147D01*
X120625780Y-65337713D01*
X120436342Y-65276161D01*
X120288782Y-65252790D01*
X120239597Y-65245000D01*
X120040403Y-65245000D01*
X119974822Y-65255387D01*
X119843659Y-65276161D01*
X119843656Y-65276161D01*
X119654219Y-65337713D01*
X119476733Y-65428147D01*
X119438286Y-65456081D01*
X119315582Y-65545231D01*
X119315580Y-65545233D01*
X119315579Y-65545233D01*
X119174733Y-65686079D01*
X119174733Y-65686080D01*
X119174731Y-65686082D01*
X119124447Y-65755290D01*
X119057647Y-65847233D01*
X118980485Y-65998672D01*
X118932510Y-66049468D01*
X118864689Y-66066263D01*
X118798554Y-66043725D01*
X118759515Y-65998672D01*
X118682486Y-65847496D01*
X118682353Y-65847234D01*
X118565269Y-65686082D01*
X118424418Y-65545231D01*
X118263266Y-65428147D01*
X118085780Y-65337713D01*
X117896342Y-65276161D01*
X117748782Y-65252790D01*
X117699597Y-65245000D01*
X117500403Y-65245000D01*
X117434822Y-65255387D01*
X117303659Y-65276161D01*
X117303656Y-65276161D01*
X117114219Y-65337713D01*
X116936733Y-65428147D01*
X116898286Y-65456081D01*
X116775582Y-65545231D01*
X116775580Y-65545233D01*
X116775579Y-65545233D01*
X116634733Y-65686079D01*
X116634733Y-65686080D01*
X116634731Y-65686082D01*
X116584447Y-65755290D01*
X116517647Y-65847233D01*
X116440485Y-65998672D01*
X116392510Y-66049468D01*
X116324689Y-66066263D01*
X116258554Y-66043725D01*
X116219515Y-65998672D01*
X116142486Y-65847496D01*
X116142353Y-65847234D01*
X116025269Y-65686082D01*
X115884418Y-65545231D01*
X115723266Y-65428147D01*
X115545780Y-65337713D01*
X115356342Y-65276161D01*
X115208782Y-65252790D01*
X115159597Y-65245000D01*
X114960403Y-65245000D01*
X114894822Y-65255387D01*
X114763659Y-65276161D01*
X114763656Y-65276161D01*
X114574219Y-65337713D01*
X114396733Y-65428147D01*
X114358286Y-65456081D01*
X114235582Y-65545231D01*
X114235580Y-65545233D01*
X114235579Y-65545233D01*
X114094733Y-65686079D01*
X114094733Y-65686080D01*
X114094731Y-65686082D01*
X114044447Y-65755290D01*
X113977647Y-65847233D01*
X113900485Y-65998672D01*
X113852510Y-66049468D01*
X113784689Y-66066263D01*
X113718554Y-66043725D01*
X113679515Y-65998672D01*
X113602486Y-65847496D01*
X113602353Y-65847234D01*
X113485269Y-65686082D01*
X113344418Y-65545231D01*
X113183266Y-65428147D01*
X113005780Y-65337713D01*
X112816342Y-65276161D01*
X112668782Y-65252790D01*
X112619597Y-65245000D01*
X112420403Y-65245000D01*
X112354822Y-65255387D01*
X112223659Y-65276161D01*
X112223656Y-65276161D01*
X112034219Y-65337713D01*
X111856733Y-65428147D01*
X111818286Y-65456081D01*
X111695582Y-65545231D01*
X111695580Y-65545233D01*
X111695579Y-65545233D01*
X111554733Y-65686079D01*
X111554733Y-65686080D01*
X111554731Y-65686082D01*
X111504447Y-65755290D01*
X111437647Y-65847233D01*
X111360485Y-65998672D01*
X111312510Y-66049468D01*
X111244689Y-66066263D01*
X111178554Y-66043725D01*
X111139515Y-65998672D01*
X111062486Y-65847496D01*
X111062353Y-65847234D01*
X110945269Y-65686082D01*
X110804418Y-65545231D01*
X110643266Y-65428147D01*
X110465780Y-65337713D01*
X110276342Y-65276161D01*
X110128782Y-65252790D01*
X110079597Y-65245000D01*
X109880403Y-65245000D01*
X109814822Y-65255387D01*
X109683659Y-65276161D01*
X109683656Y-65276161D01*
X109494219Y-65337713D01*
X109316733Y-65428147D01*
X109278286Y-65456081D01*
X109155582Y-65545231D01*
X109155580Y-65545233D01*
X109155579Y-65545233D01*
X109014733Y-65686079D01*
X109014733Y-65686080D01*
X109014731Y-65686082D01*
X108964447Y-65755290D01*
X108897647Y-65847233D01*
X108820485Y-65998672D01*
X108772510Y-66049468D01*
X108704689Y-66066263D01*
X108638554Y-66043725D01*
X108599515Y-65998672D01*
X108522486Y-65847496D01*
X108522353Y-65847234D01*
X108405269Y-65686082D01*
X108264418Y-65545231D01*
X108103266Y-65428147D01*
X107925780Y-65337713D01*
X107736342Y-65276161D01*
X107588782Y-65252790D01*
X107539597Y-65245000D01*
X107340403Y-65245000D01*
X107274822Y-65255387D01*
X107143659Y-65276161D01*
X107143656Y-65276161D01*
X106954219Y-65337713D01*
X106776733Y-65428147D01*
X106738286Y-65456081D01*
X106615582Y-65545231D01*
X106615580Y-65545233D01*
X106615579Y-65545233D01*
X106474733Y-65686079D01*
X106474733Y-65686080D01*
X106474731Y-65686082D01*
X106424447Y-65755290D01*
X106357647Y-65847233D01*
X106280485Y-65998672D01*
X106232510Y-66049468D01*
X106164689Y-66066263D01*
X106098554Y-66043725D01*
X106059515Y-65998672D01*
X105982486Y-65847496D01*
X105982353Y-65847234D01*
X105865269Y-65686082D01*
X105724418Y-65545231D01*
X105563266Y-65428147D01*
X105385780Y-65337713D01*
X105196342Y-65276161D01*
X105048782Y-65252790D01*
X104999597Y-65245000D01*
X104800403Y-65245000D01*
X104734822Y-65255387D01*
X104603659Y-65276161D01*
X104603656Y-65276161D01*
X104414219Y-65337713D01*
X104236733Y-65428147D01*
X104198286Y-65456081D01*
X104075582Y-65545231D01*
X104075580Y-65545233D01*
X104075579Y-65545233D01*
X103934733Y-65686079D01*
X103934733Y-65686080D01*
X103934731Y-65686082D01*
X103884447Y-65755290D01*
X103817647Y-65847233D01*
X103740485Y-65998672D01*
X103692510Y-66049468D01*
X103624689Y-66066263D01*
X103558554Y-66043725D01*
X103519515Y-65998672D01*
X103442486Y-65847496D01*
X103442353Y-65847234D01*
X103325269Y-65686082D01*
X103184418Y-65545231D01*
X103023266Y-65428147D01*
X102845780Y-65337713D01*
X102656342Y-65276161D01*
X102508782Y-65252790D01*
X102459597Y-65245000D01*
X102260403Y-65245000D01*
X102194822Y-65255387D01*
X102063659Y-65276161D01*
X102063656Y-65276161D01*
X101874219Y-65337713D01*
X101696733Y-65428147D01*
X101658286Y-65456081D01*
X101535582Y-65545231D01*
X101535580Y-65545233D01*
X101535579Y-65545233D01*
X101394733Y-65686079D01*
X101394733Y-65686080D01*
X101394731Y-65686082D01*
X101344447Y-65755290D01*
X101277647Y-65847233D01*
X101200485Y-65998672D01*
X101152510Y-66049468D01*
X101084689Y-66066263D01*
X101018554Y-66043725D01*
X100979515Y-65998672D01*
X100902486Y-65847496D01*
X100902353Y-65847234D01*
X100785269Y-65686082D01*
X100644418Y-65545231D01*
X100483266Y-65428147D01*
X100305780Y-65337713D01*
X100116342Y-65276161D01*
X99968782Y-65252790D01*
X99919597Y-65245000D01*
X99720403Y-65245000D01*
X99654822Y-65255387D01*
X99523659Y-65276161D01*
X99523656Y-65276161D01*
X99334219Y-65337713D01*
X99156733Y-65428147D01*
X99118286Y-65456081D01*
X98995582Y-65545231D01*
X98995580Y-65545233D01*
X98995579Y-65545233D01*
X98854733Y-65686079D01*
X98854733Y-65686080D01*
X98854731Y-65686082D01*
X98804447Y-65755290D01*
X98737647Y-65847233D01*
X98660485Y-65998672D01*
X98612510Y-66049468D01*
X98544689Y-66066263D01*
X98478554Y-66043725D01*
X98439515Y-65998672D01*
X98362486Y-65847496D01*
X98362353Y-65847234D01*
X98245269Y-65686082D01*
X98104418Y-65545231D01*
X97943266Y-65428147D01*
X97765780Y-65337713D01*
X97576342Y-65276161D01*
X97428782Y-65252790D01*
X97379597Y-65245000D01*
X97180403Y-65245000D01*
X97114822Y-65255387D01*
X96983659Y-65276161D01*
X96983656Y-65276161D01*
X96794219Y-65337713D01*
X96616733Y-65428147D01*
X96578286Y-65456081D01*
X96455582Y-65545231D01*
X96455580Y-65545233D01*
X96455579Y-65545233D01*
X96314733Y-65686079D01*
X96314733Y-65686080D01*
X96314731Y-65686082D01*
X96264447Y-65755290D01*
X96197647Y-65847233D01*
X96120485Y-65998672D01*
X96072510Y-66049468D01*
X96004689Y-66066263D01*
X95938554Y-66043725D01*
X95899515Y-65998672D01*
X95822486Y-65847496D01*
X95822353Y-65847234D01*
X95705269Y-65686082D01*
X95564418Y-65545231D01*
X95403266Y-65428147D01*
X95225780Y-65337713D01*
X95036342Y-65276161D01*
X94888782Y-65252790D01*
X94839597Y-65245000D01*
X94640403Y-65245000D01*
X94574822Y-65255387D01*
X94443659Y-65276161D01*
X94443656Y-65276161D01*
X94254219Y-65337713D01*
X94076733Y-65428147D01*
X94038286Y-65456081D01*
X93915582Y-65545231D01*
X93915580Y-65545233D01*
X93915579Y-65545233D01*
X93774733Y-65686079D01*
X93774733Y-65686080D01*
X93774731Y-65686082D01*
X93739555Y-65734497D01*
X93657645Y-65847235D01*
X93580203Y-65999223D01*
X93532229Y-66050018D01*
X93464408Y-66066813D01*
X93398273Y-66044275D01*
X93359234Y-65999222D01*
X93281924Y-65847494D01*
X93254417Y-65809635D01*
X93254417Y-65809634D01*
X92691128Y-66372924D01*
X92675245Y-66313647D01*
X92608102Y-66197353D01*
X92513147Y-66102398D01*
X92396853Y-66035255D01*
X92337574Y-66019371D01*
X92900864Y-65456081D01*
X92900863Y-65456080D01*
X92863008Y-65428577D01*
X92685594Y-65338179D01*
X92496222Y-65276647D01*
X92299563Y-65245500D01*
X92100437Y-65245500D01*
X91903777Y-65276647D01*
X91714405Y-65338179D01*
X91536990Y-65428577D01*
X91499135Y-65456080D01*
X91499135Y-65456081D01*
X92062425Y-66019371D01*
X92003147Y-66035255D01*
X91886853Y-66102398D01*
X91791898Y-66197353D01*
X91724755Y-66313647D01*
X91708871Y-66372925D01*
X91145581Y-65809635D01*
X91145580Y-65809635D01*
X91118074Y-65847495D01*
X91118073Y-65847496D01*
X91040484Y-65999772D01*
X90992510Y-66050568D01*
X90924689Y-66067363D01*
X90858554Y-66044825D01*
X90819516Y-65999772D01*
X90741928Y-65847499D01*
X90714417Y-65809635D01*
X90714417Y-65809634D01*
X90151128Y-66372924D01*
X90135245Y-66313647D01*
X90068102Y-66197353D01*
X89973147Y-66102398D01*
X89856853Y-66035255D01*
X89797574Y-66019371D01*
X90360864Y-65456081D01*
X90360863Y-65456080D01*
X90323008Y-65428577D01*
X90145594Y-65338179D01*
X89956222Y-65276647D01*
X89759563Y-65245500D01*
X89560437Y-65245500D01*
X89363777Y-65276647D01*
X89174405Y-65338179D01*
X88996990Y-65428577D01*
X88959135Y-65456080D01*
X88959135Y-65456081D01*
X89522425Y-66019371D01*
X89463147Y-66035255D01*
X89346853Y-66102398D01*
X89251898Y-66197353D01*
X89184755Y-66313647D01*
X89168871Y-66372925D01*
X88605581Y-65809635D01*
X88605580Y-65809635D01*
X88578077Y-65847490D01*
X88487679Y-66024905D01*
X88426147Y-66214277D01*
X88395000Y-66410936D01*
X19050000Y-66410936D01*
X19050000Y-61415441D01*
X29677000Y-61415441D01*
X29677000Y-61724558D01*
X29717346Y-62031001D01*
X29717348Y-62031012D01*
X29797347Y-62329577D01*
X29915634Y-62615147D01*
X29915638Y-62615157D01*
X30070187Y-62882844D01*
X30199751Y-63051694D01*
X30919728Y-62331716D01*
X31005278Y-62449466D01*
X31155534Y-62599722D01*
X31273281Y-62685270D01*
X30553304Y-63405247D01*
X30722159Y-63534815D01*
X30989842Y-63689361D01*
X30989852Y-63689365D01*
X31275422Y-63807652D01*
X31573987Y-63887651D01*
X31573998Y-63887653D01*
X31880441Y-63927999D01*
X31880456Y-63928000D01*
X32189544Y-63928000D01*
X32189558Y-63927999D01*
X32496001Y-63887653D01*
X32496012Y-63887651D01*
X32794577Y-63807652D01*
X33080147Y-63689365D01*
X33080156Y-63689361D01*
X33347845Y-63534811D01*
X33516694Y-63405247D01*
X32796717Y-62685270D01*
X32914466Y-62599722D01*
X33064722Y-62449466D01*
X33150270Y-62331717D01*
X33870247Y-63051694D01*
X33999811Y-62882845D01*
X34154361Y-62615156D01*
X34154365Y-62615147D01*
X34272652Y-62329577D01*
X34352651Y-62031012D01*
X34352653Y-62031001D01*
X34392999Y-61724558D01*
X34393000Y-61724544D01*
X34393000Y-61415455D01*
X34392999Y-61415441D01*
X34352653Y-61108998D01*
X34352651Y-61108987D01*
X34272652Y-60810422D01*
X34154365Y-60524852D01*
X34154361Y-60524842D01*
X34086196Y-60406776D01*
X34053213Y-60349648D01*
X54071500Y-60349648D01*
X54071500Y-60554351D01*
X54103522Y-60756534D01*
X54166781Y-60951223D01*
X54259715Y-61133613D01*
X54380028Y-61299213D01*
X54524786Y-61443971D01*
X54679749Y-61556556D01*
X54690390Y-61564287D01*
X54806607Y-61623503D01*
X54872776Y-61657218D01*
X54872778Y-61657218D01*
X54872781Y-61657220D01*
X54977137Y-61691127D01*
X55067465Y-61720477D01*
X55168557Y-61736488D01*
X55269648Y-61752500D01*
X55269649Y-61752500D01*
X55474351Y-61752500D01*
X55474352Y-61752500D01*
X55676534Y-61720477D01*
X55871219Y-61657220D01*
X56053610Y-61564287D01*
X56146590Y-61496732D01*
X56219213Y-61443971D01*
X56219215Y-61443968D01*
X56219219Y-61443966D01*
X56363966Y-61299219D01*
X56363968Y-61299215D01*
X56363971Y-61299213D01*
X56484284Y-61133614D01*
X56484285Y-61133613D01*
X56484287Y-61133610D01*
X56531516Y-61040917D01*
X56579489Y-60990123D01*
X56647310Y-60973328D01*
X56713445Y-60995865D01*
X56752483Y-61040917D01*
X56787167Y-61108987D01*
X56799715Y-61133614D01*
X56920028Y-61299213D01*
X57064786Y-61443971D01*
X57219749Y-61556556D01*
X57230390Y-61564287D01*
X57346607Y-61623503D01*
X57412776Y-61657218D01*
X57412778Y-61657218D01*
X57412781Y-61657220D01*
X57517137Y-61691127D01*
X57607465Y-61720477D01*
X57708557Y-61736488D01*
X57809648Y-61752500D01*
X57809649Y-61752500D01*
X58014351Y-61752500D01*
X58014352Y-61752500D01*
X58216534Y-61720477D01*
X58411219Y-61657220D01*
X58593610Y-61564287D01*
X58686590Y-61496732D01*
X58759213Y-61443971D01*
X58759215Y-61443968D01*
X58759219Y-61443966D01*
X58903966Y-61299219D01*
X58903968Y-61299215D01*
X58903971Y-61299213D01*
X58964104Y-61216446D01*
X59024287Y-61133610D01*
X59117220Y-60951219D01*
X59180477Y-60756534D01*
X59212500Y-60554352D01*
X59212500Y-60349648D01*
X64739500Y-60349648D01*
X64739500Y-60554351D01*
X64771522Y-60756534D01*
X64834781Y-60951223D01*
X64927715Y-61133613D01*
X65048028Y-61299213D01*
X65192786Y-61443971D01*
X65347749Y-61556556D01*
X65358390Y-61564287D01*
X65474607Y-61623503D01*
X65540776Y-61657218D01*
X65540778Y-61657218D01*
X65540781Y-61657220D01*
X65645137Y-61691127D01*
X65735465Y-61720477D01*
X65836557Y-61736488D01*
X65937648Y-61752500D01*
X65937649Y-61752500D01*
X66142351Y-61752500D01*
X66142352Y-61752500D01*
X66344534Y-61720477D01*
X66539219Y-61657220D01*
X66721610Y-61564287D01*
X66814590Y-61496732D01*
X66887213Y-61443971D01*
X66887215Y-61443968D01*
X66887219Y-61443966D01*
X67031966Y-61299219D01*
X67031968Y-61299215D01*
X67031971Y-61299213D01*
X67152284Y-61133614D01*
X67152285Y-61133613D01*
X67152287Y-61133610D01*
X67199795Y-61040369D01*
X67247770Y-60989574D01*
X67315591Y-60972779D01*
X67381725Y-60995316D01*
X67420765Y-61040370D01*
X67468140Y-61133349D01*
X67588417Y-61298894D01*
X67588417Y-61298895D01*
X67733104Y-61443582D01*
X67898650Y-61563859D01*
X68080968Y-61656754D01*
X68275578Y-61719988D01*
X68330000Y-61728607D01*
X68330000Y-60767686D01*
X68334394Y-60772080D01*
X68425606Y-60824741D01*
X68527339Y-60852000D01*
X68632661Y-60852000D01*
X68734394Y-60824741D01*
X68825606Y-60772080D01*
X68830000Y-60767686D01*
X68830000Y-61728606D01*
X68884421Y-61719988D01*
X69079031Y-61656754D01*
X69261349Y-61563859D01*
X69426894Y-61443582D01*
X69426895Y-61443582D01*
X69571582Y-61298895D01*
X69571582Y-61298894D01*
X69691859Y-61133349D01*
X69784755Y-60951029D01*
X69847990Y-60756413D01*
X69856609Y-60702000D01*
X68895686Y-60702000D01*
X68900080Y-60697606D01*
X68952741Y-60606394D01*
X68980000Y-60504661D01*
X68980000Y-60399339D01*
X68952741Y-60297606D01*
X68900080Y-60206394D01*
X68895686Y-60202000D01*
X69856609Y-60202000D01*
X69847990Y-60147586D01*
X69784755Y-59952970D01*
X69691859Y-59770650D01*
X69571582Y-59605105D01*
X69571582Y-59605104D01*
X69426895Y-59460417D01*
X69261349Y-59340140D01*
X69079029Y-59247244D01*
X68884413Y-59184009D01*
X68830000Y-59175390D01*
X68830000Y-60136314D01*
X68825606Y-60131920D01*
X68734394Y-60079259D01*
X68632661Y-60052000D01*
X68527339Y-60052000D01*
X68425606Y-60079259D01*
X68334394Y-60131920D01*
X68330000Y-60136314D01*
X68330000Y-59175390D01*
X68275586Y-59184009D01*
X68080970Y-59247244D01*
X67898650Y-59340140D01*
X67733105Y-59460417D01*
X67733104Y-59460417D01*
X67588417Y-59605104D01*
X67588417Y-59605105D01*
X67468140Y-59770650D01*
X67420765Y-59863629D01*
X67372790Y-59914425D01*
X67304969Y-59931220D01*
X67238834Y-59908682D01*
X67199795Y-59863629D01*
X67152419Y-59770650D01*
X67152287Y-59770390D01*
X67126393Y-59734750D01*
X67031971Y-59604786D01*
X66887213Y-59460028D01*
X66721613Y-59339715D01*
X66721612Y-59339714D01*
X66721610Y-59339713D01*
X66664653Y-59310691D01*
X66539223Y-59246781D01*
X66344534Y-59183522D01*
X66169995Y-59155878D01*
X66142352Y-59151500D01*
X65937648Y-59151500D01*
X65913329Y-59155351D01*
X65735465Y-59183522D01*
X65540776Y-59246781D01*
X65358386Y-59339715D01*
X65192786Y-59460028D01*
X65048028Y-59604786D01*
X64927715Y-59770386D01*
X64834781Y-59952776D01*
X64771522Y-60147465D01*
X64739500Y-60349648D01*
X59212500Y-60349648D01*
X59197231Y-60253242D01*
X59180477Y-60147465D01*
X59117218Y-59952776D01*
X59024419Y-59770650D01*
X59024287Y-59770390D01*
X58998393Y-59734750D01*
X58903971Y-59604786D01*
X58759213Y-59460028D01*
X58593613Y-59339715D01*
X58593612Y-59339714D01*
X58593610Y-59339713D01*
X58536653Y-59310691D01*
X58411223Y-59246781D01*
X58216534Y-59183522D01*
X58041995Y-59155878D01*
X58014352Y-59151500D01*
X57809648Y-59151500D01*
X57785329Y-59155351D01*
X57607465Y-59183522D01*
X57412776Y-59246781D01*
X57230386Y-59339715D01*
X57064786Y-59460028D01*
X56920028Y-59604786D01*
X56799715Y-59770386D01*
X56752485Y-59863080D01*
X56704510Y-59913876D01*
X56636689Y-59930671D01*
X56570554Y-59908134D01*
X56531515Y-59863080D01*
X56484419Y-59770650D01*
X56484287Y-59770390D01*
X56458393Y-59734750D01*
X56363971Y-59604786D01*
X56219213Y-59460028D01*
X56053613Y-59339715D01*
X56053612Y-59339714D01*
X56053610Y-59339713D01*
X55996653Y-59310691D01*
X55871223Y-59246781D01*
X55676534Y-59183522D01*
X55501995Y-59155878D01*
X55474352Y-59151500D01*
X55269648Y-59151500D01*
X55245329Y-59155351D01*
X55067465Y-59183522D01*
X54872776Y-59246781D01*
X54690386Y-59339715D01*
X54524786Y-59460028D01*
X54380028Y-59604786D01*
X54259715Y-59770386D01*
X54166781Y-59952776D01*
X54103522Y-60147465D01*
X54071500Y-60349648D01*
X34053213Y-60349648D01*
X33999815Y-60257160D01*
X33870247Y-60088304D01*
X33150270Y-60808281D01*
X33064722Y-60690534D01*
X32914466Y-60540278D01*
X32796716Y-60454728D01*
X33516694Y-59734751D01*
X33516694Y-59734750D01*
X33347844Y-59605187D01*
X33080157Y-59450638D01*
X33080147Y-59450634D01*
X32794577Y-59332347D01*
X32496012Y-59252348D01*
X32496001Y-59252346D01*
X32189558Y-59212000D01*
X31880441Y-59212000D01*
X31573998Y-59252346D01*
X31573987Y-59252348D01*
X31275422Y-59332347D01*
X30989852Y-59450634D01*
X30989842Y-59450638D01*
X30722155Y-59605187D01*
X30553304Y-59734750D01*
X30553304Y-59734751D01*
X31273282Y-60454729D01*
X31155534Y-60540278D01*
X31005278Y-60690534D01*
X30919729Y-60808282D01*
X30199751Y-60088304D01*
X30199750Y-60088304D01*
X30070187Y-60257155D01*
X29915638Y-60524842D01*
X29915634Y-60524852D01*
X29797347Y-60810422D01*
X29717348Y-61108987D01*
X29717346Y-61108998D01*
X29677000Y-61415441D01*
X19050000Y-61415441D01*
X19050000Y-58329448D01*
X24234500Y-58329448D01*
X24234500Y-58510551D01*
X24262829Y-58689410D01*
X24318787Y-58861636D01*
X24318788Y-58861639D01*
X24401006Y-59022997D01*
X24507441Y-59169494D01*
X24507445Y-59169499D01*
X24635500Y-59297554D01*
X24635505Y-59297558D01*
X24693530Y-59339715D01*
X24782006Y-59403996D01*
X24887484Y-59457740D01*
X24943360Y-59486211D01*
X24943363Y-59486212D01*
X25029476Y-59514191D01*
X25115591Y-59542171D01*
X25198429Y-59555291D01*
X25294449Y-59570500D01*
X25294454Y-59570500D01*
X26775551Y-59570500D01*
X26862259Y-59556765D01*
X26954409Y-59542171D01*
X27126639Y-59486211D01*
X27287994Y-59403996D01*
X27434501Y-59297553D01*
X27562553Y-59169501D01*
X27668996Y-59022994D01*
X27751211Y-58861639D01*
X27807171Y-58689409D01*
X27821765Y-58597259D01*
X27835500Y-58510551D01*
X27835500Y-58329448D01*
X27819019Y-58225397D01*
X27807171Y-58150591D01*
X27751211Y-57978361D01*
X27751211Y-57978360D01*
X27722740Y-57922484D01*
X27668996Y-57817006D01*
X27655396Y-57798287D01*
X27562558Y-57670505D01*
X27562554Y-57670500D01*
X27434499Y-57542445D01*
X27434494Y-57542441D01*
X27287997Y-57436006D01*
X27287996Y-57436005D01*
X27287994Y-57436004D01*
X27236300Y-57409664D01*
X27126639Y-57353788D01*
X27126636Y-57353787D01*
X26954410Y-57297829D01*
X26775551Y-57269500D01*
X26775546Y-57269500D01*
X25294454Y-57269500D01*
X25294449Y-57269500D01*
X25115589Y-57297829D01*
X24943363Y-57353787D01*
X24943360Y-57353788D01*
X24782002Y-57436006D01*
X24635505Y-57542441D01*
X24635500Y-57542445D01*
X24507445Y-57670500D01*
X24507441Y-57670505D01*
X24401006Y-57817002D01*
X24318788Y-57978360D01*
X24318787Y-57978363D01*
X24262829Y-58150589D01*
X24234500Y-58329448D01*
X19050000Y-58329448D01*
X19050000Y-43724448D01*
X24234500Y-43724448D01*
X24234500Y-43905551D01*
X24262829Y-44084410D01*
X24318787Y-44256636D01*
X24318788Y-44256639D01*
X24401006Y-44417997D01*
X24507441Y-44564494D01*
X24507445Y-44564499D01*
X24635500Y-44692554D01*
X24635505Y-44692558D01*
X24690377Y-44732424D01*
X24782006Y-44798996D01*
X24887484Y-44852740D01*
X24943360Y-44881211D01*
X24943363Y-44881212D01*
X25029476Y-44909191D01*
X25115591Y-44937171D01*
X25198429Y-44950291D01*
X25294449Y-44965500D01*
X25294454Y-44965500D01*
X26775551Y-44965500D01*
X26862259Y-44951765D01*
X26954409Y-44937171D01*
X27126639Y-44881211D01*
X27287994Y-44798996D01*
X27434501Y-44692553D01*
X27562553Y-44564501D01*
X27668996Y-44417994D01*
X27751211Y-44256639D01*
X27807171Y-44084409D01*
X27828960Y-43946839D01*
X27835500Y-43905551D01*
X27835500Y-43724449D01*
X27818082Y-43614485D01*
X27808018Y-43550936D01*
X88395000Y-43550936D01*
X88395000Y-43750063D01*
X88426147Y-43946722D01*
X88487679Y-44136094D01*
X88578077Y-44313508D01*
X88605580Y-44351363D01*
X88605581Y-44351364D01*
X89168871Y-43788074D01*
X89184755Y-43847353D01*
X89251898Y-43963647D01*
X89346853Y-44058602D01*
X89463147Y-44125745D01*
X89522425Y-44141628D01*
X88959134Y-44704917D01*
X88996994Y-44732424D01*
X89174405Y-44822820D01*
X89363777Y-44884352D01*
X89560437Y-44915500D01*
X89759563Y-44915500D01*
X89956222Y-44884352D01*
X90145594Y-44822820D01*
X90323005Y-44732424D01*
X90360863Y-44704918D01*
X90360863Y-44704917D01*
X89797574Y-44141628D01*
X89856853Y-44125745D01*
X89973147Y-44058602D01*
X90068102Y-43963647D01*
X90135245Y-43847353D01*
X90151128Y-43788074D01*
X90714417Y-44351363D01*
X90714418Y-44351363D01*
X90741924Y-44313505D01*
X90819234Y-44161777D01*
X90867208Y-44110981D01*
X90935029Y-44094186D01*
X91001164Y-44116723D01*
X91040204Y-44161777D01*
X91088538Y-44256636D01*
X91117647Y-44313766D01*
X91234731Y-44474918D01*
X91375582Y-44615769D01*
X91536734Y-44732853D01*
X91666541Y-44798993D01*
X91714219Y-44823286D01*
X91903657Y-44884838D01*
X91903658Y-44884838D01*
X91903661Y-44884839D01*
X92100403Y-44916000D01*
X92100404Y-44916000D01*
X92299596Y-44916000D01*
X92299597Y-44916000D01*
X92496339Y-44884839D01*
X92496342Y-44884838D01*
X92496343Y-44884838D01*
X92685780Y-44823286D01*
X92685780Y-44823285D01*
X92685783Y-44823285D01*
X92863266Y-44732853D01*
X93024418Y-44615769D01*
X93165269Y-44474918D01*
X93282353Y-44313766D01*
X93359515Y-44162327D01*
X93407490Y-44111531D01*
X93475311Y-44094736D01*
X93541446Y-44117273D01*
X93580485Y-44162327D01*
X93657647Y-44313766D01*
X93774731Y-44474918D01*
X93915582Y-44615769D01*
X94076734Y-44732853D01*
X94206541Y-44798993D01*
X94254219Y-44823286D01*
X94443657Y-44884838D01*
X94443658Y-44884838D01*
X94443661Y-44884839D01*
X94640403Y-44916000D01*
X94640404Y-44916000D01*
X94839596Y-44916000D01*
X94839597Y-44916000D01*
X95036339Y-44884839D01*
X95036342Y-44884838D01*
X95036343Y-44884838D01*
X95225780Y-44823286D01*
X95225780Y-44823285D01*
X95225783Y-44823285D01*
X95403266Y-44732853D01*
X95564418Y-44615769D01*
X95705269Y-44474918D01*
X95822353Y-44313766D01*
X95899515Y-44162327D01*
X95947490Y-44111531D01*
X96015311Y-44094736D01*
X96081446Y-44117273D01*
X96120485Y-44162327D01*
X96197647Y-44313766D01*
X96314731Y-44474918D01*
X96455582Y-44615769D01*
X96616734Y-44732853D01*
X96746541Y-44798993D01*
X96794219Y-44823286D01*
X96983657Y-44884838D01*
X96983658Y-44884838D01*
X96983661Y-44884839D01*
X97180403Y-44916000D01*
X97180404Y-44916000D01*
X97379596Y-44916000D01*
X97379597Y-44916000D01*
X97576339Y-44884839D01*
X97576342Y-44884838D01*
X97576343Y-44884838D01*
X97765780Y-44823286D01*
X97765780Y-44823285D01*
X97765783Y-44823285D01*
X97943266Y-44732853D01*
X98104418Y-44615769D01*
X98245269Y-44474918D01*
X98362353Y-44313766D01*
X98439515Y-44162327D01*
X98487490Y-44111531D01*
X98555311Y-44094736D01*
X98621446Y-44117273D01*
X98660485Y-44162327D01*
X98737647Y-44313766D01*
X98854731Y-44474918D01*
X98995582Y-44615769D01*
X99156734Y-44732853D01*
X99286541Y-44798993D01*
X99334219Y-44823286D01*
X99523657Y-44884838D01*
X99523658Y-44884838D01*
X99523661Y-44884839D01*
X99720403Y-44916000D01*
X99720404Y-44916000D01*
X99919596Y-44916000D01*
X99919597Y-44916000D01*
X100116339Y-44884839D01*
X100116342Y-44884838D01*
X100116343Y-44884838D01*
X100305780Y-44823286D01*
X100305780Y-44823285D01*
X100305783Y-44823285D01*
X100483266Y-44732853D01*
X100644418Y-44615769D01*
X100785269Y-44474918D01*
X100902353Y-44313766D01*
X100979515Y-44162327D01*
X101027490Y-44111531D01*
X101095311Y-44094736D01*
X101161446Y-44117273D01*
X101200485Y-44162327D01*
X101277647Y-44313766D01*
X101394731Y-44474918D01*
X101535582Y-44615769D01*
X101696734Y-44732853D01*
X101826541Y-44798993D01*
X101874219Y-44823286D01*
X102063657Y-44884838D01*
X102063658Y-44884838D01*
X102063661Y-44884839D01*
X102260403Y-44916000D01*
X102260404Y-44916000D01*
X102459596Y-44916000D01*
X102459597Y-44916000D01*
X102656339Y-44884839D01*
X102656342Y-44884838D01*
X102656343Y-44884838D01*
X102845780Y-44823286D01*
X102845780Y-44823285D01*
X102845783Y-44823285D01*
X103023266Y-44732853D01*
X103184418Y-44615769D01*
X103325269Y-44474918D01*
X103442353Y-44313766D01*
X103519515Y-44162327D01*
X103567490Y-44111531D01*
X103635311Y-44094736D01*
X103701446Y-44117273D01*
X103740485Y-44162327D01*
X103817647Y-44313766D01*
X103934731Y-44474918D01*
X104075582Y-44615769D01*
X104236734Y-44732853D01*
X104366541Y-44798993D01*
X104414219Y-44823286D01*
X104603657Y-44884838D01*
X104603658Y-44884838D01*
X104603661Y-44884839D01*
X104800403Y-44916000D01*
X104800404Y-44916000D01*
X104999596Y-44916000D01*
X104999597Y-44916000D01*
X105196339Y-44884839D01*
X105196342Y-44884838D01*
X105196343Y-44884838D01*
X105385780Y-44823286D01*
X105385780Y-44823285D01*
X105385783Y-44823285D01*
X105563266Y-44732853D01*
X105724418Y-44615769D01*
X105865269Y-44474918D01*
X105982353Y-44313766D01*
X106059515Y-44162327D01*
X106107490Y-44111531D01*
X106175311Y-44094736D01*
X106241446Y-44117273D01*
X106280485Y-44162327D01*
X106357647Y-44313766D01*
X106474731Y-44474918D01*
X106615582Y-44615769D01*
X106776734Y-44732853D01*
X106906541Y-44798993D01*
X106954219Y-44823286D01*
X107143657Y-44884838D01*
X107143658Y-44884838D01*
X107143661Y-44884839D01*
X107340403Y-44916000D01*
X107340404Y-44916000D01*
X107539596Y-44916000D01*
X107539597Y-44916000D01*
X107736339Y-44884839D01*
X107736342Y-44884838D01*
X107736343Y-44884838D01*
X107925780Y-44823286D01*
X107925780Y-44823285D01*
X107925783Y-44823285D01*
X108103266Y-44732853D01*
X108264418Y-44615769D01*
X108405269Y-44474918D01*
X108522353Y-44313766D01*
X108599515Y-44162327D01*
X108647490Y-44111531D01*
X108715311Y-44094736D01*
X108781446Y-44117273D01*
X108820485Y-44162327D01*
X108897647Y-44313766D01*
X109014731Y-44474918D01*
X109155582Y-44615769D01*
X109316734Y-44732853D01*
X109446541Y-44798993D01*
X109494219Y-44823286D01*
X109683657Y-44884838D01*
X109683658Y-44884838D01*
X109683661Y-44884839D01*
X109880403Y-44916000D01*
X109880404Y-44916000D01*
X110079596Y-44916000D01*
X110079597Y-44916000D01*
X110276339Y-44884839D01*
X110276342Y-44884838D01*
X110276343Y-44884838D01*
X110465780Y-44823286D01*
X110465780Y-44823285D01*
X110465783Y-44823285D01*
X110643266Y-44732853D01*
X110804418Y-44615769D01*
X110945269Y-44474918D01*
X111062353Y-44313766D01*
X111139515Y-44162327D01*
X111187490Y-44111531D01*
X111255311Y-44094736D01*
X111321446Y-44117273D01*
X111360485Y-44162327D01*
X111437647Y-44313766D01*
X111554731Y-44474918D01*
X111695582Y-44615769D01*
X111856734Y-44732853D01*
X111986541Y-44798993D01*
X112034219Y-44823286D01*
X112223657Y-44884838D01*
X112223658Y-44884838D01*
X112223661Y-44884839D01*
X112420403Y-44916000D01*
X112420404Y-44916000D01*
X112619596Y-44916000D01*
X112619597Y-44916000D01*
X112816339Y-44884839D01*
X112816342Y-44884838D01*
X112816343Y-44884838D01*
X113005780Y-44823286D01*
X113005780Y-44823285D01*
X113005783Y-44823285D01*
X113183266Y-44732853D01*
X113344418Y-44615769D01*
X113485269Y-44474918D01*
X113602353Y-44313766D01*
X113679515Y-44162327D01*
X113727490Y-44111531D01*
X113795311Y-44094736D01*
X113861446Y-44117273D01*
X113900485Y-44162327D01*
X113977647Y-44313766D01*
X114094731Y-44474918D01*
X114235582Y-44615769D01*
X114396734Y-44732853D01*
X114526541Y-44798993D01*
X114574219Y-44823286D01*
X114763657Y-44884838D01*
X114763658Y-44884838D01*
X114763661Y-44884839D01*
X114960403Y-44916000D01*
X114960404Y-44916000D01*
X115159596Y-44916000D01*
X115159597Y-44916000D01*
X115356339Y-44884839D01*
X115356342Y-44884838D01*
X115356343Y-44884838D01*
X115545780Y-44823286D01*
X115545780Y-44823285D01*
X115545783Y-44823285D01*
X115723266Y-44732853D01*
X115884418Y-44615769D01*
X116025269Y-44474918D01*
X116142353Y-44313766D01*
X116219515Y-44162327D01*
X116267490Y-44111531D01*
X116335311Y-44094736D01*
X116401446Y-44117273D01*
X116440485Y-44162327D01*
X116517647Y-44313766D01*
X116634731Y-44474918D01*
X116775582Y-44615769D01*
X116936734Y-44732853D01*
X117066541Y-44798993D01*
X117114219Y-44823286D01*
X117303657Y-44884838D01*
X117303658Y-44884838D01*
X117303661Y-44884839D01*
X117500403Y-44916000D01*
X117500404Y-44916000D01*
X117699596Y-44916000D01*
X117699597Y-44916000D01*
X117896339Y-44884839D01*
X117896342Y-44884838D01*
X117896343Y-44884838D01*
X118085780Y-44823286D01*
X118085780Y-44823285D01*
X118085783Y-44823285D01*
X118263266Y-44732853D01*
X118424418Y-44615769D01*
X118565269Y-44474918D01*
X118682353Y-44313766D01*
X118759515Y-44162327D01*
X118807490Y-44111531D01*
X118875311Y-44094736D01*
X118941446Y-44117273D01*
X118980485Y-44162327D01*
X119057647Y-44313766D01*
X119174731Y-44474918D01*
X119315582Y-44615769D01*
X119476734Y-44732853D01*
X119606541Y-44798993D01*
X119654219Y-44823286D01*
X119843657Y-44884838D01*
X119843658Y-44884838D01*
X119843661Y-44884839D01*
X120040403Y-44916000D01*
X120040404Y-44916000D01*
X120239596Y-44916000D01*
X120239597Y-44916000D01*
X120436339Y-44884839D01*
X120436342Y-44884838D01*
X120436343Y-44884838D01*
X120625780Y-44823286D01*
X120625780Y-44823285D01*
X120625783Y-44823285D01*
X120803266Y-44732853D01*
X120964418Y-44615769D01*
X121105269Y-44474918D01*
X121222353Y-44313766D01*
X121299515Y-44162327D01*
X121347490Y-44111531D01*
X121415311Y-44094736D01*
X121481446Y-44117273D01*
X121520485Y-44162327D01*
X121597647Y-44313766D01*
X121714731Y-44474918D01*
X121855582Y-44615769D01*
X122016734Y-44732853D01*
X122146541Y-44798993D01*
X122194219Y-44823286D01*
X122383657Y-44884838D01*
X122383658Y-44884838D01*
X122383661Y-44884839D01*
X122580403Y-44916000D01*
X122580404Y-44916000D01*
X122779596Y-44916000D01*
X122779597Y-44916000D01*
X122976339Y-44884839D01*
X122976342Y-44884838D01*
X122976343Y-44884838D01*
X123165780Y-44823286D01*
X123165780Y-44823285D01*
X123165783Y-44823285D01*
X123343266Y-44732853D01*
X123504418Y-44615769D01*
X123645269Y-44474918D01*
X123762353Y-44313766D01*
X123839515Y-44162327D01*
X123887490Y-44111531D01*
X123955311Y-44094736D01*
X124021446Y-44117273D01*
X124060485Y-44162327D01*
X124137647Y-44313766D01*
X124254731Y-44474918D01*
X124395582Y-44615769D01*
X124556734Y-44732853D01*
X124686541Y-44798993D01*
X124734219Y-44823286D01*
X124923657Y-44884838D01*
X124923658Y-44884838D01*
X124923661Y-44884839D01*
X125120403Y-44916000D01*
X125120404Y-44916000D01*
X125319596Y-44916000D01*
X125319597Y-44916000D01*
X125516339Y-44884839D01*
X125516342Y-44884838D01*
X125516343Y-44884838D01*
X125705780Y-44823286D01*
X125705780Y-44823285D01*
X125705783Y-44823285D01*
X125883266Y-44732853D01*
X126044418Y-44615769D01*
X126185269Y-44474918D01*
X126302353Y-44313766D01*
X126379515Y-44162327D01*
X126427490Y-44111531D01*
X126495311Y-44094736D01*
X126561446Y-44117273D01*
X126600485Y-44162327D01*
X126677647Y-44313766D01*
X126794731Y-44474918D01*
X126935582Y-44615769D01*
X127096734Y-44732853D01*
X127226541Y-44798993D01*
X127274219Y-44823286D01*
X127463657Y-44884838D01*
X127463658Y-44884838D01*
X127463661Y-44884839D01*
X127660403Y-44916000D01*
X127660404Y-44916000D01*
X127859596Y-44916000D01*
X127859597Y-44916000D01*
X128056339Y-44884839D01*
X128056342Y-44884838D01*
X128056343Y-44884838D01*
X128245780Y-44823286D01*
X128245780Y-44823285D01*
X128245783Y-44823285D01*
X128423266Y-44732853D01*
X128584418Y-44615769D01*
X128725269Y-44474918D01*
X128842353Y-44313766D01*
X128919515Y-44162327D01*
X128967490Y-44111531D01*
X129035311Y-44094736D01*
X129101446Y-44117273D01*
X129140485Y-44162327D01*
X129217647Y-44313766D01*
X129334731Y-44474918D01*
X129475582Y-44615769D01*
X129636734Y-44732853D01*
X129766541Y-44798993D01*
X129814219Y-44823286D01*
X130003657Y-44884838D01*
X130003658Y-44884838D01*
X130003661Y-44884839D01*
X130200403Y-44916000D01*
X130200404Y-44916000D01*
X130399596Y-44916000D01*
X130399597Y-44916000D01*
X130596339Y-44884839D01*
X130596342Y-44884838D01*
X130596343Y-44884838D01*
X130785780Y-44823286D01*
X130785780Y-44823285D01*
X130785783Y-44823285D01*
X130963266Y-44732853D01*
X131124418Y-44615769D01*
X131265269Y-44474918D01*
X131382353Y-44313766D01*
X131459515Y-44162327D01*
X131507490Y-44111531D01*
X131575311Y-44094736D01*
X131641446Y-44117273D01*
X131680485Y-44162327D01*
X131757647Y-44313766D01*
X131874731Y-44474918D01*
X132015582Y-44615769D01*
X132176734Y-44732853D01*
X132306541Y-44798993D01*
X132354219Y-44823286D01*
X132543657Y-44884838D01*
X132543658Y-44884838D01*
X132543661Y-44884839D01*
X132740403Y-44916000D01*
X132740404Y-44916000D01*
X132939596Y-44916000D01*
X132939597Y-44916000D01*
X133136339Y-44884839D01*
X133136342Y-44884838D01*
X133136343Y-44884838D01*
X133325780Y-44823286D01*
X133325780Y-44823285D01*
X133325783Y-44823285D01*
X133503266Y-44732853D01*
X133664418Y-44615769D01*
X133805269Y-44474918D01*
X133922353Y-44313766D01*
X133999515Y-44162327D01*
X134047490Y-44111531D01*
X134115311Y-44094736D01*
X134181446Y-44117273D01*
X134220485Y-44162327D01*
X134297647Y-44313766D01*
X134414731Y-44474918D01*
X134555582Y-44615769D01*
X134716734Y-44732853D01*
X134846541Y-44798993D01*
X134894219Y-44823286D01*
X135083657Y-44884838D01*
X135083658Y-44884838D01*
X135083661Y-44884839D01*
X135280403Y-44916000D01*
X135280404Y-44916000D01*
X135479596Y-44916000D01*
X135479597Y-44916000D01*
X135676339Y-44884839D01*
X135676342Y-44884838D01*
X135676343Y-44884838D01*
X135865780Y-44823286D01*
X135865780Y-44823285D01*
X135865783Y-44823285D01*
X136043266Y-44732853D01*
X136204418Y-44615769D01*
X136345269Y-44474918D01*
X136462353Y-44313766D01*
X136539515Y-44162327D01*
X136587490Y-44111531D01*
X136655311Y-44094736D01*
X136721446Y-44117273D01*
X136760485Y-44162327D01*
X136837647Y-44313766D01*
X136954731Y-44474918D01*
X137095582Y-44615769D01*
X137256734Y-44732853D01*
X137386541Y-44798993D01*
X137434219Y-44823286D01*
X137623657Y-44884838D01*
X137623658Y-44884838D01*
X137623661Y-44884839D01*
X137820403Y-44916000D01*
X137820404Y-44916000D01*
X138019596Y-44916000D01*
X138019597Y-44916000D01*
X138216339Y-44884839D01*
X138216342Y-44884838D01*
X138216343Y-44884838D01*
X138405780Y-44823286D01*
X138405780Y-44823285D01*
X138405783Y-44823285D01*
X138583266Y-44732853D01*
X138744418Y-44615769D01*
X138885269Y-44474918D01*
X139002353Y-44313766D01*
X139079515Y-44162327D01*
X139127490Y-44111531D01*
X139195311Y-44094736D01*
X139261446Y-44117273D01*
X139300485Y-44162327D01*
X139377647Y-44313766D01*
X139494731Y-44474918D01*
X139635582Y-44615769D01*
X139796734Y-44732853D01*
X139926541Y-44798993D01*
X139974219Y-44823286D01*
X140163657Y-44884838D01*
X140163658Y-44884838D01*
X140163661Y-44884839D01*
X140360403Y-44916000D01*
X140360404Y-44916000D01*
X140559596Y-44916000D01*
X140559597Y-44916000D01*
X140756339Y-44884839D01*
X140756342Y-44884838D01*
X140756343Y-44884838D01*
X140945780Y-44823286D01*
X140945780Y-44823285D01*
X140945783Y-44823285D01*
X141123266Y-44732853D01*
X141284418Y-44615769D01*
X141425269Y-44474918D01*
X141510184Y-44358042D01*
X141565511Y-44315378D01*
X141635125Y-44309399D01*
X141696920Y-44342004D01*
X141731277Y-44402843D01*
X141734500Y-44430926D01*
X141734500Y-44463368D01*
X141734501Y-44463376D01*
X141740908Y-44522983D01*
X141791202Y-44657828D01*
X141791206Y-44657835D01*
X141877452Y-44773044D01*
X141877455Y-44773047D01*
X141992664Y-44859293D01*
X141992671Y-44859297D01*
X142127517Y-44909591D01*
X142127516Y-44909591D01*
X142134444Y-44910335D01*
X142187127Y-44916000D01*
X143812872Y-44915999D01*
X143872483Y-44909591D01*
X144007331Y-44859296D01*
X144122546Y-44773046D01*
X144208796Y-44657831D01*
X144259091Y-44522983D01*
X144265500Y-44463373D01*
X144265499Y-42837628D01*
X144259091Y-42778017D01*
X144254359Y-42765331D01*
X144208797Y-42643171D01*
X144208793Y-42643164D01*
X144122547Y-42527955D01*
X144122544Y-42527952D01*
X144007335Y-42441706D01*
X144007328Y-42441702D01*
X143872482Y-42391408D01*
X143872483Y-42391408D01*
X143812883Y-42385001D01*
X143812881Y-42385000D01*
X143812873Y-42385000D01*
X143812864Y-42385000D01*
X142187129Y-42385000D01*
X142187123Y-42385001D01*
X142127516Y-42391408D01*
X141992671Y-42441702D01*
X141992664Y-42441706D01*
X141877455Y-42527952D01*
X141877452Y-42527955D01*
X141791206Y-42643164D01*
X141791202Y-42643171D01*
X141740908Y-42778017D01*
X141735741Y-42826080D01*
X141734501Y-42837623D01*
X141734500Y-42837635D01*
X141734500Y-42870068D01*
X141714815Y-42937107D01*
X141662011Y-42982862D01*
X141592853Y-42992806D01*
X141529297Y-42963781D01*
X141510182Y-42942954D01*
X141457227Y-42870068D01*
X141425269Y-42826082D01*
X141284418Y-42685231D01*
X141123266Y-42568147D01*
X141044379Y-42527952D01*
X140945780Y-42477713D01*
X140756342Y-42416161D01*
X140608782Y-42392790D01*
X140559597Y-42385000D01*
X140360403Y-42385000D01*
X140294822Y-42395387D01*
X140163659Y-42416161D01*
X140163656Y-42416161D01*
X139974219Y-42477713D01*
X139796733Y-42568147D01*
X139758286Y-42596081D01*
X139635582Y-42685231D01*
X139635580Y-42685233D01*
X139635579Y-42685233D01*
X139494733Y-42826079D01*
X139494733Y-42826080D01*
X139494731Y-42826082D01*
X139462773Y-42870068D01*
X139377647Y-42987233D01*
X139300485Y-43138672D01*
X139252510Y-43189468D01*
X139184689Y-43206263D01*
X139118554Y-43183725D01*
X139079515Y-43138672D01*
X139002483Y-42987490D01*
X139002353Y-42987234D01*
X138885269Y-42826082D01*
X138744418Y-42685231D01*
X138583266Y-42568147D01*
X138504379Y-42527952D01*
X138405780Y-42477713D01*
X138216342Y-42416161D01*
X138068782Y-42392790D01*
X138019597Y-42385000D01*
X137820403Y-42385000D01*
X137754822Y-42395387D01*
X137623659Y-42416161D01*
X137623656Y-42416161D01*
X137434219Y-42477713D01*
X137256733Y-42568147D01*
X137218286Y-42596081D01*
X137095582Y-42685231D01*
X137095580Y-42685233D01*
X137095579Y-42685233D01*
X136954733Y-42826079D01*
X136954733Y-42826080D01*
X136954731Y-42826082D01*
X136922773Y-42870068D01*
X136837647Y-42987233D01*
X136760485Y-43138672D01*
X136712510Y-43189468D01*
X136644689Y-43206263D01*
X136578554Y-43183725D01*
X136539515Y-43138672D01*
X136462483Y-42987490D01*
X136462353Y-42987234D01*
X136345269Y-42826082D01*
X136204418Y-42685231D01*
X136043266Y-42568147D01*
X135964379Y-42527952D01*
X135865780Y-42477713D01*
X135676342Y-42416161D01*
X135528782Y-42392790D01*
X135479597Y-42385000D01*
X135280403Y-42385000D01*
X135214822Y-42395387D01*
X135083659Y-42416161D01*
X135083656Y-42416161D01*
X134894219Y-42477713D01*
X134716733Y-42568147D01*
X134678286Y-42596081D01*
X134555582Y-42685231D01*
X134555580Y-42685233D01*
X134555579Y-42685233D01*
X134414733Y-42826079D01*
X134414733Y-42826080D01*
X134414731Y-42826082D01*
X134382773Y-42870068D01*
X134297647Y-42987233D01*
X134220485Y-43138672D01*
X134172510Y-43189468D01*
X134104689Y-43206263D01*
X134038554Y-43183725D01*
X133999515Y-43138672D01*
X133922483Y-42987490D01*
X133922353Y-42987234D01*
X133805269Y-42826082D01*
X133664418Y-42685231D01*
X133503266Y-42568147D01*
X133424379Y-42527952D01*
X133325780Y-42477713D01*
X133136342Y-42416161D01*
X132988782Y-42392790D01*
X132939597Y-42385000D01*
X132740403Y-42385000D01*
X132674822Y-42395387D01*
X132543659Y-42416161D01*
X132543656Y-42416161D01*
X132354219Y-42477713D01*
X132176733Y-42568147D01*
X132138286Y-42596081D01*
X132015582Y-42685231D01*
X132015580Y-42685233D01*
X132015579Y-42685233D01*
X131874733Y-42826079D01*
X131874733Y-42826080D01*
X131874731Y-42826082D01*
X131842773Y-42870068D01*
X131757647Y-42987233D01*
X131680485Y-43138672D01*
X131632510Y-43189468D01*
X131564689Y-43206263D01*
X131498554Y-43183725D01*
X131459515Y-43138672D01*
X131382483Y-42987490D01*
X131382353Y-42987234D01*
X131265269Y-42826082D01*
X131124418Y-42685231D01*
X130963266Y-42568147D01*
X130884379Y-42527952D01*
X130785780Y-42477713D01*
X130596342Y-42416161D01*
X130448782Y-42392790D01*
X130399597Y-42385000D01*
X130200403Y-42385000D01*
X130134822Y-42395387D01*
X130003659Y-42416161D01*
X130003656Y-42416161D01*
X129814219Y-42477713D01*
X129636733Y-42568147D01*
X129598286Y-42596081D01*
X129475582Y-42685231D01*
X129475580Y-42685233D01*
X129475579Y-42685233D01*
X129334733Y-42826079D01*
X129334733Y-42826080D01*
X129334731Y-42826082D01*
X129302773Y-42870068D01*
X129217647Y-42987233D01*
X129140485Y-43138672D01*
X129092510Y-43189468D01*
X129024689Y-43206263D01*
X128958554Y-43183725D01*
X128919515Y-43138672D01*
X128842483Y-42987490D01*
X128842353Y-42987234D01*
X128725269Y-42826082D01*
X128584418Y-42685231D01*
X128423266Y-42568147D01*
X128344379Y-42527952D01*
X128245780Y-42477713D01*
X128056342Y-42416161D01*
X127908782Y-42392790D01*
X127859597Y-42385000D01*
X127660403Y-42385000D01*
X127594822Y-42395387D01*
X127463659Y-42416161D01*
X127463656Y-42416161D01*
X127274219Y-42477713D01*
X127096733Y-42568147D01*
X127058286Y-42596081D01*
X126935582Y-42685231D01*
X126935580Y-42685233D01*
X126935579Y-42685233D01*
X126794733Y-42826079D01*
X126794733Y-42826080D01*
X126794731Y-42826082D01*
X126762773Y-42870068D01*
X126677647Y-42987233D01*
X126600485Y-43138672D01*
X126552510Y-43189468D01*
X126484689Y-43206263D01*
X126418554Y-43183725D01*
X126379515Y-43138672D01*
X126302483Y-42987490D01*
X126302353Y-42987234D01*
X126185269Y-42826082D01*
X126044418Y-42685231D01*
X125883266Y-42568147D01*
X125804379Y-42527952D01*
X125705780Y-42477713D01*
X125516342Y-42416161D01*
X125368782Y-42392790D01*
X125319597Y-42385000D01*
X125120403Y-42385000D01*
X125054822Y-42395387D01*
X124923659Y-42416161D01*
X124923656Y-42416161D01*
X124734219Y-42477713D01*
X124556733Y-42568147D01*
X124518286Y-42596081D01*
X124395582Y-42685231D01*
X124395580Y-42685233D01*
X124395579Y-42685233D01*
X124254733Y-42826079D01*
X124254733Y-42826080D01*
X124254731Y-42826082D01*
X124222773Y-42870068D01*
X124137647Y-42987233D01*
X124060485Y-43138672D01*
X124012510Y-43189468D01*
X123944689Y-43206263D01*
X123878554Y-43183725D01*
X123839515Y-43138672D01*
X123762483Y-42987490D01*
X123762353Y-42987234D01*
X123645269Y-42826082D01*
X123504418Y-42685231D01*
X123343266Y-42568147D01*
X123264379Y-42527952D01*
X123165780Y-42477713D01*
X122976342Y-42416161D01*
X122828782Y-42392790D01*
X122779597Y-42385000D01*
X122580403Y-42385000D01*
X122514822Y-42395387D01*
X122383659Y-42416161D01*
X122383656Y-42416161D01*
X122194219Y-42477713D01*
X122016733Y-42568147D01*
X121978286Y-42596081D01*
X121855582Y-42685231D01*
X121855580Y-42685233D01*
X121855579Y-42685233D01*
X121714733Y-42826079D01*
X121714733Y-42826080D01*
X121714731Y-42826082D01*
X121682773Y-42870068D01*
X121597647Y-42987233D01*
X121520485Y-43138672D01*
X121472510Y-43189468D01*
X121404689Y-43206263D01*
X121338554Y-43183725D01*
X121299515Y-43138672D01*
X121222483Y-42987490D01*
X121222353Y-42987234D01*
X121105269Y-42826082D01*
X120964418Y-42685231D01*
X120803266Y-42568147D01*
X120724379Y-42527952D01*
X120625780Y-42477713D01*
X120436342Y-42416161D01*
X120288782Y-42392790D01*
X120239597Y-42385000D01*
X120040403Y-42385000D01*
X119974822Y-42395387D01*
X119843659Y-42416161D01*
X119843656Y-42416161D01*
X119654219Y-42477713D01*
X119476733Y-42568147D01*
X119438286Y-42596081D01*
X119315582Y-42685231D01*
X119315580Y-42685233D01*
X119315579Y-42685233D01*
X119174733Y-42826079D01*
X119174733Y-42826080D01*
X119174731Y-42826082D01*
X119142773Y-42870068D01*
X119057647Y-42987233D01*
X118980485Y-43138672D01*
X118932510Y-43189468D01*
X118864689Y-43206263D01*
X118798554Y-43183725D01*
X118759515Y-43138672D01*
X118682483Y-42987490D01*
X118682353Y-42987234D01*
X118565269Y-42826082D01*
X118424418Y-42685231D01*
X118263266Y-42568147D01*
X118184379Y-42527952D01*
X118085780Y-42477713D01*
X117896342Y-42416161D01*
X117748782Y-42392790D01*
X117699597Y-42385000D01*
X117500403Y-42385000D01*
X117434822Y-42395387D01*
X117303659Y-42416161D01*
X117303656Y-42416161D01*
X117114219Y-42477713D01*
X116936733Y-42568147D01*
X116898286Y-42596081D01*
X116775582Y-42685231D01*
X116775580Y-42685233D01*
X116775579Y-42685233D01*
X116634733Y-42826079D01*
X116634733Y-42826080D01*
X116634731Y-42826082D01*
X116602773Y-42870068D01*
X116517647Y-42987233D01*
X116440485Y-43138672D01*
X116392510Y-43189468D01*
X116324689Y-43206263D01*
X116258554Y-43183725D01*
X116219515Y-43138672D01*
X116142483Y-42987490D01*
X116142353Y-42987234D01*
X116025269Y-42826082D01*
X115884418Y-42685231D01*
X115723266Y-42568147D01*
X115644379Y-42527952D01*
X115545780Y-42477713D01*
X115356342Y-42416161D01*
X115208782Y-42392790D01*
X115159597Y-42385000D01*
X114960403Y-42385000D01*
X114894822Y-42395387D01*
X114763659Y-42416161D01*
X114763656Y-42416161D01*
X114574219Y-42477713D01*
X114396733Y-42568147D01*
X114358286Y-42596081D01*
X114235582Y-42685231D01*
X114235580Y-42685233D01*
X114235579Y-42685233D01*
X114094733Y-42826079D01*
X114094733Y-42826080D01*
X114094731Y-42826082D01*
X114062773Y-42870068D01*
X113977647Y-42987233D01*
X113900485Y-43138672D01*
X113852510Y-43189468D01*
X113784689Y-43206263D01*
X113718554Y-43183725D01*
X113679515Y-43138672D01*
X113602483Y-42987490D01*
X113602353Y-42987234D01*
X113485269Y-42826082D01*
X113344418Y-42685231D01*
X113183266Y-42568147D01*
X113104379Y-42527952D01*
X113005780Y-42477713D01*
X112816342Y-42416161D01*
X112668782Y-42392790D01*
X112619597Y-42385000D01*
X112420403Y-42385000D01*
X112354822Y-42395387D01*
X112223659Y-42416161D01*
X112223656Y-42416161D01*
X112034219Y-42477713D01*
X111856733Y-42568147D01*
X111818286Y-42596081D01*
X111695582Y-42685231D01*
X111695580Y-42685233D01*
X111695579Y-42685233D01*
X111554733Y-42826079D01*
X111554733Y-42826080D01*
X111554731Y-42826082D01*
X111522773Y-42870068D01*
X111437647Y-42987233D01*
X111360485Y-43138672D01*
X111312510Y-43189468D01*
X111244689Y-43206263D01*
X111178554Y-43183725D01*
X111139515Y-43138672D01*
X111062483Y-42987490D01*
X111062353Y-42987234D01*
X110945269Y-42826082D01*
X110804418Y-42685231D01*
X110643266Y-42568147D01*
X110564379Y-42527952D01*
X110465780Y-42477713D01*
X110276342Y-42416161D01*
X110128782Y-42392790D01*
X110079597Y-42385000D01*
X109880403Y-42385000D01*
X109814822Y-42395387D01*
X109683659Y-42416161D01*
X109683656Y-42416161D01*
X109494219Y-42477713D01*
X109316733Y-42568147D01*
X109278286Y-42596081D01*
X109155582Y-42685231D01*
X109155580Y-42685233D01*
X109155579Y-42685233D01*
X109014733Y-42826079D01*
X109014733Y-42826080D01*
X109014731Y-42826082D01*
X108982773Y-42870068D01*
X108897647Y-42987233D01*
X108820485Y-43138672D01*
X108772510Y-43189468D01*
X108704689Y-43206263D01*
X108638554Y-43183725D01*
X108599515Y-43138672D01*
X108522483Y-42987490D01*
X108522353Y-42987234D01*
X108405269Y-42826082D01*
X108264418Y-42685231D01*
X108103266Y-42568147D01*
X108024379Y-42527952D01*
X107925780Y-42477713D01*
X107736342Y-42416161D01*
X107588782Y-42392790D01*
X107539597Y-42385000D01*
X107340403Y-42385000D01*
X107274822Y-42395387D01*
X107143659Y-42416161D01*
X107143656Y-42416161D01*
X106954219Y-42477713D01*
X106776733Y-42568147D01*
X106738286Y-42596081D01*
X106615582Y-42685231D01*
X106615580Y-42685233D01*
X106615579Y-42685233D01*
X106474733Y-42826079D01*
X106474733Y-42826080D01*
X106474731Y-42826082D01*
X106442773Y-42870068D01*
X106357647Y-42987233D01*
X106280485Y-43138672D01*
X106232510Y-43189468D01*
X106164689Y-43206263D01*
X106098554Y-43183725D01*
X106059515Y-43138672D01*
X105982483Y-42987490D01*
X105982353Y-42987234D01*
X105865269Y-42826082D01*
X105724418Y-42685231D01*
X105563266Y-42568147D01*
X105484379Y-42527952D01*
X105385780Y-42477713D01*
X105196342Y-42416161D01*
X105048782Y-42392790D01*
X104999597Y-42385000D01*
X104800403Y-42385000D01*
X104734822Y-42395387D01*
X104603659Y-42416161D01*
X104603656Y-42416161D01*
X104414219Y-42477713D01*
X104236733Y-42568147D01*
X104198286Y-42596081D01*
X104075582Y-42685231D01*
X104075580Y-42685233D01*
X104075579Y-42685233D01*
X103934733Y-42826079D01*
X103934733Y-42826080D01*
X103934731Y-42826082D01*
X103902773Y-42870068D01*
X103817647Y-42987233D01*
X103740485Y-43138672D01*
X103692510Y-43189468D01*
X103624689Y-43206263D01*
X103558554Y-43183725D01*
X103519515Y-43138672D01*
X103442483Y-42987490D01*
X103442353Y-42987234D01*
X103325269Y-42826082D01*
X103184418Y-42685231D01*
X103023266Y-42568147D01*
X102944379Y-42527952D01*
X102845780Y-42477713D01*
X102656342Y-42416161D01*
X102508782Y-42392790D01*
X102459597Y-42385000D01*
X102260403Y-42385000D01*
X102194822Y-42395387D01*
X102063659Y-42416161D01*
X102063656Y-42416161D01*
X101874219Y-42477713D01*
X101696733Y-42568147D01*
X101658286Y-42596081D01*
X101535582Y-42685231D01*
X101535580Y-42685233D01*
X101535579Y-42685233D01*
X101394733Y-42826079D01*
X101394733Y-42826080D01*
X101394731Y-42826082D01*
X101362773Y-42870068D01*
X101277647Y-42987233D01*
X101200485Y-43138672D01*
X101152510Y-43189468D01*
X101084689Y-43206263D01*
X101018554Y-43183725D01*
X100979515Y-43138672D01*
X100902483Y-42987490D01*
X100902353Y-42987234D01*
X100785269Y-42826082D01*
X100644418Y-42685231D01*
X100483266Y-42568147D01*
X100404379Y-42527952D01*
X100305780Y-42477713D01*
X100116342Y-42416161D01*
X99968782Y-42392790D01*
X99919597Y-42385000D01*
X99720403Y-42385000D01*
X99654822Y-42395387D01*
X99523659Y-42416161D01*
X99523656Y-42416161D01*
X99334219Y-42477713D01*
X99156733Y-42568147D01*
X99118286Y-42596081D01*
X98995582Y-42685231D01*
X98995580Y-42685233D01*
X98995579Y-42685233D01*
X98854733Y-42826079D01*
X98854733Y-42826080D01*
X98854731Y-42826082D01*
X98822773Y-42870068D01*
X98737647Y-42987233D01*
X98660485Y-43138672D01*
X98612510Y-43189468D01*
X98544689Y-43206263D01*
X98478554Y-43183725D01*
X98439515Y-43138672D01*
X98362483Y-42987490D01*
X98362353Y-42987234D01*
X98245269Y-42826082D01*
X98104418Y-42685231D01*
X97943266Y-42568147D01*
X97864379Y-42527952D01*
X97765780Y-42477713D01*
X97576342Y-42416161D01*
X97428782Y-42392790D01*
X97379597Y-42385000D01*
X97180403Y-42385000D01*
X97114822Y-42395387D01*
X96983659Y-42416161D01*
X96983656Y-42416161D01*
X96794219Y-42477713D01*
X96616733Y-42568147D01*
X96578286Y-42596081D01*
X96455582Y-42685231D01*
X96455580Y-42685233D01*
X96455579Y-42685233D01*
X96314733Y-42826079D01*
X96314733Y-42826080D01*
X96314731Y-42826082D01*
X96282773Y-42870068D01*
X96197647Y-42987233D01*
X96120485Y-43138672D01*
X96072510Y-43189468D01*
X96004689Y-43206263D01*
X95938554Y-43183725D01*
X95899515Y-43138672D01*
X95822483Y-42987490D01*
X95822353Y-42987234D01*
X95705269Y-42826082D01*
X95564418Y-42685231D01*
X95403266Y-42568147D01*
X95324379Y-42527952D01*
X95225780Y-42477713D01*
X95036342Y-42416161D01*
X94888782Y-42392790D01*
X94839597Y-42385000D01*
X94640403Y-42385000D01*
X94574822Y-42395387D01*
X94443659Y-42416161D01*
X94443656Y-42416161D01*
X94254219Y-42477713D01*
X94076733Y-42568147D01*
X94038286Y-42596081D01*
X93915582Y-42685231D01*
X93915580Y-42685233D01*
X93915579Y-42685233D01*
X93774733Y-42826079D01*
X93774733Y-42826080D01*
X93774731Y-42826082D01*
X93742773Y-42870068D01*
X93657647Y-42987233D01*
X93580485Y-43138672D01*
X93532510Y-43189468D01*
X93464689Y-43206263D01*
X93398554Y-43183725D01*
X93359515Y-43138672D01*
X93282483Y-42987490D01*
X93282353Y-42987234D01*
X93165269Y-42826082D01*
X93024418Y-42685231D01*
X92863266Y-42568147D01*
X92784379Y-42527952D01*
X92685780Y-42477713D01*
X92496342Y-42416161D01*
X92348782Y-42392790D01*
X92299597Y-42385000D01*
X92100403Y-42385000D01*
X92034822Y-42395387D01*
X91903659Y-42416161D01*
X91903656Y-42416161D01*
X91714219Y-42477713D01*
X91536733Y-42568147D01*
X91498286Y-42596081D01*
X91375582Y-42685231D01*
X91375580Y-42685233D01*
X91375579Y-42685233D01*
X91234733Y-42826079D01*
X91234733Y-42826080D01*
X91234731Y-42826082D01*
X91202773Y-42870068D01*
X91117645Y-42987235D01*
X91040203Y-43139223D01*
X90992229Y-43190018D01*
X90924408Y-43206813D01*
X90858273Y-43184275D01*
X90819234Y-43139222D01*
X90741924Y-42987494D01*
X90714417Y-42949635D01*
X90714417Y-42949634D01*
X90151128Y-43512924D01*
X90135245Y-43453647D01*
X90068102Y-43337353D01*
X89973147Y-43242398D01*
X89856853Y-43175255D01*
X89797574Y-43159371D01*
X90360864Y-42596081D01*
X90360863Y-42596080D01*
X90323008Y-42568577D01*
X90145594Y-42478179D01*
X89956222Y-42416647D01*
X89759563Y-42385500D01*
X89560437Y-42385500D01*
X89363777Y-42416647D01*
X89174405Y-42478179D01*
X88996990Y-42568577D01*
X88959135Y-42596080D01*
X88959135Y-42596081D01*
X89522425Y-43159371D01*
X89463147Y-43175255D01*
X89346853Y-43242398D01*
X89251898Y-43337353D01*
X89184755Y-43453647D01*
X89168871Y-43512925D01*
X88605581Y-42949635D01*
X88605580Y-42949635D01*
X88578077Y-42987490D01*
X88487679Y-43164905D01*
X88426147Y-43354277D01*
X88395000Y-43550936D01*
X27808018Y-43550936D01*
X27807171Y-43545591D01*
X27751211Y-43373361D01*
X27751211Y-43373360D01*
X27712275Y-43296946D01*
X27668996Y-43212006D01*
X27617044Y-43140500D01*
X27562558Y-43065505D01*
X27562554Y-43065500D01*
X27434499Y-42937445D01*
X27434494Y-42937441D01*
X27287997Y-42831006D01*
X27287996Y-42831005D01*
X27287994Y-42831004D01*
X27236300Y-42804664D01*
X27126639Y-42748788D01*
X27126636Y-42748787D01*
X26954410Y-42692829D01*
X26775551Y-42664500D01*
X26775546Y-42664500D01*
X25294454Y-42664500D01*
X25294449Y-42664500D01*
X25115589Y-42692829D01*
X24943363Y-42748787D01*
X24943360Y-42748788D01*
X24782002Y-42831006D01*
X24635505Y-42937441D01*
X24635500Y-42937445D01*
X24507445Y-43065500D01*
X24507441Y-43065505D01*
X24401006Y-43212002D01*
X24318788Y-43373360D01*
X24318787Y-43373363D01*
X24262829Y-43545589D01*
X24234500Y-43724448D01*
X19050000Y-43724448D01*
X19050000Y-38759135D01*
X29676500Y-38759135D01*
X29676500Y-42570870D01*
X29676501Y-42570876D01*
X29682908Y-42630483D01*
X29733202Y-42765328D01*
X29733206Y-42765335D01*
X29819452Y-42880544D01*
X29819455Y-42880547D01*
X29934664Y-42966793D01*
X29934671Y-42966797D01*
X30069517Y-43017091D01*
X30069516Y-43017091D01*
X30076444Y-43017835D01*
X30129127Y-43023500D01*
X33940872Y-43023499D01*
X34000483Y-43017091D01*
X34135331Y-42966796D01*
X34250546Y-42880546D01*
X34336796Y-42765331D01*
X34387091Y-42630483D01*
X34393500Y-42570873D01*
X34393500Y-41807648D01*
X54071500Y-41807648D01*
X54071500Y-42012351D01*
X54103522Y-42214534D01*
X54166781Y-42409223D01*
X54227278Y-42527952D01*
X54259578Y-42591346D01*
X54259715Y-42591613D01*
X54380028Y-42757213D01*
X54524786Y-42901971D01*
X54679749Y-43014556D01*
X54690390Y-43022287D01*
X54775210Y-43065505D01*
X54872776Y-43115218D01*
X54872778Y-43115218D01*
X54872781Y-43115220D01*
X54944959Y-43138672D01*
X55067465Y-43178477D01*
X55136859Y-43189468D01*
X55269648Y-43210500D01*
X55269649Y-43210500D01*
X55474351Y-43210500D01*
X55474352Y-43210500D01*
X55676534Y-43178477D01*
X55871219Y-43115220D01*
X56053610Y-43022287D01*
X56153609Y-42949634D01*
X56219213Y-42901971D01*
X56219215Y-42901968D01*
X56219219Y-42901966D01*
X56363966Y-42757219D01*
X56363968Y-42757215D01*
X56363971Y-42757213D01*
X56484284Y-42591614D01*
X56484285Y-42591613D01*
X56484287Y-42591610D01*
X56531516Y-42498917D01*
X56579489Y-42448123D01*
X56647310Y-42431328D01*
X56713445Y-42453865D01*
X56752483Y-42498917D01*
X56789152Y-42570883D01*
X56799715Y-42591614D01*
X56920028Y-42757213D01*
X57064786Y-42901971D01*
X57219749Y-43014556D01*
X57230390Y-43022287D01*
X57315210Y-43065505D01*
X57412776Y-43115218D01*
X57412778Y-43115218D01*
X57412781Y-43115220D01*
X57484959Y-43138672D01*
X57607465Y-43178477D01*
X57676859Y-43189468D01*
X57809648Y-43210500D01*
X57809649Y-43210500D01*
X58014351Y-43210500D01*
X58014352Y-43210500D01*
X58216534Y-43178477D01*
X58411219Y-43115220D01*
X58593610Y-43022287D01*
X58693609Y-42949634D01*
X58759213Y-42901971D01*
X58759215Y-42901968D01*
X58759219Y-42901966D01*
X58903966Y-42757219D01*
X58903968Y-42757215D01*
X58903971Y-42757213D01*
X58996045Y-42630482D01*
X59024287Y-42591610D01*
X59117220Y-42409219D01*
X59180477Y-42214534D01*
X59212500Y-42012352D01*
X59212500Y-41807648D01*
X64739500Y-41807648D01*
X64739500Y-42012351D01*
X64771522Y-42214534D01*
X64834781Y-42409223D01*
X64895278Y-42527952D01*
X64927578Y-42591346D01*
X64927715Y-42591613D01*
X65048028Y-42757213D01*
X65192786Y-42901971D01*
X65347749Y-43014556D01*
X65358390Y-43022287D01*
X65443210Y-43065505D01*
X65540776Y-43115218D01*
X65540778Y-43115218D01*
X65540781Y-43115220D01*
X65612959Y-43138672D01*
X65735465Y-43178477D01*
X65804859Y-43189468D01*
X65937648Y-43210500D01*
X65937649Y-43210500D01*
X66142351Y-43210500D01*
X66142352Y-43210500D01*
X66344534Y-43178477D01*
X66539219Y-43115220D01*
X66721610Y-43022287D01*
X66821609Y-42949634D01*
X66887213Y-42901971D01*
X66887215Y-42901968D01*
X66887219Y-42901966D01*
X67031966Y-42757219D01*
X67031968Y-42757215D01*
X67031971Y-42757213D01*
X67152284Y-42591614D01*
X67152285Y-42591613D01*
X67152287Y-42591610D01*
X67199795Y-42498369D01*
X67247770Y-42447574D01*
X67315591Y-42430779D01*
X67381725Y-42453316D01*
X67420765Y-42498370D01*
X67468140Y-42591349D01*
X67588417Y-42756894D01*
X67588417Y-42756895D01*
X67733104Y-42901582D01*
X67898650Y-43021859D01*
X68080968Y-43114754D01*
X68275578Y-43177988D01*
X68330000Y-43186607D01*
X68330000Y-42225686D01*
X68334394Y-42230080D01*
X68425606Y-42282741D01*
X68527339Y-42310000D01*
X68632661Y-42310000D01*
X68734394Y-42282741D01*
X68825606Y-42230080D01*
X68830000Y-42225686D01*
X68830000Y-43186606D01*
X68884421Y-43177988D01*
X69079031Y-43114754D01*
X69261349Y-43021859D01*
X69426894Y-42901582D01*
X69426895Y-42901582D01*
X69571582Y-42756895D01*
X69571582Y-42756894D01*
X69691861Y-42591346D01*
X69694054Y-42587044D01*
X69784755Y-42409029D01*
X69847990Y-42214413D01*
X69856609Y-42160000D01*
X68895686Y-42160000D01*
X68900080Y-42155606D01*
X68952741Y-42064394D01*
X68980000Y-41962661D01*
X68980000Y-41857339D01*
X68952741Y-41755606D01*
X68900080Y-41664394D01*
X68895686Y-41660000D01*
X69856609Y-41660000D01*
X69847990Y-41605586D01*
X69784755Y-41410970D01*
X69700883Y-41246361D01*
X69700882Y-41246359D01*
X69691859Y-41228650D01*
X69668248Y-41196153D01*
X116801500Y-41196153D01*
X116801500Y-41353846D01*
X116832261Y-41508489D01*
X116832264Y-41508501D01*
X116892602Y-41654172D01*
X116892609Y-41654185D01*
X116980210Y-41785288D01*
X116980213Y-41785292D01*
X117091707Y-41896786D01*
X117091711Y-41896789D01*
X117222814Y-41984390D01*
X117222827Y-41984397D01*
X117368498Y-42044735D01*
X117368503Y-42044737D01*
X117467325Y-42064394D01*
X117523153Y-42075499D01*
X117523156Y-42075500D01*
X117523158Y-42075500D01*
X117680844Y-42075500D01*
X117680845Y-42075499D01*
X117835497Y-42044737D01*
X117981179Y-41984394D01*
X118112289Y-41896789D01*
X118223789Y-41785289D01*
X118311394Y-41654179D01*
X118371737Y-41508497D01*
X118393858Y-41397282D01*
X118402623Y-41380525D01*
X118406644Y-41362046D01*
X118425379Y-41337019D01*
X118426240Y-41335375D01*
X118427706Y-41333883D01*
X118459774Y-41301815D01*
X118521098Y-41268333D01*
X118547452Y-41265500D01*
X119095163Y-41265500D01*
X119162202Y-41285185D01*
X119207957Y-41337989D01*
X119216780Y-41365308D01*
X119245261Y-41508491D01*
X119245264Y-41508501D01*
X119305602Y-41654172D01*
X119305609Y-41654185D01*
X119393210Y-41785288D01*
X119393213Y-41785292D01*
X119504707Y-41896786D01*
X119504711Y-41896789D01*
X119635814Y-41984390D01*
X119635827Y-41984397D01*
X119781498Y-42044735D01*
X119781503Y-42044737D01*
X119880325Y-42064394D01*
X119936153Y-42075499D01*
X119936156Y-42075500D01*
X119936158Y-42075500D01*
X120093844Y-42075500D01*
X120093845Y-42075499D01*
X120248497Y-42044737D01*
X120394179Y-41984394D01*
X120488459Y-41921398D01*
X120555136Y-41900520D01*
X120557350Y-41900500D01*
X126426608Y-41900500D01*
X126426608Y-41900499D01*
X126490767Y-41887738D01*
X126547452Y-41876463D01*
X126580792Y-41862652D01*
X126661286Y-41829312D01*
X126727169Y-41785289D01*
X126763733Y-41760858D01*
X126800878Y-41723712D01*
X126805462Y-41719934D01*
X126832328Y-41708453D01*
X126857978Y-41694447D01*
X126864084Y-41694883D01*
X126869712Y-41692479D01*
X126898518Y-41697345D01*
X126927669Y-41699430D01*
X126932569Y-41703098D01*
X126938605Y-41704118D01*
X126960209Y-41723788D01*
X126983604Y-41741300D01*
X126987441Y-41746722D01*
X127013210Y-41785288D01*
X127013213Y-41785292D01*
X127124707Y-41896786D01*
X127124711Y-41896789D01*
X127255814Y-41984390D01*
X127255827Y-41984397D01*
X127401498Y-42044735D01*
X127401503Y-42044737D01*
X127500325Y-42064394D01*
X127556153Y-42075499D01*
X127556156Y-42075500D01*
X127556158Y-42075500D01*
X127713844Y-42075500D01*
X127713845Y-42075499D01*
X127868497Y-42044737D01*
X128014179Y-41984394D01*
X128145289Y-41896789D01*
X128256789Y-41785289D01*
X128344394Y-41654179D01*
X128404737Y-41508497D01*
X128426858Y-41397282D01*
X128459240Y-41335375D01*
X128460735Y-41333853D01*
X137853797Y-31940791D01*
X137915118Y-31907308D01*
X137917128Y-31906889D01*
X138028497Y-31884737D01*
X138174179Y-31824394D01*
X138305289Y-31736789D01*
X138416789Y-31625289D01*
X138504394Y-31494179D01*
X138564737Y-31348497D01*
X138595500Y-31193842D01*
X138595500Y-31036158D01*
X138595500Y-31036155D01*
X138595499Y-31036153D01*
X138571996Y-30917997D01*
X138564737Y-30881503D01*
X138513016Y-30756636D01*
X138504397Y-30735827D01*
X138504390Y-30735814D01*
X138416789Y-30604711D01*
X138416786Y-30604707D01*
X138305292Y-30493213D01*
X138305288Y-30493210D01*
X138174185Y-30405609D01*
X138174172Y-30405602D01*
X138028501Y-30345264D01*
X138028489Y-30345261D01*
X137873845Y-30314500D01*
X137873842Y-30314500D01*
X137716158Y-30314500D01*
X137716155Y-30314500D01*
X137561510Y-30345261D01*
X137561498Y-30345264D01*
X137415827Y-30405602D01*
X137415814Y-30405609D01*
X137284711Y-30493210D01*
X137284707Y-30493213D01*
X137247681Y-30530240D01*
X137186358Y-30563725D01*
X137116666Y-30558741D01*
X137072319Y-30530240D01*
X137035292Y-30493213D01*
X137035288Y-30493210D01*
X136904185Y-30405609D01*
X136904172Y-30405602D01*
X136758501Y-30345264D01*
X136758489Y-30345261D01*
X136603845Y-30314500D01*
X136603842Y-30314500D01*
X136446158Y-30314500D01*
X136446155Y-30314500D01*
X136291510Y-30345261D01*
X136291498Y-30345264D01*
X136145827Y-30405602D01*
X136145814Y-30405609D01*
X136014711Y-30493210D01*
X136014707Y-30493213D01*
X135903213Y-30604707D01*
X135903210Y-30604711D01*
X135815609Y-30735814D01*
X135815602Y-30735827D01*
X135755264Y-30881498D01*
X135755261Y-30881508D01*
X135733141Y-30992714D01*
X135700756Y-31054625D01*
X135699205Y-31056203D01*
X129234181Y-37521228D01*
X129172858Y-37554713D01*
X129103166Y-37549729D01*
X129047233Y-37507857D01*
X129022816Y-37442393D01*
X129022500Y-37433547D01*
X129022500Y-35721350D01*
X129042185Y-35654311D01*
X129043398Y-35652459D01*
X129088897Y-35584365D01*
X129106394Y-35558179D01*
X129166737Y-35412497D01*
X129197500Y-35257842D01*
X129197500Y-35100158D01*
X129197500Y-35100155D01*
X129197499Y-35100153D01*
X129166737Y-34945503D01*
X129130163Y-34857204D01*
X129106397Y-34799827D01*
X129106390Y-34799814D01*
X129018789Y-34668711D01*
X129018786Y-34668707D01*
X128907292Y-34557213D01*
X128907288Y-34557210D01*
X128776185Y-34469609D01*
X128776172Y-34469602D01*
X128630501Y-34409264D01*
X128630489Y-34409261D01*
X128475845Y-34378500D01*
X128475842Y-34378500D01*
X128318158Y-34378500D01*
X128318155Y-34378500D01*
X128163510Y-34409261D01*
X128163498Y-34409264D01*
X128017827Y-34469602D01*
X128017814Y-34469609D01*
X127886711Y-34557210D01*
X127886707Y-34557213D01*
X127775213Y-34668707D01*
X127775210Y-34668711D01*
X127687609Y-34799814D01*
X127687602Y-34799827D01*
X127627264Y-34945498D01*
X127627261Y-34945510D01*
X127596500Y-35100153D01*
X127596500Y-35257846D01*
X127627261Y-35412489D01*
X127627264Y-35412501D01*
X127687602Y-35558172D01*
X127687609Y-35558184D01*
X127750602Y-35652459D01*
X127771480Y-35719136D01*
X127771500Y-35721350D01*
X127771500Y-37408548D01*
X127751815Y-37475587D01*
X127735181Y-37496229D01*
X125253229Y-39978181D01*
X125191906Y-40011666D01*
X125165548Y-40014500D01*
X118304741Y-40014500D01*
X118304721Y-40014499D01*
X118298607Y-40014499D01*
X118175394Y-40014499D01*
X118074597Y-40034548D01*
X118074592Y-40034548D01*
X118054549Y-40038536D01*
X118054547Y-40038536D01*
X118007397Y-40058067D01*
X117940719Y-40085685D01*
X117940717Y-40085686D01*
X117838266Y-40154141D01*
X117838263Y-40154144D01*
X117543203Y-40449205D01*
X117481880Y-40482690D01*
X117479714Y-40483141D01*
X117368508Y-40505261D01*
X117368498Y-40505264D01*
X117222827Y-40565602D01*
X117222814Y-40565609D01*
X117091711Y-40653210D01*
X117091707Y-40653213D01*
X116980213Y-40764707D01*
X116980210Y-40764711D01*
X116892609Y-40895814D01*
X116892602Y-40895827D01*
X116832264Y-41041498D01*
X116832261Y-41041510D01*
X116801500Y-41196153D01*
X69668248Y-41196153D01*
X69571582Y-41063105D01*
X69571582Y-41063104D01*
X69426895Y-40918417D01*
X69261349Y-40798140D01*
X69079029Y-40705244D01*
X68884413Y-40642009D01*
X68830000Y-40633390D01*
X68830000Y-41594314D01*
X68825606Y-41589920D01*
X68734394Y-41537259D01*
X68632661Y-41510000D01*
X68527339Y-41510000D01*
X68425606Y-41537259D01*
X68334394Y-41589920D01*
X68330000Y-41594314D01*
X68330000Y-40633390D01*
X68275586Y-40642009D01*
X68080970Y-40705244D01*
X67898650Y-40798140D01*
X67733105Y-40918417D01*
X67733104Y-40918417D01*
X67588417Y-41063104D01*
X67588417Y-41063105D01*
X67468140Y-41228650D01*
X67420765Y-41321629D01*
X67372790Y-41372425D01*
X67304969Y-41389220D01*
X67238834Y-41366682D01*
X67199795Y-41321629D01*
X67188990Y-41300424D01*
X67152287Y-41228390D01*
X67128866Y-41196153D01*
X67031971Y-41062786D01*
X66887213Y-40918028D01*
X66721613Y-40797715D01*
X66721612Y-40797714D01*
X66721610Y-40797713D01*
X66656832Y-40764707D01*
X66539223Y-40704781D01*
X66344534Y-40641522D01*
X66169995Y-40613878D01*
X66142352Y-40609500D01*
X65937648Y-40609500D01*
X65913329Y-40613351D01*
X65735465Y-40641522D01*
X65540776Y-40704781D01*
X65358386Y-40797715D01*
X65192786Y-40918028D01*
X65048028Y-41062786D01*
X64927715Y-41228386D01*
X64834781Y-41410776D01*
X64771522Y-41605465D01*
X64739500Y-41807648D01*
X59212500Y-41807648D01*
X59195360Y-41699430D01*
X59180477Y-41605465D01*
X59117218Y-41410776D01*
X59061699Y-41301816D01*
X59024287Y-41228390D01*
X59000866Y-41196153D01*
X58903971Y-41062786D01*
X58759213Y-40918028D01*
X58593613Y-40797715D01*
X58593612Y-40797714D01*
X58593610Y-40797713D01*
X58528832Y-40764707D01*
X58411223Y-40704781D01*
X58216534Y-40641522D01*
X58041995Y-40613878D01*
X58014352Y-40609500D01*
X57809648Y-40609500D01*
X57785329Y-40613351D01*
X57607465Y-40641522D01*
X57412776Y-40704781D01*
X57230386Y-40797715D01*
X57064786Y-40918028D01*
X56920028Y-41062786D01*
X56799715Y-41228386D01*
X56752485Y-41321080D01*
X56704510Y-41371876D01*
X56636689Y-41388671D01*
X56570554Y-41366134D01*
X56531515Y-41321080D01*
X56521699Y-41301816D01*
X56484287Y-41228390D01*
X56460866Y-41196153D01*
X56363971Y-41062786D01*
X56219213Y-40918028D01*
X56053613Y-40797715D01*
X56053612Y-40797714D01*
X56053610Y-40797713D01*
X55988832Y-40764707D01*
X55871223Y-40704781D01*
X55676534Y-40641522D01*
X55501995Y-40613878D01*
X55474352Y-40609500D01*
X55269648Y-40609500D01*
X55245329Y-40613351D01*
X55067465Y-40641522D01*
X54872776Y-40704781D01*
X54690386Y-40797715D01*
X54524786Y-40918028D01*
X54380028Y-41062786D01*
X54259715Y-41228386D01*
X54166781Y-41410776D01*
X54103522Y-41605465D01*
X54071500Y-41807648D01*
X34393500Y-41807648D01*
X34393499Y-40653213D01*
X34393499Y-38759129D01*
X34393498Y-38759123D01*
X34393497Y-38759116D01*
X34387091Y-38699517D01*
X34336796Y-38564669D01*
X34336795Y-38564668D01*
X34336793Y-38564664D01*
X34250547Y-38449455D01*
X34250544Y-38449452D01*
X34135335Y-38363206D01*
X34135328Y-38363202D01*
X34000482Y-38312908D01*
X34000483Y-38312908D01*
X33940883Y-38306501D01*
X33940881Y-38306500D01*
X33940873Y-38306500D01*
X33940864Y-38306500D01*
X30129129Y-38306500D01*
X30129123Y-38306501D01*
X30069516Y-38312908D01*
X29934671Y-38363202D01*
X29934664Y-38363206D01*
X29819455Y-38449452D01*
X29819452Y-38449455D01*
X29733206Y-38564664D01*
X29733202Y-38564671D01*
X29682908Y-38699517D01*
X29676501Y-38759116D01*
X29676501Y-38759123D01*
X29676500Y-38759135D01*
X19050000Y-38759135D01*
X19050000Y-33310441D01*
X29677000Y-33310441D01*
X29677000Y-33619558D01*
X29717346Y-33926001D01*
X29717348Y-33926012D01*
X29797347Y-34224577D01*
X29915634Y-34510147D01*
X29915638Y-34510157D01*
X30070187Y-34777844D01*
X30199751Y-34946694D01*
X30919728Y-34226716D01*
X31005278Y-34344466D01*
X31155534Y-34494722D01*
X31273281Y-34580270D01*
X30553304Y-35300247D01*
X30722159Y-35429815D01*
X30989842Y-35584361D01*
X30989852Y-35584365D01*
X31275422Y-35702652D01*
X31573987Y-35782651D01*
X31573998Y-35782653D01*
X31880441Y-35822999D01*
X31880456Y-35823000D01*
X32189544Y-35823000D01*
X32189558Y-35822999D01*
X32496001Y-35782653D01*
X32496012Y-35782651D01*
X32794577Y-35702652D01*
X33080147Y-35584365D01*
X33080156Y-35584361D01*
X33347845Y-35429811D01*
X33516694Y-35300247D01*
X33176430Y-34959983D01*
X53984500Y-34959983D01*
X53984500Y-36160001D01*
X53984501Y-36160018D01*
X53995000Y-36262796D01*
X53995001Y-36262799D01*
X54010681Y-36310116D01*
X54050186Y-36429334D01*
X54142288Y-36578656D01*
X54266344Y-36702712D01*
X54415666Y-36794814D01*
X54582203Y-36849999D01*
X54684991Y-36860500D01*
X55885008Y-36860499D01*
X55987797Y-36849999D01*
X56154334Y-36794814D01*
X56303656Y-36702712D01*
X56427712Y-36578656D01*
X56519814Y-36429334D01*
X56543102Y-36359054D01*
X56547110Y-36351050D01*
X56565060Y-36331772D01*
X56580055Y-36310116D01*
X56588495Y-36306606D01*
X56594725Y-36299917D01*
X56620249Y-36293404D01*
X56644571Y-36283292D01*
X56660834Y-36283048D01*
X56662425Y-36282643D01*
X56663523Y-36283008D01*
X56667719Y-36282946D01*
X56705525Y-36285921D01*
X57385000Y-35606446D01*
X57385000Y-35612661D01*
X57412259Y-35714394D01*
X57464920Y-35805606D01*
X57539394Y-35880080D01*
X57630606Y-35932741D01*
X57732339Y-35960000D01*
X57738553Y-35960000D01*
X57059076Y-36639474D01*
X57103650Y-36671859D01*
X57285968Y-36764755D01*
X57480582Y-36827990D01*
X57682683Y-36860000D01*
X57887317Y-36860000D01*
X58089417Y-36827990D01*
X58284031Y-36764755D01*
X58466349Y-36671859D01*
X58510921Y-36639474D01*
X57831447Y-35960000D01*
X57837661Y-35960000D01*
X57939394Y-35932741D01*
X58030606Y-35880080D01*
X58105080Y-35805606D01*
X58157741Y-35714394D01*
X58185000Y-35612661D01*
X58185000Y-35606447D01*
X58864474Y-36285921D01*
X58896859Y-36241349D01*
X58989755Y-36059031D01*
X59052990Y-35864417D01*
X59085000Y-35662317D01*
X59085000Y-35457682D01*
X59052990Y-35255582D01*
X58989755Y-35060968D01*
X58896859Y-34878650D01*
X58864474Y-34834077D01*
X58864474Y-34834076D01*
X58185000Y-35513551D01*
X58185000Y-35507339D01*
X58157741Y-35405606D01*
X58105080Y-35314394D01*
X58030606Y-35239920D01*
X57939394Y-35187259D01*
X57837661Y-35160000D01*
X57831446Y-35160000D01*
X58510922Y-34480524D01*
X58510921Y-34480523D01*
X58466359Y-34448147D01*
X58466350Y-34448141D01*
X58284031Y-34355244D01*
X58089417Y-34292009D01*
X57887317Y-34260000D01*
X57682683Y-34260000D01*
X57480582Y-34292009D01*
X57285968Y-34355244D01*
X57103644Y-34448143D01*
X57059077Y-34480523D01*
X57059077Y-34480524D01*
X57738554Y-35160000D01*
X57732339Y-35160000D01*
X57630606Y-35187259D01*
X57539394Y-35239920D01*
X57464920Y-35314394D01*
X57412259Y-35405606D01*
X57385000Y-35507339D01*
X57385000Y-35513553D01*
X56705524Y-34834077D01*
X56667719Y-34837053D01*
X56599341Y-34822689D01*
X56549584Y-34773638D01*
X56547110Y-34768949D01*
X56543101Y-34760942D01*
X56519814Y-34690666D01*
X56427712Y-34541344D01*
X56303656Y-34417288D01*
X56154334Y-34325186D01*
X55987797Y-34270001D01*
X55987795Y-34270000D01*
X55885010Y-34259500D01*
X54684998Y-34259500D01*
X54684981Y-34259501D01*
X54582203Y-34270000D01*
X54582200Y-34270001D01*
X54415668Y-34325185D01*
X54415663Y-34325187D01*
X54266342Y-34417289D01*
X54142289Y-34541342D01*
X54050187Y-34690663D01*
X54050186Y-34690666D01*
X53995001Y-34857203D01*
X53995001Y-34857204D01*
X53995000Y-34857204D01*
X53984500Y-34959983D01*
X33176430Y-34959983D01*
X32796717Y-34580270D01*
X32914466Y-34494722D01*
X33064722Y-34344466D01*
X33150270Y-34226717D01*
X33870247Y-34946694D01*
X33920391Y-34881347D01*
X33999811Y-34777845D01*
X34154361Y-34510156D01*
X34154365Y-34510147D01*
X34272652Y-34224577D01*
X34352651Y-33926012D01*
X34352653Y-33926001D01*
X34392999Y-33619558D01*
X34393000Y-33619544D01*
X34393000Y-33310455D01*
X34392999Y-33310441D01*
X34352653Y-33003998D01*
X34352651Y-33003987D01*
X34272652Y-32705422D01*
X34154365Y-32419852D01*
X34154361Y-32419842D01*
X33999815Y-32152159D01*
X33870247Y-31983304D01*
X33150270Y-32703281D01*
X33064722Y-32585534D01*
X32914466Y-32435278D01*
X32796716Y-32349728D01*
X33516694Y-31629751D01*
X33516694Y-31629750D01*
X33347844Y-31500187D01*
X33080157Y-31345638D01*
X33080147Y-31345634D01*
X32794577Y-31227347D01*
X32496012Y-31147348D01*
X32496001Y-31147346D01*
X32189558Y-31107000D01*
X31880441Y-31107000D01*
X31573998Y-31147346D01*
X31573987Y-31147348D01*
X31275422Y-31227347D01*
X30989852Y-31345634D01*
X30989842Y-31345638D01*
X30722155Y-31500187D01*
X30553304Y-31629750D01*
X30553304Y-31629751D01*
X31273282Y-32349729D01*
X31155534Y-32435278D01*
X31005278Y-32585534D01*
X30919729Y-32703282D01*
X30199751Y-31983304D01*
X30199750Y-31983304D01*
X30070187Y-32152155D01*
X29915638Y-32419842D01*
X29915634Y-32419852D01*
X29797347Y-32705422D01*
X29717348Y-33003987D01*
X29717346Y-33003998D01*
X29677000Y-33310441D01*
X19050000Y-33310441D01*
X19050000Y-30224448D01*
X24234500Y-30224448D01*
X24234500Y-30405551D01*
X24262829Y-30584410D01*
X24318787Y-30756636D01*
X24318788Y-30756639D01*
X24401006Y-30917997D01*
X24507441Y-31064494D01*
X24507445Y-31064499D01*
X24635500Y-31192554D01*
X24635505Y-31192558D01*
X24683389Y-31227347D01*
X24782006Y-31298996D01*
X24887484Y-31352740D01*
X24943360Y-31381211D01*
X24943363Y-31381212D01*
X25029476Y-31409191D01*
X25115591Y-31437171D01*
X25198429Y-31450291D01*
X25294449Y-31465500D01*
X25294454Y-31465500D01*
X26775551Y-31465500D01*
X26862259Y-31451765D01*
X26954409Y-31437171D01*
X27126639Y-31381211D01*
X27287994Y-31298996D01*
X27434501Y-31192553D01*
X27562553Y-31064501D01*
X27668996Y-30917994D01*
X27751211Y-30756639D01*
X27807171Y-30584409D01*
X27821765Y-30492259D01*
X27835500Y-30405551D01*
X27835500Y-30224448D01*
X27819019Y-30120397D01*
X27807171Y-30045591D01*
X27751211Y-29873361D01*
X27751211Y-29873360D01*
X27722740Y-29817484D01*
X27668996Y-29712006D01*
X27655396Y-29693287D01*
X27562558Y-29565505D01*
X27562554Y-29565500D01*
X27434499Y-29437445D01*
X27434494Y-29437441D01*
X27287997Y-29331006D01*
X27287996Y-29331005D01*
X27287994Y-29331004D01*
X27236300Y-29304664D01*
X27126639Y-29248788D01*
X27126636Y-29248787D01*
X26954410Y-29192829D01*
X26775551Y-29164500D01*
X26775546Y-29164500D01*
X25294454Y-29164500D01*
X25294449Y-29164500D01*
X25115589Y-29192829D01*
X24943363Y-29248787D01*
X24943360Y-29248788D01*
X24782002Y-29331006D01*
X24635505Y-29437441D01*
X24635500Y-29437445D01*
X24507445Y-29565500D01*
X24507441Y-29565505D01*
X24401006Y-29712002D01*
X24318788Y-29873360D01*
X24318787Y-29873363D01*
X24262829Y-30045589D01*
X24234500Y-30224448D01*
X19050000Y-30224448D01*
X19050000Y-23995631D01*
X53801000Y-23995631D01*
X53801000Y-24184368D01*
X53830522Y-24370763D01*
X53830523Y-24370767D01*
X53888843Y-24550256D01*
X53974523Y-24718413D01*
X54085454Y-24871096D01*
X54218904Y-25004546D01*
X54371587Y-25115477D01*
X54451034Y-25155957D01*
X54539739Y-25201155D01*
X54539741Y-25201155D01*
X54539744Y-25201157D01*
X54604105Y-25222069D01*
X54661780Y-25261507D01*
X54688978Y-25325866D01*
X54677063Y-25394712D01*
X54629819Y-25446188D01*
X54604107Y-25457929D01*
X54581775Y-25465185D01*
X54539739Y-25478844D01*
X54371586Y-25564523D01*
X54284475Y-25627813D01*
X54218904Y-25675454D01*
X54218902Y-25675456D01*
X54218901Y-25675456D01*
X54085456Y-25808901D01*
X54085456Y-25808902D01*
X54085454Y-25808904D01*
X54037813Y-25874475D01*
X53974523Y-25961586D01*
X53888844Y-26129741D01*
X53830522Y-26309236D01*
X53801000Y-26495631D01*
X53801000Y-26684368D01*
X53830522Y-26870763D01*
X53830523Y-26870767D01*
X53888843Y-27050256D01*
X53974523Y-27218413D01*
X54085454Y-27371096D01*
X54218904Y-27504546D01*
X54371587Y-27615477D01*
X54539744Y-27701157D01*
X54719233Y-27759477D01*
X54789134Y-27770548D01*
X54905632Y-27789000D01*
X54905637Y-27789000D01*
X55094368Y-27789000D01*
X55197920Y-27772598D01*
X55280767Y-27759477D01*
X55460256Y-27701157D01*
X55628413Y-27615477D01*
X55781096Y-27504546D01*
X55914546Y-27371096D01*
X56025477Y-27218413D01*
X56111157Y-27050256D01*
X56169477Y-26870767D01*
X56182598Y-26787920D01*
X56199000Y-26684368D01*
X56199000Y-26495631D01*
X56169477Y-26309236D01*
X56169477Y-26309233D01*
X56111157Y-26129744D01*
X56025477Y-25961587D01*
X55914546Y-25808904D01*
X55781096Y-25675454D01*
X55628413Y-25564523D01*
X55460256Y-25478843D01*
X55395894Y-25457930D01*
X55338219Y-25418493D01*
X55311021Y-25354135D01*
X55322936Y-25285288D01*
X55370180Y-25233813D01*
X55395892Y-25222070D01*
X55460256Y-25201157D01*
X55628413Y-25115477D01*
X55781096Y-25004546D01*
X55914546Y-24871096D01*
X56025477Y-24718413D01*
X56111157Y-24550256D01*
X56169477Y-24370767D01*
X56182598Y-24287920D01*
X56199000Y-24184368D01*
X56199000Y-23995631D01*
X91301000Y-23995631D01*
X91301000Y-24184368D01*
X91330522Y-24370763D01*
X91330523Y-24370767D01*
X91388843Y-24550256D01*
X91474523Y-24718413D01*
X91585454Y-24871096D01*
X91718904Y-25004546D01*
X91871587Y-25115477D01*
X91951034Y-25155957D01*
X92039739Y-25201155D01*
X92039741Y-25201155D01*
X92039744Y-25201157D01*
X92104105Y-25222069D01*
X92161780Y-25261507D01*
X92188978Y-25325866D01*
X92177063Y-25394712D01*
X92129819Y-25446188D01*
X92104107Y-25457929D01*
X92081775Y-25465185D01*
X92039739Y-25478844D01*
X91871586Y-25564523D01*
X91784475Y-25627813D01*
X91718904Y-25675454D01*
X91718902Y-25675456D01*
X91718901Y-25675456D01*
X91585456Y-25808901D01*
X91585456Y-25808902D01*
X91585454Y-25808904D01*
X91537813Y-25874475D01*
X91474523Y-25961586D01*
X91388844Y-26129741D01*
X91330522Y-26309236D01*
X91301000Y-26495631D01*
X91301000Y-26684368D01*
X91330522Y-26870763D01*
X91330523Y-26870767D01*
X91388843Y-27050256D01*
X91474523Y-27218413D01*
X91585454Y-27371096D01*
X91718904Y-27504546D01*
X91871587Y-27615477D01*
X92039744Y-27701157D01*
X92219233Y-27759477D01*
X92289134Y-27770548D01*
X92405632Y-27789000D01*
X92405637Y-27789000D01*
X92594368Y-27789000D01*
X92697920Y-27772598D01*
X92780767Y-27759477D01*
X92960256Y-27701157D01*
X93128413Y-27615477D01*
X93281096Y-27504546D01*
X93414546Y-27371096D01*
X93525477Y-27218413D01*
X93611157Y-27050256D01*
X93669477Y-26870767D01*
X93682598Y-26787920D01*
X93699000Y-26684368D01*
X93699000Y-26495631D01*
X93669477Y-26309236D01*
X93669477Y-26309233D01*
X93611157Y-26129744D01*
X93525477Y-25961587D01*
X93414546Y-25808904D01*
X93281096Y-25675454D01*
X93128413Y-25564523D01*
X92960256Y-25478843D01*
X92895894Y-25457930D01*
X92838219Y-25418493D01*
X92811021Y-25354135D01*
X92822936Y-25285288D01*
X92870180Y-25233813D01*
X92895892Y-25222070D01*
X92960256Y-25201157D01*
X93128413Y-25115477D01*
X93281096Y-25004546D01*
X93414546Y-24871096D01*
X93525477Y-24718413D01*
X93611157Y-24550256D01*
X93669477Y-24370767D01*
X93682598Y-24287920D01*
X93699000Y-24184368D01*
X93699000Y-23995631D01*
X128801000Y-23995631D01*
X128801000Y-24184368D01*
X128830522Y-24370763D01*
X128830523Y-24370767D01*
X128888843Y-24550256D01*
X128974523Y-24718413D01*
X129085454Y-24871096D01*
X129218904Y-25004546D01*
X129371587Y-25115477D01*
X129451034Y-25155957D01*
X129539739Y-25201155D01*
X129539741Y-25201155D01*
X129539744Y-25201157D01*
X129604105Y-25222069D01*
X129661780Y-25261507D01*
X129688978Y-25325866D01*
X129677063Y-25394712D01*
X129629819Y-25446188D01*
X129604107Y-25457929D01*
X129581775Y-25465185D01*
X129539739Y-25478844D01*
X129371586Y-25564523D01*
X129284475Y-25627813D01*
X129218904Y-25675454D01*
X129218902Y-25675456D01*
X129218901Y-25675456D01*
X129085456Y-25808901D01*
X129085456Y-25808902D01*
X129085454Y-25808904D01*
X129037813Y-25874475D01*
X128974523Y-25961586D01*
X128888844Y-26129741D01*
X128830522Y-26309236D01*
X128801000Y-26495631D01*
X128801000Y-26684368D01*
X128830522Y-26870763D01*
X128830523Y-26870767D01*
X128888843Y-27050256D01*
X128974523Y-27218413D01*
X129085454Y-27371096D01*
X129218904Y-27504546D01*
X129371587Y-27615477D01*
X129539744Y-27701157D01*
X129719233Y-27759477D01*
X129789134Y-27770548D01*
X129905632Y-27789000D01*
X129905637Y-27789000D01*
X130094368Y-27789000D01*
X130197920Y-27772598D01*
X130280767Y-27759477D01*
X130460256Y-27701157D01*
X130628413Y-27615477D01*
X130781096Y-27504546D01*
X130914546Y-27371096D01*
X131025477Y-27218413D01*
X131111157Y-27050256D01*
X131169477Y-26870767D01*
X131182598Y-26787920D01*
X131199000Y-26684368D01*
X131199000Y-26495631D01*
X131169477Y-26309236D01*
X131169477Y-26309233D01*
X131111157Y-26129744D01*
X131025477Y-25961587D01*
X130914546Y-25808904D01*
X130781096Y-25675454D01*
X130628413Y-25564523D01*
X130460256Y-25478843D01*
X130395894Y-25457930D01*
X130338219Y-25418493D01*
X130311021Y-25354135D01*
X130322936Y-25285288D01*
X130370180Y-25233813D01*
X130395892Y-25222070D01*
X130460256Y-25201157D01*
X130628413Y-25115477D01*
X130781096Y-25004546D01*
X130914546Y-24871096D01*
X131025477Y-24718413D01*
X131111157Y-24550256D01*
X131169477Y-24370767D01*
X131182598Y-24287920D01*
X131199000Y-24184368D01*
X131199000Y-23995631D01*
X131169477Y-23809236D01*
X131169477Y-23809233D01*
X131111157Y-23629744D01*
X131025477Y-23461587D01*
X130914546Y-23308904D01*
X130781096Y-23175454D01*
X130628413Y-23064523D01*
X130460260Y-22978844D01*
X130420698Y-22965989D01*
X130395085Y-22957667D01*
X130337411Y-22918230D01*
X130310213Y-22853871D01*
X130322128Y-22785025D01*
X130369373Y-22733549D01*
X130395088Y-22721806D01*
X130460058Y-22700696D01*
X130460064Y-22700694D01*
X130628151Y-22615048D01*
X130653255Y-22596808D01*
X130653256Y-22596808D01*
X130084095Y-22027647D01*
X130171571Y-22004208D01*
X130272930Y-21945689D01*
X130355689Y-21862930D01*
X130414208Y-21761571D01*
X130437647Y-21674094D01*
X131006808Y-22243256D01*
X131006808Y-22243255D01*
X131025048Y-22218151D01*
X131110694Y-22050064D01*
X131110695Y-22050061D01*
X131168988Y-21870650D01*
X131198500Y-21684323D01*
X131198500Y-21495679D01*
X131196658Y-21484048D01*
X131196658Y-21484046D01*
X131194229Y-21468711D01*
X144149500Y-21468711D01*
X144149500Y-21711288D01*
X144181161Y-21951785D01*
X144243947Y-22186104D01*
X144336773Y-22410205D01*
X144336776Y-22410212D01*
X144458064Y-22620289D01*
X144458066Y-22620292D01*
X144458067Y-22620293D01*
X144605733Y-22812736D01*
X144605739Y-22812743D01*
X144777256Y-22984260D01*
X144777262Y-22984265D01*
X144969711Y-23131936D01*
X145179788Y-23253224D01*
X145403900Y-23346054D01*
X145638211Y-23408838D01*
X145818586Y-23432584D01*
X145878711Y-23440500D01*
X145878712Y-23440500D01*
X146121289Y-23440500D01*
X146169388Y-23434167D01*
X146361789Y-23408838D01*
X146596100Y-23346054D01*
X146820212Y-23253224D01*
X147030289Y-23131936D01*
X147222738Y-22984265D01*
X147394265Y-22812738D01*
X147541936Y-22620289D01*
X147663224Y-22410212D01*
X147756054Y-22186100D01*
X147818838Y-21951789D01*
X147850500Y-21711288D01*
X147850500Y-21468712D01*
X147818838Y-21228211D01*
X147756054Y-20993900D01*
X147663224Y-20769788D01*
X147541936Y-20559711D01*
X147435508Y-20421011D01*
X147394266Y-20367263D01*
X147394260Y-20367256D01*
X147222743Y-20195739D01*
X147222736Y-20195733D01*
X147030293Y-20048067D01*
X147030292Y-20048066D01*
X147030289Y-20048064D01*
X146820212Y-19926776D01*
X146820205Y-19926773D01*
X146596104Y-19833947D01*
X146361785Y-19771161D01*
X146121289Y-19739500D01*
X146121288Y-19739500D01*
X145878712Y-19739500D01*
X145878711Y-19739500D01*
X145638214Y-19771161D01*
X145403895Y-19833947D01*
X145179794Y-19926773D01*
X145179785Y-19926777D01*
X144969706Y-20048067D01*
X144777263Y-20195733D01*
X144777256Y-20195739D01*
X144605739Y-20367256D01*
X144605733Y-20367263D01*
X144458067Y-20559706D01*
X144336777Y-20769785D01*
X144336773Y-20769794D01*
X144243947Y-20993895D01*
X144181161Y-21228214D01*
X144149500Y-21468711D01*
X131194229Y-21468711D01*
X131168988Y-21309349D01*
X131110695Y-21129938D01*
X131110694Y-21129935D01*
X131025046Y-20961844D01*
X131006809Y-20936743D01*
X131006808Y-20936743D01*
X130437647Y-21505904D01*
X130414208Y-21418429D01*
X130355689Y-21317070D01*
X130272930Y-21234311D01*
X130171571Y-21175792D01*
X130084094Y-21152352D01*
X130653255Y-20583190D01*
X130653255Y-20583189D01*
X130628153Y-20564952D01*
X130460063Y-20479305D01*
X130460061Y-20479304D01*
X130280650Y-20421011D01*
X130094323Y-20391500D01*
X129905677Y-20391500D01*
X129719349Y-20421011D01*
X129539938Y-20479304D01*
X129539936Y-20479305D01*
X129371844Y-20564953D01*
X129371839Y-20564957D01*
X129346743Y-20583188D01*
X129346743Y-20583191D01*
X129915906Y-21152352D01*
X129828429Y-21175792D01*
X129727070Y-21234311D01*
X129644311Y-21317070D01*
X129585792Y-21418429D01*
X129562352Y-21505905D01*
X128993191Y-20936743D01*
X128993188Y-20936743D01*
X128974957Y-20961839D01*
X128974953Y-20961844D01*
X128889305Y-21129936D01*
X128889304Y-21129938D01*
X128831011Y-21309349D01*
X128801500Y-21495676D01*
X128801500Y-21684323D01*
X128831011Y-21870650D01*
X128889304Y-22050061D01*
X128889305Y-22050063D01*
X128974952Y-22218153D01*
X128993189Y-22243255D01*
X128993190Y-22243255D01*
X129562352Y-21674093D01*
X129585792Y-21761571D01*
X129644311Y-21862930D01*
X129727070Y-21945689D01*
X129828429Y-22004208D01*
X129915905Y-22027647D01*
X129346743Y-22596808D01*
X129346743Y-22596809D01*
X129371844Y-22615046D01*
X129539935Y-22700694D01*
X129539938Y-22700695D01*
X129604912Y-22721806D01*
X129662587Y-22761243D01*
X129689786Y-22825602D01*
X129677872Y-22894448D01*
X129630628Y-22945924D01*
X129604915Y-22957667D01*
X129539744Y-22978843D01*
X129539738Y-22978845D01*
X129371586Y-23064523D01*
X129284475Y-23127813D01*
X129218904Y-23175454D01*
X129218902Y-23175456D01*
X129218901Y-23175456D01*
X129085456Y-23308901D01*
X129085456Y-23308902D01*
X129085454Y-23308904D01*
X129058463Y-23346054D01*
X128974523Y-23461586D01*
X128888844Y-23629741D01*
X128830522Y-23809236D01*
X128801000Y-23995631D01*
X93699000Y-23995631D01*
X93669477Y-23809236D01*
X93669477Y-23809233D01*
X93611157Y-23629744D01*
X93525477Y-23461587D01*
X93414546Y-23308904D01*
X93281096Y-23175454D01*
X93128413Y-23064523D01*
X92960260Y-22978844D01*
X92920698Y-22965989D01*
X92895085Y-22957667D01*
X92837411Y-22918230D01*
X92810213Y-22853871D01*
X92822128Y-22785025D01*
X92869373Y-22733549D01*
X92895088Y-22721806D01*
X92960058Y-22700696D01*
X92960064Y-22700694D01*
X93128151Y-22615048D01*
X93153255Y-22596808D01*
X93153256Y-22596808D01*
X92584095Y-22027647D01*
X92671571Y-22004208D01*
X92772930Y-21945689D01*
X92855689Y-21862930D01*
X92914208Y-21761571D01*
X92937647Y-21674094D01*
X93506808Y-22243256D01*
X93506808Y-22243255D01*
X93525048Y-22218151D01*
X93610694Y-22050064D01*
X93610695Y-22050061D01*
X93668988Y-21870650D01*
X93698500Y-21684323D01*
X93698500Y-21495676D01*
X93668988Y-21309349D01*
X93610695Y-21129938D01*
X93610694Y-21129935D01*
X93525046Y-20961844D01*
X93506809Y-20936743D01*
X93506808Y-20936743D01*
X92937647Y-21505904D01*
X92914208Y-21418429D01*
X92855689Y-21317070D01*
X92772930Y-21234311D01*
X92671571Y-21175792D01*
X92584094Y-21152352D01*
X93153255Y-20583190D01*
X93153255Y-20583189D01*
X93128153Y-20564952D01*
X92960063Y-20479305D01*
X92960061Y-20479304D01*
X92780650Y-20421011D01*
X92594323Y-20391500D01*
X92405677Y-20391500D01*
X92219349Y-20421011D01*
X92039938Y-20479304D01*
X92039936Y-20479305D01*
X91871844Y-20564953D01*
X91871839Y-20564957D01*
X91846743Y-20583188D01*
X91846743Y-20583191D01*
X92415906Y-21152352D01*
X92328429Y-21175792D01*
X92227070Y-21234311D01*
X92144311Y-21317070D01*
X92085792Y-21418429D01*
X92062352Y-21505905D01*
X91493191Y-20936743D01*
X91493188Y-20936743D01*
X91474957Y-20961839D01*
X91474953Y-20961844D01*
X91389305Y-21129936D01*
X91389304Y-21129938D01*
X91331011Y-21309349D01*
X91301500Y-21495676D01*
X91301500Y-21684323D01*
X91331011Y-21870650D01*
X91389304Y-22050061D01*
X91389305Y-22050063D01*
X91474952Y-22218153D01*
X91493189Y-22243255D01*
X91493190Y-22243255D01*
X92062352Y-21674093D01*
X92085792Y-21761571D01*
X92144311Y-21862930D01*
X92227070Y-21945689D01*
X92328429Y-22004208D01*
X92415905Y-22027647D01*
X91846743Y-22596808D01*
X91846743Y-22596809D01*
X91871844Y-22615046D01*
X92039935Y-22700694D01*
X92039938Y-22700695D01*
X92104912Y-22721806D01*
X92162587Y-22761243D01*
X92189786Y-22825602D01*
X92177872Y-22894448D01*
X92130628Y-22945924D01*
X92104915Y-22957667D01*
X92039744Y-22978843D01*
X92039738Y-22978845D01*
X91871586Y-23064523D01*
X91784475Y-23127813D01*
X91718904Y-23175454D01*
X91718902Y-23175456D01*
X91718901Y-23175456D01*
X91585456Y-23308901D01*
X91585456Y-23308902D01*
X91585454Y-23308904D01*
X91558463Y-23346054D01*
X91474523Y-23461586D01*
X91388844Y-23629741D01*
X91330522Y-23809236D01*
X91301000Y-23995631D01*
X56199000Y-23995631D01*
X56169477Y-23809236D01*
X56169477Y-23809233D01*
X56111157Y-23629744D01*
X56025477Y-23461587D01*
X55914546Y-23308904D01*
X55781096Y-23175454D01*
X55628413Y-23064523D01*
X55460260Y-22978844D01*
X55420698Y-22965989D01*
X55395085Y-22957667D01*
X55337411Y-22918230D01*
X55310213Y-22853871D01*
X55322128Y-22785025D01*
X55369373Y-22733549D01*
X55395088Y-22721806D01*
X55460058Y-22700696D01*
X55460064Y-22700694D01*
X55628151Y-22615048D01*
X55653255Y-22596808D01*
X55653256Y-22596808D01*
X55084095Y-22027647D01*
X55171571Y-22004208D01*
X55272930Y-21945689D01*
X55355689Y-21862930D01*
X55414208Y-21761571D01*
X55437647Y-21674094D01*
X56006808Y-22243256D01*
X56006808Y-22243255D01*
X56025048Y-22218151D01*
X56110694Y-22050064D01*
X56110695Y-22050061D01*
X56168988Y-21870650D01*
X56198500Y-21684323D01*
X56198500Y-21495676D01*
X56168988Y-21309349D01*
X56110695Y-21129938D01*
X56110694Y-21129935D01*
X56025046Y-20961844D01*
X56006809Y-20936743D01*
X56006808Y-20936743D01*
X55437647Y-21505904D01*
X55414208Y-21418429D01*
X55355689Y-21317070D01*
X55272930Y-21234311D01*
X55171571Y-21175792D01*
X55084094Y-21152352D01*
X55653255Y-20583190D01*
X55653255Y-20583189D01*
X55628153Y-20564952D01*
X55460063Y-20479305D01*
X55460061Y-20479304D01*
X55280650Y-20421011D01*
X55094323Y-20391500D01*
X54905677Y-20391500D01*
X54719349Y-20421011D01*
X54539938Y-20479304D01*
X54539936Y-20479305D01*
X54371844Y-20564953D01*
X54371839Y-20564957D01*
X54346743Y-20583188D01*
X54346743Y-20583191D01*
X54915906Y-21152352D01*
X54828429Y-21175792D01*
X54727070Y-21234311D01*
X54644311Y-21317070D01*
X54585792Y-21418429D01*
X54562352Y-21505905D01*
X53993191Y-20936743D01*
X53993188Y-20936743D01*
X53974957Y-20961839D01*
X53974953Y-20961844D01*
X53889305Y-21129936D01*
X53889304Y-21129938D01*
X53831011Y-21309349D01*
X53801500Y-21495676D01*
X53801500Y-21684323D01*
X53831011Y-21870650D01*
X53889304Y-22050061D01*
X53889305Y-22050063D01*
X53974952Y-22218153D01*
X53993189Y-22243255D01*
X53993190Y-22243255D01*
X54562352Y-21674093D01*
X54585792Y-21761571D01*
X54644311Y-21862930D01*
X54727070Y-21945689D01*
X54828429Y-22004208D01*
X54915905Y-22027647D01*
X54346743Y-22596808D01*
X54346743Y-22596809D01*
X54371844Y-22615046D01*
X54539935Y-22700694D01*
X54539938Y-22700695D01*
X54604912Y-22721806D01*
X54662587Y-22761243D01*
X54689786Y-22825602D01*
X54677872Y-22894448D01*
X54630628Y-22945924D01*
X54604915Y-22957667D01*
X54539744Y-22978843D01*
X54539738Y-22978845D01*
X54371586Y-23064523D01*
X54284475Y-23127813D01*
X54218904Y-23175454D01*
X54218902Y-23175456D01*
X54218901Y-23175456D01*
X54085456Y-23308901D01*
X54085456Y-23308902D01*
X54085454Y-23308904D01*
X54058463Y-23346054D01*
X53974523Y-23461586D01*
X53888844Y-23629741D01*
X53830522Y-23809236D01*
X53801000Y-23995631D01*
X19050000Y-23995631D01*
X19050000Y-21468711D01*
X22279500Y-21468711D01*
X22279500Y-21711288D01*
X22311161Y-21951785D01*
X22373947Y-22186104D01*
X22466773Y-22410205D01*
X22466776Y-22410212D01*
X22588064Y-22620289D01*
X22588066Y-22620292D01*
X22588067Y-22620293D01*
X22735733Y-22812736D01*
X22735739Y-22812743D01*
X22907256Y-22984260D01*
X22907262Y-22984265D01*
X23099711Y-23131936D01*
X23309788Y-23253224D01*
X23533900Y-23346054D01*
X23768211Y-23408838D01*
X23948586Y-23432584D01*
X24008711Y-23440500D01*
X24008712Y-23440500D01*
X24251289Y-23440500D01*
X24299388Y-23434167D01*
X24491789Y-23408838D01*
X24726100Y-23346054D01*
X24950212Y-23253224D01*
X25160289Y-23131936D01*
X25352738Y-22984265D01*
X25524265Y-22812738D01*
X25671936Y-22620289D01*
X25793224Y-22410212D01*
X25886054Y-22186100D01*
X25948838Y-21951789D01*
X25980500Y-21711288D01*
X25980500Y-21468712D01*
X25948838Y-21228211D01*
X25886054Y-20993900D01*
X25793224Y-20769788D01*
X25671936Y-20559711D01*
X25565508Y-20421011D01*
X25524266Y-20367263D01*
X25524260Y-20367256D01*
X25352743Y-20195739D01*
X25352736Y-20195733D01*
X25160293Y-20048067D01*
X25160292Y-20048066D01*
X25160289Y-20048064D01*
X24950212Y-19926776D01*
X24950205Y-19926773D01*
X24726104Y-19833947D01*
X24491785Y-19771161D01*
X24251289Y-19739500D01*
X24251288Y-19739500D01*
X24008712Y-19739500D01*
X24008711Y-19739500D01*
X23768214Y-19771161D01*
X23533895Y-19833947D01*
X23309794Y-19926773D01*
X23309785Y-19926777D01*
X23099706Y-20048067D01*
X22907263Y-20195733D01*
X22907256Y-20195739D01*
X22735739Y-20367256D01*
X22735733Y-20367263D01*
X22588067Y-20559706D01*
X22466777Y-20769785D01*
X22466773Y-20769794D01*
X22373947Y-20993895D01*
X22311161Y-21228214D01*
X22279500Y-21468711D01*
X19050000Y-21468711D01*
X19050000Y-17904000D01*
X19069685Y-17836961D01*
X19122489Y-17791206D01*
X19174000Y-17780000D01*
X151006000Y-17780000D01*
X151073039Y-17799685D01*
G37*
%TD.AperFunction*%
%TD*%
M02*
