%TF.GenerationSoftware,KiCad,Pcbnew,10.0.6-10.0.6~ubuntu24.04.1*%
%TF.CreationDate,2026-09-13T15:43:52+02:00*%
%TF.ProjectId,new_PCB,6e65775f-5043-4422-9e6b-696361645f70,rev?*%
%TF.SameCoordinates,Original*%
%TF.FileFunction,Copper,L2,Bot*%
%TF.FilePolarity,Positive*%
%FSLAX46Y46*%
G04 Gerber Fmt 4.6, Leading zero omitted, Abs format (unit mm)*
G04 Created by KiCad (PCBNEW 10.0.6-10.0.6~ubuntu24.04.1) date 2026-09-13 15:43:52*
%MOMM*%
%LPD*%
G01*
G04 APERTURE LIST*
G04 Aperture macros list*
%AMRoundRect*
0 Rectangle with rounded corners*
0 $1 Rounding radius*
0 $2 $3 $4 $5 $6 $7 $8 $9 X,Y pos of 4 corners*
0 Add a 4 corners polygon primitive as box body*
4,1,4,$2,$3,$4,$5,$6,$7,$8,$9,$2,$3,0*
0 Add four circle primitives for the rounded corners*
1,1,$1+$1,$2,$3*
1,1,$1+$1,$4,$5*
1,1,$1+$1,$6,$7*
1,1,$1+$1,$8,$9*
0 Add four rect primitives between the rounded corners*
20,1,$1+$1,$2,$3,$4,$5,0*
20,1,$1+$1,$4,$5,$6,$7,0*
20,1,$1+$1,$6,$7,$8,$9,0*
20,1,$1+$1,$8,$9,$2,$3,0*%
G04 Aperture macros list end*
%TA.AperFunction,ComponentPad*%
%ADD10C,3.716000*%
%TD*%
%TA.AperFunction,ComponentPad*%
%ADD11R,3.716000X3.716000*%
%TD*%
%TA.AperFunction,ComponentPad*%
%ADD12O,2.600000X1.300000*%
%TD*%
%TA.AperFunction,ComponentPad*%
%ADD13RoundRect,0.250000X0.550000X-0.550000X0.550000X0.550000X-0.550000X0.550000X-0.550000X-0.550000X0*%
%TD*%
%TA.AperFunction,ComponentPad*%
%ADD14C,1.600000*%
%TD*%
%TA.AperFunction,ComponentPad*%
%ADD15R,1.530000X1.530000*%
%TD*%
%TA.AperFunction,ComponentPad*%
%ADD16C,1.530000*%
%TD*%
%TA.AperFunction,ComponentPad*%
%ADD17C,1.397000*%
%TD*%
%TA.AperFunction,ComponentPad*%
%ADD18RoundRect,0.250000X0.550000X0.550000X-0.550000X0.550000X-0.550000X-0.550000X0.550000X-0.550000X0*%
%TD*%
%TA.AperFunction,ComponentPad*%
%ADD19R,1.700000X1.700000*%
%TD*%
%TA.AperFunction,ComponentPad*%
%ADD20C,1.700000*%
%TD*%
%TA.AperFunction,ComponentPad*%
%ADD21O,1.600000X1.600000*%
%TD*%
%TA.AperFunction,ViaPad*%
%ADD22C,0.600000*%
%TD*%
%TA.AperFunction,Conductor*%
%ADD23C,0.500000*%
%TD*%
%TA.AperFunction,Conductor*%
%ADD24C,1.000000*%
%TD*%
G04 APERTURE END LIST*
D10*
%TO.P,J1,1,P_1*%
%TO.N,VBAT_1*%
X39245000Y-87108750D03*
D11*
%TO.P,J1,2,N_2*%
%TO.N,GND*%
X39245000Y-94308750D03*
D12*
%TO.P,J1,SH1,SHIELD_SH1*%
%TO.N,unconnected-(J1-SHIELD-PadSH1)*%
X33245000Y-83958750D03*
%TO.P,J1,SH2,SHIELD_SH2*%
%TO.N,unconnected-(J1-SHIELD-PadSH1)_1*%
X33245000Y-97458750D03*
%TD*%
D10*
%TO.P,J2,1,P_1*%
%TO.N,VBAT_2*%
X39245000Y-57608750D03*
D11*
%TO.P,J2,2,N_2*%
%TO.N,GND*%
X39245000Y-64808750D03*
D12*
%TO.P,J2,SH1,SHIELD_SH1*%
%TO.N,unconnected-(J2-SHIELD-PadSH1)*%
X33245000Y-54458750D03*
%TO.P,J2,SH2,SHIELD_SH2*%
%TO.N,unconnected-(J2-SHIELD-PadSH1)_1*%
X33245000Y-67958750D03*
%TD*%
D13*
%TO.P,C9,1*%
%TO.N,VBUS_1*%
X121550000Y-108700000D03*
D14*
%TO.P,C9,2*%
%TO.N,GND*%
X121550000Y-106200000D03*
%TD*%
D15*
%TO.P,U1,J1_1,+3V3_J1_1*%
%TO.N,+3V3*%
X127220000Y-65645000D03*
D16*
%TO.P,U1,J1_2,+3V3_J1_2*%
X124680000Y-65645000D03*
%TO.P,U1,J1_3,RST_J1_3*%
%TO.N,unconnected-(U1-RST-PadJ1_3)*%
X122140000Y-65645000D03*
%TO.P,U1,J1_4,GPIO4_J1_4*%
%TO.N,/RX2*%
X119600000Y-65645000D03*
%TO.P,U1,J1_5,GPIO5_J1_5*%
%TO.N,/TX2*%
X117060000Y-65645000D03*
%TO.P,U1,J1_6,GPIO6_J1_6*%
%TO.N,unconnected-(U1-GPIO6-PadJ1_6)*%
X114520000Y-65645000D03*
%TO.P,U1,J1_7,GPIO7_J1_7*%
%TO.N,/TXEN1*%
X111980000Y-65645000D03*
%TO.P,U1,J1_8,GPIO15_J1_8*%
%TO.N,unconnected-(U1-GPIO15-PadJ1_8)*%
X109440000Y-65645000D03*
%TO.P,U1,J1_9,GPIO16_J1_9*%
%TO.N,unconnected-(U1-GPIO16-PadJ1_9)*%
X106900000Y-65645000D03*
%TO.P,U1,J1_10,GPIO17_J1_10*%
%TO.N,/TX1*%
X104360000Y-65645000D03*
%TO.P,U1,J1_11,GPIO18_J1_11*%
%TO.N,/RX1*%
X101820000Y-65645000D03*
%TO.P,U1,J1_12,GPIO8_J1_12*%
%TO.N,/TXEN2*%
X99280000Y-65645000D03*
%TO.P,U1,J1_13,GPIO3_J1_13*%
%TO.N,unconnected-(U1-GPIO3-PadJ1_13)*%
X96740000Y-65645000D03*
%TO.P,U1,J1_14,GPIO46_J1_14*%
%TO.N,unconnected-(U1-GPIO46-PadJ1_14)*%
X94200000Y-65645000D03*
%TO.P,U1,J1_15,GPIO9_J1_15*%
%TO.N,unconnected-(U1-GPIO9-PadJ1_15)*%
X91660000Y-65645000D03*
%TO.P,U1,J1_16,GPIO10_J1_16*%
%TO.N,unconnected-(U1-GPIO10-PadJ1_16)*%
X89120000Y-65645000D03*
%TO.P,U1,J1_17,GPIO11_J1_17*%
%TO.N,unconnected-(U1-GPIO11-PadJ1_17)*%
X86580000Y-65645000D03*
%TO.P,U1,J1_18,GPIO12_J1_18*%
%TO.N,unconnected-(U1-GPIO12-PadJ1_18)*%
X84040000Y-65645000D03*
%TO.P,U1,J1_19,GPIO13_J1_19*%
%TO.N,unconnected-(U1-GPIO13-PadJ1_19)*%
X81500000Y-65645000D03*
%TO.P,U1,J1_20,GPIO14_J1_20*%
%TO.N,unconnected-(U1-GPIO14-PadJ1_20)*%
X78960000Y-65645000D03*
%TO.P,U1,J1_21,+5V_J1_21*%
%TO.N,+5V*%
X76420000Y-65645000D03*
%TO.P,U1,J1_22,GND_J1_22*%
%TO.N,GND*%
X73880000Y-65645000D03*
%TO.P,U1,J3_1,GND_J3_1*%
X127220000Y-91355000D03*
%TO.P,U1,J3_2,U0TXD/GPIO43_J3_2*%
%TO.N,unconnected-(U1-U0TXD{slash}GPIO43-PadJ3_2)*%
X124680000Y-91355000D03*
%TO.P,U1,J3_3,U0RXD/GPIO44_J3_3*%
%TO.N,unconnected-(U1-U0RXD{slash}GPIO44-PadJ3_3)*%
X122140000Y-91355000D03*
%TO.P,U1,J3_4,GPIO1_J3_4*%
%TO.N,/BAT_LVL*%
X119600000Y-91355000D03*
%TO.P,U1,J3_5,GPIO2_J3_5*%
%TO.N,unconnected-(U1-GPIO2-PadJ3_5)*%
X117060000Y-91355000D03*
%TO.P,U1,J3_6,MTMS/GPIO42_J3_6*%
%TO.N,unconnected-(U1-MTMS{slash}GPIO42-PadJ3_6)*%
X114520000Y-91355000D03*
%TO.P,U1,J3_7,MTDI/GPIO41_J3_7*%
%TO.N,unconnected-(U1-MTDI{slash}GPIO41-PadJ3_7)*%
X111980000Y-91355000D03*
%TO.P,U1,J3_8,MTDO/GPIO40_J3_8*%
%TO.N,unconnected-(U1-MTDO{slash}GPIO40-PadJ3_8)*%
X109440000Y-91355000D03*
%TO.P,U1,J3_9,MTCK/GPIO39_J3_9*%
%TO.N,unconnected-(U1-MTCK{slash}GPIO39-PadJ3_9)*%
X106900000Y-91355000D03*
%TO.P,U1,J3_10,GPIO38_J3_10*%
%TO.N,unconnected-(U1-GPIO38-PadJ3_10)*%
X104360000Y-91355000D03*
%TO.P,U1,J3_11,GPIO37_J3_11*%
%TO.N,unconnected-(U1-GPIO37-PadJ3_11)*%
X101820000Y-91355000D03*
%TO.P,U1,J3_12,GPIO36_J3_12*%
%TO.N,unconnected-(U1-GPIO36-PadJ3_12)*%
X99280000Y-91355000D03*
%TO.P,U1,J3_13,GPIO35_J3_13*%
%TO.N,unconnected-(U1-GPIO35-PadJ3_13)*%
X96740000Y-91355000D03*
%TO.P,U1,J3_14,GPIO0_J3_14*%
%TO.N,unconnected-(U1-GPIO0-PadJ3_14)*%
X94200000Y-91355000D03*
%TO.P,U1,J3_15,GPIO45_J3_15*%
%TO.N,unconnected-(U1-GPIO45-PadJ3_15)*%
X91660000Y-91355000D03*
%TO.P,U1,J3_16,GPIO48_J3_16*%
%TO.N,unconnected-(U1-GPIO48-PadJ3_16)*%
X89120000Y-91355000D03*
%TO.P,U1,J3_17,GPIO47_J3_17*%
%TO.N,unconnected-(U1-GPIO47-PadJ3_17)*%
X86580000Y-91355000D03*
%TO.P,U1,J3_18,GPIO21_J3_18*%
%TO.N,unconnected-(U1-GPIO21-PadJ3_18)*%
X84040000Y-91355000D03*
%TO.P,U1,J3_19,USB_D+/GPIO20_J3_19*%
%TO.N,unconnected-(U1-USB_D+{slash}GPIO20-PadJ3_19)*%
X81500000Y-91355000D03*
%TO.P,U1,J3_20,USB_D-/GPIO19_J3_20*%
%TO.N,unconnected-(U1-USB_D-{slash}GPIO19-PadJ3_20)*%
X78960000Y-91355000D03*
%TO.P,U1,J3_21,GND_J3_21*%
%TO.N,GND*%
X76420000Y-91355000D03*
%TO.P,U1,J3_22,GND_J3_22*%
X73880000Y-91355000D03*
%TD*%
D13*
%TO.P,C2,1*%
%TO.N,VBUS_2*%
X34650000Y-75632379D03*
D14*
%TO.P,C2,2*%
%TO.N,GND*%
X34650000Y-73132379D03*
%TD*%
D17*
%TO.P,J3,1,1_1*%
%TO.N,GND*%
X39850000Y-31500000D03*
%TO.P,J3,2,2_2*%
%TO.N,VBUS_2*%
X39850000Y-34000000D03*
%TO.P,J3,3,3_3*%
%TO.N,/SERVO_DATA1*%
X39850000Y-36500000D03*
%TD*%
%TO.P,J4,1,1_1*%
%TO.N,GND*%
X75350000Y-31500000D03*
%TO.P,J4,2,2_2*%
%TO.N,VBUS_2*%
X75350000Y-34000000D03*
%TO.P,J4,3,3_3*%
%TO.N,/SERVO_DATA1*%
X75350000Y-36500000D03*
%TD*%
D13*
%TO.P,C17,1*%
%TO.N,VBUS_2*%
X121250000Y-33932380D03*
D14*
%TO.P,C17,2*%
%TO.N,GND*%
X121250000Y-31432380D03*
%TD*%
D18*
%TO.P,C6,1*%
%TO.N,/+5V_RAW*%
X62750000Y-83750000D03*
D14*
%TO.P,C6,2*%
%TO.N,GND*%
X60250000Y-83750000D03*
%TD*%
D17*
%TO.P,J6,1,1_1*%
%TO.N,GND*%
X39848900Y-106410400D03*
%TO.P,J6,2,2_2*%
%TO.N,VBUS_1*%
X39848900Y-108910400D03*
%TO.P,J6,3,3_3*%
%TO.N,/SERVO_DATA2*%
X39848900Y-111410400D03*
%TD*%
%TO.P,J8,1,1_1*%
%TO.N,GND*%
X110848900Y-106410400D03*
%TO.P,J8,2,2_2*%
%TO.N,VBUS_1*%
X110848900Y-108910400D03*
%TO.P,J8,3,3_3*%
%TO.N,/SERVO_DATA2*%
X110848900Y-111410400D03*
%TD*%
D13*
%TO.P,C8,1*%
%TO.N,VBUS_1*%
X85998900Y-108810400D03*
D14*
%TO.P,C8,2*%
%TO.N,GND*%
X85998900Y-106310400D03*
%TD*%
D17*
%TO.P,J7,1,1_1*%
%TO.N,GND*%
X75348900Y-106410400D03*
%TO.P,J7,2,2_2*%
%TO.N,VBUS_1*%
X75348900Y-108910400D03*
%TO.P,J7,3,3_3*%
%TO.N,/SERVO_DATA2*%
X75348900Y-111410400D03*
%TD*%
D19*
%TO.P,J9,1,Pin_1_1*%
%TO.N,/+5V_RAW*%
X60000000Y-90250000D03*
D20*
%TO.P,J9,2,Pin_2_2*%
%TO.N,+5V*%
X62540000Y-90250000D03*
%TD*%
D13*
%TO.P,C15,1*%
%TO.N,VBUS_2*%
X85751100Y-33689600D03*
D14*
%TO.P,C15,2*%
%TO.N,GND*%
X85751100Y-31189600D03*
%TD*%
%TO.P,U2,1,OUT+_1*%
%TO.N,/+5V_RAW*%
X62271000Y-77854000D03*
%TO.P,U2,2,OUT+_2*%
X62271000Y-75314000D03*
D21*
%TO.P,U2,3,OUT-_3*%
%TO.N,GND*%
X62271000Y-67186000D03*
%TO.P,U2,4,OUT-_4*%
X62271000Y-64646000D03*
%TO.P,U2,5,IN-_5*%
X43729000Y-64646000D03*
%TO.P,U2,6,IN-_6*%
X43729000Y-67186000D03*
D14*
%TO.P,U2,7,IN+_7*%
%TO.N,VBUS_2*%
X43729000Y-75314000D03*
%TO.P,U2,8,IN+_8*%
X43729000Y-77854000D03*
%TD*%
D13*
%TO.P,C12,1*%
%TO.N,VBUS_2*%
X50201100Y-34039600D03*
D14*
%TO.P,C12,2*%
%TO.N,GND*%
X50201100Y-31539600D03*
%TD*%
D18*
%TO.P,C21,1*%
%TO.N,+5V*%
X76330000Y-55005000D03*
D14*
%TO.P,C21,2*%
%TO.N,GND*%
X73830000Y-55005000D03*
%TD*%
D17*
%TO.P,J5,1,1_1*%
%TO.N,GND*%
X110850000Y-31500000D03*
%TO.P,J5,2,2_2*%
%TO.N,VBUS_2*%
X110850000Y-34000000D03*
%TO.P,J5,3,3_3*%
%TO.N,/SERVO_DATA1*%
X110850000Y-36500000D03*
%TD*%
D13*
%TO.P,C7,1*%
%TO.N,VBUS_1*%
X50650000Y-109050000D03*
D14*
%TO.P,C7,2*%
%TO.N,GND*%
X50650000Y-106550000D03*
%TD*%
D22*
%TO.N,/SERVO_DATA2*%
X109625000Y-63375000D03*
X108250000Y-104250000D03*
%TO.N,GND*%
X122500000Y-52000000D03*
X119250000Y-52000000D03*
X118000000Y-52000000D03*
X93750000Y-56250000D03*
X103000000Y-50750000D03*
X99500000Y-50000000D03*
%TO.N,/SERVO_DATA2*%
X115000000Y-59500000D03*
%TO.N,/SERVO_DATA1*%
X111000000Y-40250000D03*
X118000000Y-45250000D03*
%TO.N,GND*%
X43000000Y-92700000D03*
X41405777Y-72489277D03*
X43905777Y-69989277D03*
X42340000Y-54072500D03*
%TO.N,/TXEN1*%
X123855000Y-51929500D03*
%TO.N,/TXEN2*%
X110605000Y-49529500D03*
%TO.N,/RXEN2*%
X104355000Y-59029500D03*
X119405000Y-53800000D03*
%TO.N,/RXEN1*%
X116865000Y-51750000D03*
X104355000Y-56529500D03*
%TO.N,/TX1*%
X120605000Y-46529500D03*
%TO.N,/RX1*%
X115605000Y-51529500D03*
%TD*%
%TO.N,/SERVO_DATA2*%
D23*
X108250000Y-104250000D02*
X108250000Y-108811500D01*
X108250000Y-108811500D02*
X110848900Y-111410400D01*
%TO.N,/RXEN2*%
X119405000Y-53800000D02*
X119205000Y-54000000D01*
X119205000Y-54000000D02*
X117500000Y-54000000D01*
X117500000Y-54000000D02*
X115250000Y-56250000D01*
X115250000Y-56250000D02*
X107134500Y-56250000D01*
X107134500Y-56250000D02*
X104355000Y-59029500D01*
%TO.N,/RXEN1*%
X116865000Y-53385000D02*
X116865000Y-51750000D01*
%TO.N,/SERVO_DATA2*%
X113500000Y-59500000D02*
X109625000Y-63375000D01*
X113500000Y-59500000D02*
X115000000Y-59500000D01*
%TO.N,/TX1*%
X120605000Y-46529500D02*
X120605000Y-53990161D01*
X120605000Y-53990161D02*
X119715661Y-54879500D01*
X119715661Y-54879500D02*
X117620500Y-54879500D01*
X117620500Y-54879500D02*
X115500000Y-57000000D01*
X115500000Y-57000000D02*
X109500000Y-57000000D01*
X109500000Y-57000000D02*
X104360000Y-62140000D01*
X104360000Y-62140000D02*
X104360000Y-65645000D01*
%TO.N,/RXEN1*%
X104355000Y-56529500D02*
X105384500Y-55500000D01*
X105384500Y-55500000D02*
X114750000Y-55500000D01*
X114750000Y-55500000D02*
X116865000Y-53385000D01*
%TO.N,/SERVO_DATA1*%
D24*
X118000000Y-45250000D02*
X116000000Y-45250000D01*
X116000000Y-45250000D02*
X111000000Y-40250000D01*
%TO.N,/TXEN1*%
D23*
X123855000Y-53529500D02*
X111980000Y-65404500D01*
X111980000Y-65404500D02*
X111980000Y-65645000D01*
X123855000Y-51929500D02*
X123855000Y-53529500D01*
%TO.N,/TXEN2*%
X110605000Y-49529500D02*
X110605000Y-52779500D01*
X110605000Y-52779500D02*
X110105000Y-53279500D01*
X103355000Y-53279500D02*
X99280000Y-57354500D01*
X110105000Y-53279500D02*
X103355000Y-53279500D01*
X99280000Y-57354500D02*
X99280000Y-65645000D01*
%TO.N,/RX1*%
X114355000Y-54779500D02*
X104355000Y-54779500D01*
X115605000Y-53529500D02*
X114355000Y-54779500D01*
X115605000Y-51529500D02*
X115605000Y-53529500D01*
X104355000Y-54779500D02*
X101820000Y-57314500D01*
X101820000Y-57314500D02*
X101820000Y-65645000D01*
%TD*%
%TA.AperFunction,Conductor*%
%TO.N,GND*%
G36*
X43979000Y-66870314D02*
G01*
X43974606Y-66865920D01*
X43883394Y-66813259D01*
X43781661Y-66786000D01*
X43676339Y-66786000D01*
X43574606Y-66813259D01*
X43483394Y-66865920D01*
X43479000Y-66870314D01*
X43479000Y-64961686D01*
X43483394Y-64966080D01*
X43574606Y-65018741D01*
X43676339Y-65046000D01*
X43781661Y-65046000D01*
X43883394Y-65018741D01*
X43974606Y-64966080D01*
X43979000Y-64961686D01*
X43979000Y-66870314D01*
G37*
%TD.AperFunction*%
%TA.AperFunction,Conductor*%
G36*
X62521000Y-66870314D02*
G01*
X62516606Y-66865920D01*
X62425394Y-66813259D01*
X62323661Y-66786000D01*
X62218339Y-66786000D01*
X62116606Y-66813259D01*
X62025394Y-66865920D01*
X62021000Y-66870314D01*
X62021000Y-64961686D01*
X62025394Y-64966080D01*
X62116606Y-65018741D01*
X62218339Y-65046000D01*
X62323661Y-65046000D01*
X62425394Y-65018741D01*
X62516606Y-64966080D01*
X62521000Y-64961686D01*
X62521000Y-66870314D01*
G37*
%TD.AperFunction*%
%TA.AperFunction,Conductor*%
G36*
X127256061Y-24500597D02*
G01*
X127432941Y-24518018D01*
X127456769Y-24522757D01*
X127621001Y-24572576D01*
X127643453Y-24581877D01*
X127794798Y-24662772D01*
X127815010Y-24676277D01*
X127947666Y-24785145D01*
X127964854Y-24802333D01*
X128073722Y-24934989D01*
X128087227Y-24955201D01*
X128168121Y-25106543D01*
X128177424Y-25129001D01*
X128227240Y-25293224D01*
X128231982Y-25317065D01*
X128249403Y-25493938D01*
X128250000Y-25506092D01*
X128250000Y-64527735D01*
X128230315Y-64594774D01*
X128177511Y-64640529D01*
X128108353Y-64650473D01*
X128090513Y-64645579D01*
X128009677Y-64629500D01*
X128009674Y-64629500D01*
X126430326Y-64629500D01*
X126430323Y-64629500D01*
X126357264Y-64644032D01*
X126357260Y-64644033D01*
X126274399Y-64699399D01*
X126219033Y-64782260D01*
X126219032Y-64782264D01*
X126204500Y-64855321D01*
X126204500Y-66434678D01*
X126219032Y-66507735D01*
X126219033Y-66507739D01*
X126219034Y-66507740D01*
X126274399Y-66590601D01*
X126348681Y-66640234D01*
X126357260Y-66645966D01*
X126357264Y-66645967D01*
X126430321Y-66660499D01*
X126430324Y-66660500D01*
X126430326Y-66660500D01*
X128009676Y-66660500D01*
X128009677Y-66660499D01*
X128026719Y-66657109D01*
X128094719Y-66643584D01*
X128095182Y-66645914D01*
X128148013Y-66640234D01*
X128210493Y-66671507D01*
X128246147Y-66731595D01*
X128250000Y-66762264D01*
X128250000Y-90678554D01*
X127711128Y-91217425D01*
X127695245Y-91158147D01*
X127628102Y-91041853D01*
X127533147Y-90946898D01*
X127416853Y-90879755D01*
X127357574Y-90863871D01*
X127920864Y-90300581D01*
X127920863Y-90300580D01*
X127883008Y-90273077D01*
X127705594Y-90182679D01*
X127516222Y-90121147D01*
X127319563Y-90090000D01*
X127120437Y-90090000D01*
X126923777Y-90121147D01*
X126734405Y-90182679D01*
X126556990Y-90273077D01*
X126519135Y-90300580D01*
X126519135Y-90300581D01*
X127082425Y-90863871D01*
X127023147Y-90879755D01*
X126906853Y-90946898D01*
X126811898Y-91041853D01*
X126744755Y-91158147D01*
X126728871Y-91217425D01*
X126165581Y-90654135D01*
X126165580Y-90654135D01*
X126138077Y-90691990D01*
X126047679Y-90869405D01*
X125986147Y-91058777D01*
X125955000Y-91255436D01*
X125955000Y-91454563D01*
X125986147Y-91651222D01*
X126047679Y-91840594D01*
X126138077Y-92018008D01*
X126165580Y-92055863D01*
X126165581Y-92055864D01*
X126728871Y-91492574D01*
X126744755Y-91551853D01*
X126811898Y-91668147D01*
X126906853Y-91763102D01*
X127023147Y-91830245D01*
X127082425Y-91846128D01*
X126519134Y-92409417D01*
X126556994Y-92436924D01*
X126734405Y-92527320D01*
X126923777Y-92588852D01*
X127120437Y-92620000D01*
X127319563Y-92620000D01*
X127516222Y-92588852D01*
X127705594Y-92527320D01*
X127883005Y-92436924D01*
X127920863Y-92409418D01*
X127920863Y-92409417D01*
X127357574Y-91846128D01*
X127416853Y-91830245D01*
X127533147Y-91763102D01*
X127628102Y-91668147D01*
X127695245Y-91551853D01*
X127711128Y-91492574D01*
X128250000Y-92031446D01*
X128250000Y-92297827D01*
X128250000Y-116993907D01*
X128249403Y-117006061D01*
X128231982Y-117182934D01*
X128227240Y-117206775D01*
X128177424Y-117370998D01*
X128168121Y-117393456D01*
X128087227Y-117544798D01*
X128073722Y-117565010D01*
X127964854Y-117697666D01*
X127947666Y-117714854D01*
X127815010Y-117823722D01*
X127794798Y-117837227D01*
X127643456Y-117918121D01*
X127620998Y-117927424D01*
X127456775Y-117977240D01*
X127432934Y-117981982D01*
X127256061Y-117999403D01*
X127243907Y-118000000D01*
X31756093Y-118000000D01*
X31743939Y-117999403D01*
X31567065Y-117981982D01*
X31543224Y-117977240D01*
X31379001Y-117927424D01*
X31356543Y-117918121D01*
X31205201Y-117837227D01*
X31184989Y-117823722D01*
X31052333Y-117714854D01*
X31035145Y-117697666D01*
X30926277Y-117565010D01*
X30912772Y-117544798D01*
X30831878Y-117393456D01*
X30822575Y-117370998D01*
X30772757Y-117206769D01*
X30768018Y-117182941D01*
X30750597Y-117006061D01*
X30750000Y-116993907D01*
X30750000Y-115128711D01*
X31649500Y-115128711D01*
X31649500Y-115371288D01*
X31681161Y-115611785D01*
X31743947Y-115846104D01*
X31836773Y-116070205D01*
X31836776Y-116070212D01*
X31958064Y-116280289D01*
X31958066Y-116280292D01*
X31958067Y-116280293D01*
X32105733Y-116472736D01*
X32105739Y-116472743D01*
X32277256Y-116644260D01*
X32277262Y-116644265D01*
X32469711Y-116791936D01*
X32679788Y-116913224D01*
X32903900Y-117006054D01*
X33138211Y-117068838D01*
X33318586Y-117092584D01*
X33378711Y-117100500D01*
X33378712Y-117100500D01*
X33621289Y-117100500D01*
X33669388Y-117094167D01*
X33861789Y-117068838D01*
X34096100Y-117006054D01*
X34320212Y-116913224D01*
X34530289Y-116791936D01*
X34722738Y-116644265D01*
X34894265Y-116472738D01*
X35041936Y-116280289D01*
X35163224Y-116070212D01*
X35256054Y-115846100D01*
X35318838Y-115611789D01*
X35350500Y-115371288D01*
X35350500Y-115128712D01*
X35350500Y-115128711D01*
X123649500Y-115128711D01*
X123649500Y-115371288D01*
X123681161Y-115611785D01*
X123743947Y-115846104D01*
X123836773Y-116070205D01*
X123836776Y-116070212D01*
X123958064Y-116280289D01*
X123958066Y-116280292D01*
X123958067Y-116280293D01*
X124105733Y-116472736D01*
X124105739Y-116472743D01*
X124277256Y-116644260D01*
X124277262Y-116644265D01*
X124469711Y-116791936D01*
X124679788Y-116913224D01*
X124903900Y-117006054D01*
X125138211Y-117068838D01*
X125318586Y-117092584D01*
X125378711Y-117100500D01*
X125378712Y-117100500D01*
X125621289Y-117100500D01*
X125669388Y-117094167D01*
X125861789Y-117068838D01*
X126096100Y-117006054D01*
X126320212Y-116913224D01*
X126530289Y-116791936D01*
X126722738Y-116644265D01*
X126894265Y-116472738D01*
X127041936Y-116280289D01*
X127163224Y-116070212D01*
X127256054Y-115846100D01*
X127318838Y-115611789D01*
X127350500Y-115371288D01*
X127350500Y-115128712D01*
X127318838Y-114888211D01*
X127256054Y-114653900D01*
X127163224Y-114429788D01*
X127041936Y-114219711D01*
X126894265Y-114027262D01*
X126894260Y-114027256D01*
X126722743Y-113855739D01*
X126722736Y-113855733D01*
X126530293Y-113708067D01*
X126530292Y-113708066D01*
X126530289Y-113708064D01*
X126320212Y-113586776D01*
X126320205Y-113586773D01*
X126096104Y-113493947D01*
X125861785Y-113431161D01*
X125621289Y-113399500D01*
X125621288Y-113399500D01*
X125378712Y-113399500D01*
X125378711Y-113399500D01*
X125138214Y-113431161D01*
X124903895Y-113493947D01*
X124679794Y-113586773D01*
X124679785Y-113586777D01*
X124469706Y-113708067D01*
X124277263Y-113855733D01*
X124277256Y-113855739D01*
X124105739Y-114027256D01*
X124105733Y-114027263D01*
X123958067Y-114219706D01*
X123836777Y-114429785D01*
X123836773Y-114429794D01*
X123743947Y-114653895D01*
X123681161Y-114888214D01*
X123649500Y-115128711D01*
X35350500Y-115128711D01*
X35318838Y-114888211D01*
X35256054Y-114653900D01*
X35163224Y-114429788D01*
X35041936Y-114219711D01*
X34894265Y-114027262D01*
X34894260Y-114027256D01*
X34722743Y-113855739D01*
X34722736Y-113855733D01*
X34530293Y-113708067D01*
X34530292Y-113708066D01*
X34530289Y-113708064D01*
X34320212Y-113586776D01*
X34320205Y-113586773D01*
X34096104Y-113493947D01*
X33861785Y-113431161D01*
X33621289Y-113399500D01*
X33621288Y-113399500D01*
X33378712Y-113399500D01*
X33378711Y-113399500D01*
X33138214Y-113431161D01*
X32903895Y-113493947D01*
X32679794Y-113586773D01*
X32679785Y-113586777D01*
X32469706Y-113708067D01*
X32277263Y-113855733D01*
X32277256Y-113855739D01*
X32105739Y-114027256D01*
X32105733Y-114027263D01*
X31958067Y-114219706D01*
X31836777Y-114429785D01*
X31836773Y-114429794D01*
X31743947Y-114653895D01*
X31681161Y-114888214D01*
X31649500Y-115128711D01*
X30750000Y-115128711D01*
X30750000Y-111316927D01*
X38899900Y-111316927D01*
X38899900Y-111503872D01*
X38936367Y-111687205D01*
X38936369Y-111687213D01*
X39007905Y-111859917D01*
X39007910Y-111859926D01*
X39111762Y-112015351D01*
X39111765Y-112015355D01*
X39243944Y-112147534D01*
X39243948Y-112147537D01*
X39399373Y-112251389D01*
X39399379Y-112251392D01*
X39399380Y-112251393D01*
X39572087Y-112322931D01*
X39755427Y-112359399D01*
X39755431Y-112359400D01*
X39755432Y-112359400D01*
X39942369Y-112359400D01*
X39942370Y-112359399D01*
X40125713Y-112322931D01*
X40298420Y-112251393D01*
X40453852Y-112147537D01*
X40586037Y-112015352D01*
X40689893Y-111859920D01*
X40761431Y-111687213D01*
X40797900Y-111503868D01*
X40797900Y-111316932D01*
X40797899Y-111316927D01*
X74399900Y-111316927D01*
X74399900Y-111503872D01*
X74436367Y-111687205D01*
X74436369Y-111687213D01*
X74507905Y-111859917D01*
X74507910Y-111859926D01*
X74611762Y-112015351D01*
X74611765Y-112015355D01*
X74743944Y-112147534D01*
X74743948Y-112147537D01*
X74899373Y-112251389D01*
X74899379Y-112251392D01*
X74899380Y-112251393D01*
X75072087Y-112322931D01*
X75255427Y-112359399D01*
X75255431Y-112359400D01*
X75255432Y-112359400D01*
X75442369Y-112359400D01*
X75442370Y-112359399D01*
X75625713Y-112322931D01*
X75798420Y-112251393D01*
X75953852Y-112147537D01*
X76086037Y-112015352D01*
X76189893Y-111859920D01*
X76261431Y-111687213D01*
X76297900Y-111503868D01*
X76297900Y-111316932D01*
X76261431Y-111133587D01*
X76189893Y-110960880D01*
X76189892Y-110960879D01*
X76189889Y-110960873D01*
X76086037Y-110805448D01*
X76086034Y-110805444D01*
X75953855Y-110673265D01*
X75953851Y-110673262D01*
X75798426Y-110569410D01*
X75798417Y-110569405D01*
X75625713Y-110497869D01*
X75625705Y-110497867D01*
X75442372Y-110461400D01*
X75442368Y-110461400D01*
X75255432Y-110461400D01*
X75255427Y-110461400D01*
X75072094Y-110497867D01*
X75072086Y-110497869D01*
X74899382Y-110569405D01*
X74899373Y-110569410D01*
X74743948Y-110673262D01*
X74743944Y-110673265D01*
X74611765Y-110805444D01*
X74611762Y-110805448D01*
X74507910Y-110960873D01*
X74507905Y-110960882D01*
X74436369Y-111133586D01*
X74436367Y-111133594D01*
X74399900Y-111316927D01*
X40797899Y-111316927D01*
X40761431Y-111133587D01*
X40689893Y-110960880D01*
X40689892Y-110960879D01*
X40689889Y-110960873D01*
X40586037Y-110805448D01*
X40586034Y-110805444D01*
X40453855Y-110673265D01*
X40453851Y-110673262D01*
X40298426Y-110569410D01*
X40298417Y-110569405D01*
X40125713Y-110497869D01*
X40125705Y-110497867D01*
X39942372Y-110461400D01*
X39942368Y-110461400D01*
X39755432Y-110461400D01*
X39755427Y-110461400D01*
X39572094Y-110497867D01*
X39572086Y-110497869D01*
X39399382Y-110569405D01*
X39399373Y-110569410D01*
X39243948Y-110673262D01*
X39243944Y-110673265D01*
X39111765Y-110805444D01*
X39111762Y-110805448D01*
X39007910Y-110960873D01*
X39007905Y-110960882D01*
X38936369Y-111133586D01*
X38936367Y-111133594D01*
X38899900Y-111316927D01*
X30750000Y-111316927D01*
X30750000Y-108816927D01*
X38899900Y-108816927D01*
X38899900Y-109003872D01*
X38936367Y-109187205D01*
X38936369Y-109187213D01*
X39007905Y-109359917D01*
X39007910Y-109359926D01*
X39111762Y-109515351D01*
X39111765Y-109515355D01*
X39243944Y-109647534D01*
X39243948Y-109647537D01*
X39399373Y-109751389D01*
X39399379Y-109751392D01*
X39399380Y-109751393D01*
X39572087Y-109822931D01*
X39755427Y-109859399D01*
X39755431Y-109859400D01*
X39755432Y-109859400D01*
X39942369Y-109859400D01*
X39942370Y-109859399D01*
X40125713Y-109822931D01*
X40298420Y-109751393D01*
X40453852Y-109647537D01*
X40586037Y-109515352D01*
X40689893Y-109359920D01*
X40761431Y-109187213D01*
X40797900Y-109003868D01*
X40797900Y-108816932D01*
X40761431Y-108633587D01*
X40689893Y-108460880D01*
X40689891Y-108460877D01*
X40689889Y-108460873D01*
X40586037Y-108305448D01*
X40586034Y-108305444D01*
X40453855Y-108173265D01*
X40453851Y-108173262D01*
X40298426Y-108069410D01*
X40298417Y-108069405D01*
X40125713Y-107997869D01*
X40125705Y-107997867D01*
X39942372Y-107961400D01*
X39942368Y-107961400D01*
X39755432Y-107961400D01*
X39755427Y-107961400D01*
X39572094Y-107997867D01*
X39572086Y-107997869D01*
X39399382Y-108069405D01*
X39399373Y-108069410D01*
X39243948Y-108173262D01*
X39243944Y-108173265D01*
X39111765Y-108305444D01*
X39111762Y-108305448D01*
X39007910Y-108460873D01*
X39007905Y-108460882D01*
X38936369Y-108633586D01*
X38936367Y-108633594D01*
X38899900Y-108816927D01*
X30750000Y-108816927D01*
X30750000Y-106447682D01*
X49350000Y-106447682D01*
X49350000Y-106652317D01*
X49382009Y-106854417D01*
X49445244Y-107049031D01*
X49538141Y-107231350D01*
X49538147Y-107231359D01*
X49570523Y-107275921D01*
X49570524Y-107275922D01*
X50250000Y-106596446D01*
X50250000Y-106602661D01*
X50277259Y-106704394D01*
X50329920Y-106795606D01*
X50404394Y-106870080D01*
X50495606Y-106922741D01*
X50597339Y-106950000D01*
X50603553Y-106950000D01*
X49924076Y-107629474D01*
X49968650Y-107661859D01*
X50150970Y-107754755D01*
X50159624Y-107757567D01*
X50217302Y-107797001D01*
X50244504Y-107861358D01*
X50232594Y-107930205D01*
X50185352Y-107981684D01*
X50121315Y-107999500D01*
X50052130Y-107999500D01*
X50052123Y-107999501D01*
X49992516Y-108005908D01*
X49857671Y-108056202D01*
X49857664Y-108056206D01*
X49742455Y-108142452D01*
X49742452Y-108142455D01*
X49656206Y-108257664D01*
X49656202Y-108257671D01*
X49605908Y-108392517D01*
X49599501Y-108452116D01*
X49599501Y-108452123D01*
X49599500Y-108452135D01*
X49599500Y-109647870D01*
X49599501Y-109647876D01*
X49605908Y-109707483D01*
X49656202Y-109842328D01*
X49656206Y-109842335D01*
X49742452Y-109957544D01*
X49742455Y-109957547D01*
X49857664Y-110043793D01*
X49857671Y-110043797D01*
X49992517Y-110094091D01*
X49992516Y-110094091D01*
X49999444Y-110094835D01*
X50052127Y-110100500D01*
X51247872Y-110100499D01*
X51307483Y-110094091D01*
X51442331Y-110043796D01*
X51557546Y-109957546D01*
X51643796Y-109842331D01*
X51694091Y-109707483D01*
X51700500Y-109647873D01*
X51700499Y-108816927D01*
X74399900Y-108816927D01*
X74399900Y-109003872D01*
X74436367Y-109187205D01*
X74436369Y-109187213D01*
X74507905Y-109359917D01*
X74507910Y-109359926D01*
X74611762Y-109515351D01*
X74611765Y-109515355D01*
X74743944Y-109647534D01*
X74743948Y-109647537D01*
X74899373Y-109751389D01*
X74899379Y-109751392D01*
X74899380Y-109751393D01*
X75072087Y-109822931D01*
X75255427Y-109859399D01*
X75255431Y-109859400D01*
X75255432Y-109859400D01*
X75442369Y-109859400D01*
X75442370Y-109859399D01*
X75625713Y-109822931D01*
X75798420Y-109751393D01*
X75953852Y-109647537D01*
X76086037Y-109515352D01*
X76189893Y-109359920D01*
X76261431Y-109187213D01*
X76297900Y-109003868D01*
X76297900Y-108816932D01*
X76261431Y-108633587D01*
X76189893Y-108460880D01*
X76189892Y-108460879D01*
X76189889Y-108460873D01*
X76086037Y-108305448D01*
X76086034Y-108305444D01*
X75953855Y-108173265D01*
X75953851Y-108173262D01*
X75798426Y-108069410D01*
X75798417Y-108069405D01*
X75625713Y-107997869D01*
X75625705Y-107997867D01*
X75442372Y-107961400D01*
X75442368Y-107961400D01*
X75255432Y-107961400D01*
X75255427Y-107961400D01*
X75072094Y-107997867D01*
X75072086Y-107997869D01*
X74899382Y-108069405D01*
X74899373Y-108069410D01*
X74743948Y-108173262D01*
X74743944Y-108173265D01*
X74611765Y-108305444D01*
X74611762Y-108305448D01*
X74507910Y-108460873D01*
X74507905Y-108460882D01*
X74436369Y-108633586D01*
X74436367Y-108633594D01*
X74399900Y-108816927D01*
X51700499Y-108816927D01*
X51700499Y-108452128D01*
X51694091Y-108392517D01*
X51661616Y-108305448D01*
X51643797Y-108257671D01*
X51643793Y-108257664D01*
X51557547Y-108142455D01*
X51557544Y-108142452D01*
X51442335Y-108056206D01*
X51442328Y-108056202D01*
X51307482Y-108005908D01*
X51307483Y-108005908D01*
X51247883Y-107999501D01*
X51247881Y-107999500D01*
X51247873Y-107999500D01*
X51247865Y-107999500D01*
X51178689Y-107999500D01*
X51111650Y-107979815D01*
X51065895Y-107927011D01*
X51055951Y-107857853D01*
X51084976Y-107794297D01*
X51140372Y-107757569D01*
X51149028Y-107754756D01*
X51331349Y-107661859D01*
X51375921Y-107629474D01*
X50696447Y-106950000D01*
X50702661Y-106950000D01*
X50804394Y-106922741D01*
X50895606Y-106870080D01*
X50970080Y-106795606D01*
X51022741Y-106704394D01*
X51050000Y-106602661D01*
X51050000Y-106596447D01*
X51729474Y-107275921D01*
X51761859Y-107231349D01*
X51854755Y-107049031D01*
X51917990Y-106854417D01*
X51950000Y-106652317D01*
X51950000Y-106447682D01*
X51917990Y-106245582D01*
X51916675Y-106241535D01*
X51905805Y-106208082D01*
X84698900Y-106208082D01*
X84698900Y-106412717D01*
X84730909Y-106614817D01*
X84794144Y-106809431D01*
X84887041Y-106991750D01*
X84887047Y-106991759D01*
X84919423Y-107036321D01*
X84919424Y-107036322D01*
X85598900Y-106356846D01*
X85598900Y-106363061D01*
X85626159Y-106464794D01*
X85678820Y-106556006D01*
X85753294Y-106630480D01*
X85844506Y-106683141D01*
X85946239Y-106710400D01*
X85952453Y-106710400D01*
X85272976Y-107389874D01*
X85317550Y-107422259D01*
X85499870Y-107515155D01*
X85508524Y-107517967D01*
X85566202Y-107557401D01*
X85593404Y-107621758D01*
X85581494Y-107690605D01*
X85534252Y-107742084D01*
X85470215Y-107759900D01*
X85401030Y-107759900D01*
X85401023Y-107759901D01*
X85341416Y-107766308D01*
X85206571Y-107816602D01*
X85206564Y-107816606D01*
X85091355Y-107902852D01*
X85091352Y-107902855D01*
X85005106Y-108018064D01*
X85005102Y-108018071D01*
X84954808Y-108152917D01*
X84952621Y-108173263D01*
X84948401Y-108212523D01*
X84948400Y-108212535D01*
X84948400Y-109408270D01*
X84948401Y-109408276D01*
X84954808Y-109467883D01*
X85005102Y-109602728D01*
X85005106Y-109602735D01*
X85091352Y-109717944D01*
X85091355Y-109717947D01*
X85206564Y-109804193D01*
X85206571Y-109804197D01*
X85341417Y-109854491D01*
X85341416Y-109854491D01*
X85348344Y-109855235D01*
X85401027Y-109860900D01*
X86596772Y-109860899D01*
X86656383Y-109854491D01*
X86791231Y-109804196D01*
X86906446Y-109717946D01*
X86992696Y-109602731D01*
X87042991Y-109467883D01*
X87049400Y-109408273D01*
X87049399Y-108212528D01*
X87042991Y-108152917D01*
X87024048Y-108102129D01*
X86992697Y-108018071D01*
X86992693Y-108018064D01*
X86906447Y-107902855D01*
X86906444Y-107902852D01*
X86791235Y-107816606D01*
X86791228Y-107816602D01*
X86656382Y-107766308D01*
X86656383Y-107766308D01*
X86596783Y-107759901D01*
X86596781Y-107759900D01*
X86596773Y-107759900D01*
X86596765Y-107759900D01*
X86527589Y-107759900D01*
X86460550Y-107740215D01*
X86414795Y-107687411D01*
X86404851Y-107618253D01*
X86433876Y-107554697D01*
X86489272Y-107517969D01*
X86497928Y-107515156D01*
X86680249Y-107422259D01*
X86724821Y-107389874D01*
X86045347Y-106710400D01*
X86051561Y-106710400D01*
X86153294Y-106683141D01*
X86244506Y-106630480D01*
X86318980Y-106556006D01*
X86371641Y-106464794D01*
X86398900Y-106363061D01*
X86398900Y-106356847D01*
X87078374Y-107036321D01*
X87110759Y-106991749D01*
X87203655Y-106809431D01*
X87266890Y-106614817D01*
X87298900Y-106412717D01*
X87298900Y-106208082D01*
X87266890Y-106005982D01*
X87203655Y-105811368D01*
X87110759Y-105629050D01*
X87078374Y-105584477D01*
X87078374Y-105584476D01*
X86398900Y-106263951D01*
X86398900Y-106257739D01*
X86371641Y-106156006D01*
X86318980Y-106064794D01*
X86244506Y-105990320D01*
X86153294Y-105937659D01*
X86051561Y-105910400D01*
X86045346Y-105910400D01*
X86724822Y-105230924D01*
X86724821Y-105230923D01*
X86680259Y-105198547D01*
X86680250Y-105198541D01*
X86497931Y-105105644D01*
X86303317Y-105042409D01*
X86101217Y-105010400D01*
X85896583Y-105010400D01*
X85694482Y-105042409D01*
X85499868Y-105105644D01*
X85317544Y-105198543D01*
X85272977Y-105230923D01*
X85272977Y-105230924D01*
X85952454Y-105910400D01*
X85946239Y-105910400D01*
X85844506Y-105937659D01*
X85753294Y-105990320D01*
X85678820Y-106064794D01*
X85626159Y-106156006D01*
X85598900Y-106257739D01*
X85598900Y-106263953D01*
X84919424Y-105584477D01*
X84919423Y-105584477D01*
X84887043Y-105629044D01*
X84794144Y-105811368D01*
X84730909Y-106005982D01*
X84698900Y-106208082D01*
X51905805Y-106208082D01*
X51854755Y-106050968D01*
X51761859Y-105868650D01*
X51729474Y-105824077D01*
X51729474Y-105824076D01*
X51050000Y-106503551D01*
X51050000Y-106497339D01*
X51022741Y-106395606D01*
X50970080Y-106304394D01*
X50895606Y-106229920D01*
X50804394Y-106177259D01*
X50702661Y-106150000D01*
X50696446Y-106150000D01*
X51375922Y-105470524D01*
X51375921Y-105470523D01*
X51331359Y-105438147D01*
X51331350Y-105438141D01*
X51234254Y-105388668D01*
X51149031Y-105345244D01*
X50954417Y-105282009D01*
X50752317Y-105250000D01*
X50547683Y-105250000D01*
X50345582Y-105282009D01*
X50150968Y-105345244D01*
X49968644Y-105438143D01*
X49924077Y-105470523D01*
X49924077Y-105470524D01*
X50603554Y-106150000D01*
X50597339Y-106150000D01*
X50495606Y-106177259D01*
X50404394Y-106229920D01*
X50329920Y-106304394D01*
X50277259Y-106395606D01*
X50250000Y-106497339D01*
X50250000Y-106503553D01*
X49570524Y-105824077D01*
X49570523Y-105824077D01*
X49538143Y-105868644D01*
X49445244Y-106050968D01*
X49382009Y-106245582D01*
X49350000Y-106447682D01*
X30750000Y-106447682D01*
X30750000Y-104177525D01*
X107699500Y-104177525D01*
X107699500Y-104322475D01*
X107737016Y-104462485D01*
X107737017Y-104462488D01*
X107740059Y-104469831D01*
X107749500Y-104517288D01*
X107749500Y-108877391D01*
X107783608Y-109004687D01*
X107816554Y-109061750D01*
X107849500Y-109118814D01*
X107849502Y-109118816D01*
X109877540Y-111146854D01*
X109911025Y-111208177D01*
X109911477Y-111258724D01*
X109899900Y-111316931D01*
X109899900Y-111503872D01*
X109936367Y-111687205D01*
X109936369Y-111687213D01*
X110007905Y-111859917D01*
X110007910Y-111859926D01*
X110111762Y-112015351D01*
X110111765Y-112015355D01*
X110243944Y-112147534D01*
X110243948Y-112147537D01*
X110399373Y-112251389D01*
X110399379Y-112251392D01*
X110399380Y-112251393D01*
X110572087Y-112322931D01*
X110755427Y-112359399D01*
X110755431Y-112359400D01*
X110755432Y-112359400D01*
X110942369Y-112359400D01*
X110942370Y-112359399D01*
X111125713Y-112322931D01*
X111298420Y-112251393D01*
X111453852Y-112147537D01*
X111586037Y-112015352D01*
X111689893Y-111859920D01*
X111761431Y-111687213D01*
X111797900Y-111503868D01*
X111797900Y-111316932D01*
X111761431Y-111133587D01*
X111689893Y-110960880D01*
X111689892Y-110960879D01*
X111689889Y-110960873D01*
X111586037Y-110805448D01*
X111586034Y-110805444D01*
X111453855Y-110673265D01*
X111453851Y-110673262D01*
X111298426Y-110569410D01*
X111298417Y-110569405D01*
X111125713Y-110497869D01*
X111125705Y-110497867D01*
X110942372Y-110461400D01*
X110942368Y-110461400D01*
X110755432Y-110461400D01*
X110697224Y-110472977D01*
X110627632Y-110466748D01*
X110585354Y-110439040D01*
X108963241Y-108816927D01*
X109899900Y-108816927D01*
X109899900Y-109003872D01*
X109936367Y-109187205D01*
X109936369Y-109187213D01*
X110007905Y-109359917D01*
X110007910Y-109359926D01*
X110111762Y-109515351D01*
X110111765Y-109515355D01*
X110243944Y-109647534D01*
X110243948Y-109647537D01*
X110399373Y-109751389D01*
X110399379Y-109751392D01*
X110399380Y-109751393D01*
X110572087Y-109822931D01*
X110755427Y-109859399D01*
X110755431Y-109859400D01*
X110755432Y-109859400D01*
X110942369Y-109859400D01*
X110942370Y-109859399D01*
X111125713Y-109822931D01*
X111298420Y-109751393D01*
X111453852Y-109647537D01*
X111586037Y-109515352D01*
X111689893Y-109359920D01*
X111761431Y-109187213D01*
X111797900Y-109003868D01*
X111797900Y-108816932D01*
X111761431Y-108633587D01*
X111689893Y-108460880D01*
X111689892Y-108460879D01*
X111689889Y-108460873D01*
X111586037Y-108305448D01*
X111586034Y-108305444D01*
X111453855Y-108173265D01*
X111453851Y-108173262D01*
X111298426Y-108069410D01*
X111298417Y-108069405D01*
X111125713Y-107997869D01*
X111125705Y-107997867D01*
X110942372Y-107961400D01*
X110942368Y-107961400D01*
X110755432Y-107961400D01*
X110755427Y-107961400D01*
X110572094Y-107997867D01*
X110572086Y-107997869D01*
X110399382Y-108069405D01*
X110399373Y-108069410D01*
X110243948Y-108173262D01*
X110243944Y-108173265D01*
X110111765Y-108305444D01*
X110111762Y-108305448D01*
X110007910Y-108460873D01*
X110007905Y-108460882D01*
X109936369Y-108633586D01*
X109936367Y-108633594D01*
X109899900Y-108816927D01*
X108963241Y-108816927D01*
X108786819Y-108640505D01*
X108753334Y-108579182D01*
X108750500Y-108552824D01*
X108750500Y-106097682D01*
X120250000Y-106097682D01*
X120250000Y-106302317D01*
X120282009Y-106504417D01*
X120345244Y-106699031D01*
X120438141Y-106881350D01*
X120438147Y-106881359D01*
X120470523Y-106925921D01*
X120470524Y-106925922D01*
X121150000Y-106246446D01*
X121150000Y-106252661D01*
X121177259Y-106354394D01*
X121229920Y-106445606D01*
X121304394Y-106520080D01*
X121395606Y-106572741D01*
X121497339Y-106600000D01*
X121503553Y-106600000D01*
X120824076Y-107279474D01*
X120868650Y-107311859D01*
X121050970Y-107404755D01*
X121059624Y-107407567D01*
X121117302Y-107447001D01*
X121144504Y-107511358D01*
X121132594Y-107580205D01*
X121085352Y-107631684D01*
X121021315Y-107649500D01*
X120952130Y-107649500D01*
X120952123Y-107649501D01*
X120892516Y-107655908D01*
X120757671Y-107706202D01*
X120757664Y-107706206D01*
X120642455Y-107792452D01*
X120642452Y-107792455D01*
X120556206Y-107907664D01*
X120556202Y-107907671D01*
X120505908Y-108042517D01*
X120499501Y-108102116D01*
X120499501Y-108102123D01*
X120499500Y-108102135D01*
X120499500Y-109297870D01*
X120499501Y-109297876D01*
X120505908Y-109357483D01*
X120556202Y-109492328D01*
X120556206Y-109492335D01*
X120642452Y-109607544D01*
X120642455Y-109607547D01*
X120757664Y-109693793D01*
X120757671Y-109693797D01*
X120892517Y-109744091D01*
X120892516Y-109744091D01*
X120899444Y-109744835D01*
X120952127Y-109750500D01*
X122147872Y-109750499D01*
X122207483Y-109744091D01*
X122342331Y-109693796D01*
X122457546Y-109607546D01*
X122543796Y-109492331D01*
X122594091Y-109357483D01*
X122600500Y-109297873D01*
X122600499Y-108102128D01*
X122594091Y-108042517D01*
X122584973Y-108018071D01*
X122543797Y-107907671D01*
X122543793Y-107907664D01*
X122457547Y-107792455D01*
X122457544Y-107792452D01*
X122342335Y-107706206D01*
X122342328Y-107706202D01*
X122207482Y-107655908D01*
X122207483Y-107655908D01*
X122147883Y-107649501D01*
X122147881Y-107649500D01*
X122147873Y-107649500D01*
X122147865Y-107649500D01*
X122078689Y-107649500D01*
X122011650Y-107629815D01*
X121965895Y-107577011D01*
X121955951Y-107507853D01*
X121984976Y-107444297D01*
X122040372Y-107407569D01*
X122049028Y-107404756D01*
X122231349Y-107311859D01*
X122275921Y-107279474D01*
X121596447Y-106600000D01*
X121602661Y-106600000D01*
X121704394Y-106572741D01*
X121795606Y-106520080D01*
X121870080Y-106445606D01*
X121922741Y-106354394D01*
X121950000Y-106252661D01*
X121950000Y-106246447D01*
X122629474Y-106925921D01*
X122661859Y-106881349D01*
X122754755Y-106699031D01*
X122817990Y-106504417D01*
X122850000Y-106302317D01*
X122850000Y-106097682D01*
X122817990Y-105895582D01*
X122754755Y-105700968D01*
X122661859Y-105518650D01*
X122629474Y-105474077D01*
X122629474Y-105474076D01*
X121950000Y-106153551D01*
X121950000Y-106147339D01*
X121922741Y-106045606D01*
X121870080Y-105954394D01*
X121795606Y-105879920D01*
X121704394Y-105827259D01*
X121602661Y-105800000D01*
X121596446Y-105800000D01*
X122275922Y-105120524D01*
X122275921Y-105120523D01*
X122231359Y-105088147D01*
X122231350Y-105088141D01*
X122049031Y-104995244D01*
X121854417Y-104932009D01*
X121652317Y-104900000D01*
X121447683Y-104900000D01*
X121245582Y-104932009D01*
X121050968Y-104995244D01*
X120868644Y-105088143D01*
X120824077Y-105120523D01*
X120824077Y-105120524D01*
X121503554Y-105800000D01*
X121497339Y-105800000D01*
X121395606Y-105827259D01*
X121304394Y-105879920D01*
X121229920Y-105954394D01*
X121177259Y-106045606D01*
X121150000Y-106147339D01*
X121150000Y-106153553D01*
X120470524Y-105474077D01*
X120470523Y-105474077D01*
X120438143Y-105518644D01*
X120345244Y-105700968D01*
X120282009Y-105895582D01*
X120250000Y-106097682D01*
X108750500Y-106097682D01*
X108750500Y-104517288D01*
X108759941Y-104469831D01*
X108762982Y-104462488D01*
X108762981Y-104462488D01*
X108762984Y-104462485D01*
X108800500Y-104322475D01*
X108800500Y-104177525D01*
X108762984Y-104037515D01*
X108690509Y-103911985D01*
X108588015Y-103809491D01*
X108588013Y-103809490D01*
X108588011Y-103809488D01*
X108462488Y-103737017D01*
X108462489Y-103737017D01*
X108451006Y-103733940D01*
X108322475Y-103699500D01*
X108177525Y-103699500D01*
X108048993Y-103733940D01*
X108037511Y-103737017D01*
X107911988Y-103809488D01*
X107911982Y-103809493D01*
X107809493Y-103911982D01*
X107809488Y-103911988D01*
X107737017Y-104037511D01*
X107737016Y-104037515D01*
X107699500Y-104177525D01*
X30750000Y-104177525D01*
X30750000Y-97370054D01*
X31694500Y-97370054D01*
X31694500Y-97547445D01*
X31729103Y-97721408D01*
X31729106Y-97721417D01*
X31796983Y-97885290D01*
X31796990Y-97885303D01*
X31895535Y-98032784D01*
X31895538Y-98032788D01*
X32020961Y-98158211D01*
X32020965Y-98158214D01*
X32168446Y-98256759D01*
X32168459Y-98256766D01*
X32291363Y-98307673D01*
X32332334Y-98324644D01*
X32332336Y-98324644D01*
X32332341Y-98324646D01*
X32506304Y-98359249D01*
X32506307Y-98359250D01*
X32506309Y-98359250D01*
X33983693Y-98359250D01*
X33983694Y-98359249D01*
X34041682Y-98347714D01*
X34157658Y-98324646D01*
X34157661Y-98324644D01*
X34157666Y-98324644D01*
X34321547Y-98256763D01*
X34469035Y-98158214D01*
X34594464Y-98032785D01*
X34693013Y-97885297D01*
X34760894Y-97721416D01*
X34795500Y-97547441D01*
X34795500Y-97370059D01*
X34795500Y-97370056D01*
X34795499Y-97370054D01*
X34760896Y-97196091D01*
X34760893Y-97196082D01*
X34693016Y-97032209D01*
X34693009Y-97032196D01*
X34594464Y-96884715D01*
X34594461Y-96884711D01*
X34469038Y-96759288D01*
X34469034Y-96759285D01*
X34321553Y-96660740D01*
X34321540Y-96660733D01*
X34157667Y-96592856D01*
X34157658Y-96592853D01*
X33983694Y-96558250D01*
X33983691Y-96558250D01*
X32506309Y-96558250D01*
X32506306Y-96558250D01*
X32332341Y-96592853D01*
X32332332Y-96592856D01*
X32168459Y-96660733D01*
X32168446Y-96660740D01*
X32020965Y-96759285D01*
X32020961Y-96759288D01*
X31895538Y-96884711D01*
X31895535Y-96884715D01*
X31796990Y-97032196D01*
X31796983Y-97032209D01*
X31729106Y-97196082D01*
X31729103Y-97196091D01*
X31694500Y-97370054D01*
X30750000Y-97370054D01*
X30750000Y-89375321D01*
X58899500Y-89375321D01*
X58899500Y-91124678D01*
X58914032Y-91197735D01*
X58914033Y-91197739D01*
X58914034Y-91197740D01*
X58969399Y-91280601D01*
X59052260Y-91335966D01*
X59052264Y-91335967D01*
X59125321Y-91350499D01*
X59125324Y-91350500D01*
X59125326Y-91350500D01*
X60874676Y-91350500D01*
X60874677Y-91350499D01*
X60947740Y-91335966D01*
X61030601Y-91280601D01*
X61085966Y-91197740D01*
X61100500Y-91124674D01*
X61100500Y-90163389D01*
X61439500Y-90163389D01*
X61439500Y-90336610D01*
X61458262Y-90455074D01*
X61466598Y-90507701D01*
X61520127Y-90672445D01*
X61598768Y-90826788D01*
X61700586Y-90966928D01*
X61823072Y-91089414D01*
X61963212Y-91191232D01*
X62117555Y-91269873D01*
X62282299Y-91323402D01*
X62453389Y-91350500D01*
X62453390Y-91350500D01*
X62626610Y-91350500D01*
X62626611Y-91350500D01*
X62797701Y-91323402D01*
X62962445Y-91269873D01*
X62990779Y-91255436D01*
X72615000Y-91255436D01*
X72615000Y-91454563D01*
X72646147Y-91651222D01*
X72707679Y-91840594D01*
X72798077Y-92018008D01*
X72825580Y-92055863D01*
X72825581Y-92055864D01*
X73388871Y-91492574D01*
X73404755Y-91551853D01*
X73471898Y-91668147D01*
X73566853Y-91763102D01*
X73683147Y-91830245D01*
X73742425Y-91846128D01*
X73179134Y-92409417D01*
X73216994Y-92436924D01*
X73394405Y-92527320D01*
X73583777Y-92588852D01*
X73780437Y-92620000D01*
X73979563Y-92620000D01*
X74176222Y-92588852D01*
X74365594Y-92527320D01*
X74543005Y-92436924D01*
X74580863Y-92409418D01*
X74580863Y-92409417D01*
X74017574Y-91846128D01*
X74076853Y-91830245D01*
X74193147Y-91763102D01*
X74288102Y-91668147D01*
X74355245Y-91551853D01*
X74371128Y-91492574D01*
X74934417Y-92055863D01*
X74934418Y-92055863D01*
X74961924Y-92018005D01*
X75039515Y-91865727D01*
X75087490Y-91814931D01*
X75155311Y-91798136D01*
X75221446Y-91820674D01*
X75260485Y-91865727D01*
X75338077Y-92018008D01*
X75365580Y-92055863D01*
X75365581Y-92055864D01*
X75928871Y-91492574D01*
X75944755Y-91551853D01*
X76011898Y-91668147D01*
X76106853Y-91763102D01*
X76223147Y-91830245D01*
X76282425Y-91846128D01*
X75719134Y-92409417D01*
X75756994Y-92436924D01*
X75934405Y-92527320D01*
X76123777Y-92588852D01*
X76320437Y-92620000D01*
X76519563Y-92620000D01*
X76716222Y-92588852D01*
X76905594Y-92527320D01*
X77083005Y-92436924D01*
X77120863Y-92409418D01*
X77120863Y-92409417D01*
X76557574Y-91846128D01*
X76616853Y-91830245D01*
X76733147Y-91763102D01*
X76828102Y-91668147D01*
X76895245Y-91551853D01*
X76911128Y-91492574D01*
X77474417Y-92055863D01*
X77474418Y-92055863D01*
X77501924Y-92018005D01*
X77592320Y-91840594D01*
X77653852Y-91651222D01*
X77685000Y-91454563D01*
X77685000Y-91255436D01*
X77684927Y-91254977D01*
X77944500Y-91254977D01*
X77944500Y-91455022D01*
X77983523Y-91651203D01*
X77983526Y-91651215D01*
X78060071Y-91836013D01*
X78060078Y-91836026D01*
X78171208Y-92002343D01*
X78171211Y-92002347D01*
X78312652Y-92143788D01*
X78312656Y-92143791D01*
X78478973Y-92254921D01*
X78478986Y-92254928D01*
X78663784Y-92331473D01*
X78663789Y-92331475D01*
X78859977Y-92370499D01*
X78859981Y-92370500D01*
X78859982Y-92370500D01*
X79060019Y-92370500D01*
X79060020Y-92370499D01*
X79256211Y-92331475D01*
X79441020Y-92254925D01*
X79607344Y-92143791D01*
X79748791Y-92002344D01*
X79859925Y-91836020D01*
X79866282Y-91820674D01*
X79936473Y-91651215D01*
X79936475Y-91651211D01*
X79975500Y-91455018D01*
X79975500Y-91254982D01*
X79975499Y-91254977D01*
X80484500Y-91254977D01*
X80484500Y-91455022D01*
X80523523Y-91651203D01*
X80523526Y-91651215D01*
X80600071Y-91836013D01*
X80600078Y-91836026D01*
X80711208Y-92002343D01*
X80711211Y-92002347D01*
X80852652Y-92143788D01*
X80852656Y-92143791D01*
X81018973Y-92254921D01*
X81018986Y-92254928D01*
X81203784Y-92331473D01*
X81203789Y-92331475D01*
X81399977Y-92370499D01*
X81399981Y-92370500D01*
X81399982Y-92370500D01*
X81600019Y-92370500D01*
X81600020Y-92370499D01*
X81796211Y-92331475D01*
X81981020Y-92254925D01*
X82147344Y-92143791D01*
X82288791Y-92002344D01*
X82399925Y-91836020D01*
X82406282Y-91820674D01*
X82476473Y-91651215D01*
X82476475Y-91651211D01*
X82515500Y-91455018D01*
X82515500Y-91254982D01*
X82515499Y-91254977D01*
X83024500Y-91254977D01*
X83024500Y-91455022D01*
X83063523Y-91651203D01*
X83063526Y-91651215D01*
X83140071Y-91836013D01*
X83140078Y-91836026D01*
X83251208Y-92002343D01*
X83251211Y-92002347D01*
X83392652Y-92143788D01*
X83392656Y-92143791D01*
X83558973Y-92254921D01*
X83558986Y-92254928D01*
X83743784Y-92331473D01*
X83743789Y-92331475D01*
X83939977Y-92370499D01*
X83939981Y-92370500D01*
X83939982Y-92370500D01*
X84140019Y-92370500D01*
X84140020Y-92370499D01*
X84336211Y-92331475D01*
X84521020Y-92254925D01*
X84687344Y-92143791D01*
X84828791Y-92002344D01*
X84939925Y-91836020D01*
X84946282Y-91820674D01*
X85016473Y-91651215D01*
X85016475Y-91651211D01*
X85055500Y-91455018D01*
X85055500Y-91254982D01*
X85055499Y-91254977D01*
X85564500Y-91254977D01*
X85564500Y-91455022D01*
X85603523Y-91651203D01*
X85603526Y-91651215D01*
X85680071Y-91836013D01*
X85680078Y-91836026D01*
X85791208Y-92002343D01*
X85791211Y-92002347D01*
X85932652Y-92143788D01*
X85932656Y-92143791D01*
X86098973Y-92254921D01*
X86098986Y-92254928D01*
X86283784Y-92331473D01*
X86283789Y-92331475D01*
X86479977Y-92370499D01*
X86479981Y-92370500D01*
X86479982Y-92370500D01*
X86680019Y-92370500D01*
X86680020Y-92370499D01*
X86876211Y-92331475D01*
X87061020Y-92254925D01*
X87227344Y-92143791D01*
X87368791Y-92002344D01*
X87479925Y-91836020D01*
X87486282Y-91820674D01*
X87556473Y-91651215D01*
X87556475Y-91651211D01*
X87595500Y-91455018D01*
X87595500Y-91254982D01*
X87595499Y-91254977D01*
X88104500Y-91254977D01*
X88104500Y-91455022D01*
X88143523Y-91651203D01*
X88143526Y-91651215D01*
X88220071Y-91836013D01*
X88220078Y-91836026D01*
X88331208Y-92002343D01*
X88331211Y-92002347D01*
X88472652Y-92143788D01*
X88472656Y-92143791D01*
X88638973Y-92254921D01*
X88638986Y-92254928D01*
X88823784Y-92331473D01*
X88823789Y-92331475D01*
X89019977Y-92370499D01*
X89019981Y-92370500D01*
X89019982Y-92370500D01*
X89220019Y-92370500D01*
X89220020Y-92370499D01*
X89416211Y-92331475D01*
X89601020Y-92254925D01*
X89767344Y-92143791D01*
X89908791Y-92002344D01*
X90019925Y-91836020D01*
X90026282Y-91820674D01*
X90096473Y-91651215D01*
X90096475Y-91651211D01*
X90135500Y-91455018D01*
X90135500Y-91254982D01*
X90135499Y-91254977D01*
X90644500Y-91254977D01*
X90644500Y-91455022D01*
X90683523Y-91651203D01*
X90683526Y-91651215D01*
X90760071Y-91836013D01*
X90760078Y-91836026D01*
X90871208Y-92002343D01*
X90871211Y-92002347D01*
X91012652Y-92143788D01*
X91012656Y-92143791D01*
X91178973Y-92254921D01*
X91178986Y-92254928D01*
X91363784Y-92331473D01*
X91363789Y-92331475D01*
X91559977Y-92370499D01*
X91559981Y-92370500D01*
X91559982Y-92370500D01*
X91760019Y-92370500D01*
X91760020Y-92370499D01*
X91956211Y-92331475D01*
X92141020Y-92254925D01*
X92307344Y-92143791D01*
X92448791Y-92002344D01*
X92559925Y-91836020D01*
X92566282Y-91820674D01*
X92636473Y-91651215D01*
X92636475Y-91651211D01*
X92675500Y-91455018D01*
X92675500Y-91254982D01*
X92675499Y-91254977D01*
X93184500Y-91254977D01*
X93184500Y-91455022D01*
X93223523Y-91651203D01*
X93223526Y-91651215D01*
X93300071Y-91836013D01*
X93300078Y-91836026D01*
X93411208Y-92002343D01*
X93411211Y-92002347D01*
X93552652Y-92143788D01*
X93552656Y-92143791D01*
X93718973Y-92254921D01*
X93718986Y-92254928D01*
X93903784Y-92331473D01*
X93903789Y-92331475D01*
X94099977Y-92370499D01*
X94099981Y-92370500D01*
X94099982Y-92370500D01*
X94300019Y-92370500D01*
X94300020Y-92370499D01*
X94496211Y-92331475D01*
X94681020Y-92254925D01*
X94847344Y-92143791D01*
X94988791Y-92002344D01*
X95099925Y-91836020D01*
X95106282Y-91820674D01*
X95176473Y-91651215D01*
X95176475Y-91651211D01*
X95215500Y-91455018D01*
X95215500Y-91254982D01*
X95215499Y-91254977D01*
X95724500Y-91254977D01*
X95724500Y-91455022D01*
X95763523Y-91651203D01*
X95763526Y-91651215D01*
X95840071Y-91836013D01*
X95840078Y-91836026D01*
X95951208Y-92002343D01*
X95951211Y-92002347D01*
X96092652Y-92143788D01*
X96092656Y-92143791D01*
X96258973Y-92254921D01*
X96258986Y-92254928D01*
X96443784Y-92331473D01*
X96443789Y-92331475D01*
X96639977Y-92370499D01*
X96639981Y-92370500D01*
X96639982Y-92370500D01*
X96840019Y-92370500D01*
X96840020Y-92370499D01*
X97036211Y-92331475D01*
X97221020Y-92254925D01*
X97387344Y-92143791D01*
X97528791Y-92002344D01*
X97639925Y-91836020D01*
X97646282Y-91820674D01*
X97716473Y-91651215D01*
X97716475Y-91651211D01*
X97755500Y-91455018D01*
X97755500Y-91254982D01*
X97755499Y-91254977D01*
X98264500Y-91254977D01*
X98264500Y-91455022D01*
X98303523Y-91651203D01*
X98303526Y-91651215D01*
X98380071Y-91836013D01*
X98380078Y-91836026D01*
X98491208Y-92002343D01*
X98491211Y-92002347D01*
X98632652Y-92143788D01*
X98632656Y-92143791D01*
X98798973Y-92254921D01*
X98798986Y-92254928D01*
X98983784Y-92331473D01*
X98983789Y-92331475D01*
X99179977Y-92370499D01*
X99179981Y-92370500D01*
X99179982Y-92370500D01*
X99380019Y-92370500D01*
X99380020Y-92370499D01*
X99576211Y-92331475D01*
X99761020Y-92254925D01*
X99927344Y-92143791D01*
X100068791Y-92002344D01*
X100179925Y-91836020D01*
X100186282Y-91820674D01*
X100256473Y-91651215D01*
X100256475Y-91651211D01*
X100295500Y-91455018D01*
X100295500Y-91254982D01*
X100295499Y-91254977D01*
X100804500Y-91254977D01*
X100804500Y-91455022D01*
X100843523Y-91651203D01*
X100843526Y-91651215D01*
X100920071Y-91836013D01*
X100920078Y-91836026D01*
X101031208Y-92002343D01*
X101031211Y-92002347D01*
X101172652Y-92143788D01*
X101172656Y-92143791D01*
X101338973Y-92254921D01*
X101338986Y-92254928D01*
X101523784Y-92331473D01*
X101523789Y-92331475D01*
X101719977Y-92370499D01*
X101719981Y-92370500D01*
X101719982Y-92370500D01*
X101920019Y-92370500D01*
X101920020Y-92370499D01*
X102116211Y-92331475D01*
X102301020Y-92254925D01*
X102467344Y-92143791D01*
X102608791Y-92002344D01*
X102719925Y-91836020D01*
X102726282Y-91820674D01*
X102796473Y-91651215D01*
X102796475Y-91651211D01*
X102835500Y-91455018D01*
X102835500Y-91254982D01*
X102835499Y-91254977D01*
X103344500Y-91254977D01*
X103344500Y-91455022D01*
X103383523Y-91651203D01*
X103383526Y-91651215D01*
X103460071Y-91836013D01*
X103460078Y-91836026D01*
X103571208Y-92002343D01*
X103571211Y-92002347D01*
X103712652Y-92143788D01*
X103712656Y-92143791D01*
X103878973Y-92254921D01*
X103878986Y-92254928D01*
X104063784Y-92331473D01*
X104063789Y-92331475D01*
X104259977Y-92370499D01*
X104259981Y-92370500D01*
X104259982Y-92370500D01*
X104460019Y-92370500D01*
X104460020Y-92370499D01*
X104656211Y-92331475D01*
X104841020Y-92254925D01*
X105007344Y-92143791D01*
X105148791Y-92002344D01*
X105259925Y-91836020D01*
X105266282Y-91820674D01*
X105336473Y-91651215D01*
X105336475Y-91651211D01*
X105375500Y-91455018D01*
X105375500Y-91254982D01*
X105375499Y-91254977D01*
X105884500Y-91254977D01*
X105884500Y-91455022D01*
X105923523Y-91651203D01*
X105923526Y-91651215D01*
X106000071Y-91836013D01*
X106000078Y-91836026D01*
X106111208Y-92002343D01*
X106111211Y-92002347D01*
X106252652Y-92143788D01*
X106252656Y-92143791D01*
X106418973Y-92254921D01*
X106418986Y-92254928D01*
X106603784Y-92331473D01*
X106603789Y-92331475D01*
X106799977Y-92370499D01*
X106799981Y-92370500D01*
X106799982Y-92370500D01*
X107000019Y-92370500D01*
X107000020Y-92370499D01*
X107196211Y-92331475D01*
X107381020Y-92254925D01*
X107547344Y-92143791D01*
X107688791Y-92002344D01*
X107799925Y-91836020D01*
X107806282Y-91820674D01*
X107876473Y-91651215D01*
X107876475Y-91651211D01*
X107915500Y-91455018D01*
X107915500Y-91254982D01*
X107915499Y-91254977D01*
X108424500Y-91254977D01*
X108424500Y-91455022D01*
X108463523Y-91651203D01*
X108463526Y-91651215D01*
X108540071Y-91836013D01*
X108540078Y-91836026D01*
X108651208Y-92002343D01*
X108651211Y-92002347D01*
X108792652Y-92143788D01*
X108792656Y-92143791D01*
X108958973Y-92254921D01*
X108958986Y-92254928D01*
X109143784Y-92331473D01*
X109143789Y-92331475D01*
X109339977Y-92370499D01*
X109339981Y-92370500D01*
X109339982Y-92370500D01*
X109540019Y-92370500D01*
X109540020Y-92370499D01*
X109736211Y-92331475D01*
X109921020Y-92254925D01*
X110087344Y-92143791D01*
X110228791Y-92002344D01*
X110339925Y-91836020D01*
X110346282Y-91820674D01*
X110416473Y-91651215D01*
X110416475Y-91651211D01*
X110455500Y-91455018D01*
X110455500Y-91254982D01*
X110455499Y-91254977D01*
X110964500Y-91254977D01*
X110964500Y-91455022D01*
X111003523Y-91651203D01*
X111003526Y-91651215D01*
X111080071Y-91836013D01*
X111080078Y-91836026D01*
X111191208Y-92002343D01*
X111191211Y-92002347D01*
X111332652Y-92143788D01*
X111332656Y-92143791D01*
X111498973Y-92254921D01*
X111498986Y-92254928D01*
X111683784Y-92331473D01*
X111683789Y-92331475D01*
X111879977Y-92370499D01*
X111879981Y-92370500D01*
X111879982Y-92370500D01*
X112080019Y-92370500D01*
X112080020Y-92370499D01*
X112276211Y-92331475D01*
X112461020Y-92254925D01*
X112627344Y-92143791D01*
X112768791Y-92002344D01*
X112879925Y-91836020D01*
X112886282Y-91820674D01*
X112956473Y-91651215D01*
X112956475Y-91651211D01*
X112995500Y-91455018D01*
X112995500Y-91254982D01*
X112995499Y-91254977D01*
X113504500Y-91254977D01*
X113504500Y-91455022D01*
X113543523Y-91651203D01*
X113543526Y-91651215D01*
X113620071Y-91836013D01*
X113620078Y-91836026D01*
X113731208Y-92002343D01*
X113731211Y-92002347D01*
X113872652Y-92143788D01*
X113872656Y-92143791D01*
X114038973Y-92254921D01*
X114038986Y-92254928D01*
X114223784Y-92331473D01*
X114223789Y-92331475D01*
X114419977Y-92370499D01*
X114419981Y-92370500D01*
X114419982Y-92370500D01*
X114620019Y-92370500D01*
X114620020Y-92370499D01*
X114816211Y-92331475D01*
X115001020Y-92254925D01*
X115167344Y-92143791D01*
X115308791Y-92002344D01*
X115419925Y-91836020D01*
X115426282Y-91820674D01*
X115496473Y-91651215D01*
X115496475Y-91651211D01*
X115535500Y-91455018D01*
X115535500Y-91254982D01*
X115535499Y-91254977D01*
X116044500Y-91254977D01*
X116044500Y-91455022D01*
X116083523Y-91651203D01*
X116083526Y-91651215D01*
X116160071Y-91836013D01*
X116160078Y-91836026D01*
X116271208Y-92002343D01*
X116271211Y-92002347D01*
X116412652Y-92143788D01*
X116412656Y-92143791D01*
X116578973Y-92254921D01*
X116578986Y-92254928D01*
X116763784Y-92331473D01*
X116763789Y-92331475D01*
X116959977Y-92370499D01*
X116959981Y-92370500D01*
X116959982Y-92370500D01*
X117160019Y-92370500D01*
X117160020Y-92370499D01*
X117356211Y-92331475D01*
X117541020Y-92254925D01*
X117707344Y-92143791D01*
X117848791Y-92002344D01*
X117959925Y-91836020D01*
X117966282Y-91820674D01*
X118036473Y-91651215D01*
X118036475Y-91651211D01*
X118075500Y-91455018D01*
X118075500Y-91254982D01*
X118075499Y-91254977D01*
X118584500Y-91254977D01*
X118584500Y-91455022D01*
X118623523Y-91651203D01*
X118623526Y-91651215D01*
X118700071Y-91836013D01*
X118700078Y-91836026D01*
X118811208Y-92002343D01*
X118811211Y-92002347D01*
X118952652Y-92143788D01*
X118952656Y-92143791D01*
X119118973Y-92254921D01*
X119118986Y-92254928D01*
X119303784Y-92331473D01*
X119303789Y-92331475D01*
X119499977Y-92370499D01*
X119499981Y-92370500D01*
X119499982Y-92370500D01*
X119700019Y-92370500D01*
X119700020Y-92370499D01*
X119896211Y-92331475D01*
X120081020Y-92254925D01*
X120247344Y-92143791D01*
X120388791Y-92002344D01*
X120499925Y-91836020D01*
X120506282Y-91820674D01*
X120576473Y-91651215D01*
X120576475Y-91651211D01*
X120615500Y-91455018D01*
X120615500Y-91254982D01*
X120615499Y-91254977D01*
X121124500Y-91254977D01*
X121124500Y-91455022D01*
X121163523Y-91651203D01*
X121163526Y-91651215D01*
X121240071Y-91836013D01*
X121240078Y-91836026D01*
X121351208Y-92002343D01*
X121351211Y-92002347D01*
X121492652Y-92143788D01*
X121492656Y-92143791D01*
X121658973Y-92254921D01*
X121658986Y-92254928D01*
X121843784Y-92331473D01*
X121843789Y-92331475D01*
X122039977Y-92370499D01*
X122039981Y-92370500D01*
X122039982Y-92370500D01*
X122240019Y-92370500D01*
X122240020Y-92370499D01*
X122436211Y-92331475D01*
X122621020Y-92254925D01*
X122787344Y-92143791D01*
X122928791Y-92002344D01*
X123039925Y-91836020D01*
X123046282Y-91820674D01*
X123116473Y-91651215D01*
X123116475Y-91651211D01*
X123155500Y-91455018D01*
X123155500Y-91254982D01*
X123155499Y-91254977D01*
X123664500Y-91254977D01*
X123664500Y-91455022D01*
X123703523Y-91651203D01*
X123703526Y-91651215D01*
X123780071Y-91836013D01*
X123780078Y-91836026D01*
X123891208Y-92002343D01*
X123891211Y-92002347D01*
X124032652Y-92143788D01*
X124032656Y-92143791D01*
X124198973Y-92254921D01*
X124198986Y-92254928D01*
X124383784Y-92331473D01*
X124383789Y-92331475D01*
X124579977Y-92370499D01*
X124579981Y-92370500D01*
X124579982Y-92370500D01*
X124780019Y-92370500D01*
X124780020Y-92370499D01*
X124976211Y-92331475D01*
X125161020Y-92254925D01*
X125327344Y-92143791D01*
X125468791Y-92002344D01*
X125579925Y-91836020D01*
X125586282Y-91820674D01*
X125656473Y-91651215D01*
X125656475Y-91651211D01*
X125695500Y-91455018D01*
X125695500Y-91254982D01*
X125656475Y-91058789D01*
X125618425Y-90966928D01*
X125579928Y-90873986D01*
X125579921Y-90873973D01*
X125468791Y-90707656D01*
X125468788Y-90707652D01*
X125327347Y-90566211D01*
X125327343Y-90566208D01*
X125161020Y-90455074D01*
X124976215Y-90378526D01*
X124976203Y-90378523D01*
X124780022Y-90339500D01*
X124780018Y-90339500D01*
X124579982Y-90339500D01*
X124579977Y-90339500D01*
X124383796Y-90378523D01*
X124383784Y-90378526D01*
X124198986Y-90455071D01*
X124198973Y-90455078D01*
X124032656Y-90566208D01*
X124032652Y-90566211D01*
X123891211Y-90707652D01*
X123891208Y-90707656D01*
X123780078Y-90873973D01*
X123780071Y-90873986D01*
X123703526Y-91058784D01*
X123703523Y-91058796D01*
X123664500Y-91254977D01*
X123155499Y-91254977D01*
X123116475Y-91058789D01*
X123078425Y-90966928D01*
X123039928Y-90873986D01*
X123039921Y-90873973D01*
X122928791Y-90707656D01*
X122928788Y-90707652D01*
X122787347Y-90566211D01*
X122787343Y-90566208D01*
X122621026Y-90455078D01*
X122621013Y-90455071D01*
X122436215Y-90378526D01*
X122436203Y-90378523D01*
X122240022Y-90339500D01*
X122240018Y-90339500D01*
X122039982Y-90339500D01*
X122039977Y-90339500D01*
X121843796Y-90378523D01*
X121843784Y-90378526D01*
X121658986Y-90455071D01*
X121658973Y-90455078D01*
X121492656Y-90566208D01*
X121492652Y-90566211D01*
X121351211Y-90707652D01*
X121351208Y-90707656D01*
X121240078Y-90873973D01*
X121240071Y-90873986D01*
X121163526Y-91058784D01*
X121163523Y-91058796D01*
X121124500Y-91254977D01*
X120615499Y-91254977D01*
X120576475Y-91058789D01*
X120538425Y-90966928D01*
X120499928Y-90873986D01*
X120499921Y-90873973D01*
X120388791Y-90707656D01*
X120388788Y-90707652D01*
X120247347Y-90566211D01*
X120247343Y-90566208D01*
X120081026Y-90455078D01*
X120081013Y-90455071D01*
X119896215Y-90378526D01*
X119896203Y-90378523D01*
X119700022Y-90339500D01*
X119700018Y-90339500D01*
X119499982Y-90339500D01*
X119499977Y-90339500D01*
X119303796Y-90378523D01*
X119303784Y-90378526D01*
X119118986Y-90455071D01*
X119118973Y-90455078D01*
X118952656Y-90566208D01*
X118952652Y-90566211D01*
X118811211Y-90707652D01*
X118811208Y-90707656D01*
X118700078Y-90873973D01*
X118700071Y-90873986D01*
X118623526Y-91058784D01*
X118623523Y-91058796D01*
X118584500Y-91254977D01*
X118075499Y-91254977D01*
X118036475Y-91058789D01*
X117998425Y-90966928D01*
X117959928Y-90873986D01*
X117959921Y-90873973D01*
X117848791Y-90707656D01*
X117848788Y-90707652D01*
X117707347Y-90566211D01*
X117707343Y-90566208D01*
X117541026Y-90455078D01*
X117541013Y-90455071D01*
X117356215Y-90378526D01*
X117356203Y-90378523D01*
X117160022Y-90339500D01*
X117160018Y-90339500D01*
X116959982Y-90339500D01*
X116959977Y-90339500D01*
X116763796Y-90378523D01*
X116763784Y-90378526D01*
X116578986Y-90455071D01*
X116578973Y-90455078D01*
X116412656Y-90566208D01*
X116412652Y-90566211D01*
X116271211Y-90707652D01*
X116271208Y-90707656D01*
X116160078Y-90873973D01*
X116160071Y-90873986D01*
X116083526Y-91058784D01*
X116083523Y-91058796D01*
X116044500Y-91254977D01*
X115535499Y-91254977D01*
X115496475Y-91058789D01*
X115458425Y-90966928D01*
X115419928Y-90873986D01*
X115419921Y-90873973D01*
X115308791Y-90707656D01*
X115308788Y-90707652D01*
X115167347Y-90566211D01*
X115167343Y-90566208D01*
X115001026Y-90455078D01*
X115001013Y-90455071D01*
X114816215Y-90378526D01*
X114816203Y-90378523D01*
X114620022Y-90339500D01*
X114620018Y-90339500D01*
X114419982Y-90339500D01*
X114419977Y-90339500D01*
X114223796Y-90378523D01*
X114223784Y-90378526D01*
X114038986Y-90455071D01*
X114038973Y-90455078D01*
X113872656Y-90566208D01*
X113872652Y-90566211D01*
X113731211Y-90707652D01*
X113731208Y-90707656D01*
X113620078Y-90873973D01*
X113620071Y-90873986D01*
X113543526Y-91058784D01*
X113543523Y-91058796D01*
X113504500Y-91254977D01*
X112995499Y-91254977D01*
X112956475Y-91058789D01*
X112918425Y-90966928D01*
X112879928Y-90873986D01*
X112879921Y-90873973D01*
X112768791Y-90707656D01*
X112768788Y-90707652D01*
X112627347Y-90566211D01*
X112627343Y-90566208D01*
X112461026Y-90455078D01*
X112461013Y-90455071D01*
X112276215Y-90378526D01*
X112276203Y-90378523D01*
X112080022Y-90339500D01*
X112080018Y-90339500D01*
X111879982Y-90339500D01*
X111879977Y-90339500D01*
X111683796Y-90378523D01*
X111683784Y-90378526D01*
X111498986Y-90455071D01*
X111498973Y-90455078D01*
X111332656Y-90566208D01*
X111332652Y-90566211D01*
X111191211Y-90707652D01*
X111191208Y-90707656D01*
X111080078Y-90873973D01*
X111080071Y-90873986D01*
X111003526Y-91058784D01*
X111003523Y-91058796D01*
X110964500Y-91254977D01*
X110455499Y-91254977D01*
X110416475Y-91058789D01*
X110378425Y-90966928D01*
X110339928Y-90873986D01*
X110339921Y-90873973D01*
X110228791Y-90707656D01*
X110228788Y-90707652D01*
X110087347Y-90566211D01*
X110087343Y-90566208D01*
X109921026Y-90455078D01*
X109921013Y-90455071D01*
X109736215Y-90378526D01*
X109736203Y-90378523D01*
X109540022Y-90339500D01*
X109540018Y-90339500D01*
X109339982Y-90339500D01*
X109339977Y-90339500D01*
X109143796Y-90378523D01*
X109143784Y-90378526D01*
X108958986Y-90455071D01*
X108958973Y-90455078D01*
X108792656Y-90566208D01*
X108792652Y-90566211D01*
X108651211Y-90707652D01*
X108651208Y-90707656D01*
X108540078Y-90873973D01*
X108540071Y-90873986D01*
X108463526Y-91058784D01*
X108463523Y-91058796D01*
X108424500Y-91254977D01*
X107915499Y-91254977D01*
X107876475Y-91058789D01*
X107838425Y-90966928D01*
X107799928Y-90873986D01*
X107799921Y-90873973D01*
X107688791Y-90707656D01*
X107688788Y-90707652D01*
X107547347Y-90566211D01*
X107547343Y-90566208D01*
X107381026Y-90455078D01*
X107381013Y-90455071D01*
X107196215Y-90378526D01*
X107196203Y-90378523D01*
X107000022Y-90339500D01*
X107000018Y-90339500D01*
X106799982Y-90339500D01*
X106799977Y-90339500D01*
X106603796Y-90378523D01*
X106603784Y-90378526D01*
X106418986Y-90455071D01*
X106418973Y-90455078D01*
X106252656Y-90566208D01*
X106252652Y-90566211D01*
X106111211Y-90707652D01*
X106111208Y-90707656D01*
X106000078Y-90873973D01*
X106000071Y-90873986D01*
X105923526Y-91058784D01*
X105923523Y-91058796D01*
X105884500Y-91254977D01*
X105375499Y-91254977D01*
X105336475Y-91058789D01*
X105298425Y-90966928D01*
X105259928Y-90873986D01*
X105259921Y-90873973D01*
X105148791Y-90707656D01*
X105148788Y-90707652D01*
X105007347Y-90566211D01*
X105007343Y-90566208D01*
X104841026Y-90455078D01*
X104841013Y-90455071D01*
X104656215Y-90378526D01*
X104656203Y-90378523D01*
X104460022Y-90339500D01*
X104460018Y-90339500D01*
X104259982Y-90339500D01*
X104259977Y-90339500D01*
X104063796Y-90378523D01*
X104063784Y-90378526D01*
X103878986Y-90455071D01*
X103878973Y-90455078D01*
X103712656Y-90566208D01*
X103712652Y-90566211D01*
X103571211Y-90707652D01*
X103571208Y-90707656D01*
X103460078Y-90873973D01*
X103460071Y-90873986D01*
X103383526Y-91058784D01*
X103383523Y-91058796D01*
X103344500Y-91254977D01*
X102835499Y-91254977D01*
X102796475Y-91058789D01*
X102758425Y-90966928D01*
X102719928Y-90873986D01*
X102719921Y-90873973D01*
X102608791Y-90707656D01*
X102608788Y-90707652D01*
X102467347Y-90566211D01*
X102467343Y-90566208D01*
X102301026Y-90455078D01*
X102301013Y-90455071D01*
X102116215Y-90378526D01*
X102116203Y-90378523D01*
X101920022Y-90339500D01*
X101920018Y-90339500D01*
X101719982Y-90339500D01*
X101719977Y-90339500D01*
X101523796Y-90378523D01*
X101523784Y-90378526D01*
X101338986Y-90455071D01*
X101338973Y-90455078D01*
X101172656Y-90566208D01*
X101172652Y-90566211D01*
X101031211Y-90707652D01*
X101031208Y-90707656D01*
X100920078Y-90873973D01*
X100920071Y-90873986D01*
X100843526Y-91058784D01*
X100843523Y-91058796D01*
X100804500Y-91254977D01*
X100295499Y-91254977D01*
X100256475Y-91058789D01*
X100218425Y-90966928D01*
X100179928Y-90873986D01*
X100179921Y-90873973D01*
X100068791Y-90707656D01*
X100068788Y-90707652D01*
X99927347Y-90566211D01*
X99927343Y-90566208D01*
X99761026Y-90455078D01*
X99761013Y-90455071D01*
X99576215Y-90378526D01*
X99576203Y-90378523D01*
X99380022Y-90339500D01*
X99380018Y-90339500D01*
X99179982Y-90339500D01*
X99179977Y-90339500D01*
X98983796Y-90378523D01*
X98983784Y-90378526D01*
X98798986Y-90455071D01*
X98798973Y-90455078D01*
X98632656Y-90566208D01*
X98632652Y-90566211D01*
X98491211Y-90707652D01*
X98491208Y-90707656D01*
X98380078Y-90873973D01*
X98380071Y-90873986D01*
X98303526Y-91058784D01*
X98303523Y-91058796D01*
X98264500Y-91254977D01*
X97755499Y-91254977D01*
X97716475Y-91058789D01*
X97678425Y-90966928D01*
X97639928Y-90873986D01*
X97639921Y-90873973D01*
X97528791Y-90707656D01*
X97528788Y-90707652D01*
X97387347Y-90566211D01*
X97387343Y-90566208D01*
X97221026Y-90455078D01*
X97221013Y-90455071D01*
X97036215Y-90378526D01*
X97036203Y-90378523D01*
X96840022Y-90339500D01*
X96840018Y-90339500D01*
X96639982Y-90339500D01*
X96639977Y-90339500D01*
X96443796Y-90378523D01*
X96443784Y-90378526D01*
X96258986Y-90455071D01*
X96258973Y-90455078D01*
X96092656Y-90566208D01*
X96092652Y-90566211D01*
X95951211Y-90707652D01*
X95951208Y-90707656D01*
X95840078Y-90873973D01*
X95840071Y-90873986D01*
X95763526Y-91058784D01*
X95763523Y-91058796D01*
X95724500Y-91254977D01*
X95215499Y-91254977D01*
X95176475Y-91058789D01*
X95138425Y-90966928D01*
X95099928Y-90873986D01*
X95099921Y-90873973D01*
X94988791Y-90707656D01*
X94988788Y-90707652D01*
X94847347Y-90566211D01*
X94847343Y-90566208D01*
X94681026Y-90455078D01*
X94681013Y-90455071D01*
X94496215Y-90378526D01*
X94496203Y-90378523D01*
X94300022Y-90339500D01*
X94300018Y-90339500D01*
X94099982Y-90339500D01*
X94099977Y-90339500D01*
X93903796Y-90378523D01*
X93903784Y-90378526D01*
X93718986Y-90455071D01*
X93718973Y-90455078D01*
X93552656Y-90566208D01*
X93552652Y-90566211D01*
X93411211Y-90707652D01*
X93411208Y-90707656D01*
X93300078Y-90873973D01*
X93300071Y-90873986D01*
X93223526Y-91058784D01*
X93223523Y-91058796D01*
X93184500Y-91254977D01*
X92675499Y-91254977D01*
X92636475Y-91058789D01*
X92598425Y-90966928D01*
X92559928Y-90873986D01*
X92559921Y-90873973D01*
X92448791Y-90707656D01*
X92448788Y-90707652D01*
X92307347Y-90566211D01*
X92307343Y-90566208D01*
X92141026Y-90455078D01*
X92141013Y-90455071D01*
X91956215Y-90378526D01*
X91956203Y-90378523D01*
X91760022Y-90339500D01*
X91760018Y-90339500D01*
X91559982Y-90339500D01*
X91559977Y-90339500D01*
X91363796Y-90378523D01*
X91363784Y-90378526D01*
X91178986Y-90455071D01*
X91178973Y-90455078D01*
X91012656Y-90566208D01*
X91012652Y-90566211D01*
X90871211Y-90707652D01*
X90871208Y-90707656D01*
X90760078Y-90873973D01*
X90760071Y-90873986D01*
X90683526Y-91058784D01*
X90683523Y-91058796D01*
X90644500Y-91254977D01*
X90135499Y-91254977D01*
X90096475Y-91058789D01*
X90058425Y-90966928D01*
X90019928Y-90873986D01*
X90019921Y-90873973D01*
X89908791Y-90707656D01*
X89908788Y-90707652D01*
X89767347Y-90566211D01*
X89767343Y-90566208D01*
X89601026Y-90455078D01*
X89601013Y-90455071D01*
X89416215Y-90378526D01*
X89416203Y-90378523D01*
X89220022Y-90339500D01*
X89220018Y-90339500D01*
X89019982Y-90339500D01*
X89019977Y-90339500D01*
X88823796Y-90378523D01*
X88823784Y-90378526D01*
X88638986Y-90455071D01*
X88638973Y-90455078D01*
X88472656Y-90566208D01*
X88472652Y-90566211D01*
X88331211Y-90707652D01*
X88331208Y-90707656D01*
X88220078Y-90873973D01*
X88220071Y-90873986D01*
X88143526Y-91058784D01*
X88143523Y-91058796D01*
X88104500Y-91254977D01*
X87595499Y-91254977D01*
X87556475Y-91058789D01*
X87518425Y-90966928D01*
X87479928Y-90873986D01*
X87479921Y-90873973D01*
X87368791Y-90707656D01*
X87368788Y-90707652D01*
X87227347Y-90566211D01*
X87227343Y-90566208D01*
X87061026Y-90455078D01*
X87061013Y-90455071D01*
X86876215Y-90378526D01*
X86876203Y-90378523D01*
X86680022Y-90339500D01*
X86680018Y-90339500D01*
X86479982Y-90339500D01*
X86479977Y-90339500D01*
X86283796Y-90378523D01*
X86283784Y-90378526D01*
X86098986Y-90455071D01*
X86098973Y-90455078D01*
X85932656Y-90566208D01*
X85932652Y-90566211D01*
X85791211Y-90707652D01*
X85791208Y-90707656D01*
X85680078Y-90873973D01*
X85680071Y-90873986D01*
X85603526Y-91058784D01*
X85603523Y-91058796D01*
X85564500Y-91254977D01*
X85055499Y-91254977D01*
X85016475Y-91058789D01*
X84978425Y-90966928D01*
X84939928Y-90873986D01*
X84939921Y-90873973D01*
X84828791Y-90707656D01*
X84828788Y-90707652D01*
X84687347Y-90566211D01*
X84687343Y-90566208D01*
X84521026Y-90455078D01*
X84521013Y-90455071D01*
X84336215Y-90378526D01*
X84336203Y-90378523D01*
X84140022Y-90339500D01*
X84140018Y-90339500D01*
X83939982Y-90339500D01*
X83939977Y-90339500D01*
X83743796Y-90378523D01*
X83743784Y-90378526D01*
X83558986Y-90455071D01*
X83558973Y-90455078D01*
X83392656Y-90566208D01*
X83392652Y-90566211D01*
X83251211Y-90707652D01*
X83251208Y-90707656D01*
X83140078Y-90873973D01*
X83140071Y-90873986D01*
X83063526Y-91058784D01*
X83063523Y-91058796D01*
X83024500Y-91254977D01*
X82515499Y-91254977D01*
X82476475Y-91058789D01*
X82438425Y-90966928D01*
X82399928Y-90873986D01*
X82399921Y-90873973D01*
X82288791Y-90707656D01*
X82288788Y-90707652D01*
X82147347Y-90566211D01*
X82147343Y-90566208D01*
X81981026Y-90455078D01*
X81981013Y-90455071D01*
X81796215Y-90378526D01*
X81796203Y-90378523D01*
X81600022Y-90339500D01*
X81600018Y-90339500D01*
X81399982Y-90339500D01*
X81399977Y-90339500D01*
X81203796Y-90378523D01*
X81203784Y-90378526D01*
X81018986Y-90455071D01*
X81018973Y-90455078D01*
X80852656Y-90566208D01*
X80852652Y-90566211D01*
X80711211Y-90707652D01*
X80711208Y-90707656D01*
X80600078Y-90873973D01*
X80600071Y-90873986D01*
X80523526Y-91058784D01*
X80523523Y-91058796D01*
X80484500Y-91254977D01*
X79975499Y-91254977D01*
X79936475Y-91058789D01*
X79898425Y-90966928D01*
X79859928Y-90873986D01*
X79859921Y-90873973D01*
X79748791Y-90707656D01*
X79748788Y-90707652D01*
X79607347Y-90566211D01*
X79607343Y-90566208D01*
X79441026Y-90455078D01*
X79441013Y-90455071D01*
X79256215Y-90378526D01*
X79256203Y-90378523D01*
X79060022Y-90339500D01*
X79060018Y-90339500D01*
X78859982Y-90339500D01*
X78859977Y-90339500D01*
X78663796Y-90378523D01*
X78663784Y-90378526D01*
X78478986Y-90455071D01*
X78478973Y-90455078D01*
X78312656Y-90566208D01*
X78312652Y-90566211D01*
X78171211Y-90707652D01*
X78171208Y-90707656D01*
X78060078Y-90873973D01*
X78060071Y-90873986D01*
X77983526Y-91058784D01*
X77983523Y-91058796D01*
X77944500Y-91254977D01*
X77684927Y-91254977D01*
X77653852Y-91058777D01*
X77592320Y-90869405D01*
X77501924Y-90691994D01*
X77474417Y-90654135D01*
X77474417Y-90654134D01*
X76911128Y-91217424D01*
X76895245Y-91158147D01*
X76828102Y-91041853D01*
X76733147Y-90946898D01*
X76616853Y-90879755D01*
X76557574Y-90863871D01*
X77120864Y-90300581D01*
X77120863Y-90300580D01*
X77083008Y-90273077D01*
X76905594Y-90182679D01*
X76716222Y-90121147D01*
X76519563Y-90090000D01*
X76320437Y-90090000D01*
X76123777Y-90121147D01*
X75934405Y-90182679D01*
X75756990Y-90273077D01*
X75719135Y-90300580D01*
X75719135Y-90300581D01*
X76282425Y-90863871D01*
X76223147Y-90879755D01*
X76106853Y-90946898D01*
X76011898Y-91041853D01*
X75944755Y-91158147D01*
X75928871Y-91217425D01*
X75365581Y-90654135D01*
X75365580Y-90654135D01*
X75338074Y-90691995D01*
X75338073Y-90691996D01*
X75260484Y-90844272D01*
X75212510Y-90895068D01*
X75144689Y-90911863D01*
X75078554Y-90889325D01*
X75039516Y-90844272D01*
X74961928Y-90691999D01*
X74934417Y-90654135D01*
X74934417Y-90654134D01*
X74371128Y-91217424D01*
X74355245Y-91158147D01*
X74288102Y-91041853D01*
X74193147Y-90946898D01*
X74076853Y-90879755D01*
X74017574Y-90863871D01*
X74580864Y-90300581D01*
X74580863Y-90300580D01*
X74543008Y-90273077D01*
X74365594Y-90182679D01*
X74176222Y-90121147D01*
X73979563Y-90090000D01*
X73780437Y-90090000D01*
X73583777Y-90121147D01*
X73394405Y-90182679D01*
X73216990Y-90273077D01*
X73179135Y-90300580D01*
X73179135Y-90300581D01*
X73742425Y-90863871D01*
X73683147Y-90879755D01*
X73566853Y-90946898D01*
X73471898Y-91041853D01*
X73404755Y-91158147D01*
X73388871Y-91217425D01*
X72825581Y-90654135D01*
X72825580Y-90654135D01*
X72798077Y-90691990D01*
X72707679Y-90869405D01*
X72646147Y-91058777D01*
X72615000Y-91255436D01*
X62990779Y-91255436D01*
X63116788Y-91191232D01*
X63256928Y-91089414D01*
X63379414Y-90966928D01*
X63481232Y-90826788D01*
X63559873Y-90672445D01*
X63613402Y-90507701D01*
X63640500Y-90336611D01*
X63640500Y-90163389D01*
X63613402Y-89992299D01*
X63559873Y-89827555D01*
X63481232Y-89673212D01*
X63379414Y-89533072D01*
X63256928Y-89410586D01*
X63116788Y-89308768D01*
X62962445Y-89230127D01*
X62797701Y-89176598D01*
X62797699Y-89176597D01*
X62797698Y-89176597D01*
X62666271Y-89155781D01*
X62626611Y-89149500D01*
X62453389Y-89149500D01*
X62413728Y-89155781D01*
X62282302Y-89176597D01*
X62117552Y-89230128D01*
X61963211Y-89308768D01*
X61883256Y-89366859D01*
X61823072Y-89410586D01*
X61823070Y-89410588D01*
X61823069Y-89410588D01*
X61700588Y-89533069D01*
X61700588Y-89533070D01*
X61700586Y-89533072D01*
X61656859Y-89593256D01*
X61598768Y-89673211D01*
X61520128Y-89827552D01*
X61466597Y-89992302D01*
X61439500Y-90163389D01*
X61100500Y-90163389D01*
X61100500Y-89375326D01*
X61100500Y-89375323D01*
X61100499Y-89375321D01*
X61085967Y-89302264D01*
X61085966Y-89302260D01*
X61030601Y-89219399D01*
X60947740Y-89164034D01*
X60947739Y-89164033D01*
X60947735Y-89164032D01*
X60874677Y-89149500D01*
X60874674Y-89149500D01*
X59125326Y-89149500D01*
X59125323Y-89149500D01*
X59052264Y-89164032D01*
X59052260Y-89164033D01*
X58969399Y-89219399D01*
X58914033Y-89302260D01*
X58914032Y-89302264D01*
X58899500Y-89375321D01*
X30750000Y-89375321D01*
X30750000Y-86970558D01*
X37136500Y-86970558D01*
X37136500Y-87246941D01*
X37136501Y-87246958D01*
X37172576Y-87520977D01*
X37244116Y-87787966D01*
X37349881Y-88043307D01*
X37349886Y-88043317D01*
X37488085Y-88282683D01*
X37488087Y-88282686D01*
X37488091Y-88282692D01*
X37656342Y-88501962D01*
X37656348Y-88501969D01*
X37851780Y-88697401D01*
X37851787Y-88697407D01*
X38071057Y-88865658D01*
X38071061Y-88865660D01*
X38071067Y-88865665D01*
X38310433Y-89003864D01*
X38310438Y-89003866D01*
X38310442Y-89003868D01*
X38565783Y-89109633D01*
X38565785Y-89109633D01*
X38565791Y-89109636D01*
X38832769Y-89181173D01*
X39106802Y-89217250D01*
X39106809Y-89217250D01*
X39383191Y-89217250D01*
X39383198Y-89217250D01*
X39657231Y-89181173D01*
X39924209Y-89109636D01*
X40179567Y-89003864D01*
X40418933Y-88865665D01*
X40638214Y-88697406D01*
X40833656Y-88501964D01*
X41001915Y-88282683D01*
X41140114Y-88043317D01*
X41245886Y-87787959D01*
X41317423Y-87520981D01*
X41353500Y-87246948D01*
X41353500Y-86970552D01*
X41317423Y-86696519D01*
X41245886Y-86429541D01*
X41140114Y-86174183D01*
X41001915Y-85934817D01*
X41001910Y-85934811D01*
X41001908Y-85934807D01*
X40833657Y-85715537D01*
X40833651Y-85715530D01*
X40638219Y-85520098D01*
X40638212Y-85520092D01*
X40418942Y-85351841D01*
X40418936Y-85351837D01*
X40418933Y-85351835D01*
X40179567Y-85213636D01*
X40179557Y-85213631D01*
X39924216Y-85107866D01*
X39657227Y-85036326D01*
X39383208Y-85000251D01*
X39383203Y-85000250D01*
X39383198Y-85000250D01*
X39106802Y-85000250D01*
X39106796Y-85000250D01*
X39106791Y-85000251D01*
X38832772Y-85036326D01*
X38565783Y-85107866D01*
X38310442Y-85213631D01*
X38310432Y-85213636D01*
X38071067Y-85351835D01*
X38071057Y-85351841D01*
X37851787Y-85520092D01*
X37851780Y-85520098D01*
X37656348Y-85715530D01*
X37656342Y-85715537D01*
X37488091Y-85934807D01*
X37488085Y-85934817D01*
X37349886Y-86174182D01*
X37349881Y-86174192D01*
X37244116Y-86429533D01*
X37172576Y-86696522D01*
X37136501Y-86970541D01*
X37136500Y-86970558D01*
X30750000Y-86970558D01*
X30750000Y-83870054D01*
X31694500Y-83870054D01*
X31694500Y-84047445D01*
X31729103Y-84221408D01*
X31729106Y-84221417D01*
X31796983Y-84385290D01*
X31796990Y-84385303D01*
X31895535Y-84532784D01*
X31895538Y-84532788D01*
X32020961Y-84658211D01*
X32020965Y-84658214D01*
X32168446Y-84756759D01*
X32168459Y-84756766D01*
X32291363Y-84807673D01*
X32332334Y-84824644D01*
X32332336Y-84824644D01*
X32332341Y-84824646D01*
X32506304Y-84859249D01*
X32506307Y-84859250D01*
X32506309Y-84859250D01*
X33983693Y-84859250D01*
X33983694Y-84859249D01*
X34041682Y-84847714D01*
X34157658Y-84824646D01*
X34157661Y-84824644D01*
X34157666Y-84824644D01*
X34321547Y-84756763D01*
X34469035Y-84658214D01*
X34594464Y-84532785D01*
X34693013Y-84385297D01*
X34760894Y-84221416D01*
X34768596Y-84182699D01*
X34795499Y-84047445D01*
X34795500Y-84047443D01*
X34795500Y-83870056D01*
X34795499Y-83870054D01*
X34760896Y-83696091D01*
X34760894Y-83696086D01*
X34760894Y-83696084D01*
X34740845Y-83647682D01*
X58950000Y-83647682D01*
X58950000Y-83852317D01*
X58982009Y-84054417D01*
X59045244Y-84249031D01*
X59138141Y-84431350D01*
X59138147Y-84431359D01*
X59170523Y-84475921D01*
X59170524Y-84475922D01*
X59850000Y-83796446D01*
X59850000Y-83802661D01*
X59877259Y-83904394D01*
X59929920Y-83995606D01*
X60004394Y-84070080D01*
X60095606Y-84122741D01*
X60197339Y-84150000D01*
X60203553Y-84150000D01*
X59524076Y-84829474D01*
X59568650Y-84861859D01*
X59750968Y-84954755D01*
X59945582Y-85017990D01*
X60147683Y-85050000D01*
X60352317Y-85050000D01*
X60554417Y-85017990D01*
X60749031Y-84954755D01*
X60931349Y-84861859D01*
X60975921Y-84829474D01*
X60296447Y-84150000D01*
X60302661Y-84150000D01*
X60404394Y-84122741D01*
X60495606Y-84070080D01*
X60570080Y-83995606D01*
X60622741Y-83904394D01*
X60650000Y-83802661D01*
X60650000Y-83796447D01*
X61329474Y-84475921D01*
X61361859Y-84431349D01*
X61454754Y-84249032D01*
X61457566Y-84240377D01*
X61496999Y-84182699D01*
X61561355Y-84155495D01*
X61630203Y-84167404D01*
X61681682Y-84214644D01*
X61699500Y-84278684D01*
X61699500Y-84347869D01*
X61699501Y-84347876D01*
X61705908Y-84407483D01*
X61756202Y-84542328D01*
X61756206Y-84542335D01*
X61842452Y-84657544D01*
X61842455Y-84657547D01*
X61957664Y-84743793D01*
X61957671Y-84743797D01*
X62092517Y-84794091D01*
X62092516Y-84794091D01*
X62099444Y-84794835D01*
X62152127Y-84800500D01*
X63347872Y-84800499D01*
X63407483Y-84794091D01*
X63542331Y-84743796D01*
X63657546Y-84657546D01*
X63743796Y-84542331D01*
X63794091Y-84407483D01*
X63800500Y-84347873D01*
X63800499Y-83152128D01*
X63795299Y-83103757D01*
X63794091Y-83092516D01*
X63743797Y-82957671D01*
X63743793Y-82957664D01*
X63657547Y-82842455D01*
X63657544Y-82842452D01*
X63542335Y-82756206D01*
X63542328Y-82756202D01*
X63407482Y-82705908D01*
X63407483Y-82705908D01*
X63347883Y-82699501D01*
X63347881Y-82699500D01*
X63347873Y-82699500D01*
X63347864Y-82699500D01*
X62152129Y-82699500D01*
X62152123Y-82699501D01*
X62092516Y-82705908D01*
X61957671Y-82756202D01*
X61957664Y-82756206D01*
X61842455Y-82842452D01*
X61842452Y-82842455D01*
X61756206Y-82957664D01*
X61756202Y-82957671D01*
X61705908Y-83092517D01*
X61699501Y-83152116D01*
X61699501Y-83152123D01*
X61699500Y-83152135D01*
X61699500Y-83221310D01*
X61679815Y-83288349D01*
X61627011Y-83334104D01*
X61557853Y-83344048D01*
X61494297Y-83315023D01*
X61457569Y-83259629D01*
X61454755Y-83250968D01*
X61361859Y-83068650D01*
X61329474Y-83024077D01*
X61329474Y-83024076D01*
X60650000Y-83703551D01*
X60650000Y-83697339D01*
X60622741Y-83595606D01*
X60570080Y-83504394D01*
X60495606Y-83429920D01*
X60404394Y-83377259D01*
X60302661Y-83350000D01*
X60296446Y-83350000D01*
X60975922Y-82670524D01*
X60975921Y-82670523D01*
X60931359Y-82638147D01*
X60931350Y-82638141D01*
X60749031Y-82545244D01*
X60554417Y-82482009D01*
X60352317Y-82450000D01*
X60147683Y-82450000D01*
X59945582Y-82482009D01*
X59750968Y-82545244D01*
X59568644Y-82638143D01*
X59524077Y-82670523D01*
X59524077Y-82670524D01*
X60203554Y-83350000D01*
X60197339Y-83350000D01*
X60095606Y-83377259D01*
X60004394Y-83429920D01*
X59929920Y-83504394D01*
X59877259Y-83595606D01*
X59850000Y-83697339D01*
X59850000Y-83703553D01*
X59170524Y-83024077D01*
X59170523Y-83024077D01*
X59138143Y-83068644D01*
X59045244Y-83250968D01*
X58982009Y-83445582D01*
X58950000Y-83647682D01*
X34740845Y-83647682D01*
X34719275Y-83595606D01*
X34693016Y-83532209D01*
X34693009Y-83532196D01*
X34594464Y-83384715D01*
X34594461Y-83384711D01*
X34469038Y-83259288D01*
X34469034Y-83259285D01*
X34321553Y-83160740D01*
X34321540Y-83160733D01*
X34157667Y-83092856D01*
X34157658Y-83092853D01*
X33983694Y-83058250D01*
X33983691Y-83058250D01*
X32506309Y-83058250D01*
X32506306Y-83058250D01*
X32332341Y-83092853D01*
X32332332Y-83092856D01*
X32168459Y-83160733D01*
X32168446Y-83160740D01*
X32020965Y-83259285D01*
X32020961Y-83259288D01*
X31895538Y-83384711D01*
X31895535Y-83384715D01*
X31796990Y-83532196D01*
X31796983Y-83532209D01*
X31729106Y-83696082D01*
X31729103Y-83696091D01*
X31694500Y-83870054D01*
X30750000Y-83870054D01*
X30750000Y-77750530D01*
X42678500Y-77750530D01*
X42678500Y-77957469D01*
X42718868Y-78160412D01*
X42718870Y-78160420D01*
X42798058Y-78351596D01*
X42913024Y-78523657D01*
X43059342Y-78669975D01*
X43059345Y-78669977D01*
X43231402Y-78784941D01*
X43422580Y-78864130D01*
X43625530Y-78904499D01*
X43625534Y-78904500D01*
X43625535Y-78904500D01*
X43832466Y-78904500D01*
X43832467Y-78904499D01*
X44035420Y-78864130D01*
X44226598Y-78784941D01*
X44398655Y-78669977D01*
X44544977Y-78523655D01*
X44659941Y-78351598D01*
X44739130Y-78160420D01*
X44779500Y-77957465D01*
X44779500Y-77750535D01*
X44779499Y-77750530D01*
X61220500Y-77750530D01*
X61220500Y-77957469D01*
X61260868Y-78160412D01*
X61260870Y-78160420D01*
X61340058Y-78351596D01*
X61455024Y-78523657D01*
X61601342Y-78669975D01*
X61601345Y-78669977D01*
X61773402Y-78784941D01*
X61964580Y-78864130D01*
X62167530Y-78904499D01*
X62167534Y-78904500D01*
X62167535Y-78904500D01*
X62374466Y-78904500D01*
X62374467Y-78904499D01*
X62577420Y-78864130D01*
X62768598Y-78784941D01*
X62940655Y-78669977D01*
X63086977Y-78523655D01*
X63201941Y-78351598D01*
X63281130Y-78160420D01*
X63321500Y-77957465D01*
X63321500Y-77750535D01*
X63281130Y-77547580D01*
X63201941Y-77356402D01*
X63086977Y-77184345D01*
X63086975Y-77184342D01*
X62940657Y-77038024D01*
X62854626Y-76980541D01*
X62768598Y-76923059D01*
X62577420Y-76843870D01*
X62577412Y-76843868D01*
X62374469Y-76803500D01*
X62374465Y-76803500D01*
X62167535Y-76803500D01*
X62167530Y-76803500D01*
X61964587Y-76843868D01*
X61964579Y-76843870D01*
X61773403Y-76923058D01*
X61601342Y-77038024D01*
X61455024Y-77184342D01*
X61340058Y-77356403D01*
X61260870Y-77547579D01*
X61260868Y-77547587D01*
X61220500Y-77750530D01*
X44779499Y-77750530D01*
X44739130Y-77547580D01*
X44659941Y-77356402D01*
X44544977Y-77184345D01*
X44544975Y-77184342D01*
X44398657Y-77038024D01*
X44312626Y-76980541D01*
X44226598Y-76923059D01*
X44035420Y-76843870D01*
X44035412Y-76843868D01*
X43832469Y-76803500D01*
X43832465Y-76803500D01*
X43625535Y-76803500D01*
X43625530Y-76803500D01*
X43422587Y-76843868D01*
X43422579Y-76843870D01*
X43231403Y-76923058D01*
X43059342Y-77038024D01*
X42913024Y-77184342D01*
X42798058Y-77356403D01*
X42718870Y-77547579D01*
X42718868Y-77547587D01*
X42678500Y-77750530D01*
X30750000Y-77750530D01*
X30750000Y-73030061D01*
X33350000Y-73030061D01*
X33350000Y-73234696D01*
X33382009Y-73436796D01*
X33445244Y-73631410D01*
X33538141Y-73813729D01*
X33538147Y-73813738D01*
X33570523Y-73858300D01*
X33570524Y-73858301D01*
X34250000Y-73178825D01*
X34250000Y-73185040D01*
X34277259Y-73286773D01*
X34329920Y-73377985D01*
X34404394Y-73452459D01*
X34495606Y-73505120D01*
X34597339Y-73532379D01*
X34603553Y-73532379D01*
X33924076Y-74211853D01*
X33968650Y-74244238D01*
X34150970Y-74337134D01*
X34159624Y-74339946D01*
X34217302Y-74379380D01*
X34244504Y-74443737D01*
X34232594Y-74512584D01*
X34185352Y-74564063D01*
X34121315Y-74581879D01*
X34052130Y-74581879D01*
X34052123Y-74581880D01*
X33992516Y-74588287D01*
X33857671Y-74638581D01*
X33857664Y-74638585D01*
X33742455Y-74724831D01*
X33742452Y-74724834D01*
X33656206Y-74840043D01*
X33656202Y-74840050D01*
X33605908Y-74974896D01*
X33602394Y-75007587D01*
X33599501Y-75034502D01*
X33599500Y-75034514D01*
X33599500Y-76230249D01*
X33599501Y-76230255D01*
X33605908Y-76289862D01*
X33656202Y-76424707D01*
X33656206Y-76424714D01*
X33742452Y-76539923D01*
X33742455Y-76539926D01*
X33857664Y-76626172D01*
X33857671Y-76626176D01*
X33992517Y-76676470D01*
X33992516Y-76676470D01*
X33999444Y-76677214D01*
X34052127Y-76682879D01*
X35247872Y-76682878D01*
X35307483Y-76676470D01*
X35442331Y-76626175D01*
X35557546Y-76539925D01*
X35643796Y-76424710D01*
X35694091Y-76289862D01*
X35700500Y-76230252D01*
X35700499Y-75210530D01*
X42678500Y-75210530D01*
X42678500Y-75417469D01*
X42718868Y-75620412D01*
X42718870Y-75620420D01*
X42798058Y-75811596D01*
X42913024Y-75983657D01*
X43059342Y-76129975D01*
X43059345Y-76129977D01*
X43231402Y-76244941D01*
X43422580Y-76324130D01*
X43625530Y-76364499D01*
X43625534Y-76364500D01*
X43625535Y-76364500D01*
X43832466Y-76364500D01*
X43832467Y-76364499D01*
X44035420Y-76324130D01*
X44226598Y-76244941D01*
X44398655Y-76129977D01*
X44544977Y-75983655D01*
X44659941Y-75811598D01*
X44739130Y-75620420D01*
X44779500Y-75417465D01*
X44779500Y-75210535D01*
X44779499Y-75210530D01*
X61220500Y-75210530D01*
X61220500Y-75417469D01*
X61260868Y-75620412D01*
X61260870Y-75620420D01*
X61340058Y-75811596D01*
X61455024Y-75983657D01*
X61601342Y-76129975D01*
X61601345Y-76129977D01*
X61773402Y-76244941D01*
X61964580Y-76324130D01*
X62167530Y-76364499D01*
X62167534Y-76364500D01*
X62167535Y-76364500D01*
X62374466Y-76364500D01*
X62374467Y-76364499D01*
X62577420Y-76324130D01*
X62768598Y-76244941D01*
X62940655Y-76129977D01*
X63086977Y-75983655D01*
X63201941Y-75811598D01*
X63281130Y-75620420D01*
X63321500Y-75417465D01*
X63321500Y-75210535D01*
X63281130Y-75007580D01*
X63201941Y-74816402D01*
X63086977Y-74644345D01*
X63086975Y-74644342D01*
X62940657Y-74498024D01*
X62854164Y-74440232D01*
X62768598Y-74383059D01*
X62759716Y-74379380D01*
X62577420Y-74303870D01*
X62577412Y-74303868D01*
X62374469Y-74263500D01*
X62374465Y-74263500D01*
X62167535Y-74263500D01*
X62167530Y-74263500D01*
X61964587Y-74303868D01*
X61964579Y-74303870D01*
X61773403Y-74383058D01*
X61601342Y-74498024D01*
X61455024Y-74644342D01*
X61340058Y-74816403D01*
X61260870Y-75007579D01*
X61260868Y-75007587D01*
X61220500Y-75210530D01*
X44779499Y-75210530D01*
X44739130Y-75007580D01*
X44659941Y-74816402D01*
X44544977Y-74644345D01*
X44544975Y-74644342D01*
X44398657Y-74498024D01*
X44312164Y-74440232D01*
X44226598Y-74383059D01*
X44217716Y-74379380D01*
X44035420Y-74303870D01*
X44035412Y-74303868D01*
X43832469Y-74263500D01*
X43832465Y-74263500D01*
X43625535Y-74263500D01*
X43625530Y-74263500D01*
X43422587Y-74303868D01*
X43422579Y-74303870D01*
X43231403Y-74383058D01*
X43059342Y-74498024D01*
X42913024Y-74644342D01*
X42798058Y-74816403D01*
X42718870Y-75007579D01*
X42718868Y-75007587D01*
X42678500Y-75210530D01*
X35700499Y-75210530D01*
X35700499Y-75034507D01*
X35694091Y-74974896D01*
X35643796Y-74840048D01*
X35643795Y-74840047D01*
X35643793Y-74840043D01*
X35557547Y-74724834D01*
X35557544Y-74724831D01*
X35442335Y-74638585D01*
X35442328Y-74638581D01*
X35307482Y-74588287D01*
X35307483Y-74588287D01*
X35247883Y-74581880D01*
X35247881Y-74581879D01*
X35247873Y-74581879D01*
X35247865Y-74581879D01*
X35178689Y-74581879D01*
X35111650Y-74562194D01*
X35065895Y-74509390D01*
X35055951Y-74440232D01*
X35084976Y-74376676D01*
X35140372Y-74339948D01*
X35149028Y-74337135D01*
X35331349Y-74244238D01*
X35375921Y-74211853D01*
X34696447Y-73532379D01*
X34702661Y-73532379D01*
X34804394Y-73505120D01*
X34895606Y-73452459D01*
X34970080Y-73377985D01*
X35022741Y-73286773D01*
X35050000Y-73185040D01*
X35050000Y-73178827D01*
X35729474Y-73858301D01*
X35729474Y-73858300D01*
X35761859Y-73813728D01*
X35854755Y-73631410D01*
X35917990Y-73436796D01*
X35950000Y-73234696D01*
X35950000Y-73030061D01*
X35917990Y-72827961D01*
X35854755Y-72633347D01*
X35761859Y-72451029D01*
X35729474Y-72406456D01*
X35729474Y-72406455D01*
X35050000Y-73085930D01*
X35050000Y-73079718D01*
X35022741Y-72977985D01*
X34970080Y-72886773D01*
X34895606Y-72812299D01*
X34804394Y-72759638D01*
X34702661Y-72732379D01*
X34696446Y-72732379D01*
X35375922Y-72052903D01*
X35375921Y-72052902D01*
X35331359Y-72020526D01*
X35331350Y-72020520D01*
X35149031Y-71927623D01*
X34954417Y-71864388D01*
X34752317Y-71832379D01*
X34547683Y-71832379D01*
X34345582Y-71864388D01*
X34150968Y-71927623D01*
X33968644Y-72020522D01*
X33924077Y-72052902D01*
X33924077Y-72052903D01*
X34603554Y-72732379D01*
X34597339Y-72732379D01*
X34495606Y-72759638D01*
X34404394Y-72812299D01*
X34329920Y-72886773D01*
X34277259Y-72977985D01*
X34250000Y-73079718D01*
X34250000Y-73085932D01*
X33570524Y-72406456D01*
X33570523Y-72406456D01*
X33538143Y-72451023D01*
X33445244Y-72633347D01*
X33382009Y-72827961D01*
X33350000Y-73030061D01*
X30750000Y-73030061D01*
X30750000Y-67870054D01*
X31694500Y-67870054D01*
X31694500Y-68047445D01*
X31729103Y-68221408D01*
X31729106Y-68221417D01*
X31796983Y-68385290D01*
X31796990Y-68385303D01*
X31895535Y-68532784D01*
X31895538Y-68532788D01*
X32020961Y-68658211D01*
X32020965Y-68658214D01*
X32168446Y-68756759D01*
X32168459Y-68756766D01*
X32291363Y-68807673D01*
X32332334Y-68824644D01*
X32332336Y-68824644D01*
X32332341Y-68824646D01*
X32506304Y-68859249D01*
X32506307Y-68859250D01*
X32506309Y-68859250D01*
X33983693Y-68859250D01*
X33983694Y-68859249D01*
X34041682Y-68847714D01*
X34157658Y-68824646D01*
X34157661Y-68824644D01*
X34157666Y-68824644D01*
X34321547Y-68756763D01*
X34469035Y-68658214D01*
X34594464Y-68532785D01*
X34693013Y-68385297D01*
X34760894Y-68221416D01*
X34795500Y-68047441D01*
X34795500Y-67870059D01*
X34795500Y-67870056D01*
X34795499Y-67870054D01*
X34760896Y-67696091D01*
X34760893Y-67696082D01*
X34693016Y-67532209D01*
X34693014Y-67532205D01*
X34693013Y-67532203D01*
X34594464Y-67384715D01*
X34594461Y-67384711D01*
X34469038Y-67259288D01*
X34469034Y-67259285D01*
X34321553Y-67160740D01*
X34321540Y-67160733D01*
X34157667Y-67092856D01*
X34157658Y-67092853D01*
X33983694Y-67058250D01*
X33983691Y-67058250D01*
X32506309Y-67058250D01*
X32506306Y-67058250D01*
X32332341Y-67092853D01*
X32332332Y-67092856D01*
X32168459Y-67160733D01*
X32168446Y-67160740D01*
X32020965Y-67259285D01*
X32020961Y-67259288D01*
X31895538Y-67384711D01*
X31895535Y-67384715D01*
X31796990Y-67532196D01*
X31796983Y-67532209D01*
X31729106Y-67696082D01*
X31729103Y-67696091D01*
X31694500Y-67870054D01*
X30750000Y-67870054D01*
X30750000Y-64396000D01*
X42452391Y-64396000D01*
X43413314Y-64396000D01*
X43408920Y-64400394D01*
X43356259Y-64491606D01*
X43329000Y-64593339D01*
X43329000Y-64698661D01*
X43356259Y-64800394D01*
X43408920Y-64891606D01*
X43413314Y-64896000D01*
X42452391Y-64896000D01*
X42461009Y-64950413D01*
X42524244Y-65145029D01*
X42617140Y-65327349D01*
X42737417Y-65492894D01*
X42737417Y-65492895D01*
X42882104Y-65637582D01*
X43047650Y-65757859D01*
X43141179Y-65805515D01*
X43191975Y-65853490D01*
X43208770Y-65921311D01*
X43186232Y-65987446D01*
X43141179Y-66026485D01*
X43047650Y-66074140D01*
X42882105Y-66194417D01*
X42882104Y-66194417D01*
X42737417Y-66339104D01*
X42737417Y-66339105D01*
X42617140Y-66504650D01*
X42524244Y-66686970D01*
X42461009Y-66881586D01*
X42452391Y-66936000D01*
X43413314Y-66936000D01*
X43408920Y-66940394D01*
X43356259Y-67031606D01*
X43329000Y-67133339D01*
X43329000Y-67238661D01*
X43356259Y-67340394D01*
X43408920Y-67431606D01*
X43413314Y-67436000D01*
X42452391Y-67436000D01*
X42461009Y-67490413D01*
X42524244Y-67685029D01*
X42617140Y-67867349D01*
X42737417Y-68032894D01*
X42737417Y-68032895D01*
X42882104Y-68177582D01*
X43047650Y-68297859D01*
X43229968Y-68390754D01*
X43424578Y-68453988D01*
X43479000Y-68462607D01*
X43479000Y-67501686D01*
X43483394Y-67506080D01*
X43574606Y-67558741D01*
X43676339Y-67586000D01*
X43781661Y-67586000D01*
X43883394Y-67558741D01*
X43974606Y-67506080D01*
X43979000Y-67501686D01*
X43979000Y-68462606D01*
X44033421Y-68453988D01*
X44228031Y-68390754D01*
X44410349Y-68297859D01*
X44575894Y-68177582D01*
X44575895Y-68177582D01*
X44720582Y-68032895D01*
X44720582Y-68032894D01*
X44840859Y-67867349D01*
X44933755Y-67685029D01*
X44996990Y-67490413D01*
X45005609Y-67436000D01*
X44044686Y-67436000D01*
X44049080Y-67431606D01*
X44101741Y-67340394D01*
X44129000Y-67238661D01*
X44129000Y-67133339D01*
X44101741Y-67031606D01*
X44049080Y-66940394D01*
X44044686Y-66936000D01*
X45005609Y-66936000D01*
X44996990Y-66881586D01*
X44933755Y-66686970D01*
X44840859Y-66504650D01*
X44720582Y-66339105D01*
X44720582Y-66339104D01*
X44575895Y-66194417D01*
X44410349Y-66074140D01*
X44316820Y-66026485D01*
X44266024Y-65978511D01*
X44249229Y-65910690D01*
X44271766Y-65844555D01*
X44316820Y-65805515D01*
X44410349Y-65757859D01*
X44575894Y-65637582D01*
X44575895Y-65637582D01*
X44720582Y-65492895D01*
X44720582Y-65492894D01*
X44840859Y-65327349D01*
X44933755Y-65145029D01*
X44996990Y-64950413D01*
X45005609Y-64896000D01*
X44044686Y-64896000D01*
X44049080Y-64891606D01*
X44101741Y-64800394D01*
X44129000Y-64698661D01*
X44129000Y-64593339D01*
X44101741Y-64491606D01*
X44049080Y-64400394D01*
X44044686Y-64396000D01*
X45005609Y-64396000D01*
X60994391Y-64396000D01*
X61955314Y-64396000D01*
X61950920Y-64400394D01*
X61898259Y-64491606D01*
X61871000Y-64593339D01*
X61871000Y-64698661D01*
X61898259Y-64800394D01*
X61950920Y-64891606D01*
X61955314Y-64896000D01*
X60994391Y-64896000D01*
X61003009Y-64950413D01*
X61066244Y-65145029D01*
X61159140Y-65327349D01*
X61279417Y-65492894D01*
X61279417Y-65492895D01*
X61424104Y-65637582D01*
X61589650Y-65757859D01*
X61683179Y-65805515D01*
X61733975Y-65853490D01*
X61750770Y-65921311D01*
X61728232Y-65987446D01*
X61683179Y-66026485D01*
X61589650Y-66074140D01*
X61424105Y-66194417D01*
X61424104Y-66194417D01*
X61279417Y-66339104D01*
X61279417Y-66339105D01*
X61159140Y-66504650D01*
X61066244Y-66686970D01*
X61003009Y-66881586D01*
X60994391Y-66936000D01*
X61955314Y-66936000D01*
X61950920Y-66940394D01*
X61898259Y-67031606D01*
X61871000Y-67133339D01*
X61871000Y-67238661D01*
X61898259Y-67340394D01*
X61950920Y-67431606D01*
X61955314Y-67436000D01*
X60994391Y-67436000D01*
X61003009Y-67490413D01*
X61066244Y-67685029D01*
X61159140Y-67867349D01*
X61279417Y-68032894D01*
X61279417Y-68032895D01*
X61424104Y-68177582D01*
X61589650Y-68297859D01*
X61771968Y-68390754D01*
X61966578Y-68453988D01*
X62021000Y-68462607D01*
X62021000Y-67501686D01*
X62025394Y-67506080D01*
X62116606Y-67558741D01*
X62218339Y-67586000D01*
X62323661Y-67586000D01*
X62425394Y-67558741D01*
X62516606Y-67506080D01*
X62521000Y-67501686D01*
X62521000Y-68462606D01*
X62575421Y-68453988D01*
X62770031Y-68390754D01*
X62952349Y-68297859D01*
X63117894Y-68177582D01*
X63117895Y-68177582D01*
X63262582Y-68032895D01*
X63262582Y-68032894D01*
X63382859Y-67867349D01*
X63475755Y-67685029D01*
X63538990Y-67490413D01*
X63547609Y-67436000D01*
X62586686Y-67436000D01*
X62591080Y-67431606D01*
X62643741Y-67340394D01*
X62671000Y-67238661D01*
X62671000Y-67133339D01*
X62643741Y-67031606D01*
X62591080Y-66940394D01*
X62586686Y-66936000D01*
X63547609Y-66936000D01*
X63538990Y-66881586D01*
X63476895Y-66690476D01*
X63476894Y-66690474D01*
X63475756Y-66686972D01*
X63382859Y-66504650D01*
X63262582Y-66339105D01*
X63262582Y-66339104D01*
X63117895Y-66194417D01*
X62952349Y-66074140D01*
X62858820Y-66026485D01*
X62808024Y-65978511D01*
X62791229Y-65910690D01*
X62813766Y-65844555D01*
X62858820Y-65805515D01*
X62952349Y-65757859D01*
X63117894Y-65637582D01*
X63117895Y-65637582D01*
X63210041Y-65545436D01*
X72615000Y-65545436D01*
X72615000Y-65744563D01*
X72646147Y-65941222D01*
X72707679Y-66130594D01*
X72798077Y-66308008D01*
X72825580Y-66345863D01*
X72825581Y-66345864D01*
X73388871Y-65782574D01*
X73404755Y-65841853D01*
X73471898Y-65958147D01*
X73566853Y-66053102D01*
X73683147Y-66120245D01*
X73742425Y-66136128D01*
X73179134Y-66699417D01*
X73216994Y-66726924D01*
X73394405Y-66817320D01*
X73583777Y-66878852D01*
X73780437Y-66910000D01*
X73979563Y-66910000D01*
X74176222Y-66878852D01*
X74365594Y-66817320D01*
X74543005Y-66726924D01*
X74580863Y-66699418D01*
X74580863Y-66699417D01*
X74017574Y-66136128D01*
X74076853Y-66120245D01*
X74193147Y-66053102D01*
X74288102Y-65958147D01*
X74355245Y-65841853D01*
X74371128Y-65782574D01*
X74934417Y-66345863D01*
X74934418Y-66345863D01*
X74961924Y-66308005D01*
X75052320Y-66130594D01*
X75113852Y-65941222D01*
X75145000Y-65744563D01*
X75145000Y-65545436D01*
X75144927Y-65544977D01*
X75404500Y-65544977D01*
X75404500Y-65745022D01*
X75443523Y-65941203D01*
X75443526Y-65941215D01*
X75520071Y-66126013D01*
X75520078Y-66126026D01*
X75631208Y-66292343D01*
X75631211Y-66292347D01*
X75772652Y-66433788D01*
X75772656Y-66433791D01*
X75938973Y-66544921D01*
X75938986Y-66544928D01*
X76049252Y-66590601D01*
X76123789Y-66621475D01*
X76319977Y-66660499D01*
X76319981Y-66660500D01*
X76319982Y-66660500D01*
X76520019Y-66660500D01*
X76520020Y-66660499D01*
X76716211Y-66621475D01*
X76901020Y-66544925D01*
X77067344Y-66433791D01*
X77208791Y-66292344D01*
X77319925Y-66126020D01*
X77396475Y-65941211D01*
X77435500Y-65745018D01*
X77435500Y-65544982D01*
X77435499Y-65544977D01*
X77944500Y-65544977D01*
X77944500Y-65745022D01*
X77983523Y-65941203D01*
X77983526Y-65941215D01*
X78060071Y-66126013D01*
X78060078Y-66126026D01*
X78171208Y-66292343D01*
X78171211Y-66292347D01*
X78312652Y-66433788D01*
X78312656Y-66433791D01*
X78478973Y-66544921D01*
X78478986Y-66544928D01*
X78589252Y-66590601D01*
X78663789Y-66621475D01*
X78859977Y-66660499D01*
X78859981Y-66660500D01*
X78859982Y-66660500D01*
X79060019Y-66660500D01*
X79060020Y-66660499D01*
X79256211Y-66621475D01*
X79441020Y-66544925D01*
X79607344Y-66433791D01*
X79748791Y-66292344D01*
X79859925Y-66126020D01*
X79936475Y-65941211D01*
X79975500Y-65745018D01*
X79975500Y-65544982D01*
X79975499Y-65544977D01*
X80484500Y-65544977D01*
X80484500Y-65745022D01*
X80523523Y-65941203D01*
X80523526Y-65941215D01*
X80600071Y-66126013D01*
X80600078Y-66126026D01*
X80711208Y-66292343D01*
X80711211Y-66292347D01*
X80852652Y-66433788D01*
X80852656Y-66433791D01*
X81018973Y-66544921D01*
X81018986Y-66544928D01*
X81129252Y-66590601D01*
X81203789Y-66621475D01*
X81399977Y-66660499D01*
X81399981Y-66660500D01*
X81399982Y-66660500D01*
X81600019Y-66660500D01*
X81600020Y-66660499D01*
X81796211Y-66621475D01*
X81981020Y-66544925D01*
X82147344Y-66433791D01*
X82288791Y-66292344D01*
X82399925Y-66126020D01*
X82476475Y-65941211D01*
X82515500Y-65745018D01*
X82515500Y-65544982D01*
X82515499Y-65544977D01*
X83024500Y-65544977D01*
X83024500Y-65745022D01*
X83063523Y-65941203D01*
X83063526Y-65941215D01*
X83140071Y-66126013D01*
X83140078Y-66126026D01*
X83251208Y-66292343D01*
X83251211Y-66292347D01*
X83392652Y-66433788D01*
X83392656Y-66433791D01*
X83558973Y-66544921D01*
X83558986Y-66544928D01*
X83669252Y-66590601D01*
X83743789Y-66621475D01*
X83939977Y-66660499D01*
X83939981Y-66660500D01*
X83939982Y-66660500D01*
X84140019Y-66660500D01*
X84140020Y-66660499D01*
X84336211Y-66621475D01*
X84521020Y-66544925D01*
X84687344Y-66433791D01*
X84828791Y-66292344D01*
X84939925Y-66126020D01*
X85016475Y-65941211D01*
X85055500Y-65745018D01*
X85055500Y-65544982D01*
X85055499Y-65544977D01*
X85564500Y-65544977D01*
X85564500Y-65745022D01*
X85603523Y-65941203D01*
X85603526Y-65941215D01*
X85680071Y-66126013D01*
X85680078Y-66126026D01*
X85791208Y-66292343D01*
X85791211Y-66292347D01*
X85932652Y-66433788D01*
X85932656Y-66433791D01*
X86098973Y-66544921D01*
X86098986Y-66544928D01*
X86209252Y-66590601D01*
X86283789Y-66621475D01*
X86479977Y-66660499D01*
X86479981Y-66660500D01*
X86479982Y-66660500D01*
X86680019Y-66660500D01*
X86680020Y-66660499D01*
X86876211Y-66621475D01*
X87061020Y-66544925D01*
X87227344Y-66433791D01*
X87368791Y-66292344D01*
X87479925Y-66126020D01*
X87556475Y-65941211D01*
X87595500Y-65745018D01*
X87595500Y-65544982D01*
X87595499Y-65544977D01*
X88104500Y-65544977D01*
X88104500Y-65745022D01*
X88143523Y-65941203D01*
X88143526Y-65941215D01*
X88220071Y-66126013D01*
X88220078Y-66126026D01*
X88331208Y-66292343D01*
X88331211Y-66292347D01*
X88472652Y-66433788D01*
X88472656Y-66433791D01*
X88638973Y-66544921D01*
X88638986Y-66544928D01*
X88749252Y-66590601D01*
X88823789Y-66621475D01*
X89019977Y-66660499D01*
X89019981Y-66660500D01*
X89019982Y-66660500D01*
X89220019Y-66660500D01*
X89220020Y-66660499D01*
X89416211Y-66621475D01*
X89601020Y-66544925D01*
X89767344Y-66433791D01*
X89908791Y-66292344D01*
X90019925Y-66126020D01*
X90096475Y-65941211D01*
X90135500Y-65745018D01*
X90135500Y-65544982D01*
X90135499Y-65544977D01*
X90644500Y-65544977D01*
X90644500Y-65745022D01*
X90683523Y-65941203D01*
X90683526Y-65941215D01*
X90760071Y-66126013D01*
X90760078Y-66126026D01*
X90871208Y-66292343D01*
X90871211Y-66292347D01*
X91012652Y-66433788D01*
X91012656Y-66433791D01*
X91178973Y-66544921D01*
X91178986Y-66544928D01*
X91289252Y-66590601D01*
X91363789Y-66621475D01*
X91559977Y-66660499D01*
X91559981Y-66660500D01*
X91559982Y-66660500D01*
X91760019Y-66660500D01*
X91760020Y-66660499D01*
X91956211Y-66621475D01*
X92141020Y-66544925D01*
X92307344Y-66433791D01*
X92448791Y-66292344D01*
X92559925Y-66126020D01*
X92636475Y-65941211D01*
X92675500Y-65745018D01*
X92675500Y-65544982D01*
X92675499Y-65544977D01*
X93184500Y-65544977D01*
X93184500Y-65745022D01*
X93223523Y-65941203D01*
X93223526Y-65941215D01*
X93300071Y-66126013D01*
X93300078Y-66126026D01*
X93411208Y-66292343D01*
X93411211Y-66292347D01*
X93552652Y-66433788D01*
X93552656Y-66433791D01*
X93718973Y-66544921D01*
X93718986Y-66544928D01*
X93829252Y-66590601D01*
X93903789Y-66621475D01*
X94099977Y-66660499D01*
X94099981Y-66660500D01*
X94099982Y-66660500D01*
X94300019Y-66660500D01*
X94300020Y-66660499D01*
X94496211Y-66621475D01*
X94681020Y-66544925D01*
X94847344Y-66433791D01*
X94988791Y-66292344D01*
X95099925Y-66126020D01*
X95176475Y-65941211D01*
X95215500Y-65745018D01*
X95215500Y-65544982D01*
X95215499Y-65544977D01*
X95724500Y-65544977D01*
X95724500Y-65745022D01*
X95763523Y-65941203D01*
X95763526Y-65941215D01*
X95840071Y-66126013D01*
X95840078Y-66126026D01*
X95951208Y-66292343D01*
X95951211Y-66292347D01*
X96092652Y-66433788D01*
X96092656Y-66433791D01*
X96258973Y-66544921D01*
X96258986Y-66544928D01*
X96369252Y-66590601D01*
X96443789Y-66621475D01*
X96639977Y-66660499D01*
X96639981Y-66660500D01*
X96639982Y-66660500D01*
X96840019Y-66660500D01*
X96840020Y-66660499D01*
X97036211Y-66621475D01*
X97221020Y-66544925D01*
X97387344Y-66433791D01*
X97528791Y-66292344D01*
X97639925Y-66126020D01*
X97716475Y-65941211D01*
X97755500Y-65745018D01*
X97755500Y-65544982D01*
X97755499Y-65544977D01*
X98264500Y-65544977D01*
X98264500Y-65745022D01*
X98303523Y-65941203D01*
X98303526Y-65941215D01*
X98380071Y-66126013D01*
X98380078Y-66126026D01*
X98491208Y-66292343D01*
X98491211Y-66292347D01*
X98632652Y-66433788D01*
X98632656Y-66433791D01*
X98798973Y-66544921D01*
X98798986Y-66544928D01*
X98909252Y-66590601D01*
X98983789Y-66621475D01*
X99179977Y-66660499D01*
X99179981Y-66660500D01*
X99179982Y-66660500D01*
X99380019Y-66660500D01*
X99380020Y-66660499D01*
X99576211Y-66621475D01*
X99761020Y-66544925D01*
X99927344Y-66433791D01*
X100068791Y-66292344D01*
X100179925Y-66126020D01*
X100256475Y-65941211D01*
X100295500Y-65745018D01*
X100295500Y-65544982D01*
X100295499Y-65544977D01*
X100804500Y-65544977D01*
X100804500Y-65745022D01*
X100843523Y-65941203D01*
X100843526Y-65941215D01*
X100920071Y-66126013D01*
X100920078Y-66126026D01*
X101031208Y-66292343D01*
X101031211Y-66292347D01*
X101172652Y-66433788D01*
X101172656Y-66433791D01*
X101338973Y-66544921D01*
X101338986Y-66544928D01*
X101449252Y-66590601D01*
X101523789Y-66621475D01*
X101719977Y-66660499D01*
X101719981Y-66660500D01*
X101719982Y-66660500D01*
X101920019Y-66660500D01*
X101920020Y-66660499D01*
X102116211Y-66621475D01*
X102301020Y-66544925D01*
X102467344Y-66433791D01*
X102608791Y-66292344D01*
X102719925Y-66126020D01*
X102796475Y-65941211D01*
X102835500Y-65745018D01*
X102835500Y-65544982D01*
X102796475Y-65348789D01*
X102765811Y-65274758D01*
X102719928Y-65163986D01*
X102719921Y-65163973D01*
X102608791Y-64997656D01*
X102608788Y-64997652D01*
X102467347Y-64856211D01*
X102467343Y-64856208D01*
X102375609Y-64794913D01*
X102330804Y-64741301D01*
X102320500Y-64691811D01*
X102320500Y-57573176D01*
X102340185Y-57506137D01*
X102356819Y-57485495D01*
X102974803Y-56867511D01*
X103630714Y-56211599D01*
X103692035Y-56178116D01*
X103761727Y-56183100D01*
X103817660Y-56224972D01*
X103842077Y-56290436D01*
X103838168Y-56331375D01*
X103804500Y-56457025D01*
X103804500Y-56601975D01*
X103823851Y-56674192D01*
X103842017Y-56741988D01*
X103914488Y-56867511D01*
X103914490Y-56867513D01*
X103914491Y-56867515D01*
X104016985Y-56970009D01*
X104016986Y-56970010D01*
X104016988Y-56970011D01*
X104142511Y-57042482D01*
X104142512Y-57042482D01*
X104142515Y-57042484D01*
X104282525Y-57080000D01*
X104282528Y-57080000D01*
X104427472Y-57080000D01*
X104427475Y-57080000D01*
X104567485Y-57042484D01*
X104693015Y-56970009D01*
X104795509Y-56867515D01*
X104867984Y-56741985D01*
X104867985Y-56741978D01*
X104871029Y-56734633D01*
X104897907Y-56694405D01*
X105555495Y-56036819D01*
X105616818Y-56003334D01*
X105643176Y-56000500D01*
X106376824Y-56000500D01*
X106443863Y-56020185D01*
X106489618Y-56072989D01*
X106499562Y-56142147D01*
X106470537Y-56205703D01*
X106464505Y-56212181D01*
X104190093Y-58486591D01*
X104149873Y-58513468D01*
X104142515Y-58516516D01*
X104016988Y-58588989D01*
X104016982Y-58588993D01*
X103914493Y-58691482D01*
X103914488Y-58691488D01*
X103842017Y-58817011D01*
X103842016Y-58817015D01*
X103804500Y-58957025D01*
X103804500Y-59101975D01*
X103835554Y-59217867D01*
X103842017Y-59241988D01*
X103914488Y-59367511D01*
X103914490Y-59367513D01*
X103914491Y-59367515D01*
X104016985Y-59470009D01*
X104016986Y-59470010D01*
X104016988Y-59470011D01*
X104142511Y-59542482D01*
X104142512Y-59542482D01*
X104142515Y-59542484D01*
X104282525Y-59580000D01*
X104282528Y-59580000D01*
X104427472Y-59580000D01*
X104427475Y-59580000D01*
X104567485Y-59542484D01*
X104693015Y-59470009D01*
X104795509Y-59367515D01*
X104867984Y-59241985D01*
X104867985Y-59241978D01*
X104871029Y-59234633D01*
X104897907Y-59194405D01*
X107305495Y-56786819D01*
X107366818Y-56753334D01*
X107393176Y-56750500D01*
X108742324Y-56750500D01*
X108809363Y-56770185D01*
X108855118Y-56822989D01*
X108865062Y-56892147D01*
X108836037Y-56955703D01*
X108830005Y-56962181D01*
X103959502Y-61832683D01*
X103959500Y-61832686D01*
X103893608Y-61946812D01*
X103859500Y-62074108D01*
X103859500Y-64691811D01*
X103839815Y-64758850D01*
X103804391Y-64794913D01*
X103712656Y-64856208D01*
X103712652Y-64856211D01*
X103571211Y-64997652D01*
X103571208Y-64997656D01*
X103460078Y-65163973D01*
X103460071Y-65163986D01*
X103383526Y-65348784D01*
X103383523Y-65348796D01*
X103344500Y-65544977D01*
X103344500Y-65745022D01*
X103383523Y-65941203D01*
X103383526Y-65941215D01*
X103460071Y-66126013D01*
X103460078Y-66126026D01*
X103571208Y-66292343D01*
X103571211Y-66292347D01*
X103712652Y-66433788D01*
X103712656Y-66433791D01*
X103878973Y-66544921D01*
X103878986Y-66544928D01*
X103989252Y-66590601D01*
X104063789Y-66621475D01*
X104259977Y-66660499D01*
X104259981Y-66660500D01*
X104259982Y-66660500D01*
X104460019Y-66660500D01*
X104460020Y-66660499D01*
X104656211Y-66621475D01*
X104841020Y-66544925D01*
X105007344Y-66433791D01*
X105148791Y-66292344D01*
X105259925Y-66126020D01*
X105336475Y-65941211D01*
X105375500Y-65745018D01*
X105375500Y-65544982D01*
X105375499Y-65544977D01*
X105884500Y-65544977D01*
X105884500Y-65745022D01*
X105923523Y-65941203D01*
X105923526Y-65941215D01*
X106000071Y-66126013D01*
X106000078Y-66126026D01*
X106111208Y-66292343D01*
X106111211Y-66292347D01*
X106252652Y-66433788D01*
X106252656Y-66433791D01*
X106418973Y-66544921D01*
X106418986Y-66544928D01*
X106529252Y-66590601D01*
X106603789Y-66621475D01*
X106799977Y-66660499D01*
X106799981Y-66660500D01*
X106799982Y-66660500D01*
X107000019Y-66660500D01*
X107000020Y-66660499D01*
X107196211Y-66621475D01*
X107381020Y-66544925D01*
X107547344Y-66433791D01*
X107688791Y-66292344D01*
X107799925Y-66126020D01*
X107876475Y-65941211D01*
X107915500Y-65745018D01*
X107915500Y-65544982D01*
X107915499Y-65544977D01*
X108424500Y-65544977D01*
X108424500Y-65745022D01*
X108463523Y-65941203D01*
X108463526Y-65941215D01*
X108540071Y-66126013D01*
X108540078Y-66126026D01*
X108651208Y-66292343D01*
X108651211Y-66292347D01*
X108792652Y-66433788D01*
X108792656Y-66433791D01*
X108958973Y-66544921D01*
X108958986Y-66544928D01*
X109069252Y-66590601D01*
X109143789Y-66621475D01*
X109339977Y-66660499D01*
X109339981Y-66660500D01*
X109339982Y-66660500D01*
X109540019Y-66660500D01*
X109540020Y-66660499D01*
X109736211Y-66621475D01*
X109921020Y-66544925D01*
X110087344Y-66433791D01*
X110228791Y-66292344D01*
X110339925Y-66126020D01*
X110416475Y-65941211D01*
X110455500Y-65745018D01*
X110455500Y-65544982D01*
X110455499Y-65544977D01*
X110964500Y-65544977D01*
X110964500Y-65745022D01*
X111003523Y-65941203D01*
X111003526Y-65941215D01*
X111080071Y-66126013D01*
X111080078Y-66126026D01*
X111191208Y-66292343D01*
X111191211Y-66292347D01*
X111332652Y-66433788D01*
X111332656Y-66433791D01*
X111498973Y-66544921D01*
X111498986Y-66544928D01*
X111609252Y-66590601D01*
X111683789Y-66621475D01*
X111879977Y-66660499D01*
X111879981Y-66660500D01*
X111879982Y-66660500D01*
X112080019Y-66660500D01*
X112080020Y-66660499D01*
X112276211Y-66621475D01*
X112461020Y-66544925D01*
X112627344Y-66433791D01*
X112768791Y-66292344D01*
X112879925Y-66126020D01*
X112956475Y-65941211D01*
X112995500Y-65745018D01*
X112995500Y-65544982D01*
X112995499Y-65544977D01*
X113504500Y-65544977D01*
X113504500Y-65745022D01*
X113543523Y-65941203D01*
X113543526Y-65941215D01*
X113620071Y-66126013D01*
X113620078Y-66126026D01*
X113731208Y-66292343D01*
X113731211Y-66292347D01*
X113872652Y-66433788D01*
X113872656Y-66433791D01*
X114038973Y-66544921D01*
X114038986Y-66544928D01*
X114149252Y-66590601D01*
X114223789Y-66621475D01*
X114419977Y-66660499D01*
X114419981Y-66660500D01*
X114419982Y-66660500D01*
X114620019Y-66660500D01*
X114620020Y-66660499D01*
X114816211Y-66621475D01*
X115001020Y-66544925D01*
X115167344Y-66433791D01*
X115308791Y-66292344D01*
X115419925Y-66126020D01*
X115496475Y-65941211D01*
X115535500Y-65745018D01*
X115535500Y-65544982D01*
X115535499Y-65544977D01*
X116044500Y-65544977D01*
X116044500Y-65745022D01*
X116083523Y-65941203D01*
X116083526Y-65941215D01*
X116160071Y-66126013D01*
X116160078Y-66126026D01*
X116271208Y-66292343D01*
X116271211Y-66292347D01*
X116412652Y-66433788D01*
X116412656Y-66433791D01*
X116578973Y-66544921D01*
X116578986Y-66544928D01*
X116689252Y-66590601D01*
X116763789Y-66621475D01*
X116959977Y-66660499D01*
X116959981Y-66660500D01*
X116959982Y-66660500D01*
X117160019Y-66660500D01*
X117160020Y-66660499D01*
X117356211Y-66621475D01*
X117541020Y-66544925D01*
X117707344Y-66433791D01*
X117848791Y-66292344D01*
X117959925Y-66126020D01*
X118036475Y-65941211D01*
X118075500Y-65745018D01*
X118075500Y-65544982D01*
X118075499Y-65544977D01*
X118584500Y-65544977D01*
X118584500Y-65745022D01*
X118623523Y-65941203D01*
X118623526Y-65941215D01*
X118700071Y-66126013D01*
X118700078Y-66126026D01*
X118811208Y-66292343D01*
X118811211Y-66292347D01*
X118952652Y-66433788D01*
X118952656Y-66433791D01*
X119118973Y-66544921D01*
X119118986Y-66544928D01*
X119229252Y-66590601D01*
X119303789Y-66621475D01*
X119499977Y-66660499D01*
X119499981Y-66660500D01*
X119499982Y-66660500D01*
X119700019Y-66660500D01*
X119700020Y-66660499D01*
X119896211Y-66621475D01*
X120081020Y-66544925D01*
X120247344Y-66433791D01*
X120388791Y-66292344D01*
X120499925Y-66126020D01*
X120576475Y-65941211D01*
X120615500Y-65745018D01*
X120615500Y-65544982D01*
X120615499Y-65544977D01*
X121124500Y-65544977D01*
X121124500Y-65745022D01*
X121163523Y-65941203D01*
X121163526Y-65941215D01*
X121240071Y-66126013D01*
X121240078Y-66126026D01*
X121351208Y-66292343D01*
X121351211Y-66292347D01*
X121492652Y-66433788D01*
X121492656Y-66433791D01*
X121658973Y-66544921D01*
X121658986Y-66544928D01*
X121769252Y-66590601D01*
X121843789Y-66621475D01*
X122039977Y-66660499D01*
X122039981Y-66660500D01*
X122039982Y-66660500D01*
X122240019Y-66660500D01*
X122240020Y-66660499D01*
X122436211Y-66621475D01*
X122621020Y-66544925D01*
X122787344Y-66433791D01*
X122928791Y-66292344D01*
X123039925Y-66126020D01*
X123116475Y-65941211D01*
X123155500Y-65745018D01*
X123155500Y-65544982D01*
X123155499Y-65544977D01*
X123664500Y-65544977D01*
X123664500Y-65745022D01*
X123703523Y-65941203D01*
X123703526Y-65941215D01*
X123780071Y-66126013D01*
X123780078Y-66126026D01*
X123891208Y-66292343D01*
X123891211Y-66292347D01*
X124032652Y-66433788D01*
X124032656Y-66433791D01*
X124198973Y-66544921D01*
X124198986Y-66544928D01*
X124309252Y-66590601D01*
X124383789Y-66621475D01*
X124579977Y-66660499D01*
X124579981Y-66660500D01*
X124579982Y-66660500D01*
X124780019Y-66660500D01*
X124780020Y-66660499D01*
X124976211Y-66621475D01*
X125161020Y-66544925D01*
X125327344Y-66433791D01*
X125468791Y-66292344D01*
X125579925Y-66126020D01*
X125656475Y-65941211D01*
X125695500Y-65745018D01*
X125695500Y-65544982D01*
X125656475Y-65348789D01*
X125625811Y-65274758D01*
X125579928Y-65163986D01*
X125579921Y-65163973D01*
X125468791Y-64997656D01*
X125468788Y-64997652D01*
X125327347Y-64856211D01*
X125327343Y-64856208D01*
X125161026Y-64745078D01*
X125161013Y-64745071D01*
X124976215Y-64668526D01*
X124976203Y-64668523D01*
X124780022Y-64629500D01*
X124780018Y-64629500D01*
X124579982Y-64629500D01*
X124579977Y-64629500D01*
X124383796Y-64668523D01*
X124383784Y-64668526D01*
X124198986Y-64745071D01*
X124198973Y-64745078D01*
X124032656Y-64856208D01*
X124032652Y-64856211D01*
X123891211Y-64997652D01*
X123891208Y-64997656D01*
X123780078Y-65163973D01*
X123780071Y-65163986D01*
X123703526Y-65348784D01*
X123703523Y-65348796D01*
X123664500Y-65544977D01*
X123155499Y-65544977D01*
X123116475Y-65348789D01*
X123085811Y-65274758D01*
X123039928Y-65163986D01*
X123039921Y-65163973D01*
X122928791Y-64997656D01*
X122928788Y-64997652D01*
X122787347Y-64856211D01*
X122787343Y-64856208D01*
X122621026Y-64745078D01*
X122621013Y-64745071D01*
X122436215Y-64668526D01*
X122436203Y-64668523D01*
X122240022Y-64629500D01*
X122240018Y-64629500D01*
X122039982Y-64629500D01*
X122039977Y-64629500D01*
X121843796Y-64668523D01*
X121843784Y-64668526D01*
X121658986Y-64745071D01*
X121658973Y-64745078D01*
X121492656Y-64856208D01*
X121492652Y-64856211D01*
X121351211Y-64997652D01*
X121351208Y-64997656D01*
X121240078Y-65163973D01*
X121240071Y-65163986D01*
X121163526Y-65348784D01*
X121163523Y-65348796D01*
X121124500Y-65544977D01*
X120615499Y-65544977D01*
X120576475Y-65348789D01*
X120545811Y-65274758D01*
X120499928Y-65163986D01*
X120499921Y-65163973D01*
X120388791Y-64997656D01*
X120388788Y-64997652D01*
X120247347Y-64856211D01*
X120247343Y-64856208D01*
X120081026Y-64745078D01*
X120081013Y-64745071D01*
X119896215Y-64668526D01*
X119896203Y-64668523D01*
X119700022Y-64629500D01*
X119700018Y-64629500D01*
X119499982Y-64629500D01*
X119499977Y-64629500D01*
X119303796Y-64668523D01*
X119303784Y-64668526D01*
X119118986Y-64745071D01*
X119118973Y-64745078D01*
X118952656Y-64856208D01*
X118952652Y-64856211D01*
X118811211Y-64997652D01*
X118811208Y-64997656D01*
X118700078Y-65163973D01*
X118700071Y-65163986D01*
X118623526Y-65348784D01*
X118623523Y-65348796D01*
X118584500Y-65544977D01*
X118075499Y-65544977D01*
X118036475Y-65348789D01*
X118005811Y-65274758D01*
X117959928Y-65163986D01*
X117959921Y-65163973D01*
X117848791Y-64997656D01*
X117848788Y-64997652D01*
X117707347Y-64856211D01*
X117707343Y-64856208D01*
X117541026Y-64745078D01*
X117541013Y-64745071D01*
X117356215Y-64668526D01*
X117356203Y-64668523D01*
X117160022Y-64629500D01*
X117160018Y-64629500D01*
X116959982Y-64629500D01*
X116959977Y-64629500D01*
X116763796Y-64668523D01*
X116763784Y-64668526D01*
X116578986Y-64745071D01*
X116578973Y-64745078D01*
X116412656Y-64856208D01*
X116412652Y-64856211D01*
X116271211Y-64997652D01*
X116271208Y-64997656D01*
X116160078Y-65163973D01*
X116160071Y-65163986D01*
X116083526Y-65348784D01*
X116083523Y-65348796D01*
X116044500Y-65544977D01*
X115535499Y-65544977D01*
X115496475Y-65348789D01*
X115465811Y-65274758D01*
X115419928Y-65163986D01*
X115419921Y-65163973D01*
X115308791Y-64997656D01*
X115308788Y-64997652D01*
X115167347Y-64856211D01*
X115167343Y-64856208D01*
X115001026Y-64745078D01*
X115001013Y-64745071D01*
X114816215Y-64668526D01*
X114816203Y-64668523D01*
X114620022Y-64629500D01*
X114620018Y-64629500D01*
X114419982Y-64629500D01*
X114419977Y-64629500D01*
X114223796Y-64668523D01*
X114223784Y-64668526D01*
X114038986Y-64745071D01*
X114038973Y-64745078D01*
X113872656Y-64856208D01*
X113872652Y-64856211D01*
X113731211Y-64997652D01*
X113731208Y-64997656D01*
X113620078Y-65163973D01*
X113620071Y-65163986D01*
X113543526Y-65348784D01*
X113543523Y-65348796D01*
X113504500Y-65544977D01*
X112995499Y-65544977D01*
X112956475Y-65348789D01*
X112925808Y-65274753D01*
X112918340Y-65205288D01*
X112949614Y-65142809D01*
X112952661Y-65139651D01*
X124255500Y-53836814D01*
X124321392Y-53722686D01*
X124355500Y-53595392D01*
X124355500Y-53463608D01*
X124355500Y-52196788D01*
X124364941Y-52149331D01*
X124367982Y-52141988D01*
X124367981Y-52141988D01*
X124367984Y-52141985D01*
X124405500Y-52001975D01*
X124405500Y-51857025D01*
X124367984Y-51717015D01*
X124345184Y-51677525D01*
X124295511Y-51591488D01*
X124295506Y-51591482D01*
X124193017Y-51488993D01*
X124193011Y-51488988D01*
X124067488Y-51416517D01*
X124067489Y-51416517D01*
X124050564Y-51411982D01*
X123927475Y-51379000D01*
X123782525Y-51379000D01*
X123659436Y-51411982D01*
X123642511Y-51416517D01*
X123516988Y-51488988D01*
X123516982Y-51488993D01*
X123414493Y-51591482D01*
X123414488Y-51591488D01*
X123342017Y-51717011D01*
X123342016Y-51717015D01*
X123304500Y-51857025D01*
X123304500Y-52001975D01*
X123342016Y-52141985D01*
X123342017Y-52141988D01*
X123345059Y-52149331D01*
X123354500Y-52196788D01*
X123354500Y-53270824D01*
X123334815Y-53337863D01*
X123318181Y-53358505D01*
X112083505Y-64593181D01*
X112022182Y-64626666D01*
X111995824Y-64629500D01*
X111879977Y-64629500D01*
X111683796Y-64668523D01*
X111683784Y-64668526D01*
X111498986Y-64745071D01*
X111498973Y-64745078D01*
X111332656Y-64856208D01*
X111332652Y-64856211D01*
X111191211Y-64997652D01*
X111191208Y-64997656D01*
X111080078Y-65163973D01*
X111080071Y-65163986D01*
X111003526Y-65348784D01*
X111003523Y-65348796D01*
X110964500Y-65544977D01*
X110455499Y-65544977D01*
X110416475Y-65348789D01*
X110385811Y-65274758D01*
X110339928Y-65163986D01*
X110339921Y-65163973D01*
X110228791Y-64997656D01*
X110228788Y-64997652D01*
X110087347Y-64856211D01*
X110087343Y-64856208D01*
X109921026Y-64745078D01*
X109921013Y-64745071D01*
X109736215Y-64668526D01*
X109736203Y-64668523D01*
X109540022Y-64629500D01*
X109540018Y-64629500D01*
X109339982Y-64629500D01*
X109339977Y-64629500D01*
X109143796Y-64668523D01*
X109143784Y-64668526D01*
X108958986Y-64745071D01*
X108958973Y-64745078D01*
X108792656Y-64856208D01*
X108792652Y-64856211D01*
X108651211Y-64997652D01*
X108651208Y-64997656D01*
X108540078Y-65163973D01*
X108540071Y-65163986D01*
X108463526Y-65348784D01*
X108463523Y-65348796D01*
X108424500Y-65544977D01*
X107915499Y-65544977D01*
X107876475Y-65348789D01*
X107845811Y-65274758D01*
X107799928Y-65163986D01*
X107799921Y-65163973D01*
X107688791Y-64997656D01*
X107688788Y-64997652D01*
X107547347Y-64856211D01*
X107547343Y-64856208D01*
X107381026Y-64745078D01*
X107381013Y-64745071D01*
X107196215Y-64668526D01*
X107196203Y-64668523D01*
X107000022Y-64629500D01*
X107000018Y-64629500D01*
X106799982Y-64629500D01*
X106799977Y-64629500D01*
X106603796Y-64668523D01*
X106603784Y-64668526D01*
X106418986Y-64745071D01*
X106418973Y-64745078D01*
X106252656Y-64856208D01*
X106252652Y-64856211D01*
X106111211Y-64997652D01*
X106111208Y-64997656D01*
X106000078Y-65163973D01*
X106000071Y-65163986D01*
X105923526Y-65348784D01*
X105923523Y-65348796D01*
X105884500Y-65544977D01*
X105375499Y-65544977D01*
X105336475Y-65348789D01*
X105305811Y-65274758D01*
X105259928Y-65163986D01*
X105259921Y-65163973D01*
X105148791Y-64997656D01*
X105148788Y-64997652D01*
X105007347Y-64856211D01*
X105007343Y-64856208D01*
X104915609Y-64794913D01*
X104870804Y-64741301D01*
X104860500Y-64691811D01*
X104860500Y-63302525D01*
X109074500Y-63302525D01*
X109074500Y-63447475D01*
X109099266Y-63539902D01*
X109112017Y-63587488D01*
X109184488Y-63713011D01*
X109184490Y-63713013D01*
X109184491Y-63713015D01*
X109286985Y-63815509D01*
X109286986Y-63815510D01*
X109286988Y-63815511D01*
X109412511Y-63887982D01*
X109412512Y-63887982D01*
X109412515Y-63887984D01*
X109552525Y-63925500D01*
X109552528Y-63925500D01*
X109697472Y-63925500D01*
X109697475Y-63925500D01*
X109837485Y-63887984D01*
X109963015Y-63815509D01*
X110065509Y-63713015D01*
X110137984Y-63587485D01*
X110137985Y-63587478D01*
X110141029Y-63580133D01*
X110167907Y-63539905D01*
X113670995Y-60036819D01*
X113732318Y-60003334D01*
X113758676Y-60000500D01*
X114732711Y-60000500D01*
X114780162Y-60009938D01*
X114787513Y-60012983D01*
X114787515Y-60012984D01*
X114927525Y-60050500D01*
X114927528Y-60050500D01*
X115072472Y-60050500D01*
X115072475Y-60050500D01*
X115212485Y-60012984D01*
X115338015Y-59940509D01*
X115440509Y-59838015D01*
X115512984Y-59712485D01*
X115550500Y-59572475D01*
X115550500Y-59427525D01*
X115512984Y-59287515D01*
X115482452Y-59234633D01*
X115440511Y-59161988D01*
X115440506Y-59161982D01*
X115338017Y-59059493D01*
X115338011Y-59059488D01*
X115212488Y-58987017D01*
X115212489Y-58987017D01*
X115201006Y-58983940D01*
X115072475Y-58949500D01*
X114927525Y-58949500D01*
X114843519Y-58972009D01*
X114787513Y-58987016D01*
X114780162Y-58990062D01*
X114732711Y-58999500D01*
X113434108Y-58999500D01*
X113306812Y-59033608D01*
X113192686Y-59099500D01*
X113192683Y-59099502D01*
X109460093Y-62832091D01*
X109419873Y-62858968D01*
X109412515Y-62862016D01*
X109286988Y-62934489D01*
X109286982Y-62934493D01*
X109184493Y-63036982D01*
X109184488Y-63036988D01*
X109112017Y-63162511D01*
X109112016Y-63162515D01*
X109074500Y-63302525D01*
X104860500Y-63302525D01*
X104860500Y-62398676D01*
X104880185Y-62331637D01*
X104896819Y-62310995D01*
X109670995Y-57536819D01*
X109732318Y-57503334D01*
X109758676Y-57500500D01*
X115565890Y-57500500D01*
X115565892Y-57500500D01*
X115693186Y-57466392D01*
X115807314Y-57400500D01*
X117791495Y-55416319D01*
X117852818Y-55382834D01*
X117879176Y-55380000D01*
X119781551Y-55380000D01*
X119781553Y-55380000D01*
X119908847Y-55345892D01*
X120022975Y-55280000D01*
X120902104Y-54400868D01*
X120902109Y-54400865D01*
X120912312Y-54390661D01*
X120912314Y-54390661D01*
X121005500Y-54297475D01*
X121071392Y-54183347D01*
X121105500Y-54056053D01*
X121105500Y-46796788D01*
X121114941Y-46749331D01*
X121117982Y-46741988D01*
X121117981Y-46741988D01*
X121117984Y-46741985D01*
X121155500Y-46601975D01*
X121155500Y-46457025D01*
X121117984Y-46317015D01*
X121045509Y-46191485D01*
X120943015Y-46088991D01*
X120943013Y-46088990D01*
X120943011Y-46088988D01*
X120817488Y-46016517D01*
X120817489Y-46016517D01*
X120806006Y-46013440D01*
X120677475Y-45979000D01*
X120532525Y-45979000D01*
X120403993Y-46013440D01*
X120392511Y-46016517D01*
X120266988Y-46088988D01*
X120266982Y-46088993D01*
X120164493Y-46191482D01*
X120164488Y-46191488D01*
X120092017Y-46317011D01*
X120092016Y-46317015D01*
X120054500Y-46457025D01*
X120054500Y-46601975D01*
X120092016Y-46741985D01*
X120092017Y-46741988D01*
X120095059Y-46749331D01*
X120104500Y-46796788D01*
X120104500Y-53447795D01*
X120084815Y-53514834D01*
X120032011Y-53560589D01*
X119962853Y-53570533D01*
X119899297Y-53541508D01*
X119873114Y-53509796D01*
X119845513Y-53461991D01*
X119845510Y-53461988D01*
X119845509Y-53461985D01*
X119743015Y-53359491D01*
X119743013Y-53359490D01*
X119743011Y-53359488D01*
X119617488Y-53287017D01*
X119617489Y-53287017D01*
X119606006Y-53283940D01*
X119477475Y-53249500D01*
X119332525Y-53249500D01*
X119203993Y-53283940D01*
X119192511Y-53287017D01*
X119066988Y-53359488D01*
X119066982Y-53359493D01*
X118963295Y-53463181D01*
X118901972Y-53496666D01*
X118875614Y-53499500D01*
X117489500Y-53499500D01*
X117422461Y-53479815D01*
X117376706Y-53427011D01*
X117365500Y-53375500D01*
X117365500Y-52017288D01*
X117374941Y-51969831D01*
X117377982Y-51962488D01*
X117377983Y-51962486D01*
X117377984Y-51962485D01*
X117415500Y-51822475D01*
X117415500Y-51677525D01*
X117377984Y-51537515D01*
X117375632Y-51533442D01*
X117305511Y-51411988D01*
X117305506Y-51411982D01*
X117203017Y-51309493D01*
X117203011Y-51309488D01*
X117077488Y-51237017D01*
X117077489Y-51237017D01*
X117066006Y-51233940D01*
X116937475Y-51199500D01*
X116792525Y-51199500D01*
X116663993Y-51233940D01*
X116652511Y-51237017D01*
X116526988Y-51309488D01*
X116526982Y-51309493D01*
X116424493Y-51411982D01*
X116424486Y-51411991D01*
X116382203Y-51485227D01*
X116331636Y-51533442D01*
X116263029Y-51546664D01*
X116198164Y-51520696D01*
X116157636Y-51463781D01*
X116155048Y-51455341D01*
X116117984Y-51317015D01*
X116113638Y-51309488D01*
X116045511Y-51191488D01*
X116045506Y-51191482D01*
X115943017Y-51088993D01*
X115943011Y-51088988D01*
X115817488Y-51016517D01*
X115817489Y-51016517D01*
X115806006Y-51013440D01*
X115677475Y-50979000D01*
X115532525Y-50979000D01*
X115403993Y-51013440D01*
X115392511Y-51016517D01*
X115266988Y-51088988D01*
X115266982Y-51088993D01*
X115164493Y-51191482D01*
X115164488Y-51191488D01*
X115092017Y-51317011D01*
X115092016Y-51317015D01*
X115054500Y-51457025D01*
X115054500Y-51601975D01*
X115092016Y-51741985D01*
X115092017Y-51741988D01*
X115095059Y-51749331D01*
X115104500Y-51796788D01*
X115104500Y-53270824D01*
X115084815Y-53337863D01*
X115068181Y-53358505D01*
X114184005Y-54242681D01*
X114122682Y-54276166D01*
X114096324Y-54279000D01*
X104289107Y-54279000D01*
X104183437Y-54307314D01*
X104183436Y-54307313D01*
X104161818Y-54313106D01*
X104161811Y-54313109D01*
X104047689Y-54378998D01*
X104047683Y-54379002D01*
X101419502Y-57007183D01*
X101419500Y-57007186D01*
X101353608Y-57121312D01*
X101319500Y-57248608D01*
X101319500Y-64691811D01*
X101299815Y-64758850D01*
X101264391Y-64794913D01*
X101172656Y-64856208D01*
X101172652Y-64856211D01*
X101031211Y-64997652D01*
X101031208Y-64997656D01*
X100920078Y-65163973D01*
X100920071Y-65163986D01*
X100843526Y-65348784D01*
X100843523Y-65348796D01*
X100804500Y-65544977D01*
X100295499Y-65544977D01*
X100256475Y-65348789D01*
X100225811Y-65274758D01*
X100179928Y-65163986D01*
X100179921Y-65163973D01*
X100068791Y-64997656D01*
X100068788Y-64997652D01*
X99927347Y-64856211D01*
X99927343Y-64856208D01*
X99835609Y-64794913D01*
X99790804Y-64741301D01*
X99780500Y-64691811D01*
X99780500Y-57613175D01*
X99800185Y-57546136D01*
X99816819Y-57525494D01*
X103525994Y-53816319D01*
X103587317Y-53782834D01*
X103613675Y-53780000D01*
X110170890Y-53780000D01*
X110170892Y-53780000D01*
X110298186Y-53745892D01*
X110412314Y-53680000D01*
X111005500Y-53086814D01*
X111071392Y-52972686D01*
X111105500Y-52845392D01*
X111105500Y-52713607D01*
X111105500Y-49796788D01*
X111114941Y-49749331D01*
X111117982Y-49741988D01*
X111117981Y-49741988D01*
X111117984Y-49741985D01*
X111155500Y-49601975D01*
X111155500Y-49457025D01*
X111117984Y-49317015D01*
X111045509Y-49191485D01*
X110943015Y-49088991D01*
X110943013Y-49088990D01*
X110943011Y-49088988D01*
X110817488Y-49016517D01*
X110817489Y-49016517D01*
X110806006Y-49013440D01*
X110677475Y-48979000D01*
X110532525Y-48979000D01*
X110403993Y-49013440D01*
X110392511Y-49016517D01*
X110266988Y-49088988D01*
X110266982Y-49088993D01*
X110164493Y-49191482D01*
X110164488Y-49191488D01*
X110092017Y-49317011D01*
X110092016Y-49317015D01*
X110054500Y-49457025D01*
X110054500Y-49601975D01*
X110092016Y-49741985D01*
X110092017Y-49741988D01*
X110095059Y-49749331D01*
X110104500Y-49796788D01*
X110104500Y-52520824D01*
X110084815Y-52587863D01*
X110068181Y-52608505D01*
X109934005Y-52742681D01*
X109872682Y-52776166D01*
X109846324Y-52779000D01*
X103289107Y-52779000D01*
X103161812Y-52813108D01*
X103047686Y-52879000D01*
X103047683Y-52879002D01*
X102954498Y-52972188D01*
X98955245Y-56971440D01*
X98955244Y-56971440D01*
X98955245Y-56971441D01*
X98879500Y-57047186D01*
X98813608Y-57161312D01*
X98779500Y-57288608D01*
X98779500Y-64691811D01*
X98759815Y-64758850D01*
X98724391Y-64794913D01*
X98632656Y-64856208D01*
X98632652Y-64856211D01*
X98491211Y-64997652D01*
X98491208Y-64997656D01*
X98380078Y-65163973D01*
X98380071Y-65163986D01*
X98303526Y-65348784D01*
X98303523Y-65348796D01*
X98264500Y-65544977D01*
X97755499Y-65544977D01*
X97716475Y-65348789D01*
X97685811Y-65274758D01*
X97639928Y-65163986D01*
X97639921Y-65163973D01*
X97528791Y-64997656D01*
X97528788Y-64997652D01*
X97387347Y-64856211D01*
X97387343Y-64856208D01*
X97221026Y-64745078D01*
X97221013Y-64745071D01*
X97036215Y-64668526D01*
X97036203Y-64668523D01*
X96840022Y-64629500D01*
X96840018Y-64629500D01*
X96639982Y-64629500D01*
X96639977Y-64629500D01*
X96443796Y-64668523D01*
X96443784Y-64668526D01*
X96258986Y-64745071D01*
X96258973Y-64745078D01*
X96092656Y-64856208D01*
X96092652Y-64856211D01*
X95951211Y-64997652D01*
X95951208Y-64997656D01*
X95840078Y-65163973D01*
X95840071Y-65163986D01*
X95763526Y-65348784D01*
X95763523Y-65348796D01*
X95724500Y-65544977D01*
X95215499Y-65544977D01*
X95176475Y-65348789D01*
X95145811Y-65274758D01*
X95099928Y-65163986D01*
X95099921Y-65163973D01*
X94988791Y-64997656D01*
X94988788Y-64997652D01*
X94847347Y-64856211D01*
X94847343Y-64856208D01*
X94681026Y-64745078D01*
X94681013Y-64745071D01*
X94496215Y-64668526D01*
X94496203Y-64668523D01*
X94300022Y-64629500D01*
X94300018Y-64629500D01*
X94099982Y-64629500D01*
X94099977Y-64629500D01*
X93903796Y-64668523D01*
X93903784Y-64668526D01*
X93718986Y-64745071D01*
X93718973Y-64745078D01*
X93552656Y-64856208D01*
X93552652Y-64856211D01*
X93411211Y-64997652D01*
X93411208Y-64997656D01*
X93300078Y-65163973D01*
X93300071Y-65163986D01*
X93223526Y-65348784D01*
X93223523Y-65348796D01*
X93184500Y-65544977D01*
X92675499Y-65544977D01*
X92636475Y-65348789D01*
X92605811Y-65274758D01*
X92559928Y-65163986D01*
X92559921Y-65163973D01*
X92448791Y-64997656D01*
X92448788Y-64997652D01*
X92307347Y-64856211D01*
X92307343Y-64856208D01*
X92141026Y-64745078D01*
X92141013Y-64745071D01*
X91956215Y-64668526D01*
X91956203Y-64668523D01*
X91760022Y-64629500D01*
X91760018Y-64629500D01*
X91559982Y-64629500D01*
X91559977Y-64629500D01*
X91363796Y-64668523D01*
X91363784Y-64668526D01*
X91178986Y-64745071D01*
X91178973Y-64745078D01*
X91012656Y-64856208D01*
X91012652Y-64856211D01*
X90871211Y-64997652D01*
X90871208Y-64997656D01*
X90760078Y-65163973D01*
X90760071Y-65163986D01*
X90683526Y-65348784D01*
X90683523Y-65348796D01*
X90644500Y-65544977D01*
X90135499Y-65544977D01*
X90096475Y-65348789D01*
X90065811Y-65274758D01*
X90019928Y-65163986D01*
X90019921Y-65163973D01*
X89908791Y-64997656D01*
X89908788Y-64997652D01*
X89767347Y-64856211D01*
X89767343Y-64856208D01*
X89601026Y-64745078D01*
X89601013Y-64745071D01*
X89416215Y-64668526D01*
X89416203Y-64668523D01*
X89220022Y-64629500D01*
X89220018Y-64629500D01*
X89019982Y-64629500D01*
X89019977Y-64629500D01*
X88823796Y-64668523D01*
X88823784Y-64668526D01*
X88638986Y-64745071D01*
X88638973Y-64745078D01*
X88472656Y-64856208D01*
X88472652Y-64856211D01*
X88331211Y-64997652D01*
X88331208Y-64997656D01*
X88220078Y-65163973D01*
X88220071Y-65163986D01*
X88143526Y-65348784D01*
X88143523Y-65348796D01*
X88104500Y-65544977D01*
X87595499Y-65544977D01*
X87556475Y-65348789D01*
X87525811Y-65274758D01*
X87479928Y-65163986D01*
X87479921Y-65163973D01*
X87368791Y-64997656D01*
X87368788Y-64997652D01*
X87227347Y-64856211D01*
X87227343Y-64856208D01*
X87061026Y-64745078D01*
X87061013Y-64745071D01*
X86876215Y-64668526D01*
X86876203Y-64668523D01*
X86680022Y-64629500D01*
X86680018Y-64629500D01*
X86479982Y-64629500D01*
X86479977Y-64629500D01*
X86283796Y-64668523D01*
X86283784Y-64668526D01*
X86098986Y-64745071D01*
X86098973Y-64745078D01*
X85932656Y-64856208D01*
X85932652Y-64856211D01*
X85791211Y-64997652D01*
X85791208Y-64997656D01*
X85680078Y-65163973D01*
X85680071Y-65163986D01*
X85603526Y-65348784D01*
X85603523Y-65348796D01*
X85564500Y-65544977D01*
X85055499Y-65544977D01*
X85016475Y-65348789D01*
X84985811Y-65274758D01*
X84939928Y-65163986D01*
X84939921Y-65163973D01*
X84828791Y-64997656D01*
X84828788Y-64997652D01*
X84687347Y-64856211D01*
X84687343Y-64856208D01*
X84521026Y-64745078D01*
X84521013Y-64745071D01*
X84336215Y-64668526D01*
X84336203Y-64668523D01*
X84140022Y-64629500D01*
X84140018Y-64629500D01*
X83939982Y-64629500D01*
X83939977Y-64629500D01*
X83743796Y-64668523D01*
X83743784Y-64668526D01*
X83558986Y-64745071D01*
X83558973Y-64745078D01*
X83392656Y-64856208D01*
X83392652Y-64856211D01*
X83251211Y-64997652D01*
X83251208Y-64997656D01*
X83140078Y-65163973D01*
X83140071Y-65163986D01*
X83063526Y-65348784D01*
X83063523Y-65348796D01*
X83024500Y-65544977D01*
X82515499Y-65544977D01*
X82476475Y-65348789D01*
X82445811Y-65274758D01*
X82399928Y-65163986D01*
X82399921Y-65163973D01*
X82288791Y-64997656D01*
X82288788Y-64997652D01*
X82147347Y-64856211D01*
X82147343Y-64856208D01*
X81981026Y-64745078D01*
X81981013Y-64745071D01*
X81796215Y-64668526D01*
X81796203Y-64668523D01*
X81600022Y-64629500D01*
X81600018Y-64629500D01*
X81399982Y-64629500D01*
X81399977Y-64629500D01*
X81203796Y-64668523D01*
X81203784Y-64668526D01*
X81018986Y-64745071D01*
X81018973Y-64745078D01*
X80852656Y-64856208D01*
X80852652Y-64856211D01*
X80711211Y-64997652D01*
X80711208Y-64997656D01*
X80600078Y-65163973D01*
X80600071Y-65163986D01*
X80523526Y-65348784D01*
X80523523Y-65348796D01*
X80484500Y-65544977D01*
X79975499Y-65544977D01*
X79936475Y-65348789D01*
X79905811Y-65274758D01*
X79859928Y-65163986D01*
X79859921Y-65163973D01*
X79748791Y-64997656D01*
X79748788Y-64997652D01*
X79607347Y-64856211D01*
X79607343Y-64856208D01*
X79441026Y-64745078D01*
X79441013Y-64745071D01*
X79256215Y-64668526D01*
X79256203Y-64668523D01*
X79060022Y-64629500D01*
X79060018Y-64629500D01*
X78859982Y-64629500D01*
X78859977Y-64629500D01*
X78663796Y-64668523D01*
X78663784Y-64668526D01*
X78478986Y-64745071D01*
X78478973Y-64745078D01*
X78312656Y-64856208D01*
X78312652Y-64856211D01*
X78171211Y-64997652D01*
X78171208Y-64997656D01*
X78060078Y-65163973D01*
X78060071Y-65163986D01*
X77983526Y-65348784D01*
X77983523Y-65348796D01*
X77944500Y-65544977D01*
X77435499Y-65544977D01*
X77396475Y-65348789D01*
X77365811Y-65274758D01*
X77319928Y-65163986D01*
X77319921Y-65163973D01*
X77208791Y-64997656D01*
X77208788Y-64997652D01*
X77067347Y-64856211D01*
X77067343Y-64856208D01*
X76901026Y-64745078D01*
X76901013Y-64745071D01*
X76716215Y-64668526D01*
X76716203Y-64668523D01*
X76520022Y-64629500D01*
X76520018Y-64629500D01*
X76319982Y-64629500D01*
X76319977Y-64629500D01*
X76123796Y-64668523D01*
X76123784Y-64668526D01*
X75938986Y-64745071D01*
X75938973Y-64745078D01*
X75772656Y-64856208D01*
X75772652Y-64856211D01*
X75631211Y-64997652D01*
X75631208Y-64997656D01*
X75520078Y-65163973D01*
X75520071Y-65163986D01*
X75443526Y-65348784D01*
X75443523Y-65348796D01*
X75404500Y-65544977D01*
X75144927Y-65544977D01*
X75113852Y-65348777D01*
X75052320Y-65159405D01*
X74961924Y-64981994D01*
X74934417Y-64944135D01*
X74934417Y-64944134D01*
X74371128Y-65507424D01*
X74355245Y-65448147D01*
X74288102Y-65331853D01*
X74193147Y-65236898D01*
X74076853Y-65169755D01*
X74017574Y-65153871D01*
X74580864Y-64590581D01*
X74580863Y-64590580D01*
X74543008Y-64563077D01*
X74365594Y-64472679D01*
X74176222Y-64411147D01*
X73979563Y-64380000D01*
X73780437Y-64380000D01*
X73583777Y-64411147D01*
X73394405Y-64472679D01*
X73216990Y-64563077D01*
X73179135Y-64590580D01*
X73179135Y-64590581D01*
X73742425Y-65153871D01*
X73683147Y-65169755D01*
X73566853Y-65236898D01*
X73471898Y-65331853D01*
X73404755Y-65448147D01*
X73388871Y-65507425D01*
X72825581Y-64944135D01*
X72825580Y-64944135D01*
X72798077Y-64981990D01*
X72707679Y-65159405D01*
X72646147Y-65348777D01*
X72615000Y-65545436D01*
X63210041Y-65545436D01*
X63262583Y-65492894D01*
X63280900Y-65467684D01*
X63382859Y-65327349D01*
X63475755Y-65145029D01*
X63538990Y-64950413D01*
X63547609Y-64896000D01*
X62586686Y-64896000D01*
X62591080Y-64891606D01*
X62643741Y-64800394D01*
X62671000Y-64698661D01*
X62671000Y-64593339D01*
X62643741Y-64491606D01*
X62591080Y-64400394D01*
X62586686Y-64396000D01*
X63547609Y-64396000D01*
X63538990Y-64341586D01*
X63475755Y-64146970D01*
X63382859Y-63964650D01*
X63262582Y-63799105D01*
X63262582Y-63799104D01*
X63117895Y-63654417D01*
X62952349Y-63534140D01*
X62770029Y-63441244D01*
X62575413Y-63378009D01*
X62521000Y-63369390D01*
X62521000Y-64330314D01*
X62516606Y-64325920D01*
X62425394Y-64273259D01*
X62323661Y-64246000D01*
X62218339Y-64246000D01*
X62116606Y-64273259D01*
X62025394Y-64325920D01*
X62021000Y-64330314D01*
X62021000Y-63369390D01*
X61966586Y-63378009D01*
X61771970Y-63441244D01*
X61589650Y-63534140D01*
X61424105Y-63654417D01*
X61424104Y-63654417D01*
X61279417Y-63799104D01*
X61279417Y-63799105D01*
X61159140Y-63964650D01*
X61066244Y-64146970D01*
X61003009Y-64341586D01*
X60994391Y-64396000D01*
X45005609Y-64396000D01*
X44996990Y-64341586D01*
X44933755Y-64146970D01*
X44840859Y-63964650D01*
X44720582Y-63799105D01*
X44720582Y-63799104D01*
X44575895Y-63654417D01*
X44410349Y-63534140D01*
X44228029Y-63441244D01*
X44033413Y-63378009D01*
X43979000Y-63369390D01*
X43979000Y-64330314D01*
X43974606Y-64325920D01*
X43883394Y-64273259D01*
X43781661Y-64246000D01*
X43676339Y-64246000D01*
X43574606Y-64273259D01*
X43483394Y-64325920D01*
X43479000Y-64330314D01*
X43479000Y-63369390D01*
X43424586Y-63378009D01*
X43229970Y-63441244D01*
X43047650Y-63534140D01*
X42882105Y-63654417D01*
X42882104Y-63654417D01*
X42737417Y-63799104D01*
X42737417Y-63799105D01*
X42617140Y-63964650D01*
X42524244Y-64146970D01*
X42461009Y-64341586D01*
X42452391Y-64396000D01*
X30750000Y-64396000D01*
X30750000Y-57470558D01*
X37136500Y-57470558D01*
X37136500Y-57746941D01*
X37136501Y-57746958D01*
X37172576Y-58020977D01*
X37244116Y-58287966D01*
X37349881Y-58543307D01*
X37349886Y-58543317D01*
X37488085Y-58782683D01*
X37488087Y-58782686D01*
X37488091Y-58782692D01*
X37656342Y-59001962D01*
X37656348Y-59001969D01*
X37851780Y-59197401D01*
X37851787Y-59197407D01*
X38071057Y-59365658D01*
X38071061Y-59365660D01*
X38071067Y-59365665D01*
X38310433Y-59503864D01*
X38310438Y-59503866D01*
X38310442Y-59503868D01*
X38565783Y-59609633D01*
X38565785Y-59609633D01*
X38565791Y-59609636D01*
X38832769Y-59681173D01*
X39106802Y-59717250D01*
X39106809Y-59717250D01*
X39383191Y-59717250D01*
X39383198Y-59717250D01*
X39657231Y-59681173D01*
X39924209Y-59609636D01*
X40179567Y-59503864D01*
X40418933Y-59365665D01*
X40638214Y-59197406D01*
X40833656Y-59001964D01*
X41001915Y-58782683D01*
X41140114Y-58543317D01*
X41245886Y-58287959D01*
X41317423Y-58020981D01*
X41353500Y-57746948D01*
X41353500Y-57470552D01*
X41317423Y-57196519D01*
X41245886Y-56929541D01*
X41171725Y-56750500D01*
X41140118Y-56674192D01*
X41140113Y-56674182D01*
X41098424Y-56601975D01*
X41001915Y-56434817D01*
X41001910Y-56434811D01*
X41001908Y-56434807D01*
X40833657Y-56215537D01*
X40833651Y-56215530D01*
X40638219Y-56020098D01*
X40638212Y-56020092D01*
X40418942Y-55851841D01*
X40418936Y-55851837D01*
X40418933Y-55851835D01*
X40179567Y-55713636D01*
X40179557Y-55713631D01*
X39924216Y-55607866D01*
X39905619Y-55602883D01*
X39657231Y-55536327D01*
X39657230Y-55536326D01*
X39657227Y-55536326D01*
X39383208Y-55500251D01*
X39383203Y-55500250D01*
X39383198Y-55500250D01*
X39106802Y-55500250D01*
X39106796Y-55500250D01*
X39106791Y-55500251D01*
X38832772Y-55536326D01*
X38565783Y-55607866D01*
X38310442Y-55713631D01*
X38310432Y-55713636D01*
X38071067Y-55851835D01*
X38071057Y-55851841D01*
X37851787Y-56020092D01*
X37851780Y-56020098D01*
X37656348Y-56215530D01*
X37656342Y-56215537D01*
X37488091Y-56434807D01*
X37488085Y-56434817D01*
X37349886Y-56674182D01*
X37349881Y-56674192D01*
X37244116Y-56929533D01*
X37172576Y-57196522D01*
X37136501Y-57470541D01*
X37136500Y-57470558D01*
X30750000Y-57470558D01*
X30750000Y-54370054D01*
X31694500Y-54370054D01*
X31694500Y-54547445D01*
X31729103Y-54721408D01*
X31729106Y-54721417D01*
X31796983Y-54885290D01*
X31796990Y-54885303D01*
X31895535Y-55032784D01*
X31895538Y-55032788D01*
X32020961Y-55158211D01*
X32020965Y-55158214D01*
X32168446Y-55256759D01*
X32168459Y-55256766D01*
X32291363Y-55307673D01*
X32332334Y-55324644D01*
X32332336Y-55324644D01*
X32332341Y-55324646D01*
X32506304Y-55359249D01*
X32506307Y-55359250D01*
X32506309Y-55359250D01*
X33983693Y-55359250D01*
X33983694Y-55359249D01*
X34050851Y-55345891D01*
X34157658Y-55324646D01*
X34157661Y-55324644D01*
X34157666Y-55324644D01*
X34321547Y-55256763D01*
X34469035Y-55158214D01*
X34594464Y-55032785D01*
X34681397Y-54902682D01*
X72530000Y-54902682D01*
X72530000Y-55107317D01*
X72562009Y-55309417D01*
X72625244Y-55504031D01*
X72718141Y-55686350D01*
X72718147Y-55686359D01*
X72750523Y-55730921D01*
X72750524Y-55730922D01*
X73430000Y-55051446D01*
X73430000Y-55057661D01*
X73457259Y-55159394D01*
X73509920Y-55250606D01*
X73584394Y-55325080D01*
X73675606Y-55377741D01*
X73777339Y-55405000D01*
X73783553Y-55405000D01*
X73104076Y-56084474D01*
X73148650Y-56116859D01*
X73330968Y-56209755D01*
X73525582Y-56272990D01*
X73727683Y-56305000D01*
X73932317Y-56305000D01*
X74134417Y-56272990D01*
X74329031Y-56209755D01*
X74511349Y-56116859D01*
X74555921Y-56084474D01*
X73876447Y-55405000D01*
X73882661Y-55405000D01*
X73984394Y-55377741D01*
X74075606Y-55325080D01*
X74150080Y-55250606D01*
X74202741Y-55159394D01*
X74230000Y-55057661D01*
X74230000Y-55051447D01*
X74909474Y-55730921D01*
X74941859Y-55686349D01*
X75034754Y-55504032D01*
X75037566Y-55495377D01*
X75076999Y-55437699D01*
X75141355Y-55410495D01*
X75210203Y-55422404D01*
X75261682Y-55469644D01*
X75279500Y-55533684D01*
X75279500Y-55602869D01*
X75279501Y-55602876D01*
X75285908Y-55662483D01*
X75336202Y-55797328D01*
X75336206Y-55797335D01*
X75422452Y-55912544D01*
X75422455Y-55912547D01*
X75537664Y-55998793D01*
X75537671Y-55998797D01*
X75672517Y-56049091D01*
X75672516Y-56049091D01*
X75679444Y-56049835D01*
X75732127Y-56055500D01*
X76927872Y-56055499D01*
X76987483Y-56049091D01*
X77122331Y-55998796D01*
X77237546Y-55912546D01*
X77323796Y-55797331D01*
X77374091Y-55662483D01*
X77380500Y-55602873D01*
X77380499Y-54407128D01*
X77374091Y-54347517D01*
X77365189Y-54323650D01*
X77323797Y-54212671D01*
X77323793Y-54212664D01*
X77237547Y-54097455D01*
X77237544Y-54097452D01*
X77122335Y-54011206D01*
X77122328Y-54011202D01*
X76987482Y-53960908D01*
X76987483Y-53960908D01*
X76927883Y-53954501D01*
X76927881Y-53954500D01*
X76927873Y-53954500D01*
X76927864Y-53954500D01*
X75732129Y-53954500D01*
X75732123Y-53954501D01*
X75672516Y-53960908D01*
X75537671Y-54011202D01*
X75537664Y-54011206D01*
X75422455Y-54097452D01*
X75422452Y-54097455D01*
X75336206Y-54212664D01*
X75336202Y-54212671D01*
X75285908Y-54347517D01*
X75281270Y-54390661D01*
X75279501Y-54407123D01*
X75279500Y-54407135D01*
X75279500Y-54476310D01*
X75259815Y-54543349D01*
X75207011Y-54589104D01*
X75137853Y-54599048D01*
X75074297Y-54570023D01*
X75037569Y-54514629D01*
X75034755Y-54505968D01*
X74941859Y-54323650D01*
X74909474Y-54279077D01*
X74909474Y-54279076D01*
X74230000Y-54958551D01*
X74230000Y-54952339D01*
X74202741Y-54850606D01*
X74150080Y-54759394D01*
X74075606Y-54684920D01*
X73984394Y-54632259D01*
X73882661Y-54605000D01*
X73876446Y-54605000D01*
X74555922Y-53925524D01*
X74555921Y-53925523D01*
X74511359Y-53893147D01*
X74511350Y-53893141D01*
X74329031Y-53800244D01*
X74134417Y-53737009D01*
X73932317Y-53705000D01*
X73727683Y-53705000D01*
X73525582Y-53737009D01*
X73330968Y-53800244D01*
X73148644Y-53893143D01*
X73104077Y-53925523D01*
X73104077Y-53925524D01*
X73783554Y-54605000D01*
X73777339Y-54605000D01*
X73675606Y-54632259D01*
X73584394Y-54684920D01*
X73509920Y-54759394D01*
X73457259Y-54850606D01*
X73430000Y-54952339D01*
X73430000Y-54958553D01*
X72750524Y-54279077D01*
X72750523Y-54279077D01*
X72718143Y-54323644D01*
X72625244Y-54505968D01*
X72562009Y-54700582D01*
X72530000Y-54902682D01*
X34681397Y-54902682D01*
X34693013Y-54885297D01*
X34693016Y-54885290D01*
X34707483Y-54850364D01*
X34745163Y-54759394D01*
X34760894Y-54721416D01*
X34765039Y-54700582D01*
X34795499Y-54547445D01*
X34795500Y-54547443D01*
X34795500Y-54370056D01*
X34795499Y-54370054D01*
X34760896Y-54196091D01*
X34760893Y-54196082D01*
X34693013Y-54032203D01*
X34693008Y-54032196D01*
X34594464Y-53884715D01*
X34594461Y-53884711D01*
X34469038Y-53759288D01*
X34469034Y-53759285D01*
X34321553Y-53660740D01*
X34321540Y-53660733D01*
X34157667Y-53592856D01*
X34157658Y-53592853D01*
X33983694Y-53558250D01*
X33983691Y-53558250D01*
X32506309Y-53558250D01*
X32506306Y-53558250D01*
X32332341Y-53592853D01*
X32332332Y-53592856D01*
X32168459Y-53660733D01*
X32168446Y-53660740D01*
X32020965Y-53759285D01*
X32020961Y-53759288D01*
X31895538Y-53884711D01*
X31895535Y-53884715D01*
X31796990Y-54032196D01*
X31796983Y-54032209D01*
X31729106Y-54196082D01*
X31729103Y-54196091D01*
X31694500Y-54370054D01*
X30750000Y-54370054D01*
X30750000Y-40323919D01*
X110249499Y-40323919D01*
X110278340Y-40468906D01*
X110278342Y-40468912D01*
X110334916Y-40605494D01*
X110417048Y-40728416D01*
X110417052Y-40728420D01*
X110417052Y-40728421D01*
X115521584Y-45832952D01*
X115521586Y-45832954D01*
X115551058Y-45852645D01*
X115595270Y-45882186D01*
X115644505Y-45915084D01*
X115644506Y-45915084D01*
X115644507Y-45915085D01*
X115644509Y-45915086D01*
X115781082Y-45971656D01*
X115781087Y-45971658D01*
X115781091Y-45971658D01*
X115781092Y-45971659D01*
X115926079Y-46000500D01*
X115926082Y-46000500D01*
X118073920Y-46000500D01*
X118182003Y-45979000D01*
X118218913Y-45971658D01*
X118355495Y-45915084D01*
X118478416Y-45832951D01*
X118582951Y-45728416D01*
X118665084Y-45605495D01*
X118721658Y-45468913D01*
X118750500Y-45323918D01*
X118750500Y-45176082D01*
X118750500Y-45176079D01*
X118721659Y-45031092D01*
X118721658Y-45031091D01*
X118721658Y-45031087D01*
X118721656Y-45031082D01*
X118665087Y-44894511D01*
X118665080Y-44894498D01*
X118582951Y-44771584D01*
X118582948Y-44771580D01*
X118478419Y-44667051D01*
X118478415Y-44667048D01*
X118355501Y-44584919D01*
X118355488Y-44584912D01*
X118218917Y-44528343D01*
X118218907Y-44528340D01*
X118073920Y-44499500D01*
X118073918Y-44499500D01*
X116362230Y-44499500D01*
X116295191Y-44479815D01*
X116274549Y-44463181D01*
X111478421Y-39667052D01*
X111478417Y-39667049D01*
X111478416Y-39667048D01*
X111355494Y-39584916D01*
X111355492Y-39584915D01*
X111355490Y-39584914D01*
X111218912Y-39528342D01*
X111218906Y-39528340D01*
X111073919Y-39499500D01*
X111073917Y-39499500D01*
X110926083Y-39499500D01*
X110926081Y-39499500D01*
X110781093Y-39528340D01*
X110781087Y-39528342D01*
X110644509Y-39584914D01*
X110644502Y-39584918D01*
X110582418Y-39626400D01*
X110521584Y-39667048D01*
X110521582Y-39667049D01*
X110521579Y-39667052D01*
X110521578Y-39667052D01*
X110417052Y-39771578D01*
X110417052Y-39771579D01*
X110417049Y-39771582D01*
X110417048Y-39771584D01*
X110376400Y-39832418D01*
X110334918Y-39894502D01*
X110334914Y-39894509D01*
X110278342Y-40031087D01*
X110278340Y-40031093D01*
X110249500Y-40176080D01*
X110249500Y-40176083D01*
X110249500Y-40323917D01*
X110249500Y-40323919D01*
X110249499Y-40323919D01*
X30750000Y-40323919D01*
X30750000Y-36406527D01*
X38901000Y-36406527D01*
X38901000Y-36593472D01*
X38937467Y-36776805D01*
X38937469Y-36776813D01*
X39009005Y-36949517D01*
X39009010Y-36949526D01*
X39112862Y-37104951D01*
X39112865Y-37104955D01*
X39245044Y-37237134D01*
X39245048Y-37237137D01*
X39400473Y-37340989D01*
X39400479Y-37340992D01*
X39400480Y-37340993D01*
X39573187Y-37412531D01*
X39756527Y-37448999D01*
X39756531Y-37449000D01*
X39756532Y-37449000D01*
X39943469Y-37449000D01*
X39943470Y-37448999D01*
X40126813Y-37412531D01*
X40299520Y-37340993D01*
X40454952Y-37237137D01*
X40587137Y-37104952D01*
X40690993Y-36949520D01*
X40762531Y-36776813D01*
X40799000Y-36593468D01*
X40799000Y-36406532D01*
X40798999Y-36406527D01*
X74401000Y-36406527D01*
X74401000Y-36593472D01*
X74437467Y-36776805D01*
X74437469Y-36776813D01*
X74509005Y-36949517D01*
X74509010Y-36949526D01*
X74612862Y-37104951D01*
X74612865Y-37104955D01*
X74745044Y-37237134D01*
X74745048Y-37237137D01*
X74900473Y-37340989D01*
X74900479Y-37340992D01*
X74900480Y-37340993D01*
X75073187Y-37412531D01*
X75256527Y-37448999D01*
X75256531Y-37449000D01*
X75256532Y-37449000D01*
X75443469Y-37449000D01*
X75443470Y-37448999D01*
X75626813Y-37412531D01*
X75799520Y-37340993D01*
X75954952Y-37237137D01*
X76087137Y-37104952D01*
X76190993Y-36949520D01*
X76262531Y-36776813D01*
X76299000Y-36593468D01*
X76299000Y-36406532D01*
X76298999Y-36406527D01*
X109901000Y-36406527D01*
X109901000Y-36593472D01*
X109937467Y-36776805D01*
X109937469Y-36776813D01*
X110009005Y-36949517D01*
X110009010Y-36949526D01*
X110112862Y-37104951D01*
X110112865Y-37104955D01*
X110245044Y-37237134D01*
X110245048Y-37237137D01*
X110400473Y-37340989D01*
X110400479Y-37340992D01*
X110400480Y-37340993D01*
X110573187Y-37412531D01*
X110756527Y-37448999D01*
X110756531Y-37449000D01*
X110756532Y-37449000D01*
X110943469Y-37449000D01*
X110943470Y-37448999D01*
X111126813Y-37412531D01*
X111299520Y-37340993D01*
X111454952Y-37237137D01*
X111587137Y-37104952D01*
X111690993Y-36949520D01*
X111762531Y-36776813D01*
X111799000Y-36593468D01*
X111799000Y-36406532D01*
X111762531Y-36223187D01*
X111690993Y-36050480D01*
X111690992Y-36050479D01*
X111690989Y-36050473D01*
X111587137Y-35895048D01*
X111587134Y-35895044D01*
X111454955Y-35762865D01*
X111454951Y-35762862D01*
X111299526Y-35659010D01*
X111299517Y-35659005D01*
X111126813Y-35587469D01*
X111126805Y-35587467D01*
X110943472Y-35551000D01*
X110943468Y-35551000D01*
X110756532Y-35551000D01*
X110756527Y-35551000D01*
X110573194Y-35587467D01*
X110573186Y-35587469D01*
X110400482Y-35659005D01*
X110400473Y-35659010D01*
X110245048Y-35762862D01*
X110245044Y-35762865D01*
X110112865Y-35895044D01*
X110112862Y-35895048D01*
X110009010Y-36050473D01*
X110009005Y-36050482D01*
X109937469Y-36223186D01*
X109937467Y-36223194D01*
X109901000Y-36406527D01*
X76298999Y-36406527D01*
X76262531Y-36223187D01*
X76190993Y-36050480D01*
X76190992Y-36050479D01*
X76190989Y-36050473D01*
X76087137Y-35895048D01*
X76087134Y-35895044D01*
X75954955Y-35762865D01*
X75954951Y-35762862D01*
X75799526Y-35659010D01*
X75799517Y-35659005D01*
X75626813Y-35587469D01*
X75626805Y-35587467D01*
X75443472Y-35551000D01*
X75443468Y-35551000D01*
X75256532Y-35551000D01*
X75256527Y-35551000D01*
X75073194Y-35587467D01*
X75073186Y-35587469D01*
X74900482Y-35659005D01*
X74900473Y-35659010D01*
X74745048Y-35762862D01*
X74745044Y-35762865D01*
X74612865Y-35895044D01*
X74612862Y-35895048D01*
X74509010Y-36050473D01*
X74509005Y-36050482D01*
X74437469Y-36223186D01*
X74437467Y-36223194D01*
X74401000Y-36406527D01*
X40798999Y-36406527D01*
X40762531Y-36223187D01*
X40690993Y-36050480D01*
X40690992Y-36050479D01*
X40690989Y-36050473D01*
X40587137Y-35895048D01*
X40587134Y-35895044D01*
X40454955Y-35762865D01*
X40454951Y-35762862D01*
X40299526Y-35659010D01*
X40299517Y-35659005D01*
X40126813Y-35587469D01*
X40126805Y-35587467D01*
X39943472Y-35551000D01*
X39943468Y-35551000D01*
X39756532Y-35551000D01*
X39756527Y-35551000D01*
X39573194Y-35587467D01*
X39573186Y-35587469D01*
X39400482Y-35659005D01*
X39400473Y-35659010D01*
X39245048Y-35762862D01*
X39245044Y-35762865D01*
X39112865Y-35895044D01*
X39112862Y-35895048D01*
X39009010Y-36050473D01*
X39009005Y-36050482D01*
X38937469Y-36223186D01*
X38937467Y-36223194D01*
X38901000Y-36406527D01*
X30750000Y-36406527D01*
X30750000Y-33906527D01*
X38901000Y-33906527D01*
X38901000Y-34093472D01*
X38937467Y-34276805D01*
X38937469Y-34276813D01*
X39009005Y-34449517D01*
X39009010Y-34449526D01*
X39112862Y-34604951D01*
X39112865Y-34604955D01*
X39245044Y-34737134D01*
X39245048Y-34737137D01*
X39400473Y-34840989D01*
X39400479Y-34840992D01*
X39400480Y-34840993D01*
X39573187Y-34912531D01*
X39747201Y-34947144D01*
X39756527Y-34948999D01*
X39756531Y-34949000D01*
X39756532Y-34949000D01*
X39943469Y-34949000D01*
X39943470Y-34948999D01*
X40126813Y-34912531D01*
X40299520Y-34840993D01*
X40454952Y-34737137D01*
X40587137Y-34604952D01*
X40690993Y-34449520D01*
X40762531Y-34276813D01*
X40799000Y-34093468D01*
X40799000Y-33906532D01*
X40762531Y-33723187D01*
X40690993Y-33550480D01*
X40690990Y-33550475D01*
X40662139Y-33507296D01*
X40662138Y-33507295D01*
X40587137Y-33395048D01*
X40587134Y-33395044D01*
X40454955Y-33262865D01*
X40454951Y-33262862D01*
X40299526Y-33159010D01*
X40299517Y-33159005D01*
X40126813Y-33087469D01*
X40126805Y-33087467D01*
X39943472Y-33051000D01*
X39943468Y-33051000D01*
X39756532Y-33051000D01*
X39756527Y-33051000D01*
X39573194Y-33087467D01*
X39573186Y-33087469D01*
X39400482Y-33159005D01*
X39400473Y-33159010D01*
X39245048Y-33262862D01*
X39245044Y-33262865D01*
X39112865Y-33395044D01*
X39112862Y-33395048D01*
X39009010Y-33550473D01*
X39009005Y-33550482D01*
X38937469Y-33723186D01*
X38937467Y-33723194D01*
X38901000Y-33906527D01*
X30750000Y-33906527D01*
X30750000Y-31437282D01*
X48901100Y-31437282D01*
X48901100Y-31641917D01*
X48933109Y-31844017D01*
X48996344Y-32038631D01*
X49089241Y-32220950D01*
X49089247Y-32220959D01*
X49121623Y-32265521D01*
X49121624Y-32265522D01*
X49801100Y-31586046D01*
X49801100Y-31592261D01*
X49828359Y-31693994D01*
X49881020Y-31785206D01*
X49955494Y-31859680D01*
X50046706Y-31912341D01*
X50148439Y-31939600D01*
X50154653Y-31939600D01*
X49475176Y-32619074D01*
X49519750Y-32651459D01*
X49702070Y-32744355D01*
X49710724Y-32747167D01*
X49768402Y-32786601D01*
X49795604Y-32850958D01*
X49783694Y-32919805D01*
X49736452Y-32971284D01*
X49672415Y-32989100D01*
X49603230Y-32989100D01*
X49603223Y-32989101D01*
X49543616Y-32995508D01*
X49408771Y-33045802D01*
X49408764Y-33045806D01*
X49293555Y-33132052D01*
X49293552Y-33132055D01*
X49207306Y-33247264D01*
X49207302Y-33247271D01*
X49157008Y-33382117D01*
X49150601Y-33441716D01*
X49150601Y-33441723D01*
X49150600Y-33441735D01*
X49150600Y-34637470D01*
X49150601Y-34637476D01*
X49157008Y-34697083D01*
X49207302Y-34831928D01*
X49207306Y-34831935D01*
X49293552Y-34947144D01*
X49293555Y-34947147D01*
X49408764Y-35033393D01*
X49408771Y-35033397D01*
X49543617Y-35083691D01*
X49543616Y-35083691D01*
X49550544Y-35084435D01*
X49603227Y-35090100D01*
X50798972Y-35090099D01*
X50858583Y-35083691D01*
X50993431Y-35033396D01*
X51108646Y-34947146D01*
X51194896Y-34831931D01*
X51245191Y-34697083D01*
X51251600Y-34637473D01*
X51251599Y-33906527D01*
X74401000Y-33906527D01*
X74401000Y-34093472D01*
X74437467Y-34276805D01*
X74437469Y-34276813D01*
X74509005Y-34449517D01*
X74509010Y-34449526D01*
X74612862Y-34604951D01*
X74612865Y-34604955D01*
X74745044Y-34737134D01*
X74745048Y-34737137D01*
X74900473Y-34840989D01*
X74900479Y-34840992D01*
X74900480Y-34840993D01*
X75073187Y-34912531D01*
X75247201Y-34947144D01*
X75256527Y-34948999D01*
X75256531Y-34949000D01*
X75256532Y-34949000D01*
X75443469Y-34949000D01*
X75443470Y-34948999D01*
X75626813Y-34912531D01*
X75799520Y-34840993D01*
X75954952Y-34737137D01*
X76087137Y-34604952D01*
X76190993Y-34449520D01*
X76262531Y-34276813D01*
X76299000Y-34093468D01*
X76299000Y-33906532D01*
X76262531Y-33723187D01*
X76190993Y-33550480D01*
X76190990Y-33550475D01*
X76190989Y-33550473D01*
X76087137Y-33395048D01*
X76087134Y-33395044D01*
X75954952Y-33262862D01*
X75848162Y-33191508D01*
X75799526Y-33159010D01*
X75799517Y-33159005D01*
X75626813Y-33087469D01*
X75626805Y-33087467D01*
X75443472Y-33051000D01*
X75443468Y-33051000D01*
X75256532Y-33051000D01*
X75256527Y-33051000D01*
X75073194Y-33087467D01*
X75073186Y-33087469D01*
X74900482Y-33159005D01*
X74900473Y-33159010D01*
X74745048Y-33262862D01*
X74745044Y-33262865D01*
X74612865Y-33395044D01*
X74612862Y-33395048D01*
X74509010Y-33550473D01*
X74509005Y-33550482D01*
X74437469Y-33723186D01*
X74437467Y-33723194D01*
X74401000Y-33906527D01*
X51251599Y-33906527D01*
X51251599Y-33441728D01*
X51245191Y-33382117D01*
X51227434Y-33334509D01*
X51194897Y-33247271D01*
X51194893Y-33247264D01*
X51108647Y-33132055D01*
X51108644Y-33132052D01*
X50993435Y-33045806D01*
X50993428Y-33045802D01*
X50858582Y-32995508D01*
X50858583Y-32995508D01*
X50798983Y-32989101D01*
X50798981Y-32989100D01*
X50798973Y-32989100D01*
X50798965Y-32989100D01*
X50729789Y-32989100D01*
X50662750Y-32969415D01*
X50616995Y-32916611D01*
X50607051Y-32847453D01*
X50636076Y-32783897D01*
X50691472Y-32747169D01*
X50700128Y-32744356D01*
X50882449Y-32651459D01*
X50927021Y-32619074D01*
X50247547Y-31939600D01*
X50253761Y-31939600D01*
X50355494Y-31912341D01*
X50446706Y-31859680D01*
X50521180Y-31785206D01*
X50573841Y-31693994D01*
X50601100Y-31592261D01*
X50601100Y-31586048D01*
X51280574Y-32265522D01*
X51280574Y-32265521D01*
X51312959Y-32220949D01*
X51405855Y-32038631D01*
X51469090Y-31844017D01*
X51501100Y-31641917D01*
X51501100Y-31437282D01*
X51469090Y-31235182D01*
X51431903Y-31120735D01*
X51421033Y-31087282D01*
X84451100Y-31087282D01*
X84451100Y-31291917D01*
X84483109Y-31494017D01*
X84546344Y-31688631D01*
X84639241Y-31870950D01*
X84639247Y-31870959D01*
X84671623Y-31915521D01*
X84671624Y-31915522D01*
X85351100Y-31236046D01*
X85351100Y-31242261D01*
X85378359Y-31343994D01*
X85431020Y-31435206D01*
X85505494Y-31509680D01*
X85596706Y-31562341D01*
X85698439Y-31589600D01*
X85704653Y-31589600D01*
X85025176Y-32269074D01*
X85069750Y-32301459D01*
X85252070Y-32394355D01*
X85260724Y-32397167D01*
X85318402Y-32436601D01*
X85345604Y-32500958D01*
X85333694Y-32569805D01*
X85286452Y-32621284D01*
X85222415Y-32639100D01*
X85153230Y-32639100D01*
X85153223Y-32639101D01*
X85093616Y-32645508D01*
X84958771Y-32695802D01*
X84958764Y-32695806D01*
X84843555Y-32782052D01*
X84843552Y-32782055D01*
X84757306Y-32897264D01*
X84757302Y-32897271D01*
X84707008Y-33032117D01*
X84701058Y-33087467D01*
X84700601Y-33091723D01*
X84700600Y-33091735D01*
X84700600Y-34287470D01*
X84700601Y-34287476D01*
X84707008Y-34347083D01*
X84757302Y-34481928D01*
X84757306Y-34481935D01*
X84843552Y-34597144D01*
X84843555Y-34597147D01*
X84958764Y-34683393D01*
X84958771Y-34683397D01*
X85093617Y-34733691D01*
X85093616Y-34733691D01*
X85100544Y-34734435D01*
X85153227Y-34740100D01*
X86348972Y-34740099D01*
X86408583Y-34733691D01*
X86543431Y-34683396D01*
X86658646Y-34597146D01*
X86744896Y-34481931D01*
X86795191Y-34347083D01*
X86801600Y-34287473D01*
X86801599Y-33906527D01*
X109901000Y-33906527D01*
X109901000Y-34093472D01*
X109937467Y-34276805D01*
X109937469Y-34276813D01*
X110009005Y-34449517D01*
X110009010Y-34449526D01*
X110112862Y-34604951D01*
X110112865Y-34604955D01*
X110245044Y-34737134D01*
X110245048Y-34737137D01*
X110400473Y-34840989D01*
X110400479Y-34840992D01*
X110400480Y-34840993D01*
X110573187Y-34912531D01*
X110747201Y-34947144D01*
X110756527Y-34948999D01*
X110756531Y-34949000D01*
X110756532Y-34949000D01*
X110943469Y-34949000D01*
X110943470Y-34948999D01*
X111126813Y-34912531D01*
X111299520Y-34840993D01*
X111454952Y-34737137D01*
X111587137Y-34604952D01*
X111690993Y-34449520D01*
X111762531Y-34276813D01*
X111799000Y-34093468D01*
X111799000Y-33906532D01*
X111762531Y-33723187D01*
X111690993Y-33550480D01*
X111690990Y-33550475D01*
X111690989Y-33550473D01*
X111590498Y-33400077D01*
X111587138Y-33395049D01*
X111587134Y-33395044D01*
X111454955Y-33262865D01*
X111454951Y-33262862D01*
X111299526Y-33159010D01*
X111299517Y-33159005D01*
X111126813Y-33087469D01*
X111126805Y-33087467D01*
X110943472Y-33051000D01*
X110943468Y-33051000D01*
X110756532Y-33051000D01*
X110756527Y-33051000D01*
X110573194Y-33087467D01*
X110573186Y-33087469D01*
X110400482Y-33159005D01*
X110400473Y-33159010D01*
X110245048Y-33262862D01*
X110245044Y-33262865D01*
X110112865Y-33395044D01*
X110112862Y-33395048D01*
X110009010Y-33550473D01*
X110009005Y-33550482D01*
X109937469Y-33723186D01*
X109937467Y-33723194D01*
X109901000Y-33906527D01*
X86801599Y-33906527D01*
X86801599Y-33550482D01*
X86801599Y-33091729D01*
X86801598Y-33091723D01*
X86801597Y-33091716D01*
X86795191Y-33032117D01*
X86760306Y-32938586D01*
X86744897Y-32897271D01*
X86744893Y-32897264D01*
X86658647Y-32782055D01*
X86658644Y-32782052D01*
X86543435Y-32695806D01*
X86543428Y-32695802D01*
X86408582Y-32645508D01*
X86408583Y-32645508D01*
X86348983Y-32639101D01*
X86348981Y-32639100D01*
X86348973Y-32639100D01*
X86348965Y-32639100D01*
X86279789Y-32639100D01*
X86212750Y-32619415D01*
X86166995Y-32566611D01*
X86157051Y-32497453D01*
X86186076Y-32433897D01*
X86241472Y-32397169D01*
X86250128Y-32394356D01*
X86432449Y-32301459D01*
X86477021Y-32269074D01*
X85797547Y-31589600D01*
X85803761Y-31589600D01*
X85905494Y-31562341D01*
X85996706Y-31509680D01*
X86071180Y-31435206D01*
X86123841Y-31343994D01*
X86151100Y-31242261D01*
X86151100Y-31236047D01*
X86830574Y-31915521D01*
X86862959Y-31870949D01*
X86955855Y-31688631D01*
X87019090Y-31494017D01*
X87045058Y-31330062D01*
X119950000Y-31330062D01*
X119950000Y-31534697D01*
X119982009Y-31736797D01*
X120045244Y-31931411D01*
X120138141Y-32113730D01*
X120138147Y-32113739D01*
X120170523Y-32158301D01*
X120170524Y-32158302D01*
X120850000Y-31478826D01*
X120850000Y-31485041D01*
X120877259Y-31586774D01*
X120929920Y-31677986D01*
X121004394Y-31752460D01*
X121095606Y-31805121D01*
X121197339Y-31832380D01*
X121203553Y-31832380D01*
X120524076Y-32511854D01*
X120568650Y-32544239D01*
X120750970Y-32637135D01*
X120759624Y-32639947D01*
X120817302Y-32679381D01*
X120844504Y-32743738D01*
X120832594Y-32812585D01*
X120785352Y-32864064D01*
X120721315Y-32881880D01*
X120652130Y-32881880D01*
X120652123Y-32881881D01*
X120592516Y-32888288D01*
X120457671Y-32938582D01*
X120457664Y-32938586D01*
X120342455Y-33024832D01*
X120342452Y-33024835D01*
X120256206Y-33140044D01*
X120256202Y-33140051D01*
X120205908Y-33274897D01*
X120199501Y-33334496D01*
X120199501Y-33334503D01*
X120199500Y-33334515D01*
X120199500Y-34530250D01*
X120199501Y-34530256D01*
X120205908Y-34589863D01*
X120256202Y-34724708D01*
X120256206Y-34724715D01*
X120342452Y-34839924D01*
X120342455Y-34839927D01*
X120457664Y-34926173D01*
X120457671Y-34926177D01*
X120592517Y-34976471D01*
X120592516Y-34976471D01*
X120599444Y-34977215D01*
X120652127Y-34982880D01*
X121847872Y-34982879D01*
X121907483Y-34976471D01*
X122042331Y-34926176D01*
X122157546Y-34839926D01*
X122243796Y-34724711D01*
X122294091Y-34589863D01*
X122300500Y-34530253D01*
X122300499Y-33334508D01*
X122294091Y-33274897D01*
X122289603Y-33262865D01*
X122243797Y-33140051D01*
X122243793Y-33140044D01*
X122157547Y-33024835D01*
X122157544Y-33024832D01*
X122042335Y-32938586D01*
X122042328Y-32938582D01*
X121907482Y-32888288D01*
X121907483Y-32888288D01*
X121847883Y-32881881D01*
X121847881Y-32881880D01*
X121847873Y-32881880D01*
X121847865Y-32881880D01*
X121778689Y-32881880D01*
X121711650Y-32862195D01*
X121665895Y-32809391D01*
X121655951Y-32740233D01*
X121684976Y-32676677D01*
X121740372Y-32639949D01*
X121749028Y-32637136D01*
X121931349Y-32544239D01*
X121975921Y-32511854D01*
X121296447Y-31832380D01*
X121302661Y-31832380D01*
X121404394Y-31805121D01*
X121495606Y-31752460D01*
X121570080Y-31677986D01*
X121622741Y-31586774D01*
X121650000Y-31485041D01*
X121650000Y-31478827D01*
X122329474Y-32158301D01*
X122361859Y-32113729D01*
X122454755Y-31931411D01*
X122517990Y-31736797D01*
X122550000Y-31534697D01*
X122550000Y-31330062D01*
X122517990Y-31127962D01*
X122454755Y-30933348D01*
X122361859Y-30751030D01*
X122329474Y-30706457D01*
X122329474Y-30706456D01*
X121650000Y-31385931D01*
X121650000Y-31379719D01*
X121622741Y-31277986D01*
X121570080Y-31186774D01*
X121495606Y-31112300D01*
X121404394Y-31059639D01*
X121302661Y-31032380D01*
X121296446Y-31032380D01*
X121975922Y-30352904D01*
X121975921Y-30352903D01*
X121931359Y-30320527D01*
X121931350Y-30320521D01*
X121749031Y-30227624D01*
X121554417Y-30164389D01*
X121352317Y-30132380D01*
X121147683Y-30132380D01*
X120945582Y-30164389D01*
X120750968Y-30227624D01*
X120568644Y-30320523D01*
X120524077Y-30352903D01*
X120524077Y-30352904D01*
X121203554Y-31032380D01*
X121197339Y-31032380D01*
X121095606Y-31059639D01*
X121004394Y-31112300D01*
X120929920Y-31186774D01*
X120877259Y-31277986D01*
X120850000Y-31379719D01*
X120850000Y-31385933D01*
X120170524Y-30706457D01*
X120170523Y-30706457D01*
X120138143Y-30751024D01*
X120045244Y-30933348D01*
X119982009Y-31127962D01*
X119950000Y-31330062D01*
X87045058Y-31330062D01*
X87048901Y-31305798D01*
X87048901Y-31305795D01*
X87051100Y-31291913D01*
X87051100Y-31087282D01*
X87019090Y-30885182D01*
X86955855Y-30690568D01*
X86862959Y-30508250D01*
X86837384Y-30473049D01*
X86830574Y-30463677D01*
X86830574Y-30463676D01*
X86151100Y-31143151D01*
X86151100Y-31136939D01*
X86123841Y-31035206D01*
X86071180Y-30943994D01*
X85996706Y-30869520D01*
X85905494Y-30816859D01*
X85803761Y-30789600D01*
X85797546Y-30789600D01*
X86477022Y-30110124D01*
X86477021Y-30110123D01*
X86432459Y-30077747D01*
X86432450Y-30077741D01*
X86250131Y-29984844D01*
X86055517Y-29921609D01*
X85853417Y-29889600D01*
X85648783Y-29889600D01*
X85446682Y-29921609D01*
X85252068Y-29984844D01*
X85069744Y-30077743D01*
X85025177Y-30110123D01*
X85025177Y-30110124D01*
X85704654Y-30789600D01*
X85698439Y-30789600D01*
X85596706Y-30816859D01*
X85505494Y-30869520D01*
X85431020Y-30943994D01*
X85378359Y-31035206D01*
X85351100Y-31136939D01*
X85351100Y-31143153D01*
X84671624Y-30463677D01*
X84671623Y-30463677D01*
X84639243Y-30508244D01*
X84546344Y-30690568D01*
X84483109Y-30885182D01*
X84451100Y-31087282D01*
X51421033Y-31087282D01*
X51405854Y-31040568D01*
X51312959Y-30858250D01*
X51280574Y-30813677D01*
X51280574Y-30813676D01*
X50601100Y-31493151D01*
X50601100Y-31486939D01*
X50573841Y-31385206D01*
X50521180Y-31293994D01*
X50446706Y-31219520D01*
X50355494Y-31166859D01*
X50253761Y-31139600D01*
X50247546Y-31139600D01*
X50927022Y-30460124D01*
X50927021Y-30460123D01*
X50882459Y-30427747D01*
X50882450Y-30427741D01*
X50700131Y-30334844D01*
X50516917Y-30275314D01*
X50516915Y-30275312D01*
X50505524Y-30271611D01*
X50505518Y-30271610D01*
X50303417Y-30239600D01*
X50098783Y-30239600D01*
X49896682Y-30271609D01*
X49702068Y-30334844D01*
X49519744Y-30427743D01*
X49475177Y-30460123D01*
X49475177Y-30460124D01*
X50154654Y-31139600D01*
X50148439Y-31139600D01*
X50046706Y-31166859D01*
X49955494Y-31219520D01*
X49881020Y-31293994D01*
X49828359Y-31385206D01*
X49801100Y-31486939D01*
X49801100Y-31493153D01*
X49121624Y-30813677D01*
X49121623Y-30813677D01*
X49089243Y-30858244D01*
X48996344Y-31040568D01*
X48933109Y-31235182D01*
X48901100Y-31437282D01*
X30750000Y-31437282D01*
X30750000Y-27128711D01*
X31649500Y-27128711D01*
X31649500Y-27371288D01*
X31681161Y-27611785D01*
X31743947Y-27846104D01*
X31836773Y-28070205D01*
X31836776Y-28070212D01*
X31958064Y-28280289D01*
X31958066Y-28280292D01*
X31958067Y-28280293D01*
X32105733Y-28472736D01*
X32105739Y-28472743D01*
X32277256Y-28644260D01*
X32277262Y-28644265D01*
X32469711Y-28791936D01*
X32679788Y-28913224D01*
X32903900Y-29006054D01*
X33138211Y-29068838D01*
X33318586Y-29092584D01*
X33378711Y-29100500D01*
X33378712Y-29100500D01*
X33621289Y-29100500D01*
X33669388Y-29094167D01*
X33861789Y-29068838D01*
X34096100Y-29006054D01*
X34320212Y-28913224D01*
X34530289Y-28791936D01*
X34722738Y-28644265D01*
X34894265Y-28472738D01*
X35041936Y-28280289D01*
X35163224Y-28070212D01*
X35256054Y-27846100D01*
X35318838Y-27611789D01*
X35350500Y-27371288D01*
X35350500Y-27128712D01*
X35350500Y-27128711D01*
X123649500Y-27128711D01*
X123649500Y-27371288D01*
X123681161Y-27611785D01*
X123743947Y-27846104D01*
X123836773Y-28070205D01*
X123836776Y-28070212D01*
X123958064Y-28280289D01*
X123958066Y-28280292D01*
X123958067Y-28280293D01*
X124105733Y-28472736D01*
X124105739Y-28472743D01*
X124277256Y-28644260D01*
X124277262Y-28644265D01*
X124469711Y-28791936D01*
X124679788Y-28913224D01*
X124903900Y-29006054D01*
X125138211Y-29068838D01*
X125318586Y-29092584D01*
X125378711Y-29100500D01*
X125378712Y-29100500D01*
X125621289Y-29100500D01*
X125669388Y-29094167D01*
X125861789Y-29068838D01*
X126096100Y-29006054D01*
X126320212Y-28913224D01*
X126530289Y-28791936D01*
X126722738Y-28644265D01*
X126894265Y-28472738D01*
X127041936Y-28280289D01*
X127163224Y-28070212D01*
X127256054Y-27846100D01*
X127318838Y-27611789D01*
X127350500Y-27371288D01*
X127350500Y-27128712D01*
X127318838Y-26888211D01*
X127256054Y-26653900D01*
X127163224Y-26429788D01*
X127041936Y-26219711D01*
X126894265Y-26027262D01*
X126894260Y-26027256D01*
X126722743Y-25855739D01*
X126722736Y-25855733D01*
X126530293Y-25708067D01*
X126530292Y-25708066D01*
X126530289Y-25708064D01*
X126320212Y-25586776D01*
X126320205Y-25586773D01*
X126096104Y-25493947D01*
X125861785Y-25431161D01*
X125621289Y-25399500D01*
X125621288Y-25399500D01*
X125378712Y-25399500D01*
X125378711Y-25399500D01*
X125138214Y-25431161D01*
X124903895Y-25493947D01*
X124679794Y-25586773D01*
X124679785Y-25586777D01*
X124469706Y-25708067D01*
X124277263Y-25855733D01*
X124277256Y-25855739D01*
X124105739Y-26027256D01*
X124105733Y-26027263D01*
X123958067Y-26219706D01*
X123836777Y-26429785D01*
X123836773Y-26429794D01*
X123743947Y-26653895D01*
X123681161Y-26888214D01*
X123649500Y-27128711D01*
X35350500Y-27128711D01*
X35318838Y-26888211D01*
X35256054Y-26653900D01*
X35163224Y-26429788D01*
X35041936Y-26219711D01*
X34894265Y-26027262D01*
X34894260Y-26027256D01*
X34722743Y-25855739D01*
X34722736Y-25855733D01*
X34530293Y-25708067D01*
X34530292Y-25708066D01*
X34530289Y-25708064D01*
X34320212Y-25586776D01*
X34320205Y-25586773D01*
X34096104Y-25493947D01*
X33861785Y-25431161D01*
X33621289Y-25399500D01*
X33621288Y-25399500D01*
X33378712Y-25399500D01*
X33378711Y-25399500D01*
X33138214Y-25431161D01*
X32903895Y-25493947D01*
X32679794Y-25586773D01*
X32679785Y-25586777D01*
X32469706Y-25708067D01*
X32277263Y-25855733D01*
X32277256Y-25855739D01*
X32105739Y-26027256D01*
X32105733Y-26027263D01*
X31958067Y-26219706D01*
X31836777Y-26429785D01*
X31836773Y-26429794D01*
X31743947Y-26653895D01*
X31681161Y-26888214D01*
X31649500Y-27128711D01*
X30750000Y-27128711D01*
X30750000Y-25506092D01*
X30750597Y-25493938D01*
X30756780Y-25431161D01*
X30768018Y-25317056D01*
X30772757Y-25293232D01*
X30822577Y-25128994D01*
X30831875Y-25106549D01*
X30912775Y-24955195D01*
X30926272Y-24934995D01*
X31035149Y-24802328D01*
X31052328Y-24785149D01*
X31184995Y-24676272D01*
X31205195Y-24662775D01*
X31356549Y-24581875D01*
X31378994Y-24572577D01*
X31543232Y-24522757D01*
X31567056Y-24518018D01*
X31743939Y-24500597D01*
X31756093Y-24500000D01*
X127243907Y-24500000D01*
X127256061Y-24500597D01*
G37*
%TD.AperFunction*%
%TD*%
M02*
