M48
; DRILL file KiCad 10.0.3 date 2026-08-06T21:18:35
; FORMAT={-:-/ absolute / metric / decimal}
; #@! TF.CreationDate,2026-08-06T21:18:35+02:00
; #@! TF.GenerationSoftware,Kicad,Pcbnew,10.0.3
; #@! TF.FileFunction,MixedPlating,1,2
FMAT,2
METRIC
; #@! TA.AperFunction,Plated,PTH,ViaDrill
T1C0.300
; #@! TA.AperFunction,Plated,PTH,ViaDrill
T2C0.500
; #@! TA.AperFunction,Plated,PTH,ComponentDrill
T3C0.600
; #@! TA.AperFunction,Plated,PTH,ComponentDrill
T4C0.800
; #@! TA.AperFunction,Plated,PTH,ComponentDrill
T5C0.889
; #@! TA.AperFunction,Plated,PTH,ComponentDrill
T6C1.020
; #@! TA.AperFunction,Plated,PTH,ComponentDrill
T7C2.700
; #@! TA.AperFunction,NonPlated,NPTH,ComponentDrill
T8C3.200
%
G90
G05
T1
X117.602Y-41.275
X120.015Y-41.275
X127.635Y-41.275
X128.397Y-35.179
X136.525Y-31.115
X137.795Y-31.115
T2
X36.957Y-33.401
X43.561Y-61.341
X64.135Y-39.116
X107.95Y-29.464
X109.22Y-29.464
X110.49Y-29.464
X111.379Y-48.26
X111.76Y-29.464
X112.014Y-38.735
X113.03Y-29.464
X113.157Y-38.735
X114.3Y-29.464
X114.3Y-38.735
X123.571Y-48.26
X128.524Y-33.02
T4
X55.285Y-35.56
X55.372Y-41.91
X55.372Y-60.452
X57.785Y-35.56
X57.912Y-41.91
X57.912Y-60.452
X66.04Y-41.91
X66.04Y-60.452
X68.58Y-41.91
X68.58Y-60.452
T5
X55.0Y-21.59
X55.0Y-24.09
X55.0Y-26.59
X55.0Y-74.93
X55.0Y-77.43
X55.0Y-79.93
X92.5Y-21.59
X92.5Y-24.09
X92.5Y-26.59
X92.5Y-74.93
X92.5Y-77.43
X92.5Y-79.93
X130.0Y-21.59
X130.0Y-24.09
X130.0Y-26.59
X130.0Y-74.93
X130.0Y-77.43
X130.0Y-79.93
T6
X89.66Y-43.651
X89.66Y-66.51
X92.2Y-43.651
X92.2Y-66.51
X94.74Y-43.651
X94.74Y-66.51
X97.28Y-43.651
X97.28Y-66.51
X99.82Y-43.651
X99.82Y-66.51
X102.36Y-43.651
X102.36Y-66.51
X104.9Y-43.651
X104.9Y-66.51
X107.44Y-43.651
X107.44Y-66.51
X109.98Y-43.651
X109.98Y-66.51
X112.52Y-43.651
X112.52Y-66.51
X115.06Y-43.651
X115.06Y-66.51
X117.6Y-43.651
X117.6Y-66.51
X120.14Y-43.651
X120.14Y-66.51
X122.68Y-43.651
X122.68Y-66.51
X125.22Y-43.651
X125.22Y-66.51
X127.76Y-43.651
X127.76Y-66.51
X130.3Y-43.651
X130.3Y-66.51
X132.84Y-43.651
X132.84Y-66.51
X135.38Y-43.651
X135.38Y-66.51
X137.92Y-43.651
X137.92Y-66.51
X140.46Y-43.651
X140.46Y-66.51
X143.0Y-43.651
X143.0Y-66.51
T7
X32.035Y-33.465
X32.035Y-40.665
X32.035Y-61.57
X32.035Y-68.77
T8
X24.13Y-21.59
X24.13Y-80.01
X146.0Y-21.59
X146.0Y-80.01
T3
G00X26.585Y-30.315
M15
G01X25.485Y-30.315
M16
G05
G00X26.585Y-43.815
M15
G01X25.485Y-43.815
M16
G05
G00X26.585Y-58.42
M15
G01X25.485Y-58.42
M16
G05
G00X26.585Y-71.92
M15
G01X25.485Y-71.92
M16
G05
M30
