M48
; DRILL file KiCad 10.0.6-10.0.6~ubuntu24.04.1 date 2026-09-13T15:43:56
; FORMAT={-:-/ absolute / metric / decimal}
; #@! TF.CreationDate,2026-09-13T15:43:56+02:00
; #@! TF.GenerationSoftware,Kicad,Pcbnew,10.0.6-10.0.6~ubuntu24.04.1
; #@! TF.FileFunction,Plated,1,2,PTH
FMAT,2
METRIC
; #@! TA.AperFunction,Plated,PTH,ViaDrill
T1C0.300
; #@! TA.AperFunction,Plated,PTH,ComponentDrill
T2C0.600
; #@! TA.AperFunction,Plated,PTH,ComponentDrill
T3C0.800
; #@! TA.AperFunction,Plated,PTH,ComponentDrill
T4C0.889
; #@! TA.AperFunction,Plated,PTH,ComponentDrill
T5C1.000
; #@! TA.AperFunction,Plated,PTH,ComponentDrill
T6C1.020
; #@! TA.AperFunction,Plated,PTH,ComponentDrill
T7C2.700
%
G90
G05
T1
X41.406Y-72.489
X42.34Y-54.072
X43.0Y-92.7
X43.906Y-69.989
X93.75Y-56.25
X99.5Y-50.0
X103.0Y-50.75
X104.355Y-56.529
X104.355Y-59.029
X108.25Y-104.25
X109.625Y-63.375
X110.605Y-49.529
X111.0Y-40.25
X115.0Y-59.5
X115.605Y-51.529
X116.865Y-51.75
X118.0Y-45.25
X118.0Y-52.0
X119.25Y-52.0
X119.405Y-53.8
X120.605Y-46.529
X122.5Y-52.0
X123.855Y-51.929
T3
X34.65Y-73.132
X34.65Y-75.632
X43.729Y-64.646
X43.729Y-67.186
X43.729Y-75.314
X43.729Y-77.854
X50.201Y-31.54
X50.201Y-34.04
X50.65Y-106.55
X50.65Y-109.05
X60.25Y-83.75
X62.271Y-64.646
X62.271Y-67.186
X62.271Y-75.314
X62.271Y-77.854
X62.75Y-83.75
X73.83Y-55.005
X76.33Y-55.005
X85.751Y-31.19
X85.751Y-33.69
X85.999Y-106.31
X85.999Y-108.81
X121.25Y-31.432
X121.25Y-33.932
X121.55Y-106.2
X121.55Y-108.7
T4
X39.849Y-106.41
X39.849Y-108.91
X39.849Y-111.41
X39.85Y-31.5
X39.85Y-34.0
X39.85Y-36.5
X75.349Y-106.41
X75.349Y-108.91
X75.349Y-111.41
X75.35Y-31.5
X75.35Y-34.0
X75.35Y-36.5
X110.849Y-106.41
X110.849Y-108.91
X110.849Y-111.41
X110.85Y-31.5
X110.85Y-34.0
X110.85Y-36.5
T5
X60.0Y-90.25
X62.54Y-90.25
T6
X73.88Y-65.645
X73.88Y-91.355
X76.42Y-65.645
X76.42Y-91.355
X78.96Y-65.645
X78.96Y-91.355
X81.5Y-65.645
X81.5Y-91.355
X84.04Y-65.645
X84.04Y-91.355
X86.58Y-65.645
X86.58Y-91.355
X89.12Y-65.645
X89.12Y-91.355
X91.66Y-65.645
X91.66Y-91.355
X94.2Y-65.645
X94.2Y-91.355
X96.74Y-65.645
X96.74Y-91.355
X99.28Y-65.645
X99.28Y-91.355
X101.82Y-65.645
X101.82Y-91.355
X104.36Y-65.645
X104.36Y-91.355
X106.9Y-65.645
X106.9Y-91.355
X109.44Y-65.645
X109.44Y-91.355
X111.98Y-65.645
X111.98Y-91.355
X114.52Y-65.645
X114.52Y-91.355
X117.06Y-65.645
X117.06Y-91.355
X119.6Y-65.645
X119.6Y-91.355
X122.14Y-65.645
X122.14Y-91.355
X124.68Y-65.645
X124.68Y-91.355
X127.22Y-65.645
X127.22Y-91.355
T7
X39.245Y-57.609
X39.245Y-64.809
X39.245Y-87.109
X39.245Y-94.309
T2
X33.795Y-54.459G85X32.695Y-54.459
G05
X33.795Y-67.959G85X32.695Y-67.959
G05
X33.795Y-83.959G85X32.695Y-83.959
G05
X33.795Y-97.459G85X32.695Y-97.459
G05
M30
