%TF.GenerationSoftware,KiCad,Pcbnew,10.0.3*%
%TF.CreationDate,2026-08-06T21:18:31+02:00*%
%TF.ProjectId,new_PCB,6e65775f-5043-4422-9e6b-696361645f70,rev?*%
%TF.SameCoordinates,Original*%
%TF.FileFunction,Copper,L1,Top*%
%TF.FilePolarity,Positive*%
%FSLAX46Y46*%
G04 Gerber Fmt 4.6, Leading zero omitted, Abs format (unit mm)*
G04 Created by KiCad (PCBNEW 10.0.3) date 2026-08-06 21:18:31*
%MOMM*%
%LPD*%
G01*
G04 APERTURE LIST*
G04 Aperture macros list*
%AMRoundRect*
0 Rectangle with rounded corners*
0 $1 Rounding radius*
0 $2 $3 $4 $5 $6 $7 $8 $9 X,Y pos of 4 corners*
0 Add a 4 corners polygon primitive as box body*
4,1,4,$2,$3,$4,$5,$6,$7,$8,$9,$2,$3,0*
0 Add four circle primitives for the rounded corners*
1,1,$1+$1,$2,$3*
1,1,$1+$1,$4,$5*
1,1,$1+$1,$6,$7*
1,1,$1+$1,$8,$9*
0 Add four rect primitives between the rounded corners*
20,1,$1+$1,$2,$3,$4,$5,0*
20,1,$1+$1,$4,$5,$6,$7,0*
20,1,$1+$1,$6,$7,$8,$9,0*
20,1,$1+$1,$8,$9,$2,$3,0*%
G04 Aperture macros list end*
%TA.AperFunction,SMDPad,CuDef*%
%ADD10R,0.600000X1.300000*%
%TD*%
%TA.AperFunction,ComponentPad*%
%ADD11R,3.716000X3.716000*%
%TD*%
%TA.AperFunction,ComponentPad*%
%ADD12C,3.716000*%
%TD*%
%TA.AperFunction,ComponentPad*%
%ADD13O,2.600000X1.300000*%
%TD*%
%TA.AperFunction,ComponentPad*%
%ADD14C,1.397000*%
%TD*%
%TA.AperFunction,ComponentPad*%
%ADD15C,1.600000*%
%TD*%
%TA.AperFunction,ComponentPad*%
%ADD16O,1.600000X1.600000*%
%TD*%
%TA.AperFunction,SMDPad,CuDef*%
%ADD17RoundRect,0.250000X0.350000X0.450000X-0.350000X0.450000X-0.350000X-0.450000X0.350000X-0.450000X0*%
%TD*%
%TA.AperFunction,SMDPad,CuDef*%
%ADD18RoundRect,0.250000X-0.475000X0.250000X-0.475000X-0.250000X0.475000X-0.250000X0.475000X0.250000X0*%
%TD*%
%TA.AperFunction,SMDPad,CuDef*%
%ADD19RoundRect,0.250000X0.450000X-0.350000X0.450000X0.350000X-0.450000X0.350000X-0.450000X-0.350000X0*%
%TD*%
%TA.AperFunction,ComponentPad*%
%ADD20R,1.530000X1.530000*%
%TD*%
%TA.AperFunction,ComponentPad*%
%ADD21C,1.530000*%
%TD*%
%TA.AperFunction,SMDPad,CuDef*%
%ADD22RoundRect,0.250000X-0.350000X-0.450000X0.350000X-0.450000X0.350000X0.450000X-0.350000X0.450000X0*%
%TD*%
%TA.AperFunction,SMDPad,CuDef*%
%ADD23RoundRect,0.250000X-0.850000X-0.350000X0.850000X-0.350000X0.850000X0.350000X-0.850000X0.350000X0*%
%TD*%
%TA.AperFunction,SMDPad,CuDef*%
%ADD24RoundRect,0.249997X-2.950003X-2.650003X2.950003X-2.650003X2.950003X2.650003X-2.950003X2.650003X0*%
%TD*%
%TA.AperFunction,SMDPad,CuDef*%
%ADD25RoundRect,0.250000X0.250000X0.475000X-0.250000X0.475000X-0.250000X-0.475000X0.250000X-0.475000X0*%
%TD*%
%TA.AperFunction,ComponentPad*%
%ADD26RoundRect,0.250000X-0.550000X-0.550000X0.550000X-0.550000X0.550000X0.550000X-0.550000X0.550000X0*%
%TD*%
%TA.AperFunction,ViaPad*%
%ADD27C,0.600000*%
%TD*%
%TA.AperFunction,ViaPad*%
%ADD28C,1.000000*%
%TD*%
%TA.AperFunction,Conductor*%
%ADD29C,3.500000*%
%TD*%
%TA.AperFunction,Conductor*%
%ADD30C,2.700000*%
%TD*%
%TA.AperFunction,Conductor*%
%ADD31C,0.250000*%
%TD*%
%TA.AperFunction,Conductor*%
%ADD32C,1.500000*%
%TD*%
%TA.AperFunction,Conductor*%
%ADD33C,0.200000*%
%TD*%
G04 APERTURE END LIST*
D10*
%TO.P,74LVC125A1,1,1/OE_1*%
%TO.N,/TXEN1*%
X137795000Y-33020000D03*
%TO.P,74LVC125A1,2,1A_2*%
%TO.N,/TX1*%
X136525000Y-33020000D03*
%TO.P,74LVC125A1,3,1Y_3*%
%TO.N,/SERVO_DATA1*%
X135255000Y-33020000D03*
%TO.P,74LVC125A1,4,2/OE_4*%
%TO.N,/RXEN1*%
X133985000Y-33020000D03*
%TO.P,74LVC125A1,5,2A_5*%
%TO.N,/SERVO_DATA1*%
X132715000Y-33020000D03*
%TO.P,74LVC125A1,6,2Y_6*%
%TO.N,/RX1*%
X131445000Y-33020000D03*
%TO.P,74LVC125A1,7,GND_7*%
%TO.N,GND*%
X130175000Y-33020000D03*
%TO.P,74LVC125A1,8,3Y_8*%
%TO.N,/SERVO_DATA2*%
X130175000Y-38320000D03*
%TO.P,74LVC125A1,9,3A_9*%
%TO.N,/TX2*%
X131445000Y-38320000D03*
%TO.P,74LVC125A1,10,3/OE_10*%
%TO.N,/TXEN2*%
X132715000Y-38320000D03*
%TO.P,74LVC125A1,11,4Y_11*%
%TO.N,/RX2*%
X133985000Y-38320000D03*
%TO.P,74LVC125A1,12,4A_12*%
%TO.N,/SERVO_DATA2*%
X135255000Y-38320000D03*
%TO.P,74LVC125A1,13,4/OE_13*%
%TO.N,/RXEN2*%
X136525000Y-38320000D03*
%TO.P,74LVC125A1,14,VCC_14*%
%TO.N,+3.3V*%
X137795000Y-38320000D03*
%TD*%
D11*
%TO.P,J2,1,P_1*%
%TO.N,VBAT*%
X32035000Y-40665000D03*
D12*
%TO.P,J2,2,N_2*%
%TO.N,GND*%
X32035000Y-33465000D03*
D13*
%TO.P,J2,SH1,SHIELD_SH1*%
%TO.N,unconnected-(J2-SHIELD-PadSH1)*%
X26035000Y-30315000D03*
%TO.P,J2,SH2,SHIELD_SH2*%
%TO.N,unconnected-(J2-SHIELD-PadSH1)_1*%
X26035000Y-43815000D03*
%TD*%
D11*
%TO.P,J1,1,P_1*%
%TO.N,VBAT*%
X32035000Y-68770000D03*
D12*
%TO.P,J1,2,N_2*%
%TO.N,GND*%
X32035000Y-61570000D03*
D13*
%TO.P,J1,SH1,SHIELD_SH1*%
%TO.N,unconnected-(J1-SHIELD-PadSH1)*%
X26035000Y-58420000D03*
%TO.P,J1,SH2,SHIELD_SH2*%
%TO.N,unconnected-(J1-SHIELD-PadSH1)_1*%
X26035000Y-71920000D03*
%TD*%
D14*
%TO.P,J7,1,1_1*%
%TO.N,GND*%
X92500000Y-74930000D03*
%TO.P,J7,2,2_2*%
%TO.N,VBUS_1*%
X92500000Y-77430000D03*
%TO.P,J7,3,3_3*%
%TO.N,/SERVO_DATA2*%
X92500000Y-79930000D03*
%TD*%
D15*
%TO.P,U2,1,OUT+_1*%
%TO.N,+3.3V*%
X55372000Y-60452000D03*
%TO.P,U2,2,OUT+_2*%
%TO.N,unconnected-(U2-OUT+-Pad2)*%
X57912000Y-60452000D03*
D16*
%TO.P,U2,3,OUT-_3*%
%TO.N,unconnected-(U2-OUT--Pad3)*%
X66040000Y-60452000D03*
%TO.P,U2,4,OUT-_4*%
%TO.N,GND*%
X68580000Y-60452000D03*
%TO.P,U2,5,IN-_5*%
X68580000Y-41910000D03*
%TO.P,U2,6,IN-_6*%
%TO.N,unconnected-(U2-IN--Pad6)*%
X66040000Y-41910000D03*
D15*
%TO.P,U2,7,IN+_7*%
%TO.N,unconnected-(U2-IN+-Pad7)*%
X57912000Y-41910000D03*
%TO.P,U2,8,IN+_8*%
%TO.N,VBUS_2*%
X55372000Y-41910000D03*
%TD*%
D17*
%TO.P,R2,1*%
%TO.N,+3.3V*%
X143240000Y-31115000D03*
%TO.P,R2,2*%
%TO.N,/SERVO_DATA1*%
X141240000Y-31115000D03*
%TD*%
D14*
%TO.P,J3,1,1_1*%
%TO.N,GND*%
X55000000Y-21590000D03*
%TO.P,J3,2,2_2*%
%TO.N,VBUS_2*%
X55000000Y-24090000D03*
%TO.P,J3,3,3_3*%
%TO.N,/SERVO_DATA1*%
X55000000Y-26590000D03*
%TD*%
D17*
%TO.P,R11,1*%
%TO.N,Net-(Q2-G)*%
X40690000Y-33395000D03*
%TO.P,R11,2*%
%TO.N,GND*%
X38690000Y-33395000D03*
%TD*%
D18*
%TO.P,C3,1*%
%TO.N,VBUS_2*%
X64135000Y-35560000D03*
%TO.P,C3,2*%
%TO.N,GND*%
X64135000Y-37460000D03*
%TD*%
D17*
%TO.P,R3,1*%
%TO.N,/TXEN1*%
X127365000Y-48260000D03*
%TO.P,R3,2*%
%TO.N,GND*%
X125365000Y-48260000D03*
%TD*%
D14*
%TO.P,J5,1,1_1*%
%TO.N,GND*%
X130000000Y-21590000D03*
%TO.P,J5,2,2_2*%
%TO.N,VBUS_2*%
X130000000Y-24090000D03*
%TO.P,J5,3,3_3*%
%TO.N,/SERVO_DATA1*%
X130000000Y-26590000D03*
%TD*%
D10*
%TO.P,74LVC14A1,1,1A_1*%
%TO.N,/TXEN2*%
X106680000Y-36830000D03*
%TO.P,74LVC14A1,2,1Y_2*%
%TO.N,/RXEN2*%
X107950000Y-36830000D03*
%TO.P,74LVC14A1,3,2A_3*%
%TO.N,/TXEN1*%
X109220000Y-36830000D03*
%TO.P,74LVC14A1,4,2Y_4*%
%TO.N,/RXEN1*%
X110490000Y-36830000D03*
%TO.P,74LVC14A1,5,3A_5*%
%TO.N,GND*%
X111760000Y-36830000D03*
%TO.P,74LVC14A1,6,3Y_6*%
X113030000Y-36830000D03*
%TO.P,74LVC14A1,7,GND_7*%
X114300000Y-36830000D03*
%TO.P,74LVC14A1,8,4Y_8*%
X114300000Y-31530000D03*
%TO.P,74LVC14A1,9,4A_9*%
X113030000Y-31530000D03*
%TO.P,74LVC14A1,10,5Y_10*%
X111760000Y-31530000D03*
%TO.P,74LVC14A1,11,5A_11*%
X110490000Y-31530000D03*
%TO.P,74LVC14A1,12,6Y_12*%
X109220000Y-31530000D03*
%TO.P,74LVC14A1,13,6A_13*%
X107950000Y-31530000D03*
%TO.P,74LVC14A1,14,VCC_14*%
%TO.N,+3.3V*%
X106680000Y-31530000D03*
%TD*%
D19*
%TO.P,R1,1*%
%TO.N,+3.3V*%
X142875000Y-39100000D03*
%TO.P,R1,2*%
%TO.N,/RX1*%
X142875000Y-37100000D03*
%TD*%
%TO.P,R9,1*%
%TO.N,Net-(C1-Pad1)*%
X76835000Y-61960000D03*
%TO.P,R9,2*%
%TO.N,/BAT_LVL*%
X76835000Y-59960000D03*
%TD*%
D17*
%TO.P,R6,1*%
%TO.N,+3.3V*%
X140700000Y-40640000D03*
%TO.P,R6,2*%
%TO.N,/SERVO_DATA2*%
X138700000Y-40640000D03*
%TD*%
D20*
%TO.P,U1,J1_1,3V3_J1_1*%
%TO.N,+3.3V*%
X143000000Y-43650500D03*
D21*
%TO.P,U1,J1_2,3V3_J1_2*%
X140460000Y-43650500D03*
%TO.P,U1,J1_3,RST_J1_3*%
%TO.N,unconnected-(U1-RST-PadJ1_3)*%
X137920000Y-43650500D03*
%TO.P,U1,J1_4,GPIO4_J1_4*%
%TO.N,/RX2*%
X135380000Y-43650500D03*
%TO.P,U1,J1_5,GPIO5_J1_5*%
%TO.N,/TX2*%
X132840000Y-43650500D03*
%TO.P,U1,J1_6,GPIO6_J1_6*%
%TO.N,unconnected-(U1-GPIO6-PadJ1_6)*%
X130300000Y-43650500D03*
%TO.P,U1,J1_7,GPIO7_J1_7*%
%TO.N,/TXEN1*%
X127760000Y-43650500D03*
%TO.P,U1,J1_8,GPIO15_J1_8*%
%TO.N,unconnected-(U1-GPIO15-PadJ1_8)*%
X125220000Y-43650500D03*
%TO.P,U1,J1_9,GPIO16_J1_9*%
%TO.N,unconnected-(U1-GPIO16-PadJ1_9)*%
X122680000Y-43650500D03*
%TO.P,U1,J1_10,GPIO17_J1_10*%
%TO.N,/TX1*%
X120140000Y-43650500D03*
%TO.P,U1,J1_11,GPIO18_J1_11*%
%TO.N,/RX1*%
X117600000Y-43650500D03*
%TO.P,U1,J1_12,GPIO8_J1_12*%
%TO.N,/TXEN2*%
X115060000Y-43650500D03*
%TO.P,U1,J1_13,GPIO3_J1_13*%
%TO.N,unconnected-(U1-GPIO3-PadJ1_13)*%
X112520000Y-43650500D03*
%TO.P,U1,J1_14,GPIO46_J1_14*%
%TO.N,unconnected-(U1-GPIO46-PadJ1_14)*%
X109980000Y-43650500D03*
%TO.P,U1,J1_15,GPIO9_J1_15*%
%TO.N,unconnected-(U1-GPIO9-PadJ1_15)*%
X107440000Y-43650500D03*
%TO.P,U1,J1_16,GPIO10_J1_16*%
%TO.N,unconnected-(U1-GPIO10-PadJ1_16)*%
X104900000Y-43650500D03*
%TO.P,U1,J1_17,GPIO11_J1_17*%
%TO.N,unconnected-(U1-GPIO11-PadJ1_17)*%
X102360000Y-43650500D03*
%TO.P,U1,J1_18,GPIO12_J1_18*%
%TO.N,unconnected-(U1-GPIO12-PadJ1_18)*%
X99820000Y-43650500D03*
%TO.P,U1,J1_19,GPIO13_J1_19*%
%TO.N,unconnected-(U1-GPIO13-PadJ1_19)*%
X97280000Y-43650500D03*
%TO.P,U1,J1_20,GPIO14_J1_20*%
%TO.N,unconnected-(U1-GPIO14-PadJ1_20)*%
X94740000Y-43650500D03*
%TO.P,U1,J1_21,5V0_J1_21*%
%TO.N,unconnected-(U1-5V0-PadJ1_21)*%
X92200000Y-43650500D03*
%TO.P,U1,J1_22,GND_J1_22*%
%TO.N,GND*%
X89660000Y-43650500D03*
%TO.P,U1,J3_1,GND_J3_1*%
X143000000Y-66510500D03*
%TO.P,U1,J3_2,U0TXD/GPIO43_J3_2*%
%TO.N,unconnected-(U1-U0TXD{slash}GPIO43-PadJ3_2)*%
X140460000Y-66510500D03*
%TO.P,U1,J3_3,U0RXD/GPIO44_J3_3*%
%TO.N,unconnected-(U1-U0RXD{slash}GPIO44-PadJ3_3)*%
X137920000Y-66510500D03*
%TO.P,U1,J3_4,GPIO1_J3_4*%
%TO.N,unconnected-(U1-GPIO1-PadJ3_4)*%
X135380000Y-66510500D03*
%TO.P,U1,J3_5,GPIO2_J3_5*%
%TO.N,unconnected-(U1-GPIO2-PadJ3_5)*%
X132840000Y-66510500D03*
%TO.P,U1,J3_6,MTMS/GPIO42_J3_6*%
%TO.N,unconnected-(U1-MTMS{slash}GPIO42-PadJ3_6)*%
X130300000Y-66510500D03*
%TO.P,U1,J3_7,MTDI/GPIO41_J3_7*%
%TO.N,unconnected-(U1-MTDI{slash}GPIO41-PadJ3_7)*%
X127760000Y-66510500D03*
%TO.P,U1,J3_8,MTDO/GPIO40_J3_8*%
%TO.N,unconnected-(U1-MTDO{slash}GPIO40-PadJ3_8)*%
X125220000Y-66510500D03*
%TO.P,U1,J3_9,MTCK/GPIO39_J3_9*%
%TO.N,unconnected-(U1-MTCK{slash}GPIO39-PadJ3_9)*%
X122680000Y-66510500D03*
%TO.P,U1,J3_10,GPIO38_J3_10*%
%TO.N,unconnected-(U1-GPIO38-PadJ3_10)*%
X120140000Y-66510500D03*
%TO.P,U1,J3_11,GPIO37_J3_11*%
%TO.N,unconnected-(U1-GPIO37-PadJ3_11)*%
X117600000Y-66510500D03*
%TO.P,U1,J3_12,GPIO36_J3_12*%
%TO.N,unconnected-(U1-GPIO36-PadJ3_12)*%
X115060000Y-66510500D03*
%TO.P,U1,J3_13,GPIO35_J3_13*%
%TO.N,unconnected-(U1-GPIO35-PadJ3_13)*%
X112520000Y-66510500D03*
%TO.P,U1,J3_14,GPIO0_J3_14*%
%TO.N,unconnected-(U1-GPIO0-PadJ3_14)*%
X109980000Y-66510500D03*
%TO.P,U1,J3_15,GPIO45_J3_15*%
%TO.N,unconnected-(U1-GPIO45-PadJ3_15)*%
X107440000Y-66510500D03*
%TO.P,U1,J3_16,GPIO48_J3_16*%
%TO.N,unconnected-(U1-GPIO48-PadJ3_16)*%
X104900000Y-66510500D03*
%TO.P,U1,J3_17,GPIO47_J3_17*%
%TO.N,unconnected-(U1-GPIO47-PadJ3_17)*%
X102360000Y-66510500D03*
%TO.P,U1,J3_18,GPIO21_J3_18*%
%TO.N,/BAT_LVL*%
X99820000Y-66510500D03*
%TO.P,U1,J3_19,USB_D+/GPIO20_J3_19*%
%TO.N,unconnected-(U1-USB_D+{slash}GPIO20-PadJ3_19)*%
X97280000Y-66510500D03*
%TO.P,U1,J3_20,USB_D-/GPIO19_J3_20*%
%TO.N,unconnected-(U1-USB_D-{slash}GPIO19-PadJ3_20)*%
X94740000Y-66510500D03*
%TO.P,U1,J3_21,GND_J3_21*%
%TO.N,GND*%
X92200000Y-66510500D03*
%TO.P,U1,J3_22,GND_J3_22*%
X89660000Y-66510500D03*
%TD*%
D22*
%TO.P,R10,1*%
%TO.N,Net-(Q1-G)*%
X39370000Y-61340000D03*
%TO.P,R10,2*%
%TO.N,GND*%
X41370000Y-61340000D03*
%TD*%
%TO.P,R7,1*%
%TO.N,VBUS_1*%
X75200000Y-65405000D03*
%TO.P,R7,2*%
%TO.N,Net-(C1-Pad1)*%
X77200000Y-65405000D03*
%TD*%
D17*
%TO.P,R5,1*%
%TO.N,+3.3V*%
X138795000Y-48260000D03*
%TO.P,R5,2*%
%TO.N,/RX2*%
X136795000Y-48260000D03*
%TD*%
D23*
%TO.P,Q2,1,G_1*%
%TO.N,Net-(Q2-G)*%
X40690000Y-36455000D03*
D24*
%TO.P,Q2,2,D_2*%
%TO.N,VBUS_2*%
X46990000Y-38735000D03*
D23*
%TO.P,Q2,3,S_3*%
%TO.N,VBAT*%
X40690000Y-41015000D03*
%TD*%
D19*
%TO.P,R8,1*%
%TO.N,Net-(C1-Pad1)*%
X74295000Y-61960000D03*
%TO.P,R8,2*%
%TO.N,GND*%
X74295000Y-59960000D03*
%TD*%
D25*
%TO.P,C1,1*%
%TO.N,Net-(C1-Pad1)*%
X71435000Y-64770000D03*
%TO.P,C1,2*%
%TO.N,GND*%
X69535000Y-64770000D03*
%TD*%
D14*
%TO.P,J8,1,1_1*%
%TO.N,GND*%
X130000000Y-74930000D03*
%TO.P,J8,2,2_2*%
%TO.N,VBUS_1*%
X130000000Y-77430000D03*
%TO.P,J8,3,3_3*%
%TO.N,/SERVO_DATA2*%
X130000000Y-79930000D03*
%TD*%
D17*
%TO.P,R4,1*%
%TO.N,/TXEN2*%
X115030000Y-48260000D03*
%TO.P,R4,2*%
%TO.N,GND*%
X113030000Y-48260000D03*
%TD*%
D26*
%TO.P,C2,1*%
%TO.N,VBUS_2*%
X55285000Y-35560000D03*
D15*
%TO.P,C2,2*%
%TO.N,GND*%
X57785000Y-35560000D03*
%TD*%
D14*
%TO.P,J6,1,1_1*%
%TO.N,GND*%
X55000000Y-74930000D03*
%TO.P,J6,2,2_2*%
%TO.N,VBUS_1*%
X55000000Y-77430000D03*
%TO.P,J6,3,3_3*%
%TO.N,/SERVO_DATA2*%
X55000000Y-79930000D03*
%TD*%
%TO.P,J4,1,1_1*%
%TO.N,GND*%
X92500000Y-21590000D03*
%TO.P,J4,2,2_2*%
%TO.N,VBUS_2*%
X92500000Y-24090000D03*
%TO.P,J4,3,3_3*%
%TO.N,/SERVO_DATA1*%
X92500000Y-26590000D03*
%TD*%
D23*
%TO.P,Q1,1,G_1*%
%TO.N,Net-(Q1-G)*%
X41325000Y-64395000D03*
D24*
%TO.P,Q1,2,D_2*%
%TO.N,VBUS_1*%
X47625000Y-66675000D03*
D23*
%TO.P,Q1,3,S_3*%
%TO.N,VBAT*%
X41325000Y-68955000D03*
%TD*%
D27*
%TO.N,/RX1*%
X117602000Y-41275000D03*
X128397000Y-35179000D03*
D28*
%TO.N,GND*%
X111379000Y-48260000D03*
X123571000Y-48260000D03*
X128524000Y-33020000D03*
X114300000Y-38735000D03*
X113157000Y-38735000D03*
X112014000Y-38735000D03*
X113030000Y-29464000D03*
X111760000Y-29464000D03*
X114300000Y-29464000D03*
X110490000Y-29464000D03*
X109220000Y-29464000D03*
X107950000Y-29464000D03*
X36957000Y-33401000D03*
X64135000Y-39116000D03*
X43561000Y-61341000D03*
D27*
%TO.N,/TX1*%
X120015000Y-41275000D03*
%TO.N,/TXEN1*%
X127635000Y-41275000D03*
X137795000Y-31115000D03*
%TO.N,/TX1*%
X136525000Y-31115000D03*
%TD*%
%TO.N,VBUS_1*%
D29*
X57277000Y-77470000D02*
X71755000Y-77470000D01*
D30*
X55000000Y-77430000D02*
X55840000Y-77430000D01*
%TO.N,/SERVO_DATA2*%
D31*
X139014200Y-40640000D02*
X138700000Y-40640000D01*
X141706600Y-46456600D02*
X141706600Y-43332400D01*
X141706600Y-43332400D02*
X139014200Y-40640000D01*
X144090000Y-71175000D02*
X144090000Y-48840000D01*
X144090000Y-48840000D02*
X141706600Y-46456600D01*
X135335000Y-79930000D02*
X144090000Y-71175000D01*
X130000000Y-79930000D02*
X135335000Y-79930000D01*
%TO.N,+3.3V*%
X103810000Y-34400000D02*
X103810000Y-55550000D01*
X106680000Y-31530000D02*
X103810000Y-34400000D01*
D30*
X104140000Y-55880000D02*
X132527512Y-55880000D01*
D31*
X103810000Y-55550000D02*
X104140000Y-55880000D01*
D30*
X138945000Y-45899405D02*
X140031600Y-44812805D01*
X138945000Y-49462512D02*
X138945000Y-45899405D01*
X58812630Y-55880000D02*
X104140000Y-55880000D01*
X55372000Y-59320630D02*
X58812630Y-55880000D01*
X132527512Y-55880000D02*
X138945000Y-49462512D01*
X55372000Y-60452000D02*
X55372000Y-59320630D01*
%TO.N,/BAT_LVL*%
D31*
X93269500Y-59960000D02*
X99820000Y-66510500D01*
X76835000Y-59960000D02*
X93269500Y-59960000D01*
%TO.N,/RX1*%
X117602000Y-43648500D02*
X117600000Y-43650500D01*
X117602000Y-41275000D02*
X117602000Y-43648500D01*
X131445000Y-33370000D02*
X131445000Y-33020000D01*
X129636000Y-35179000D02*
X131445000Y-33370000D01*
X128397000Y-35179000D02*
X129636000Y-35179000D01*
%TO.N,/RXEN1*%
X133985000Y-32670000D02*
X133985000Y-33020000D01*
X131668000Y-30353000D02*
X133985000Y-32670000D01*
X127127000Y-30353000D02*
X131668000Y-30353000D01*
X109220000Y-33020000D02*
X124460000Y-33020000D01*
X107325000Y-34915000D02*
X109220000Y-33020000D01*
X107325000Y-38110000D02*
X107325000Y-34915000D01*
X109855000Y-39370000D02*
X108585000Y-39370000D01*
X110490000Y-38735000D02*
X109855000Y-39370000D01*
X124460000Y-33020000D02*
X127127000Y-30353000D01*
X108585000Y-39370000D02*
X107325000Y-38110000D01*
X110490000Y-36830000D02*
X110490000Y-38735000D01*
%TO.N,GND*%
D32*
X128524000Y-33020000D02*
X130175000Y-33020000D01*
X111379000Y-48260000D02*
X113030000Y-48260000D01*
X123571000Y-48260000D02*
X125365000Y-48260000D01*
%TO.N,/TXEN1*%
D31*
X111135000Y-39380000D02*
X111760000Y-40005000D01*
X111760000Y-40005000D02*
X124114500Y-40005000D01*
X110871000Y-35687000D02*
X111135000Y-35951000D01*
X124114500Y-40005000D02*
X127760000Y-43650500D01*
X110013000Y-35687000D02*
X110871000Y-35687000D01*
X111135000Y-35951000D02*
X111135000Y-39380000D01*
X109220000Y-36480000D02*
X110013000Y-35687000D01*
X109220000Y-36830000D02*
X109220000Y-36480000D01*
%TO.N,GND*%
D30*
X43188000Y-61095000D02*
X42120000Y-61095000D01*
X43434000Y-61341000D02*
X43188000Y-61095000D01*
X43561000Y-61341000D02*
X43434000Y-61341000D01*
X64135000Y-39116000D02*
X64135000Y-37610000D01*
X36957000Y-33401000D02*
X37940000Y-33401000D01*
X37940000Y-33401000D02*
X37940000Y-33395000D01*
%TO.N,/SERVO_DATA1*%
D31*
X135255000Y-31845000D02*
X135255000Y-33020000D01*
X130000000Y-26590000D02*
X135255000Y-31845000D01*
%TO.N,/TXEN1*%
X127635000Y-43525500D02*
X127760000Y-43650500D01*
X127635000Y-41275000D02*
X127635000Y-43525500D01*
%TO.N,/TX1*%
X120015000Y-43525500D02*
X120140000Y-43650500D01*
X120015000Y-41275000D02*
X120015000Y-43525500D01*
X136525000Y-31115000D02*
X136525000Y-33020000D01*
%TO.N,/TXEN1*%
X137795000Y-33020000D02*
X137795000Y-31115000D01*
%TO.N,/TXEN2*%
X118427500Y-48260000D02*
X115030000Y-48260000D01*
X122237500Y-52070000D02*
X118427500Y-48260000D01*
X133985000Y-48895000D02*
X130810000Y-52070000D01*
X132715000Y-41910000D02*
X133985000Y-43180000D01*
X133985000Y-43180000D02*
X133985000Y-48895000D01*
X132715000Y-38320000D02*
X132715000Y-41910000D01*
X130810000Y-52070000D02*
X122237500Y-52070000D01*
%TO.N,/TX2*%
X131445000Y-42255500D02*
X132840000Y-43650500D01*
X131445000Y-38320000D02*
X131445000Y-42255500D01*
%TO.N,/RX2*%
X133985000Y-42255500D02*
X135380000Y-43650500D01*
X133985000Y-38320000D02*
X133985000Y-42255500D01*
%TO.N,/TXEN2*%
X113970000Y-42560500D02*
X115060000Y-43650500D01*
X109235500Y-42560500D02*
X113970000Y-42560500D01*
X106680000Y-40005000D02*
X109235500Y-42560500D01*
X106680000Y-36830000D02*
X106680000Y-40005000D01*
X115060000Y-48230000D02*
X115030000Y-48260000D01*
X115060000Y-43650500D02*
X115060000Y-48230000D01*
%TO.N,/TXEN1*%
X127365000Y-48260000D02*
X127365000Y-44045500D01*
X127365000Y-44045500D02*
X127760000Y-43650500D01*
%TO.N,/RX2*%
X136795000Y-48260000D02*
X136795000Y-45065500D01*
X136795000Y-45065500D02*
X135380000Y-43650500D01*
%TO.N,+3.3V*%
X138795000Y-45315500D02*
X140460000Y-43650500D01*
X138795000Y-48260000D02*
X138795000Y-45315500D01*
%TO.N,/RXEN2*%
X107950000Y-36480000D02*
X107950000Y-36830000D01*
X113995000Y-34925000D02*
X109505000Y-34925000D01*
X115265000Y-36195000D02*
X113995000Y-34925000D01*
X136525000Y-37990000D02*
X134730000Y-36195000D01*
X136525000Y-38320000D02*
X136525000Y-37990000D01*
X134730000Y-36195000D02*
X115265000Y-36195000D01*
X109505000Y-34925000D02*
X107950000Y-36480000D01*
%TO.N,/SERVO_DATA1*%
X141240000Y-31615000D02*
X141240000Y-31115000D01*
X138565000Y-34290000D02*
X141240000Y-31615000D01*
X135890000Y-34290000D02*
X138565000Y-34290000D01*
X135255000Y-33655000D02*
X135890000Y-34290000D01*
X135255000Y-33020000D02*
X135255000Y-33655000D01*
%TO.N,+3.3V*%
X143900000Y-31775000D02*
X143900000Y-38075000D01*
X143900000Y-38075000D02*
X142875000Y-39100000D01*
X143240000Y-31115000D02*
X143900000Y-31775000D01*
D33*
X141335000Y-40640000D02*
X142875000Y-39100000D01*
X140700000Y-40640000D02*
X141335000Y-40640000D01*
%TO.N,/SERVO_DATA2*%
D31*
X137225000Y-40640000D02*
X138700000Y-40640000D01*
X135255000Y-38670000D02*
X137225000Y-40640000D01*
X135255000Y-38320000D02*
X135255000Y-38670000D01*
X135255000Y-38100000D02*
X135255000Y-38320000D01*
X134500000Y-37345000D02*
X135255000Y-38100000D01*
X130175000Y-37970000D02*
X130800000Y-37345000D01*
X130175000Y-38320000D02*
X130175000Y-37970000D01*
X130800000Y-37345000D02*
X134500000Y-37345000D01*
%TO.N,+3.3V*%
X142095000Y-38320000D02*
X142875000Y-39100000D01*
X137795000Y-38320000D02*
X142095000Y-38320000D01*
%TO.N,/RX1*%
X141335000Y-35560000D02*
X142875000Y-37100000D01*
X133635000Y-35560000D02*
X141335000Y-35560000D01*
X131445000Y-33370000D02*
X133635000Y-35560000D01*
%TO.N,+3.3V*%
X142875000Y-43525500D02*
X143000000Y-43650500D01*
X142875000Y-39100000D02*
X142875000Y-43525500D01*
%TO.N,GND*%
D32*
X68580000Y-63815000D02*
X69535000Y-64770000D01*
X68580000Y-60452000D02*
X68580000Y-63815000D01*
%TO.N,Net-(C1-Pad1)*%
X71485000Y-64770000D02*
X74295000Y-61960000D01*
X71435000Y-64770000D02*
X71485000Y-64770000D01*
%TO.N,GND*%
X69072000Y-59960000D02*
X68580000Y-60452000D01*
X74295000Y-59960000D02*
X69072000Y-59960000D01*
%TO.N,Net-(C1-Pad1)*%
X76835000Y-61960000D02*
X74295000Y-61960000D01*
X77350000Y-62475000D02*
X77350000Y-65405000D01*
X76835000Y-61960000D02*
X77350000Y-62475000D01*
%TO.N,VBUS_1*%
D29*
X74650000Y-74575000D02*
X74650000Y-65515000D01*
X71755000Y-77470000D02*
X91440000Y-77470000D01*
X71755000Y-77470000D02*
X74650000Y-74575000D01*
X47625000Y-71300545D02*
X53754455Y-77430000D01*
D30*
X92500000Y-77430000D02*
X91480000Y-77430000D01*
D29*
X94615000Y-77470000D02*
X128905000Y-77470000D01*
X47625000Y-66675000D02*
X47625000Y-71300545D01*
D30*
X128945000Y-77430000D02*
X128905000Y-77470000D01*
X94575000Y-77430000D02*
X94615000Y-77470000D01*
X130000000Y-77430000D02*
X128945000Y-77430000D01*
X92500000Y-77430000D02*
X94575000Y-77430000D01*
X91480000Y-77430000D02*
X91440000Y-77470000D01*
%TO.N,/SERVO_DATA2*%
D31*
X92500000Y-79930000D02*
X130000000Y-79930000D01*
X55000000Y-79930000D02*
X92500000Y-79930000D01*
%TO.N,+3.3V*%
D33*
X140825000Y-40765000D02*
X140700000Y-40640000D01*
%TO.N,VBUS_2*%
D29*
X55035000Y-35560000D02*
X55035000Y-34420912D01*
X46990000Y-38735000D02*
X51860000Y-38735000D01*
X46990000Y-29845000D02*
X52705000Y-24130000D01*
X94615000Y-24130000D02*
X128905000Y-24130000D01*
X56645912Y-32810000D02*
X62655000Y-32810000D01*
X51860000Y-38735000D02*
X55035000Y-35560000D01*
D30*
X55840000Y-24090000D02*
X55880000Y-24130000D01*
D29*
X55162000Y-41700000D02*
X55162000Y-41910000D01*
X62655000Y-32810000D02*
X64135000Y-34290000D01*
D30*
X92500000Y-24090000D02*
X94575000Y-24090000D01*
D29*
X55035000Y-34420912D02*
X56645912Y-32810000D01*
X56285545Y-24130000D02*
X56245545Y-24090000D01*
D30*
X55000000Y-24090000D02*
X52745000Y-24090000D01*
X94575000Y-24090000D02*
X94615000Y-24130000D01*
D29*
X51860000Y-38735000D02*
X52197000Y-38735000D01*
X46990000Y-38735000D02*
X46990000Y-29845000D01*
X91440000Y-24130000D02*
X56285545Y-24130000D01*
X52197000Y-38735000D02*
X55162000Y-41700000D01*
D30*
X52705000Y-24130000D02*
X52745000Y-24090000D01*
X128945000Y-24090000D02*
X128905000Y-24130000D01*
X92500000Y-24090000D02*
X91480000Y-24090000D01*
X91480000Y-24090000D02*
X91440000Y-24130000D01*
X130000000Y-24090000D02*
X128945000Y-24090000D01*
X55000000Y-24090000D02*
X55840000Y-24090000D01*
%TO.N,/SERVO_DATA1*%
D31*
X55000000Y-26590000D02*
X92500000Y-26590000D01*
X92500000Y-26590000D02*
X130000000Y-26590000D01*
%TO.N,Net-(Q2-G)*%
D29*
X40690000Y-36455000D02*
X41240000Y-35905000D01*
X41240000Y-35905000D02*
X41240000Y-33395000D01*
%TO.N,VBAT*%
X40340000Y-40665000D02*
X40690000Y-41015000D01*
X32035000Y-40665000D02*
X40340000Y-40665000D01*
X41140000Y-68770000D02*
X41325000Y-68955000D01*
X32035000Y-68770000D02*
X41140000Y-68770000D01*
%TO.N,Net-(Q1-G)*%
X41325000Y-64395000D02*
X40225000Y-64395000D01*
X38820000Y-62990000D02*
X38820000Y-61340000D01*
X40225000Y-64395000D02*
X38820000Y-62990000D01*
%TO.N,/SERVO_DATA1*%
D31*
X133635000Y-34290000D02*
X134620000Y-34290000D01*
X132715000Y-33370000D02*
X133635000Y-34290000D01*
X134620000Y-34290000D02*
X135255000Y-33655000D01*
X132715000Y-33020000D02*
X132715000Y-33370000D01*
%TD*%
%TA.AperFunction,Conductor*%
%TO.N,GND*%
G36*
X115043386Y-36568230D02*
G01*
X115044588Y-36568087D01*
X115078204Y-36578841D01*
X115082173Y-36580770D01*
X115100763Y-36591503D01*
X115108546Y-36593588D01*
X115119205Y-36598769D01*
X115170895Y-36645779D01*
X115189000Y-36710294D01*
X115189000Y-39246000D01*
X115169315Y-39313039D01*
X115116511Y-39358794D01*
X115065000Y-39370000D01*
X111778110Y-39370000D01*
X111711071Y-39350315D01*
X111690429Y-39333681D01*
X111596819Y-39240071D01*
X111563334Y-39178748D01*
X111560500Y-39152390D01*
X111560500Y-37880861D01*
X111580185Y-37813822D01*
X111596819Y-37793180D01*
X111610000Y-37779999D01*
X111910000Y-37779999D01*
X112104786Y-37779999D01*
X112104808Y-37779997D01*
X112129869Y-37777091D01*
X112129873Y-37777090D01*
X112232474Y-37731788D01*
X112232479Y-37731785D01*
X112307319Y-37656946D01*
X112368642Y-37623461D01*
X112438334Y-37628445D01*
X112482681Y-37656946D01*
X112557520Y-37731785D01*
X112557525Y-37731788D01*
X112660123Y-37777089D01*
X112685206Y-37779999D01*
X112879999Y-37779999D01*
X113180000Y-37779999D01*
X113374786Y-37779999D01*
X113374808Y-37779997D01*
X113399869Y-37777091D01*
X113399873Y-37777090D01*
X113502474Y-37731788D01*
X113502479Y-37731785D01*
X113577319Y-37656946D01*
X113638642Y-37623461D01*
X113708334Y-37628445D01*
X113752681Y-37656946D01*
X113827520Y-37731785D01*
X113827525Y-37731788D01*
X113930123Y-37777089D01*
X113955206Y-37779999D01*
X114149999Y-37779999D01*
X114450000Y-37779999D01*
X114644786Y-37779999D01*
X114644808Y-37779997D01*
X114669869Y-37777091D01*
X114669873Y-37777090D01*
X114772474Y-37731788D01*
X114772479Y-37731785D01*
X114851785Y-37652479D01*
X114851788Y-37652474D01*
X114897089Y-37549877D01*
X114897089Y-37549875D01*
X114899999Y-37524794D01*
X114900000Y-37524791D01*
X114900000Y-36980000D01*
X114450000Y-36980000D01*
X114450000Y-37779999D01*
X114149999Y-37779999D01*
X114150000Y-37779998D01*
X114150000Y-36980000D01*
X113180000Y-36980000D01*
X113180000Y-37779999D01*
X112879999Y-37779999D01*
X112880000Y-37779998D01*
X112880000Y-36980000D01*
X111910000Y-36980000D01*
X111910000Y-37779999D01*
X111610000Y-37779999D01*
X111610000Y-36954000D01*
X111612550Y-36945314D01*
X111611262Y-36936353D01*
X111622240Y-36912312D01*
X111629685Y-36886961D01*
X111636525Y-36881033D01*
X111640287Y-36872797D01*
X111662521Y-36858507D01*
X111682489Y-36841206D01*
X111693003Y-36838918D01*
X111699065Y-36835023D01*
X111734000Y-36830000D01*
X111760000Y-36830000D01*
X111760000Y-36804000D01*
X111779685Y-36736961D01*
X111832489Y-36691206D01*
X111884000Y-36680000D01*
X114899999Y-36680000D01*
X114903527Y-36676471D01*
X114910243Y-36655476D01*
X114919684Y-36623327D01*
X114920852Y-36622314D01*
X114921324Y-36620841D01*
X114947180Y-36599501D01*
X114972488Y-36577572D01*
X114974017Y-36577352D01*
X114975211Y-36576367D01*
X115008496Y-36572394D01*
X115041646Y-36567628D01*
X115043386Y-36568230D01*
G37*
%TD.AperFunction*%
%TD*%
%TA.AperFunction,Conductor*%
%TO.N,GND*%
G36*
X114878039Y-28594685D02*
G01*
X114923794Y-28647489D01*
X114935000Y-28699000D01*
X114935000Y-30292706D01*
X114915315Y-30359745D01*
X114862511Y-30405500D01*
X114793353Y-30415444D01*
X114767668Y-30408888D01*
X114707383Y-30386404D01*
X114707372Y-30386401D01*
X114647844Y-30380000D01*
X114550000Y-30380000D01*
X114550000Y-31406000D01*
X114530315Y-31473039D01*
X114477511Y-31518794D01*
X114426000Y-31530000D01*
X114300000Y-31530000D01*
X114300000Y-31656000D01*
X114280315Y-31723039D01*
X114227511Y-31768794D01*
X114176000Y-31780000D01*
X108074000Y-31780000D01*
X108006961Y-31760315D01*
X107961206Y-31707511D01*
X107950000Y-31656000D01*
X107950000Y-31530000D01*
X107824000Y-31530000D01*
X107756961Y-31510315D01*
X107711206Y-31457511D01*
X107700000Y-31406000D01*
X107700000Y-31280000D01*
X108200000Y-31280000D01*
X108970000Y-31280000D01*
X109470000Y-31280000D01*
X110240000Y-31280000D01*
X110740000Y-31280000D01*
X111510000Y-31280000D01*
X112010000Y-31280000D01*
X112780000Y-31280000D01*
X113280000Y-31280000D01*
X114050000Y-31280000D01*
X114050000Y-30380000D01*
X113952155Y-30380000D01*
X113892627Y-30386401D01*
X113892620Y-30386403D01*
X113757913Y-30436645D01*
X113757912Y-30436646D01*
X113739309Y-30450572D01*
X113673844Y-30474987D01*
X113605571Y-30460134D01*
X113590691Y-30450572D01*
X113572087Y-30436646D01*
X113572086Y-30436645D01*
X113437379Y-30386403D01*
X113437372Y-30386401D01*
X113377844Y-30380000D01*
X113280000Y-30380000D01*
X113280000Y-31280000D01*
X112780000Y-31280000D01*
X112780000Y-30380000D01*
X112682155Y-30380000D01*
X112622627Y-30386401D01*
X112622620Y-30386403D01*
X112487913Y-30436645D01*
X112487912Y-30436646D01*
X112469309Y-30450572D01*
X112403844Y-30474987D01*
X112335571Y-30460134D01*
X112320691Y-30450572D01*
X112302087Y-30436646D01*
X112302086Y-30436645D01*
X112167379Y-30386403D01*
X112167372Y-30386401D01*
X112107844Y-30380000D01*
X112010000Y-30380000D01*
X112010000Y-31280000D01*
X111510000Y-31280000D01*
X111510000Y-30380000D01*
X111412155Y-30380000D01*
X111352627Y-30386401D01*
X111352620Y-30386403D01*
X111217913Y-30436645D01*
X111217912Y-30436646D01*
X111199309Y-30450572D01*
X111133844Y-30474987D01*
X111065571Y-30460134D01*
X111050691Y-30450572D01*
X111032087Y-30436646D01*
X111032086Y-30436645D01*
X110897379Y-30386403D01*
X110897372Y-30386401D01*
X110837844Y-30380000D01*
X110740000Y-30380000D01*
X110740000Y-31280000D01*
X110240000Y-31280000D01*
X110240000Y-30380000D01*
X110142155Y-30380000D01*
X110082627Y-30386401D01*
X110082620Y-30386403D01*
X109947913Y-30436645D01*
X109947912Y-30436646D01*
X109929309Y-30450572D01*
X109863844Y-30474987D01*
X109795571Y-30460134D01*
X109780691Y-30450572D01*
X109762087Y-30436646D01*
X109762086Y-30436645D01*
X109627379Y-30386403D01*
X109627372Y-30386401D01*
X109567844Y-30380000D01*
X109470000Y-30380000D01*
X109470000Y-31280000D01*
X108970000Y-31280000D01*
X108970000Y-30380000D01*
X108872155Y-30380000D01*
X108812627Y-30386401D01*
X108812620Y-30386403D01*
X108677913Y-30436645D01*
X108677912Y-30436646D01*
X108659309Y-30450572D01*
X108593844Y-30474987D01*
X108525571Y-30460134D01*
X108510691Y-30450572D01*
X108492087Y-30436646D01*
X108492086Y-30436645D01*
X108357379Y-30386403D01*
X108357372Y-30386401D01*
X108297844Y-30380000D01*
X108200000Y-30380000D01*
X108200000Y-31280000D01*
X107700000Y-31280000D01*
X107700000Y-30380000D01*
X107602155Y-30380000D01*
X107542627Y-30386401D01*
X107542616Y-30386404D01*
X107482332Y-30408888D01*
X107412640Y-30413872D01*
X107351317Y-30380386D01*
X107317833Y-30319062D01*
X107315000Y-30292706D01*
X107315000Y-28699000D01*
X107334685Y-28631961D01*
X107387489Y-28586206D01*
X107439000Y-28575000D01*
X114811000Y-28575000D01*
X114878039Y-28594685D01*
G37*
%TD.AperFunction*%
%TD*%
M02*
