%TF.GenerationSoftware,KiCad,Pcbnew,10.0.3*%
%TF.CreationDate,2026-08-06T21:18:31+02:00*%
%TF.ProjectId,new_PCB,6e65775f-5043-4422-9e6b-696361645f70,rev?*%
%TF.SameCoordinates,Original*%
%TF.FileFunction,Soldermask,Bot*%
%TF.FilePolarity,Negative*%
%FSLAX46Y46*%
G04 Gerber Fmt 4.6, Leading zero omitted, Abs format (unit mm)*
G04 Created by KiCad (PCBNEW 10.0.3) date 2026-08-06 21:18:31*
%MOMM*%
%LPD*%
G01*
G04 APERTURE LIST*
G04 Aperture macros list*
%AMRoundRect*
0 Rectangle with rounded corners*
0 $1 Rounding radius*
0 $2 $3 $4 $5 $6 $7 $8 $9 X,Y pos of 4 corners*
0 Add a 4 corners polygon primitive as box body*
4,1,4,$2,$3,$4,$5,$6,$7,$8,$9,$2,$3,0*
0 Add four circle primitives for the rounded corners*
1,1,$1+$1,$2,$3*
1,1,$1+$1,$4,$5*
1,1,$1+$1,$6,$7*
1,1,$1+$1,$8,$9*
0 Add four rect primitives between the rounded corners*
20,1,$1+$1,$2,$3,$4,$5,0*
20,1,$1+$1,$4,$5,$6,$7,0*
20,1,$1+$1,$6,$7,$8,$9,0*
20,1,$1+$1,$8,$9,$2,$3,0*%
G04 Aperture macros list end*
%ADD10RoundRect,0.102000X-1.858000X1.858000X-1.858000X-1.858000X1.858000X-1.858000X1.858000X1.858000X0*%
%ADD11C,3.920000*%
%ADD12O,2.804000X1.504000*%
%ADD13C,1.397000*%
%ADD14C,1.600000*%
%ADD15O,1.600000X1.600000*%
%ADD16C,3.200000*%
%ADD17RoundRect,0.102000X-0.765000X0.765000X-0.765000X-0.765000X0.765000X-0.765000X0.765000X0.765000X0*%
%ADD18C,1.734000*%
%ADD19RoundRect,0.250000X-0.550000X-0.550000X0.550000X-0.550000X0.550000X0.550000X-0.550000X0.550000X0*%
G04 APERTURE END LIST*
D10*
%TO.C,J2*%
X32035000Y-40665000D03*
D11*
X32035000Y-33465000D03*
D12*
X26035000Y-30315000D03*
X26035000Y-43815000D03*
%TD*%
D10*
%TO.C,J1*%
X32035000Y-68770000D03*
D11*
X32035000Y-61570000D03*
D12*
X26035000Y-58420000D03*
X26035000Y-71920000D03*
%TD*%
D13*
%TO.C,J7*%
X92500000Y-74930000D03*
X92500000Y-77430000D03*
X92500000Y-79930000D03*
%TD*%
D14*
%TO.C,U2*%
X55372000Y-60452000D03*
X57912000Y-60452000D03*
D15*
X66040000Y-60452000D03*
X68580000Y-60452000D03*
X68580000Y-41910000D03*
X66040000Y-41910000D03*
D14*
X57912000Y-41910000D03*
X55372000Y-41910000D03*
%TD*%
D16*
%TO.C,H1*%
X146000000Y-21590000D03*
%TD*%
D13*
%TO.C,J3*%
X55000000Y-21590000D03*
X55000000Y-24090000D03*
X55000000Y-26590000D03*
%TD*%
%TO.C,J5*%
X130000000Y-21590000D03*
X130000000Y-24090000D03*
X130000000Y-26590000D03*
%TD*%
D17*
%TO.C,U1*%
X143000000Y-43650500D03*
D18*
X140460000Y-43650500D03*
X137920000Y-43650500D03*
X135380000Y-43650500D03*
X132840000Y-43650500D03*
X130300000Y-43650500D03*
X127760000Y-43650500D03*
X125220000Y-43650500D03*
X122680000Y-43650500D03*
X120140000Y-43650500D03*
X117600000Y-43650500D03*
X115060000Y-43650500D03*
X112520000Y-43650500D03*
X109980000Y-43650500D03*
X107440000Y-43650500D03*
X104900000Y-43650500D03*
X102360000Y-43650500D03*
X99820000Y-43650500D03*
X97280000Y-43650500D03*
X94740000Y-43650500D03*
X92200000Y-43650500D03*
X89660000Y-43650500D03*
X143000000Y-66510500D03*
X140460000Y-66510500D03*
X137920000Y-66510500D03*
X135380000Y-66510500D03*
X132840000Y-66510500D03*
X130300000Y-66510500D03*
X127760000Y-66510500D03*
X125220000Y-66510500D03*
X122680000Y-66510500D03*
X120140000Y-66510500D03*
X117600000Y-66510500D03*
X115060000Y-66510500D03*
X112520000Y-66510500D03*
X109980000Y-66510500D03*
X107440000Y-66510500D03*
X104900000Y-66510500D03*
X102360000Y-66510500D03*
X99820000Y-66510500D03*
X97280000Y-66510500D03*
X94740000Y-66510500D03*
X92200000Y-66510500D03*
X89660000Y-66510500D03*
%TD*%
D16*
%TO.C,H2*%
X24130000Y-21590000D03*
%TD*%
D13*
%TO.C,J8*%
X130000000Y-74930000D03*
X130000000Y-77430000D03*
X130000000Y-79930000D03*
%TD*%
D19*
%TO.C,C2*%
X55285000Y-35560000D03*
D14*
X57785000Y-35560000D03*
%TD*%
D13*
%TO.C,J6*%
X55000000Y-74930000D03*
X55000000Y-77430000D03*
X55000000Y-79930000D03*
%TD*%
D16*
%TO.C,H3*%
X146000000Y-80010000D03*
%TD*%
%TO.C,H4*%
X24130000Y-80010000D03*
%TD*%
D13*
%TO.C,J4*%
X92500000Y-21590000D03*
X92500000Y-24090000D03*
X92500000Y-26590000D03*
%TD*%
M02*
