%TF.GenerationSoftware,KiCad,Pcbnew,10.0.6-10.0.6~ubuntu24.04.1*%
%TF.CreationDate,2026-09-13T15:43:51+02:00*%
%TF.ProjectId,new_PCB,6e65775f-5043-4422-9e6b-696361645f70,rev?*%
%TF.SameCoordinates,Original*%
%TF.FileFunction,Copper,L1,Top*%
%TF.FilePolarity,Positive*%
%FSLAX46Y46*%
G04 Gerber Fmt 4.6, Leading zero omitted, Abs format (unit mm)*
G04 Created by KiCad (PCBNEW 10.0.6-10.0.6~ubuntu24.04.1) date 2026-09-13 15:43:51*
%MOMM*%
%LPD*%
G01*
G04 APERTURE LIST*
G04 Aperture macros list*
%AMRoundRect*
0 Rectangle with rounded corners*
0 $1 Rounding radius*
0 $2 $3 $4 $5 $6 $7 $8 $9 X,Y pos of 4 corners*
0 Add a 4 corners polygon primitive as box body*
4,1,4,$2,$3,$4,$5,$6,$7,$8,$9,$2,$3,0*
0 Add four circle primitives for the rounded corners*
1,1,$1+$1,$2,$3*
1,1,$1+$1,$4,$5*
1,1,$1+$1,$6,$7*
1,1,$1+$1,$8,$9*
0 Add four rect primitives between the rounded corners*
20,1,$1+$1,$2,$3,$4,$5,0*
20,1,$1+$1,$4,$5,$6,$7,0*
20,1,$1+$1,$6,$7,$8,$9,0*
20,1,$1+$1,$8,$9,$2,$3,0*%
G04 Aperture macros list end*
%TA.AperFunction,ComponentPad*%
%ADD10C,3.716000*%
%TD*%
%TA.AperFunction,ComponentPad*%
%ADD11R,3.716000X3.716000*%
%TD*%
%TA.AperFunction,ComponentPad*%
%ADD12O,2.600000X1.300000*%
%TD*%
%TA.AperFunction,SMDPad,CuDef*%
%ADD13RoundRect,0.250000X-0.600000X0.400000X-0.600000X-0.400000X0.600000X-0.400000X0.600000X0.400000X0*%
%TD*%
%TA.AperFunction,SMDPad,CuDef*%
%ADD14RoundRect,0.250000X0.350000X-0.850000X0.350000X0.850000X-0.350000X0.850000X-0.350000X-0.850000X0*%
%TD*%
%TA.AperFunction,SMDPad,CuDef*%
%ADD15RoundRect,0.249997X2.650003X-2.950003X2.650003X2.950003X-2.650003X2.950003X-2.650003X-2.950003X0*%
%TD*%
%TA.AperFunction,ComponentPad*%
%ADD16RoundRect,0.250000X0.550000X-0.550000X0.550000X0.550000X-0.550000X0.550000X-0.550000X-0.550000X0*%
%TD*%
%TA.AperFunction,ComponentPad*%
%ADD17C,1.600000*%
%TD*%
%TA.AperFunction,SMDPad,CuDef*%
%ADD18RoundRect,0.250000X-0.450000X0.350000X-0.450000X-0.350000X0.450000X-0.350000X0.450000X0.350000X0*%
%TD*%
%TA.AperFunction,SMDPad,CuDef*%
%ADD19RoundRect,0.250000X0.475000X-0.250000X0.475000X0.250000X-0.475000X0.250000X-0.475000X-0.250000X0*%
%TD*%
%TA.AperFunction,SMDPad,CuDef*%
%ADD20R,1.300000X0.600000*%
%TD*%
%TA.AperFunction,ComponentPad*%
%ADD21R,1.530000X1.530000*%
%TD*%
%TA.AperFunction,ComponentPad*%
%ADD22C,1.530000*%
%TD*%
%TA.AperFunction,SMDPad,CuDef*%
%ADD23RoundRect,0.250000X0.350000X0.450000X-0.350000X0.450000X-0.350000X-0.450000X0.350000X-0.450000X0*%
%TD*%
%TA.AperFunction,SMDPad,CuDef*%
%ADD24R,0.600000X1.300000*%
%TD*%
%TA.AperFunction,ComponentPad*%
%ADD25C,1.397000*%
%TD*%
%TA.AperFunction,SMDPad,CuDef*%
%ADD26RoundRect,0.250000X0.450000X-0.350000X0.450000X0.350000X-0.450000X0.350000X-0.450000X-0.350000X0*%
%TD*%
%TA.AperFunction,SMDPad,CuDef*%
%ADD27RoundRect,0.250000X-0.250000X-0.475000X0.250000X-0.475000X0.250000X0.475000X-0.250000X0.475000X0*%
%TD*%
%TA.AperFunction,SMDPad,CuDef*%
%ADD28RoundRect,0.250000X0.250000X0.475000X-0.250000X0.475000X-0.250000X-0.475000X0.250000X-0.475000X0*%
%TD*%
%TA.AperFunction,ComponentPad*%
%ADD29RoundRect,0.250000X0.550000X0.550000X-0.550000X0.550000X-0.550000X-0.550000X0.550000X-0.550000X0*%
%TD*%
%TA.AperFunction,SMDPad,CuDef*%
%ADD30RoundRect,0.250000X0.850000X0.350000X-0.850000X0.350000X-0.850000X-0.350000X0.850000X-0.350000X0*%
%TD*%
%TA.AperFunction,SMDPad,CuDef*%
%ADD31RoundRect,0.249997X2.950003X2.650003X-2.950003X2.650003X-2.950003X-2.650003X2.950003X-2.650003X0*%
%TD*%
%TA.AperFunction,ComponentPad*%
%ADD32R,1.700000X1.700000*%
%TD*%
%TA.AperFunction,ComponentPad*%
%ADD33C,1.700000*%
%TD*%
%TA.AperFunction,SMDPad,CuDef*%
%ADD34RoundRect,0.250000X-0.350000X-0.450000X0.350000X-0.450000X0.350000X0.450000X-0.350000X0.450000X0*%
%TD*%
%TA.AperFunction,SMDPad,CuDef*%
%ADD35RoundRect,0.250000X0.400000X0.600000X-0.400000X0.600000X-0.400000X-0.600000X0.400000X-0.600000X0*%
%TD*%
%TA.AperFunction,ComponentPad*%
%ADD36O,1.600000X1.600000*%
%TD*%
%TA.AperFunction,ViaPad*%
%ADD37C,0.600000*%
%TD*%
%TA.AperFunction,Conductor*%
%ADD38C,0.500000*%
%TD*%
%TA.AperFunction,Conductor*%
%ADD39C,1.000000*%
%TD*%
%TA.AperFunction,Conductor*%
%ADD40C,3.500000*%
%TD*%
%TA.AperFunction,Conductor*%
%ADD41C,3.000000*%
%TD*%
%TA.AperFunction,Conductor*%
%ADD42C,6.000000*%
%TD*%
%TA.AperFunction,Conductor*%
%ADD43C,1.500000*%
%TD*%
%TA.AperFunction,Conductor*%
%ADD44C,5.500000*%
%TD*%
%TA.AperFunction,Conductor*%
%ADD45C,0.250000*%
%TD*%
%TA.AperFunction,Conductor*%
%ADD46C,2.500000*%
%TD*%
G04 APERTURE END LIST*
D10*
%TO.P,J1,1,P_1*%
%TO.N,VBAT_1*%
X39245000Y-87108750D03*
D11*
%TO.P,J1,2,N_2*%
%TO.N,GND*%
X39245000Y-94308750D03*
D12*
%TO.P,J1,SH1,SHIELD_SH1*%
%TO.N,unconnected-(J1-SHIELD-PadSH1)*%
X33245000Y-83958750D03*
%TO.P,J1,SH2,SHIELD_SH2*%
%TO.N,unconnected-(J1-SHIELD-PadSH1)_1*%
X33245000Y-97458750D03*
%TD*%
D10*
%TO.P,J2,1,P_1*%
%TO.N,VBAT_2*%
X39245000Y-57608750D03*
D11*
%TO.P,J2,2,N_2*%
%TO.N,GND*%
X39245000Y-64808750D03*
D12*
%TO.P,J2,SH1,SHIELD_SH1*%
%TO.N,unconnected-(J2-SHIELD-PadSH1)*%
X33245000Y-54458750D03*
%TO.P,J2,SH2,SHIELD_SH2*%
%TO.N,unconnected-(J2-SHIELD-PadSH1)_1*%
X33245000Y-67958750D03*
%TD*%
D13*
%TO.P,D2,1,K_1*%
%TO.N,VBUS_2*%
X48000000Y-45000000D03*
%TO.P,D2,2,A_2*%
%TO.N,/Q2_GATE*%
X48000000Y-48500000D03*
%TD*%
D14*
%TO.P,Q1,1,G_1*%
%TO.N,/Q1_GATE*%
X48011250Y-94245000D03*
D15*
%TO.P,Q1,2,D_2*%
%TO.N,VBAT_1*%
X50291250Y-87945000D03*
D14*
%TO.P,Q1,3,S_3*%
%TO.N,VBUS_1*%
X52571250Y-94245000D03*
%TD*%
D16*
%TO.P,C9,1*%
%TO.N,VBUS_1*%
X121550000Y-108700000D03*
D17*
%TO.P,C9,2*%
%TO.N,GND*%
X121550000Y-106200000D03*
%TD*%
D18*
%TO.P,R3,1*%
%TO.N,+3V3*%
X123855000Y-48564500D03*
%TO.P,R3,2*%
%TO.N,/TXEN1*%
X123855000Y-50564500D03*
%TD*%
D19*
%TO.P,C18,1*%
%TO.N,VBUS_2*%
X115900000Y-33650000D03*
%TO.P,C18,2*%
%TO.N,GND*%
X115900000Y-31750000D03*
%TD*%
D20*
%TO.P,U4,1,1A_1*%
%TO.N,/TXEN2*%
X102405000Y-60299500D03*
%TO.P,U4,2,1Y_2*%
%TO.N,/RXEN2*%
X102405000Y-59029500D03*
%TO.P,U4,3,2A_3*%
%TO.N,/TXEN1*%
X102405000Y-57759500D03*
%TO.P,U4,4,2Y_4*%
%TO.N,/RXEN1*%
X102405000Y-56489500D03*
%TO.P,U4,5,3A_5*%
%TO.N,GND*%
X102405000Y-55219500D03*
%TO.P,U4,6,3Y_6*%
%TO.N,unconnected-(U4-3Y-Pad6)*%
X102405000Y-53949500D03*
%TO.P,U4,7,GND_7*%
%TO.N,GND*%
X102405000Y-52679500D03*
%TO.P,U4,8,4Y_8*%
%TO.N,unconnected-(U4-4Y-Pad8)*%
X97105000Y-52679500D03*
%TO.P,U4,9,4A_9*%
%TO.N,GND*%
X97105000Y-53949500D03*
%TO.P,U4,10,5Y_10*%
%TO.N,unconnected-(U4-5Y-Pad10)*%
X97105000Y-55219500D03*
%TO.P,U4,11,5A_11*%
%TO.N,GND*%
X97105000Y-56489500D03*
%TO.P,U4,12,6Y_12*%
%TO.N,unconnected-(U4-6Y-Pad12)*%
X97105000Y-57759500D03*
%TO.P,U4,13,6A_13*%
%TO.N,GND*%
X97105000Y-59029500D03*
%TO.P,U4,14,VCC_14*%
%TO.N,+3V3*%
X97105000Y-60299500D03*
%TD*%
D21*
%TO.P,U1,J1_1,+3V3_J1_1*%
%TO.N,+3V3*%
X127220000Y-65645000D03*
D22*
%TO.P,U1,J1_2,+3V3_J1_2*%
X124680000Y-65645000D03*
%TO.P,U1,J1_3,RST_J1_3*%
%TO.N,unconnected-(U1-RST-PadJ1_3)*%
X122140000Y-65645000D03*
%TO.P,U1,J1_4,GPIO4_J1_4*%
%TO.N,/RX2*%
X119600000Y-65645000D03*
%TO.P,U1,J1_5,GPIO5_J1_5*%
%TO.N,/TX2*%
X117060000Y-65645000D03*
%TO.P,U1,J1_6,GPIO6_J1_6*%
%TO.N,unconnected-(U1-GPIO6-PadJ1_6)*%
X114520000Y-65645000D03*
%TO.P,U1,J1_7,GPIO7_J1_7*%
%TO.N,/TXEN1*%
X111980000Y-65645000D03*
%TO.P,U1,J1_8,GPIO15_J1_8*%
%TO.N,unconnected-(U1-GPIO15-PadJ1_8)*%
X109440000Y-65645000D03*
%TO.P,U1,J1_9,GPIO16_J1_9*%
%TO.N,unconnected-(U1-GPIO16-PadJ1_9)*%
X106900000Y-65645000D03*
%TO.P,U1,J1_10,GPIO17_J1_10*%
%TO.N,/TX1*%
X104360000Y-65645000D03*
%TO.P,U1,J1_11,GPIO18_J1_11*%
%TO.N,/RX1*%
X101820000Y-65645000D03*
%TO.P,U1,J1_12,GPIO8_J1_12*%
%TO.N,/TXEN2*%
X99280000Y-65645000D03*
%TO.P,U1,J1_13,GPIO3_J1_13*%
%TO.N,unconnected-(U1-GPIO3-PadJ1_13)*%
X96740000Y-65645000D03*
%TO.P,U1,J1_14,GPIO46_J1_14*%
%TO.N,unconnected-(U1-GPIO46-PadJ1_14)*%
X94200000Y-65645000D03*
%TO.P,U1,J1_15,GPIO9_J1_15*%
%TO.N,unconnected-(U1-GPIO9-PadJ1_15)*%
X91660000Y-65645000D03*
%TO.P,U1,J1_16,GPIO10_J1_16*%
%TO.N,unconnected-(U1-GPIO10-PadJ1_16)*%
X89120000Y-65645000D03*
%TO.P,U1,J1_17,GPIO11_J1_17*%
%TO.N,unconnected-(U1-GPIO11-PadJ1_17)*%
X86580000Y-65645000D03*
%TO.P,U1,J1_18,GPIO12_J1_18*%
%TO.N,unconnected-(U1-GPIO12-PadJ1_18)*%
X84040000Y-65645000D03*
%TO.P,U1,J1_19,GPIO13_J1_19*%
%TO.N,unconnected-(U1-GPIO13-PadJ1_19)*%
X81500000Y-65645000D03*
%TO.P,U1,J1_20,GPIO14_J1_20*%
%TO.N,unconnected-(U1-GPIO14-PadJ1_20)*%
X78960000Y-65645000D03*
%TO.P,U1,J1_21,+5V_J1_21*%
%TO.N,+5V*%
X76420000Y-65645000D03*
%TO.P,U1,J1_22,GND_J1_22*%
%TO.N,GND*%
X73880000Y-65645000D03*
%TO.P,U1,J3_1,GND_J3_1*%
X127220000Y-91355000D03*
%TO.P,U1,J3_2,U0TXD/GPIO43_J3_2*%
%TO.N,unconnected-(U1-U0TXD{slash}GPIO43-PadJ3_2)*%
X124680000Y-91355000D03*
%TO.P,U1,J3_3,U0RXD/GPIO44_J3_3*%
%TO.N,unconnected-(U1-U0RXD{slash}GPIO44-PadJ3_3)*%
X122140000Y-91355000D03*
%TO.P,U1,J3_4,GPIO1_J3_4*%
%TO.N,/BAT_LVL*%
X119600000Y-91355000D03*
%TO.P,U1,J3_5,GPIO2_J3_5*%
%TO.N,unconnected-(U1-GPIO2-PadJ3_5)*%
X117060000Y-91355000D03*
%TO.P,U1,J3_6,MTMS/GPIO42_J3_6*%
%TO.N,unconnected-(U1-MTMS{slash}GPIO42-PadJ3_6)*%
X114520000Y-91355000D03*
%TO.P,U1,J3_7,MTDI/GPIO41_J3_7*%
%TO.N,unconnected-(U1-MTDI{slash}GPIO41-PadJ3_7)*%
X111980000Y-91355000D03*
%TO.P,U1,J3_8,MTDO/GPIO40_J3_8*%
%TO.N,unconnected-(U1-MTDO{slash}GPIO40-PadJ3_8)*%
X109440000Y-91355000D03*
%TO.P,U1,J3_9,MTCK/GPIO39_J3_9*%
%TO.N,unconnected-(U1-MTCK{slash}GPIO39-PadJ3_9)*%
X106900000Y-91355000D03*
%TO.P,U1,J3_10,GPIO38_J3_10*%
%TO.N,unconnected-(U1-GPIO38-PadJ3_10)*%
X104360000Y-91355000D03*
%TO.P,U1,J3_11,GPIO37_J3_11*%
%TO.N,unconnected-(U1-GPIO37-PadJ3_11)*%
X101820000Y-91355000D03*
%TO.P,U1,J3_12,GPIO36_J3_12*%
%TO.N,unconnected-(U1-GPIO36-PadJ3_12)*%
X99280000Y-91355000D03*
%TO.P,U1,J3_13,GPIO35_J3_13*%
%TO.N,unconnected-(U1-GPIO35-PadJ3_13)*%
X96740000Y-91355000D03*
%TO.P,U1,J3_14,GPIO0_J3_14*%
%TO.N,unconnected-(U1-GPIO0-PadJ3_14)*%
X94200000Y-91355000D03*
%TO.P,U1,J3_15,GPIO45_J3_15*%
%TO.N,unconnected-(U1-GPIO45-PadJ3_15)*%
X91660000Y-91355000D03*
%TO.P,U1,J3_16,GPIO48_J3_16*%
%TO.N,unconnected-(U1-GPIO48-PadJ3_16)*%
X89120000Y-91355000D03*
%TO.P,U1,J3_17,GPIO47_J3_17*%
%TO.N,unconnected-(U1-GPIO47-PadJ3_17)*%
X86580000Y-91355000D03*
%TO.P,U1,J3_18,GPIO21_J3_18*%
%TO.N,unconnected-(U1-GPIO21-PadJ3_18)*%
X84040000Y-91355000D03*
%TO.P,U1,J3_19,USB_D+/GPIO20_J3_19*%
%TO.N,unconnected-(U1-USB_D+{slash}GPIO20-PadJ3_19)*%
X81500000Y-91355000D03*
%TO.P,U1,J3_20,USB_D-/GPIO19_J3_20*%
%TO.N,unconnected-(U1-USB_D-{slash}GPIO19-PadJ3_20)*%
X78960000Y-91355000D03*
%TO.P,U1,J3_21,GND_J3_21*%
%TO.N,GND*%
X76420000Y-91355000D03*
%TO.P,U1,J3_22,GND_J3_22*%
X73880000Y-91355000D03*
%TD*%
D19*
%TO.P,C14,1*%
%TO.N,VBUS_2*%
X44851100Y-33639600D03*
%TO.P,C14,2*%
%TO.N,GND*%
X44851100Y-31739600D03*
%TD*%
D23*
%TO.P,R6,1*%
%TO.N,+3V3*%
X120575000Y-58909500D03*
%TO.P,R6,2*%
%TO.N,/SERVO_DATA2*%
X118575000Y-58909500D03*
%TD*%
D16*
%TO.P,C2,1*%
%TO.N,VBUS_2*%
X34650000Y-75632379D03*
D17*
%TO.P,C2,2*%
%TO.N,GND*%
X34650000Y-73132379D03*
%TD*%
D24*
%TO.P,U3,1,1/OE_1*%
%TO.N,/TXEN1*%
X120675000Y-50014500D03*
%TO.P,U3,2,1A_2*%
%TO.N,/TX1*%
X119405000Y-50014500D03*
%TO.P,U3,3,1Y_3*%
%TO.N,/125_OUTPUT_RES_1*%
X118135000Y-50014500D03*
%TO.P,U3,4,2/OE_4*%
%TO.N,/RXEN1*%
X116865000Y-50014500D03*
%TO.P,U3,5,2A_5*%
%TO.N,/SERVO_DATA1*%
X115595000Y-50014500D03*
%TO.P,U3,6,2Y_6*%
%TO.N,/RX1*%
X114325000Y-50014500D03*
%TO.P,U3,7,GND_7*%
%TO.N,GND*%
X113055000Y-50014500D03*
%TO.P,U3,8,3Y_8*%
%TO.N,/125_OUTPUT_RES_2*%
X113055000Y-55314500D03*
%TO.P,U3,9,3A_9*%
%TO.N,/TX2*%
X114325000Y-55314500D03*
%TO.P,U3,10,3/OE_10*%
%TO.N,/TXEN2*%
X115595000Y-55314500D03*
%TO.P,U3,11,4Y_11*%
%TO.N,/RX2*%
X116865000Y-55314500D03*
%TO.P,U3,12,4A_12*%
%TO.N,/SERVO_DATA2*%
X118135000Y-55314500D03*
%TO.P,U3,13,4/OE_13*%
%TO.N,/RXEN2*%
X119405000Y-55314500D03*
%TO.P,U3,14,VCC_14*%
%TO.N,+3V3*%
X120675000Y-55314500D03*
%TD*%
D18*
%TO.P,R4,1*%
%TO.N,+3V3*%
X112155000Y-45664500D03*
%TO.P,R4,2*%
%TO.N,/TXEN2*%
X112155000Y-47664500D03*
%TD*%
D25*
%TO.P,J3,1,1_1*%
%TO.N,GND*%
X39850000Y-31500000D03*
%TO.P,J3,2,2_2*%
%TO.N,VBUS_2*%
X39850000Y-34000000D03*
%TO.P,J3,3,3_3*%
%TO.N,/SERVO_DATA1*%
X39850000Y-36500000D03*
%TD*%
D26*
%TO.P,R9,1*%
%TO.N,/BAT_LVL_DIV*%
X119630000Y-96255000D03*
%TO.P,R9,2*%
%TO.N,/BAT_LVL*%
X119630000Y-94255000D03*
%TD*%
D27*
%TO.P,C4,1*%
%TO.N,+3V3*%
X122705000Y-55314500D03*
%TO.P,C4,2*%
%TO.N,GND*%
X124605000Y-55314500D03*
%TD*%
D25*
%TO.P,J4,1,1_1*%
%TO.N,GND*%
X75350000Y-31500000D03*
%TO.P,J4,2,2_2*%
%TO.N,VBUS_2*%
X75350000Y-34000000D03*
%TO.P,J4,3,3_3*%
%TO.N,/SERVO_DATA1*%
X75350000Y-36500000D03*
%TD*%
D19*
%TO.P,C5,1*%
%TO.N,+3V3*%
X94733548Y-60310774D03*
%TO.P,C5,2*%
%TO.N,GND*%
X94733548Y-58410774D03*
%TD*%
D28*
%TO.P,C19,1*%
%TO.N,+5V*%
X76030000Y-60005000D03*
%TO.P,C19,2*%
%TO.N,GND*%
X74130000Y-60005000D03*
%TD*%
D18*
%TO.P,R13,1*%
%TO.N,+3V3*%
X110105000Y-45664500D03*
%TO.P,R13,2*%
%TO.N,/TX2*%
X110105000Y-47664500D03*
%TD*%
D16*
%TO.P,C17,1*%
%TO.N,VBUS_2*%
X121250000Y-33932380D03*
D17*
%TO.P,C17,2*%
%TO.N,GND*%
X121250000Y-31432380D03*
%TD*%
D29*
%TO.P,C6,1*%
%TO.N,/+5V_RAW*%
X62750000Y-83750000D03*
D17*
%TO.P,C6,2*%
%TO.N,GND*%
X60250000Y-83750000D03*
%TD*%
D25*
%TO.P,J6,1,1_1*%
%TO.N,GND*%
X39848900Y-106410400D03*
%TO.P,J6,2,2_2*%
%TO.N,VBUS_1*%
X39848900Y-108910400D03*
%TO.P,J6,3,3_3*%
%TO.N,/SERVO_DATA2*%
X39848900Y-111410400D03*
%TD*%
D30*
%TO.P,Q2,1,G_1*%
%TO.N,/Q2_GATE*%
X44040000Y-49030000D03*
D31*
%TO.P,Q2,2,D_2*%
%TO.N,VBAT_2*%
X37740000Y-46750000D03*
D30*
%TO.P,Q2,3,S_3*%
%TO.N,VBUS_2*%
X44040000Y-44470000D03*
%TD*%
D27*
%TO.P,C20,1*%
%TO.N,+3V3*%
X122705000Y-57364500D03*
%TO.P,C20,2*%
%TO.N,GND*%
X124605000Y-57364500D03*
%TD*%
D23*
%TO.P,R15,1*%
%TO.N,/125_OUTPUT_RES_1*%
X118155000Y-47564500D03*
%TO.P,R15,2*%
%TO.N,/SERVO_DATA1*%
X116155000Y-47564500D03*
%TD*%
D25*
%TO.P,J8,1,1_1*%
%TO.N,GND*%
X110848900Y-106410400D03*
%TO.P,J8,2,2_2*%
%TO.N,VBUS_1*%
X110848900Y-108910400D03*
%TO.P,J8,3,3_3*%
%TO.N,/SERVO_DATA2*%
X110848900Y-111410400D03*
%TD*%
D16*
%TO.P,C8,1*%
%TO.N,VBUS_1*%
X85998900Y-108810400D03*
D17*
%TO.P,C8,2*%
%TO.N,GND*%
X85998900Y-106310400D03*
%TD*%
D25*
%TO.P,J7,1,1_1*%
%TO.N,GND*%
X75348900Y-106410400D03*
%TO.P,J7,2,2_2*%
%TO.N,VBUS_1*%
X75348900Y-108910400D03*
%TO.P,J7,3,3_3*%
%TO.N,/SERVO_DATA2*%
X75348900Y-111410400D03*
%TD*%
D32*
%TO.P,J9,1,Pin_1_1*%
%TO.N,/+5V_RAW*%
X60000000Y-90250000D03*
D33*
%TO.P,J9,2,Pin_2_2*%
%TO.N,+5V*%
X62540000Y-90250000D03*
%TD*%
D34*
%TO.P,R7,1*%
%TO.N,VBUS_1*%
X115550000Y-96250000D03*
%TO.P,R7,2*%
%TO.N,/BAT_LVL_DIV*%
X117550000Y-96250000D03*
%TD*%
D19*
%TO.P,C16,1*%
%TO.N,VBUS_2*%
X80351100Y-33489600D03*
%TO.P,C16,2*%
%TO.N,GND*%
X80351100Y-31589600D03*
%TD*%
D16*
%TO.P,C15,1*%
%TO.N,VBUS_2*%
X85751100Y-33689600D03*
D17*
%TO.P,C15,2*%
%TO.N,GND*%
X85751100Y-31189600D03*
%TD*%
D23*
%TO.P,R5,1*%
%TO.N,+3V3*%
X120575000Y-61009500D03*
%TO.P,R5,2*%
%TO.N,/RX2*%
X118575000Y-61009500D03*
%TD*%
D18*
%TO.P,R2,1*%
%TO.N,+3V3*%
X116255000Y-43614500D03*
%TO.P,R2,2*%
%TO.N,/SERVO_DATA1*%
X116255000Y-45614500D03*
%TD*%
D23*
%TO.P,R12,1*%
%TO.N,+3V3*%
X123905000Y-46564500D03*
%TO.P,R12,2*%
%TO.N,/TX1*%
X121905000Y-46564500D03*
%TD*%
D35*
%TO.P,D1,1,K_1*%
%TO.N,VBUS_1*%
X52000000Y-98000000D03*
%TO.P,D1,2,A_2*%
%TO.N,/Q1_GATE*%
X48500000Y-98000000D03*
%TD*%
D23*
%TO.P,R14,1*%
%TO.N,/SERVO_DATA2*%
X115105000Y-57864500D03*
%TO.P,R14,2*%
%TO.N,/125_OUTPUT_RES_2*%
X113105000Y-57864500D03*
%TD*%
D17*
%TO.P,U2,1,OUT+_1*%
%TO.N,/+5V_RAW*%
X62271000Y-77854000D03*
%TO.P,U2,2,OUT+_2*%
X62271000Y-75314000D03*
D36*
%TO.P,U2,3,OUT-_3*%
%TO.N,GND*%
X62271000Y-67186000D03*
%TO.P,U2,4,OUT-_4*%
X62271000Y-64646000D03*
%TO.P,U2,5,IN-_5*%
X43729000Y-64646000D03*
%TO.P,U2,6,IN-_6*%
X43729000Y-67186000D03*
D17*
%TO.P,U2,7,IN+_7*%
%TO.N,VBUS_2*%
X43729000Y-75314000D03*
%TO.P,U2,8,IN+_8*%
X43729000Y-77854000D03*
%TD*%
D18*
%TO.P,R11,1*%
%TO.N,/Q2_GATE*%
X44040000Y-52030000D03*
%TO.P,R11,2*%
%TO.N,GND*%
X44040000Y-54030000D03*
%TD*%
D16*
%TO.P,C12,1*%
%TO.N,VBUS_2*%
X50201100Y-34039600D03*
D17*
%TO.P,C12,2*%
%TO.N,GND*%
X50201100Y-31539600D03*
%TD*%
D18*
%TO.P,R1,1*%
%TO.N,+3V3*%
X114205000Y-45664500D03*
%TO.P,R1,2*%
%TO.N,/RX1*%
X114205000Y-47664500D03*
%TD*%
D26*
%TO.P,R8,1*%
%TO.N,/BAT_LVL_DIV*%
X124980000Y-96255000D03*
%TO.P,R8,2*%
%TO.N,GND*%
X124980000Y-94255000D03*
%TD*%
D19*
%TO.P,C1,1*%
%TO.N,/BAT_LVL_DIV*%
X127230000Y-96155000D03*
%TO.P,C1,2*%
%TO.N,GND*%
X127230000Y-94255000D03*
%TD*%
D29*
%TO.P,C21,1*%
%TO.N,+5V*%
X76330000Y-55005000D03*
D17*
%TO.P,C21,2*%
%TO.N,GND*%
X73830000Y-55005000D03*
%TD*%
D28*
%TO.P,C22,1*%
%TO.N,+5V*%
X76030000Y-62355000D03*
%TO.P,C22,2*%
%TO.N,GND*%
X74130000Y-62355000D03*
%TD*%
D19*
%TO.P,C10,1*%
%TO.N,VBUS_1*%
X80648900Y-108560400D03*
%TO.P,C10,2*%
%TO.N,GND*%
X80648900Y-106660400D03*
%TD*%
D25*
%TO.P,J5,1,1_1*%
%TO.N,GND*%
X110850000Y-31500000D03*
%TO.P,J5,2,2_2*%
%TO.N,VBUS_2*%
X110850000Y-34000000D03*
%TO.P,J5,3,3_3*%
%TO.N,/SERVO_DATA1*%
X110850000Y-36500000D03*
%TD*%
D19*
%TO.P,C11,1*%
%TO.N,VBUS_1*%
X116150000Y-108450000D03*
%TO.P,C11,2*%
%TO.N,GND*%
X116150000Y-106550000D03*
%TD*%
D16*
%TO.P,C7,1*%
%TO.N,VBUS_1*%
X50650000Y-109050000D03*
D17*
%TO.P,C7,2*%
%TO.N,GND*%
X50650000Y-106550000D03*
%TD*%
D19*
%TO.P,C13,1*%
%TO.N,VBUS_1*%
X45300000Y-108650000D03*
%TO.P,C13,2*%
%TO.N,GND*%
X45300000Y-106750000D03*
%TD*%
%TO.P,C3,1*%
%TO.N,VBUS_2*%
X39950000Y-75300000D03*
%TO.P,C3,2*%
%TO.N,GND*%
X39950000Y-73400000D03*
%TD*%
D23*
%TO.P,R10,1*%
%TO.N,/Q1_GATE*%
X45071250Y-94245000D03*
%TO.P,R10,2*%
%TO.N,GND*%
X43071250Y-94245000D03*
%TD*%
D37*
%TO.N,/SERVO_DATA2*%
X109625000Y-63375000D03*
X108250000Y-104250000D03*
%TO.N,GND*%
X122500000Y-52000000D03*
X119250000Y-52000000D03*
X118000000Y-52000000D03*
X93750000Y-56250000D03*
X103000000Y-50750000D03*
X99500000Y-50000000D03*
%TO.N,/SERVO_DATA2*%
X115000000Y-59500000D03*
%TO.N,/SERVO_DATA1*%
X111000000Y-40250000D03*
X118000000Y-45250000D03*
%TO.N,GND*%
X43000000Y-92700000D03*
X41405777Y-72489277D03*
X43905777Y-69989277D03*
X42340000Y-54072500D03*
%TO.N,/TXEN1*%
X123855000Y-51929500D03*
%TO.N,/TXEN2*%
X110605000Y-49529500D03*
%TO.N,/RXEN2*%
X104355000Y-59029500D03*
X119405000Y-53800000D03*
%TO.N,/RXEN1*%
X116865000Y-51750000D03*
X104355000Y-56529500D03*
%TO.N,/TX1*%
X120605000Y-46529500D03*
%TO.N,/RX1*%
X115605000Y-51529500D03*
%TD*%
%TO.N,/SERVO_DATA2*%
D38*
X108250000Y-104250000D02*
X108250000Y-91883270D01*
X108250000Y-91883270D02*
X108225000Y-91858270D01*
X108225000Y-91858270D02*
X108225000Y-64775000D01*
X108225000Y-64775000D02*
X109625000Y-63375000D01*
%TO.N,/RXEN2*%
X119405000Y-53800000D02*
X119405000Y-55314500D01*
%TO.N,GND*%
D39*
X117750000Y-52750000D02*
X118000000Y-52750000D01*
X118000000Y-52750000D02*
X118000000Y-52000000D01*
X117750000Y-52750000D02*
X119500000Y-52750000D01*
X119250000Y-52000000D02*
X119250000Y-52500000D01*
X119250000Y-52500000D02*
X119500000Y-52750000D01*
X119500000Y-52750000D02*
X122250000Y-52750000D01*
X122250000Y-52750000D02*
X122500000Y-53000000D01*
X113055000Y-50014500D02*
X113055000Y-50904576D01*
X113055000Y-50904576D02*
X114900424Y-52750000D01*
X114900424Y-52750000D02*
X116380075Y-52750000D01*
X116430075Y-52800000D02*
X117299925Y-52800000D01*
X116380075Y-52750000D02*
X116430075Y-52800000D01*
X117299925Y-52800000D02*
X117349925Y-52750000D01*
X117349925Y-52750000D02*
X117750000Y-52750000D01*
%TO.N,/RXEN1*%
D38*
X116865000Y-51750000D02*
X116865000Y-50014500D01*
%TO.N,VBUS_2*%
D40*
X54750000Y-35250000D02*
X72783744Y-35250000D01*
X55000000Y-35000000D02*
X54750000Y-35250000D01*
X55000000Y-33000000D02*
X55000000Y-35000000D01*
X53750000Y-35250000D02*
X54750000Y-35250000D01*
%TO.N,/SERVO_DATA1*%
D38*
X39850000Y-36500000D02*
X42289318Y-36500000D01*
X42289318Y-36500000D02*
X43289318Y-37500000D01*
X43289318Y-37500000D02*
X74350000Y-37500000D01*
X74350000Y-37500000D02*
X75350000Y-36500000D01*
%TO.N,VBUS_2*%
D41*
X39850000Y-34000000D02*
X43575966Y-34000000D01*
D40*
X44075966Y-34500000D02*
X49790700Y-34500000D01*
%TO.N,VBUS_1*%
D39*
X115550000Y-96250000D02*
X115550000Y-99450000D01*
X115550000Y-99450000D02*
X107039600Y-107960400D01*
X107039600Y-107960400D02*
X101500000Y-107960400D01*
%TO.N,/SERVO_DATA1*%
D38*
X75350000Y-36500000D02*
X75600000Y-36750000D01*
X75600000Y-36750000D02*
X110600000Y-36750000D01*
X110600000Y-36750000D02*
X110850000Y-36500000D01*
%TO.N,/SERVO_DATA2*%
X110848900Y-111410400D02*
X110509300Y-111750000D01*
X110509300Y-111750000D02*
X75688500Y-111750000D01*
X75688500Y-111750000D02*
X75348900Y-111410400D01*
X39848900Y-111410400D02*
X40188500Y-111750000D01*
X40188500Y-111750000D02*
X75009300Y-111750000D01*
X75009300Y-111750000D02*
X75348900Y-111410400D01*
%TO.N,VBUS_1*%
D42*
X91460400Y-107960400D02*
X101500000Y-107960400D01*
%TO.N,GND*%
D39*
X122500000Y-52000000D02*
X122500000Y-53000000D01*
X93750000Y-56250000D02*
X93772596Y-56250000D01*
X93772596Y-56250000D02*
X94733548Y-57210952D01*
X101105000Y-51379500D02*
X99500000Y-51379500D01*
X99500000Y-50000000D02*
X99500000Y-51379500D01*
X103000000Y-50750000D02*
X102370500Y-51379500D01*
X102370500Y-51379500D02*
X101105000Y-51379500D01*
%TO.N,+3V3*%
D43*
X110105000Y-45664500D02*
X97835500Y-45664500D01*
X94244514Y-60421434D02*
X94622888Y-60421434D01*
X97835500Y-45664500D02*
X92250000Y-51250000D01*
X92250000Y-51250000D02*
X92250000Y-58426920D01*
X92250000Y-58426920D02*
X94244514Y-60421434D01*
%TO.N,VBUS_2*%
D44*
X36151500Y-34968031D02*
X37083115Y-34036416D01*
X44040000Y-44470000D02*
X44040000Y-42846876D01*
X44040000Y-42846876D02*
X41391624Y-40198500D01*
X41391624Y-40198500D02*
X38318031Y-40198500D01*
X38318031Y-40198500D02*
X36151500Y-38031969D01*
X36151500Y-38031969D02*
X36151500Y-34968031D01*
%TO.N,/RX2*%
D38*
X118575000Y-61009500D02*
X119500000Y-61934500D01*
X119500000Y-61934500D02*
X119500000Y-65545000D01*
X119500000Y-65545000D02*
X119600000Y-65645000D01*
%TO.N,/SERVO_DATA2*%
D39*
X115105000Y-57864500D02*
X115105000Y-59395000D01*
D45*
X115105000Y-59395000D02*
X115000000Y-59500000D01*
%TO.N,/SERVO_DATA1*%
D38*
X110850000Y-36500000D02*
X110850000Y-40100000D01*
X110850000Y-40100000D02*
X111000000Y-40250000D01*
D39*
X116255000Y-45614500D02*
X117635500Y-45614500D01*
X117635500Y-45614500D02*
X118000000Y-45250000D01*
%TO.N,GND*%
X122500000Y-53000000D02*
X123015500Y-53000000D01*
X123015500Y-53000000D02*
X124605000Y-54589500D01*
X124605000Y-54589500D02*
X124605000Y-55314500D01*
%TO.N,VBUS_2*%
D40*
X106100000Y-33000000D02*
X107350000Y-34250000D01*
X107350000Y-34250000D02*
X109283744Y-34250000D01*
X109283744Y-34250000D02*
X109497329Y-34036415D01*
X90500000Y-33000000D02*
X89510400Y-33989600D01*
X89510400Y-33989600D02*
X85751100Y-33989600D01*
X70600000Y-33050000D02*
X73010913Y-33050000D01*
X73010913Y-33050000D02*
X73997329Y-34036416D01*
X55000000Y-33000000D02*
X52700498Y-33000000D01*
X52700498Y-33000000D02*
X51450498Y-34250000D01*
D42*
X90500000Y-33000000D02*
X106100000Y-33000000D01*
X55000000Y-33000000D02*
X70600000Y-33000000D01*
D41*
X110850000Y-34000000D02*
X114464466Y-34000000D01*
X114464466Y-34000000D02*
X114714466Y-34250000D01*
X114714466Y-34250000D02*
X120982380Y-34250000D01*
X120982380Y-34250000D02*
X121250000Y-33982380D01*
X75350000Y-34000000D02*
X79214466Y-34000000D01*
X79214466Y-34000000D02*
X79304066Y-34089600D01*
X85401100Y-34089600D02*
X85751100Y-33739600D01*
X79304066Y-34089600D02*
X85401100Y-34089600D01*
X43575966Y-34000000D02*
X43815566Y-34239600D01*
X50051100Y-34239600D02*
X50201100Y-34089600D01*
%TO.N,VBUS_1*%
X110848900Y-108910400D02*
X114874866Y-108910400D01*
X121250000Y-109050000D02*
X121550000Y-108750000D01*
X114874866Y-108910400D02*
X115014466Y-109050000D01*
X115014466Y-109050000D02*
X121250000Y-109050000D01*
X106848900Y-107960400D02*
X107798900Y-108910400D01*
X107798900Y-108910400D02*
X110848900Y-108910400D01*
X91460400Y-107960400D02*
X90560400Y-108860400D01*
X90560400Y-108860400D02*
X85998900Y-108860400D01*
D42*
X101500000Y-107960400D02*
X106848900Y-107960400D01*
D41*
X75348900Y-108910400D02*
X79363366Y-108910400D01*
X79363366Y-108910400D02*
X79613366Y-109160400D01*
X79613366Y-109160400D02*
X85698900Y-109160400D01*
X85698900Y-109160400D02*
X85998900Y-108860400D01*
X75348900Y-108910400D02*
X72545599Y-108910400D01*
X72545599Y-108910400D02*
X71795599Y-108160400D01*
D44*
X57500000Y-108160400D02*
X71795599Y-108160400D01*
D41*
X57500000Y-108160400D02*
X56560400Y-109100000D01*
X56560400Y-109100000D02*
X50650000Y-109100000D01*
X39848900Y-108910400D02*
X43874866Y-108910400D01*
X43874866Y-108910400D02*
X44214466Y-109250000D01*
X44214466Y-109250000D02*
X50500000Y-109250000D01*
X50500000Y-109250000D02*
X50650000Y-109100000D01*
D44*
X57500000Y-102557500D02*
X57500000Y-108160400D01*
X52571250Y-97628750D02*
X57500000Y-102557500D01*
%TO.N,VBAT_1*%
D42*
X39245000Y-87108750D02*
X49455000Y-87108750D01*
X49455000Y-87108750D02*
X50291250Y-87945000D01*
%TO.N,VBUS_2*%
D44*
X49973832Y-44800000D02*
X51900000Y-46726168D01*
X48000000Y-44800000D02*
X49973832Y-44800000D01*
X51900000Y-46726168D02*
X51900000Y-68600000D01*
X51900000Y-68600000D02*
X43750000Y-76750000D01*
X44040000Y-44470000D02*
X47670000Y-44470000D01*
X47670000Y-44470000D02*
X48000000Y-44800000D01*
%TO.N,/Q2_GATE*%
D39*
X44040000Y-49030000D02*
X44040000Y-52030000D01*
X48000000Y-48500000D02*
X44570000Y-48500000D01*
X44570000Y-48500000D02*
X44040000Y-49030000D01*
%TO.N,/Q1_GATE*%
X45071250Y-94245000D02*
X48011250Y-94245000D01*
X48500000Y-98000000D02*
X48500000Y-94733750D01*
X48500000Y-94733750D02*
X48011250Y-94245000D01*
%TO.N,VBAT_1*%
D44*
X50141250Y-87795000D02*
X50291250Y-87945000D01*
%TO.N,VBUS_1*%
X52571250Y-97628750D02*
X52200000Y-98000000D01*
X52571250Y-94245000D02*
X52571250Y-97628750D01*
%TO.N,GND*%
D39*
X124605000Y-55314500D02*
X124605000Y-57364500D01*
D46*
X40405777Y-71489277D02*
X40939191Y-72022691D01*
D43*
X115910400Y-106410400D02*
X110848900Y-106410400D01*
D46*
X43729000Y-67186000D02*
X42415750Y-68499250D01*
D43*
X80400000Y-106410400D02*
X75348900Y-106410400D01*
D39*
X95455000Y-53949500D02*
X94733548Y-54670952D01*
X101125000Y-55219500D02*
X100955000Y-55049500D01*
D43*
X45300000Y-106750000D02*
X45250000Y-106750000D01*
X115900000Y-31750000D02*
X115750000Y-31750000D01*
X34917621Y-73400000D02*
X34650000Y-73132379D01*
D46*
X39405777Y-71489277D02*
X40405777Y-71489277D01*
D43*
X44851100Y-31601100D02*
X44750000Y-31500000D01*
D39*
X94733548Y-52500952D02*
X94733548Y-54670952D01*
D43*
X45250000Y-106750000D02*
X44910400Y-106410400D01*
X80648900Y-106659300D02*
X80400000Y-106410400D01*
X39950000Y-73400000D02*
X34917621Y-73400000D01*
D39*
X94733548Y-58410774D02*
X95322274Y-58999500D01*
D43*
X115750000Y-31750000D02*
X115500000Y-31500000D01*
X42382500Y-54030000D02*
X42340000Y-54072500D01*
D39*
X95455000Y-56489500D02*
X94733548Y-57210952D01*
X94733548Y-54670952D02*
X94733548Y-57210952D01*
D43*
X116050000Y-106550000D02*
X115910400Y-106410400D01*
X44040000Y-54030000D02*
X42382500Y-54030000D01*
D39*
X95322274Y-58999500D02*
X97075000Y-58999500D01*
D43*
X37782621Y-73132379D02*
X34650000Y-73132379D01*
D46*
X38415750Y-72499250D02*
X38415750Y-72479304D01*
D39*
X97105000Y-53949500D02*
X95455000Y-53949500D01*
X97105000Y-56489500D02*
X95455000Y-56489500D01*
D46*
X38415750Y-72479304D02*
X39405777Y-71489277D01*
D39*
X100955000Y-52849500D02*
X101125000Y-52679500D01*
D43*
X43071250Y-92771250D02*
X43000000Y-92700000D01*
D39*
X100955000Y-55049500D02*
X100955000Y-52849500D01*
D43*
X80648900Y-106660400D02*
X80648900Y-106659300D01*
D46*
X42415750Y-68499250D02*
X38415750Y-72499250D01*
D43*
X38415750Y-72499250D02*
X37782621Y-73132379D01*
X44910400Y-106410400D02*
X39848900Y-106410400D01*
D39*
X95855000Y-51379500D02*
X94733548Y-52500952D01*
X94733548Y-57210952D02*
X94733548Y-58410774D01*
D43*
X44750000Y-31500000D02*
X39850000Y-31500000D01*
D39*
X102405000Y-52679500D02*
X101105000Y-51379500D01*
D43*
X44851100Y-31739600D02*
X44851100Y-31601100D01*
D39*
X101125000Y-52679500D02*
X102405000Y-52679500D01*
D43*
X115500000Y-31500000D02*
X110850000Y-31500000D01*
X116150000Y-106550000D02*
X116050000Y-106550000D01*
X80339600Y-31589600D02*
X80250000Y-31500000D01*
X43071250Y-94245000D02*
X43071250Y-92771250D01*
X80250000Y-31500000D02*
X75350000Y-31500000D01*
D39*
X102405000Y-55219500D02*
X101125000Y-55219500D01*
D43*
X80351100Y-31589600D02*
X80339600Y-31589600D01*
D46*
X42415750Y-68499250D02*
X43905777Y-69989277D01*
D39*
X99500000Y-51379500D02*
X95855000Y-51379500D01*
%TO.N,+3V3*%
D46*
X127220000Y-64524500D02*
X124680000Y-61984500D01*
D43*
X124358984Y-48564500D02*
X126155000Y-50360516D01*
X116255000Y-43614500D02*
X115555000Y-43614500D01*
X126155000Y-50360516D02*
X126155000Y-58384906D01*
X123105000Y-60409500D02*
X122575000Y-60409500D01*
X123905000Y-46564500D02*
X123905000Y-48514500D01*
X116255000Y-43614500D02*
X121655000Y-43614500D01*
X115555000Y-43614500D02*
X114205000Y-44964500D01*
X121655000Y-43614500D02*
X123905000Y-45864500D01*
D39*
X97105000Y-60299500D02*
X94744822Y-60299500D01*
D46*
X124680000Y-61984500D02*
X123105000Y-60409500D01*
D43*
X126155000Y-58384906D02*
X124130406Y-60409500D01*
D46*
X127220000Y-65645000D02*
X127220000Y-64524500D01*
D43*
X123855000Y-48564500D02*
X124358984Y-48564500D01*
D46*
X127220000Y-65645000D02*
X124680000Y-65645000D01*
D43*
X123905000Y-48514500D02*
X123855000Y-48564500D01*
X110105000Y-45664500D02*
X114205000Y-45664500D01*
X123905000Y-45864500D02*
X123905000Y-46564500D01*
D46*
X124680000Y-65645000D02*
X124680000Y-61984500D01*
D39*
X94744822Y-60299500D02*
X94733548Y-60310774D01*
D43*
X124130406Y-60409500D02*
X123105000Y-60409500D01*
X114205000Y-44964500D02*
X114205000Y-45664500D01*
%TO.N,/TXEN1*%
D38*
X121225000Y-50564500D02*
X120675000Y-50014500D01*
X105585000Y-57759500D02*
X102405000Y-57759500D01*
X123855000Y-50564500D02*
X121225000Y-50564500D01*
X111980000Y-65645000D02*
X111980000Y-64154500D01*
X111980000Y-64154500D02*
X105585000Y-57759500D01*
X123855000Y-51929500D02*
X123855000Y-50564500D01*
%TO.N,/TXEN2*%
X115595000Y-55314500D02*
X115595000Y-54929500D01*
X102425000Y-60279500D02*
X102405000Y-60299500D01*
X102405000Y-60299500D02*
X102405000Y-62520000D01*
X111355000Y-48464500D02*
X112155000Y-47664500D01*
X111355000Y-49529500D02*
X111355000Y-48464500D01*
X115595000Y-54929500D02*
X111355000Y-50689500D01*
X102405000Y-62520000D02*
X99280000Y-65645000D01*
X111355000Y-50689500D02*
X111355000Y-49529500D01*
X110605000Y-49529500D02*
X111355000Y-49529500D01*
%TO.N,/RXEN2*%
X104355000Y-59029500D02*
X102405000Y-59029500D01*
%TO.N,/RXEN1*%
X104315000Y-56489500D02*
X104355000Y-56529500D01*
X102405000Y-56489500D02*
X104315000Y-56489500D01*
%TO.N,/RX2*%
X118575000Y-61009500D02*
X116865000Y-59299500D01*
X116865000Y-59299500D02*
X116865000Y-55314500D01*
%TO.N,/TX2*%
X108855000Y-52529500D02*
X110540000Y-54214500D01*
X117060000Y-65645000D02*
X108855000Y-57440000D01*
X108855000Y-57440000D02*
X108855000Y-49494500D01*
X114325000Y-54734500D02*
X114325000Y-55314500D01*
X110105000Y-47664500D02*
X108855000Y-48914500D01*
X108855000Y-48914500D02*
X108855000Y-49494500D01*
X108855000Y-49494500D02*
X108855000Y-52529500D01*
X110540000Y-54214500D02*
X113805000Y-54214500D01*
X113805000Y-54214500D02*
X114325000Y-54734500D01*
%TO.N,/TX1*%
X121905000Y-46564500D02*
X120640000Y-46564500D01*
X104355000Y-65650000D02*
X104360000Y-65645000D01*
X121905000Y-46564500D02*
X119405000Y-49064500D01*
X119405000Y-49064500D02*
X119405000Y-50014500D01*
X120640000Y-46564500D02*
X120605000Y-46529500D01*
%TO.N,/RX1*%
X114205000Y-49894500D02*
X114325000Y-50014500D01*
X115260000Y-51529500D02*
X115605000Y-51529500D01*
X114205000Y-47664500D02*
X114205000Y-49894500D01*
X101855000Y-65680000D02*
X101820000Y-65645000D01*
X114325000Y-50594500D02*
X115260000Y-51529500D01*
X114325000Y-50014500D02*
X114325000Y-50594500D01*
%TO.N,+5V*%
D46*
X63327565Y-90532843D02*
X62822843Y-90532843D01*
D39*
X76030000Y-62355000D02*
X76030000Y-60005000D01*
X76330000Y-59705000D02*
X76030000Y-60005000D01*
X76030000Y-62355000D02*
X76030000Y-65255000D01*
D46*
X76420000Y-77440408D02*
X63327565Y-90532843D01*
D39*
X76330000Y-55005000D02*
X76330000Y-59705000D01*
X76030000Y-65255000D02*
X76420000Y-65645000D01*
D46*
X76420000Y-65645000D02*
X76420000Y-77440408D01*
%TO.N,/BAT_LVL*%
D39*
X119630000Y-91385000D02*
X119600000Y-91355000D01*
X119630000Y-94255000D02*
X119630000Y-91385000D01*
%TO.N,/SERVO_DATA2*%
D38*
X118575000Y-58909500D02*
X118575000Y-55754500D01*
X118575000Y-55754500D02*
X118135000Y-55314500D01*
D45*
X116240000Y-56729500D02*
X116240000Y-54339500D01*
X115105000Y-57864500D02*
X116240000Y-56729500D01*
X116240000Y-54339500D02*
X118065000Y-54339500D01*
X118065000Y-54339500D02*
X118135000Y-54409500D01*
X118135000Y-54409500D02*
X118135000Y-55314500D01*
%TO.N,/125_OUTPUT_RES_1*%
D38*
X118155000Y-49994500D02*
X118135000Y-50014500D01*
X118155000Y-47564500D02*
X118155000Y-49994500D01*
%TO.N,/SERVO_DATA1*%
D39*
X116255000Y-47464500D02*
X116155000Y-47564500D01*
D38*
X116155000Y-47564500D02*
X115595000Y-48124500D01*
X115595000Y-48124500D02*
X115595000Y-50014500D01*
D39*
X116255000Y-45614500D02*
X116255000Y-47464500D01*
%TO.N,/125_OUTPUT_RES_2*%
D45*
X113055000Y-57814500D02*
X113105000Y-57864500D01*
X113055000Y-55314500D02*
X113055000Y-57814500D01*
%TO.N,/BAT_LVL_DIV*%
D39*
X117555000Y-96255000D02*
X117550000Y-96250000D01*
D45*
X125080000Y-96155000D02*
X124980000Y-96255000D01*
D39*
X124980000Y-96255000D02*
X119630000Y-96255000D01*
X127230000Y-96155000D02*
X125080000Y-96155000D01*
X119630000Y-96255000D02*
X117555000Y-96255000D01*
%TO.N,/+5V_RAW*%
D46*
X62750000Y-83750000D02*
X62750000Y-86716598D01*
D44*
X62271000Y-77854000D02*
X64100000Y-79683000D01*
X62271000Y-77854000D02*
X62271000Y-75314000D01*
D46*
X62750000Y-86716598D02*
X60000000Y-89466598D01*
X60000000Y-89466598D02*
X60000000Y-90250000D01*
D44*
X64100000Y-79683000D02*
X64100000Y-83750000D01*
%TO.N,VBAT_2*%
X39245000Y-57608750D02*
X37740000Y-56103750D01*
X37740000Y-56103750D02*
X37740000Y-46750000D01*
D42*
X37558750Y-46931250D02*
X37740000Y-46750000D01*
%TD*%
%TA.AperFunction,Conductor*%
%TO.N,+3V3*%
G36*
X122139777Y-54179185D02*
G01*
X122185532Y-54231989D01*
X122195476Y-54301147D01*
X122166451Y-54364703D01*
X122147663Y-54382304D01*
X122062436Y-54446933D01*
X121971079Y-54567404D01*
X121915613Y-54708056D01*
X121905000Y-54796446D01*
X121905000Y-55164500D01*
X122581000Y-55164500D01*
X122648039Y-55184185D01*
X122684809Y-55220678D01*
X122749691Y-55319988D01*
X122798039Y-55334185D01*
X122843794Y-55386989D01*
X122855000Y-55438500D01*
X122855000Y-58389500D01*
X122998054Y-58389500D01*
X123086443Y-58378886D01*
X123227095Y-58323420D01*
X123347566Y-58232063D01*
X123432196Y-58120463D01*
X123488389Y-58078939D01*
X123558110Y-58074388D01*
X123619224Y-58108253D01*
X123652328Y-58169783D01*
X123655000Y-58195388D01*
X123655000Y-61023407D01*
X123654403Y-61035561D01*
X123636982Y-61212434D01*
X123632240Y-61236275D01*
X123582424Y-61400498D01*
X123573121Y-61422956D01*
X123492227Y-61574298D01*
X123478722Y-61594510D01*
X123369854Y-61727166D01*
X123352666Y-61744354D01*
X123220010Y-61853222D01*
X123199798Y-61866727D01*
X123048456Y-61947621D01*
X123025998Y-61956924D01*
X122861775Y-62006740D01*
X122837934Y-62011482D01*
X122661061Y-62028903D01*
X122648907Y-62029500D01*
X121432666Y-62029500D01*
X121365627Y-62009815D01*
X121319872Y-61957011D01*
X121309928Y-61887853D01*
X121333862Y-61830574D01*
X121408920Y-61731595D01*
X121464386Y-61590943D01*
X121475000Y-61502553D01*
X121475000Y-61159500D01*
X120699000Y-61159500D01*
X120631961Y-61139815D01*
X120595191Y-61103322D01*
X120530308Y-61004011D01*
X120481961Y-60989815D01*
X120436206Y-60937011D01*
X120425000Y-60885500D01*
X120425000Y-60848582D01*
X120725000Y-60848582D01*
X120732133Y-60859500D01*
X121475000Y-60859500D01*
X121475000Y-60516446D01*
X121464386Y-60428056D01*
X121408920Y-60287404D01*
X121317564Y-60166935D01*
X121197093Y-60075578D01*
X121195259Y-60074855D01*
X121193831Y-60073743D01*
X121189703Y-60071423D01*
X121190051Y-60070803D01*
X121140115Y-60031951D01*
X121116920Y-59966043D01*
X121133039Y-59898059D01*
X121183355Y-59849581D01*
X121195259Y-59844145D01*
X121197093Y-59843421D01*
X121317564Y-59752064D01*
X121408920Y-59631595D01*
X121464386Y-59490943D01*
X121475000Y-59402553D01*
X121475000Y-59059500D01*
X120725000Y-59059500D01*
X120725000Y-60848582D01*
X120425000Y-60848582D01*
X120425000Y-58759500D01*
X120725000Y-58759500D01*
X121475000Y-58759500D01*
X121475000Y-58416446D01*
X121464386Y-58328056D01*
X121408920Y-58187404D01*
X121317564Y-58066935D01*
X121197095Y-57975579D01*
X121056443Y-57920113D01*
X120968054Y-57909500D01*
X120725000Y-57909500D01*
X120725000Y-58759500D01*
X120425000Y-58759500D01*
X120425000Y-57909500D01*
X120181946Y-57909500D01*
X120093556Y-57920113D01*
X119952904Y-57975579D01*
X119832432Y-58066937D01*
X119801365Y-58107905D01*
X119745172Y-58149428D01*
X119675451Y-58153979D01*
X119614337Y-58120113D01*
X119581234Y-58058583D01*
X119579159Y-58020825D01*
X119590204Y-57908679D01*
X119594942Y-57884857D01*
X119595641Y-57882553D01*
X121905000Y-57882553D01*
X121915613Y-57970943D01*
X121971079Y-58111595D01*
X122062435Y-58232064D01*
X122182904Y-58323420D01*
X122323556Y-58378886D01*
X122411946Y-58389500D01*
X122555000Y-58389500D01*
X122555000Y-57514500D01*
X121905000Y-57514500D01*
X121905000Y-57882553D01*
X119595641Y-57882553D01*
X119636431Y-57748087D01*
X119645726Y-57725649D01*
X119713095Y-57599610D01*
X119726596Y-57579406D01*
X119821146Y-57464195D01*
X119829300Y-57455199D01*
X120075000Y-57209500D01*
X120075000Y-56350281D01*
X120094685Y-56283242D01*
X120147489Y-56237487D01*
X120216647Y-56227543D01*
X120249086Y-56236847D01*
X120305120Y-56261588D01*
X120305124Y-56261589D01*
X120330206Y-56264499D01*
X120524999Y-56264499D01*
X120525000Y-56264498D01*
X120525000Y-55471632D01*
X120825000Y-55471632D01*
X120825000Y-56264499D01*
X121019786Y-56264499D01*
X121019808Y-56264497D01*
X121044869Y-56261591D01*
X121044873Y-56261590D01*
X121147474Y-56216288D01*
X121147479Y-56216285D01*
X121226785Y-56136979D01*
X121226788Y-56136974D01*
X121272089Y-56034377D01*
X121272089Y-56034375D01*
X121274999Y-56009294D01*
X121275000Y-56009291D01*
X121275000Y-55832553D01*
X121905000Y-55832553D01*
X121915613Y-55920943D01*
X121971079Y-56061595D01*
X122062436Y-56182067D01*
X122139751Y-56240697D01*
X122181274Y-56296889D01*
X122185825Y-56366610D01*
X122151960Y-56427724D01*
X122139751Y-56438303D01*
X122062436Y-56496932D01*
X121971079Y-56617404D01*
X121915613Y-56758056D01*
X121905000Y-56846446D01*
X121905000Y-57214500D01*
X122555000Y-57214500D01*
X122555000Y-55475417D01*
X122547867Y-55464500D01*
X121905000Y-55464500D01*
X121905000Y-55832553D01*
X121275000Y-55832553D01*
X121275000Y-55464500D01*
X120835917Y-55464500D01*
X120825000Y-55471632D01*
X120525000Y-55471632D01*
X120525000Y-55438500D01*
X120544685Y-55371461D01*
X120581178Y-55334691D01*
X120680488Y-55269808D01*
X120694685Y-55221461D01*
X120747489Y-55175706D01*
X120799000Y-55164500D01*
X121274999Y-55164500D01*
X121274999Y-54619714D01*
X121274997Y-54619691D01*
X121272091Y-54594630D01*
X121272090Y-54594626D01*
X121226788Y-54492025D01*
X121226785Y-54492020D01*
X121147479Y-54412714D01*
X121147476Y-54412712D01*
X121111744Y-54396935D01*
X121058368Y-54351849D01*
X121037840Y-54285063D01*
X121056678Y-54217781D01*
X121108901Y-54171364D01*
X121161830Y-54159500D01*
X122072738Y-54159500D01*
X122139777Y-54179185D01*
G37*
%TD.AperFunction*%
%TD*%
%TA.AperFunction,Conductor*%
%TO.N,GND*%
G36*
X74011822Y-53350593D02*
G01*
X74052341Y-53354568D01*
X74188050Y-53367885D01*
X74211800Y-53372591D01*
X74375483Y-53422049D01*
X74397860Y-53431280D01*
X74548802Y-53511609D01*
X74568966Y-53525020D01*
X74701410Y-53633153D01*
X74718585Y-53650228D01*
X74827480Y-53782038D01*
X74841009Y-53802127D01*
X74922208Y-53952595D01*
X74931573Y-53974929D01*
X74981976Y-54138311D01*
X74986821Y-54162040D01*
X75005135Y-54338165D01*
X75005798Y-54350271D01*
X75066696Y-64855246D01*
X75053183Y-64912259D01*
X74983094Y-65049817D01*
X74983094Y-65049818D01*
X74907678Y-65281926D01*
X74907678Y-65281927D01*
X74869500Y-65522973D01*
X74869500Y-66705226D01*
X74849815Y-66772265D01*
X74841609Y-66783578D01*
X74791084Y-66845553D01*
X74773883Y-66862854D01*
X74641018Y-66972459D01*
X74620761Y-66986058D01*
X74469007Y-67067526D01*
X74446480Y-67076895D01*
X74281718Y-67127071D01*
X74257793Y-67131848D01*
X74080266Y-67149398D01*
X74068067Y-67150000D01*
X72956093Y-67150000D01*
X72943939Y-67149403D01*
X72767065Y-67131982D01*
X72743224Y-67127240D01*
X72579001Y-67077424D01*
X72556543Y-67068121D01*
X72405201Y-66987227D01*
X72384989Y-66973722D01*
X72252333Y-66864854D01*
X72235145Y-66847666D01*
X72126277Y-66715010D01*
X72112772Y-66694798D01*
X72031878Y-66543456D01*
X72022575Y-66520998D01*
X71972757Y-66356769D01*
X71968018Y-66332941D01*
X71950597Y-66156061D01*
X71950000Y-66143907D01*
X71950000Y-54356092D01*
X71950597Y-54343938D01*
X71951166Y-54338165D01*
X71968018Y-54167056D01*
X71972757Y-54143232D01*
X72022577Y-53978994D01*
X72031875Y-53956549D01*
X72112775Y-53805195D01*
X72126272Y-53784995D01*
X72235149Y-53652328D01*
X72252328Y-53635149D01*
X72384995Y-53526272D01*
X72405195Y-53512775D01*
X72556549Y-53431875D01*
X72578994Y-53422577D01*
X72743232Y-53372757D01*
X72767056Y-53368018D01*
X72943939Y-53350597D01*
X72956093Y-53350000D01*
X73999713Y-53350000D01*
X74011822Y-53350593D01*
G37*
%TD.AperFunction*%
%TD*%
%TA.AperFunction,Conductor*%
%TO.N,VBUS_2*%
G36*
X44411838Y-73489874D02*
G01*
X44588718Y-73507295D01*
X44612546Y-73512034D01*
X44776778Y-73561853D01*
X44799230Y-73571154D01*
X44950575Y-73652049D01*
X44970787Y-73665554D01*
X45103443Y-73774422D01*
X45120631Y-73791610D01*
X45229499Y-73924266D01*
X45243004Y-73944478D01*
X45323898Y-74095820D01*
X45333201Y-74118278D01*
X45383017Y-74282501D01*
X45387759Y-74306342D01*
X45403509Y-74466255D01*
X45405180Y-74483215D01*
X45405777Y-74495369D01*
X45405777Y-78983184D01*
X45405180Y-78995338D01*
X45387759Y-79172211D01*
X45383017Y-79196052D01*
X45333201Y-79360275D01*
X45323898Y-79382733D01*
X45243004Y-79534075D01*
X45229499Y-79554287D01*
X45120631Y-79686943D01*
X45103443Y-79704131D01*
X44970787Y-79812999D01*
X44950575Y-79826504D01*
X44799233Y-79907398D01*
X44776775Y-79916701D01*
X44612552Y-79966517D01*
X44588711Y-79971259D01*
X44411838Y-79988680D01*
X44399684Y-79989277D01*
X33411870Y-79989277D01*
X33399716Y-79988680D01*
X33222842Y-79971259D01*
X33199001Y-79966517D01*
X33034778Y-79916701D01*
X33012320Y-79907398D01*
X32860978Y-79826504D01*
X32840766Y-79812999D01*
X32708110Y-79704131D01*
X32690922Y-79686943D01*
X32582054Y-79554287D01*
X32568549Y-79534075D01*
X32487655Y-79382733D01*
X32478352Y-79360275D01*
X32428534Y-79196046D01*
X32423795Y-79172218D01*
X32406374Y-78995338D01*
X32405777Y-78983184D01*
X32405777Y-75456091D01*
X32406374Y-75443937D01*
X32412437Y-75382379D01*
X32423795Y-75267055D01*
X32428534Y-75243231D01*
X32478354Y-75078993D01*
X32487652Y-75056548D01*
X32568552Y-74905194D01*
X32582049Y-74884994D01*
X32690926Y-74752327D01*
X32708105Y-74735148D01*
X32840772Y-74626271D01*
X32860972Y-74612774D01*
X33012326Y-74531874D01*
X33034771Y-74522576D01*
X33199009Y-74472756D01*
X33222833Y-74468017D01*
X33372905Y-74453236D01*
X33441549Y-74466255D01*
X33492259Y-74514320D01*
X33508934Y-74582170D01*
X33490596Y-74641735D01*
X33415645Y-74763250D01*
X33415641Y-74763259D01*
X33360494Y-74929681D01*
X33360493Y-74929688D01*
X33350000Y-75032392D01*
X33350000Y-75382379D01*
X34334314Y-75382379D01*
X34329920Y-75386773D01*
X34277259Y-75477985D01*
X34250000Y-75579718D01*
X34250000Y-75685040D01*
X34277259Y-75786773D01*
X34329920Y-75877985D01*
X34334314Y-75882379D01*
X33350001Y-75882379D01*
X33350001Y-76232365D01*
X33360494Y-76335076D01*
X33415641Y-76501498D01*
X33415643Y-76501503D01*
X33507684Y-76650724D01*
X33631654Y-76774694D01*
X33780875Y-76866735D01*
X33780880Y-76866737D01*
X33947302Y-76921884D01*
X33947309Y-76921885D01*
X34050019Y-76932378D01*
X34399999Y-76932378D01*
X34400000Y-76932377D01*
X34400000Y-75948065D01*
X34404394Y-75952459D01*
X34495606Y-76005120D01*
X34597339Y-76032379D01*
X34702661Y-76032379D01*
X34804394Y-76005120D01*
X34895606Y-75952459D01*
X34900000Y-75948065D01*
X34900000Y-76932378D01*
X35249972Y-76932378D01*
X35249986Y-76932377D01*
X35352697Y-76921884D01*
X35519119Y-76866737D01*
X35519124Y-76866735D01*
X35668345Y-76774694D01*
X35792315Y-76650724D01*
X35884356Y-76501503D01*
X35884358Y-76501498D01*
X35939505Y-76335076D01*
X35939506Y-76335069D01*
X35949999Y-76232365D01*
X35950000Y-76232352D01*
X35950000Y-75882379D01*
X34965686Y-75882379D01*
X34970080Y-75877985D01*
X35022741Y-75786773D01*
X35050000Y-75685040D01*
X35050000Y-75599986D01*
X38725001Y-75599986D01*
X38735494Y-75702697D01*
X38790641Y-75869119D01*
X38790643Y-75869124D01*
X38882684Y-76018345D01*
X39006654Y-76142315D01*
X39155875Y-76234356D01*
X39155880Y-76234358D01*
X39322302Y-76289505D01*
X39322309Y-76289506D01*
X39425019Y-76299999D01*
X39699999Y-76299999D01*
X40200000Y-76299999D01*
X40474972Y-76299999D01*
X40474986Y-76299998D01*
X40577697Y-76289505D01*
X40744121Y-76234357D01*
X40893345Y-76142315D01*
X41017315Y-76018345D01*
X41109356Y-75869124D01*
X41109358Y-75869119D01*
X41164505Y-75702697D01*
X41164506Y-75702690D01*
X41174999Y-75599986D01*
X41175000Y-75599973D01*
X41175000Y-75550000D01*
X40200000Y-75550000D01*
X40200000Y-76299999D01*
X39699999Y-76299999D01*
X39700000Y-76299998D01*
X39700000Y-75550000D01*
X38725001Y-75550000D01*
X38725001Y-75599986D01*
X35050000Y-75599986D01*
X35050000Y-75579718D01*
X35022741Y-75477985D01*
X34970080Y-75386773D01*
X34965686Y-75382379D01*
X35949999Y-75382379D01*
X35949999Y-75211682D01*
X42429000Y-75211682D01*
X42429000Y-75416317D01*
X42461009Y-75618417D01*
X42524244Y-75813031D01*
X42617141Y-75995350D01*
X42617147Y-75995359D01*
X42649523Y-76039921D01*
X42649524Y-76039922D01*
X43329000Y-75360446D01*
X43329000Y-75366661D01*
X43356259Y-75468394D01*
X43408920Y-75559606D01*
X43483394Y-75634080D01*
X43574606Y-75686741D01*
X43676339Y-75714000D01*
X43682553Y-75714000D01*
X43003076Y-76393474D01*
X43047650Y-76425859D01*
X43141180Y-76473515D01*
X43191976Y-76521489D01*
X43208771Y-76589310D01*
X43186234Y-76655445D01*
X43141180Y-76694485D01*
X43047644Y-76742143D01*
X43003077Y-76774523D01*
X43003077Y-76774524D01*
X43682554Y-77454000D01*
X43676339Y-77454000D01*
X43574606Y-77481259D01*
X43483394Y-77533920D01*
X43408920Y-77608394D01*
X43356259Y-77699606D01*
X43329000Y-77801339D01*
X43329000Y-77807553D01*
X42649524Y-77128077D01*
X42649523Y-77128077D01*
X42617143Y-77172644D01*
X42524244Y-77354968D01*
X42461009Y-77549582D01*
X42429000Y-77751682D01*
X42429000Y-77956317D01*
X42461009Y-78158417D01*
X42524244Y-78353031D01*
X42617141Y-78535350D01*
X42617147Y-78535359D01*
X42649523Y-78579921D01*
X42649524Y-78579922D01*
X43329000Y-77900446D01*
X43329000Y-77906661D01*
X43356259Y-78008394D01*
X43408920Y-78099606D01*
X43483394Y-78174080D01*
X43574606Y-78226741D01*
X43676339Y-78254000D01*
X43682553Y-78254000D01*
X43003076Y-78933474D01*
X43047650Y-78965859D01*
X43229968Y-79058755D01*
X43424582Y-79121990D01*
X43626683Y-79154000D01*
X43831317Y-79154000D01*
X44033417Y-79121990D01*
X44228031Y-79058755D01*
X44410349Y-78965859D01*
X44454921Y-78933474D01*
X43775447Y-78254000D01*
X43781661Y-78254000D01*
X43883394Y-78226741D01*
X43974606Y-78174080D01*
X44049080Y-78099606D01*
X44101741Y-78008394D01*
X44129000Y-77906661D01*
X44129000Y-77900447D01*
X44808474Y-78579921D01*
X44840859Y-78535349D01*
X44933755Y-78353031D01*
X44996990Y-78158417D01*
X45029000Y-77956317D01*
X45029000Y-77751682D01*
X44996990Y-77549582D01*
X44933755Y-77354968D01*
X44840859Y-77172650D01*
X44808474Y-77128077D01*
X44808474Y-77128076D01*
X44129000Y-77807551D01*
X44129000Y-77801339D01*
X44101741Y-77699606D01*
X44049080Y-77608394D01*
X43974606Y-77533920D01*
X43883394Y-77481259D01*
X43781661Y-77454000D01*
X43775446Y-77454000D01*
X44454922Y-76774524D01*
X44454921Y-76774523D01*
X44410359Y-76742147D01*
X44410350Y-76742141D01*
X44316819Y-76694485D01*
X44266023Y-76646511D01*
X44249228Y-76578690D01*
X44271765Y-76512555D01*
X44316820Y-76473515D01*
X44410346Y-76425861D01*
X44410347Y-76425861D01*
X44454921Y-76393474D01*
X43775447Y-75714000D01*
X43781661Y-75714000D01*
X43883394Y-75686741D01*
X43974606Y-75634080D01*
X44049080Y-75559606D01*
X44101741Y-75468394D01*
X44129000Y-75366661D01*
X44129000Y-75360447D01*
X44808474Y-76039921D01*
X44840859Y-75995349D01*
X44933755Y-75813031D01*
X44996990Y-75618417D01*
X45029000Y-75416317D01*
X45029000Y-75211682D01*
X44996990Y-75009582D01*
X44933755Y-74814968D01*
X44840859Y-74632650D01*
X44808474Y-74588077D01*
X44808474Y-74588076D01*
X44129000Y-75267551D01*
X44129000Y-75261339D01*
X44101741Y-75159606D01*
X44049080Y-75068394D01*
X43974606Y-74993920D01*
X43883394Y-74941259D01*
X43781661Y-74914000D01*
X43775446Y-74914000D01*
X44454922Y-74234524D01*
X44454921Y-74234523D01*
X44410359Y-74202147D01*
X44410350Y-74202141D01*
X44228031Y-74109244D01*
X44033417Y-74046009D01*
X43831317Y-74014000D01*
X43626683Y-74014000D01*
X43424582Y-74046009D01*
X43229968Y-74109244D01*
X43047644Y-74202143D01*
X43003077Y-74234523D01*
X43003077Y-74234524D01*
X43682554Y-74914000D01*
X43676339Y-74914000D01*
X43574606Y-74941259D01*
X43483394Y-74993920D01*
X43408920Y-75068394D01*
X43356259Y-75159606D01*
X43329000Y-75261339D01*
X43329000Y-75267553D01*
X42649524Y-74588077D01*
X42649523Y-74588077D01*
X42617143Y-74632644D01*
X42524244Y-74814968D01*
X42461009Y-75009582D01*
X42429000Y-75211682D01*
X35949999Y-75211682D01*
X35949999Y-75032407D01*
X35949998Y-75032392D01*
X35939505Y-74929681D01*
X35884358Y-74763259D01*
X35884356Y-74763254D01*
X35807774Y-74639096D01*
X35789334Y-74571704D01*
X35810256Y-74505040D01*
X35863898Y-74460270D01*
X35913313Y-74449999D01*
X38741715Y-74449999D01*
X38808754Y-74469684D01*
X38854509Y-74522488D01*
X38864453Y-74591646D01*
X38847254Y-74639096D01*
X38790643Y-74730875D01*
X38790641Y-74730880D01*
X38735494Y-74897302D01*
X38735493Y-74897309D01*
X38725000Y-75000013D01*
X38725000Y-75050000D01*
X41174999Y-75050000D01*
X41174999Y-75000028D01*
X41174998Y-75000013D01*
X41164505Y-74897302D01*
X41109358Y-74730880D01*
X41109356Y-74730875D01*
X41052746Y-74639096D01*
X41034306Y-74571703D01*
X41055229Y-74505040D01*
X41108871Y-74460270D01*
X41158285Y-74449999D01*
X41905776Y-74449999D01*
X41905777Y-74449999D01*
X42443177Y-73933707D01*
X42611230Y-73772255D01*
X42620146Y-73764473D01*
X42755961Y-73656940D01*
X42775849Y-73644079D01*
X42924329Y-73567089D01*
X42946302Y-73558243D01*
X43106720Y-73510894D01*
X43129972Y-73506390D01*
X43302397Y-73489844D01*
X43314242Y-73489277D01*
X44399684Y-73489277D01*
X44411838Y-73489874D01*
G37*
%TD.AperFunction*%
%TD*%
%TA.AperFunction,Conductor*%
%TO.N,GND*%
G36*
X127256061Y-90100597D02*
G01*
X127432941Y-90118018D01*
X127456769Y-90122757D01*
X127621001Y-90172576D01*
X127643453Y-90181877D01*
X127794798Y-90262772D01*
X127815010Y-90276277D01*
X127947666Y-90385145D01*
X127964854Y-90402333D01*
X128073722Y-90534989D01*
X128087227Y-90555201D01*
X128168121Y-90706543D01*
X128177424Y-90729001D01*
X128227240Y-90893224D01*
X128231982Y-90917065D01*
X128249403Y-91093938D01*
X128250000Y-91106092D01*
X128250000Y-94243907D01*
X128249403Y-94256061D01*
X128231982Y-94432934D01*
X128227240Y-94456775D01*
X128177424Y-94620998D01*
X128168121Y-94643456D01*
X128087227Y-94794798D01*
X128073722Y-94815010D01*
X127964854Y-94947666D01*
X127947666Y-94964854D01*
X127815010Y-95073722D01*
X127794798Y-95087227D01*
X127643456Y-95168121D01*
X127620998Y-95177424D01*
X127456775Y-95227240D01*
X127432934Y-95231982D01*
X127256061Y-95249403D01*
X127243907Y-95250000D01*
X124856093Y-95250000D01*
X124843939Y-95249403D01*
X124667065Y-95231982D01*
X124643224Y-95227240D01*
X124479001Y-95177424D01*
X124456543Y-95168121D01*
X124305201Y-95087227D01*
X124284989Y-95073722D01*
X124152333Y-94964854D01*
X124135145Y-94947666D01*
X124026277Y-94815010D01*
X124012772Y-94794798D01*
X123931878Y-94643456D01*
X123922575Y-94620998D01*
X123872757Y-94456769D01*
X123868018Y-94432941D01*
X123850597Y-94256061D01*
X123850000Y-94243907D01*
X123850000Y-94106092D01*
X123850597Y-94093938D01*
X123868018Y-93917056D01*
X123872757Y-93893232D01*
X123922577Y-93728994D01*
X123931875Y-93706549D01*
X124012775Y-93555195D01*
X124026272Y-93534995D01*
X124135149Y-93402328D01*
X124152328Y-93385149D01*
X124284995Y-93276272D01*
X124305195Y-93262775D01*
X124456549Y-93181875D01*
X124478994Y-93172577D01*
X124643232Y-93122757D01*
X124667056Y-93118018D01*
X124843939Y-93100597D01*
X124856093Y-93100000D01*
X125950000Y-93100000D01*
X125950000Y-91106092D01*
X125950597Y-91093938D01*
X125968018Y-90917056D01*
X125972757Y-90893232D01*
X126022577Y-90728994D01*
X126031875Y-90706549D01*
X126112775Y-90555195D01*
X126126272Y-90534995D01*
X126235149Y-90402328D01*
X126252328Y-90385149D01*
X126384995Y-90276272D01*
X126405195Y-90262775D01*
X126556549Y-90181875D01*
X126578994Y-90172577D01*
X126743232Y-90122757D01*
X126767056Y-90118018D01*
X126943939Y-90100597D01*
X126956093Y-90100000D01*
X127243907Y-90100000D01*
X127256061Y-90100597D01*
G37*
%TD.AperFunction*%
%TD*%
%TA.AperFunction,Conductor*%
%TO.N,VBUS_2*%
G36*
X55193039Y-30019685D02*
G01*
X55238794Y-30072489D01*
X55250000Y-30124000D01*
X55250000Y-36875500D01*
X55230315Y-36942539D01*
X55177511Y-36988294D01*
X55126000Y-36999500D01*
X45268623Y-36999500D01*
X45229411Y-36993137D01*
X42648467Y-36132822D01*
X42599998Y-36102866D01*
X42596634Y-36099502D01*
X42596632Y-36099500D01*
X42539568Y-36066554D01*
X42482505Y-36033608D01*
X42418857Y-36016554D01*
X42355210Y-35999500D01*
X42355209Y-35999500D01*
X41036794Y-35999500D01*
X40969755Y-35979815D01*
X40968011Y-35978674D01*
X40250000Y-35500000D01*
X38124000Y-35500000D01*
X38056961Y-35480315D01*
X38011206Y-35427511D01*
X38000000Y-35376000D01*
X38000000Y-33939586D01*
X43626101Y-33939586D01*
X43636594Y-34042297D01*
X43691741Y-34208719D01*
X43691743Y-34208724D01*
X43783784Y-34357945D01*
X43907754Y-34481915D01*
X44056975Y-34573956D01*
X44056980Y-34573958D01*
X44223402Y-34629105D01*
X44223409Y-34629106D01*
X44326119Y-34639599D01*
X44601099Y-34639599D01*
X45101100Y-34639599D01*
X45376072Y-34639599D01*
X45376086Y-34639598D01*
X45478797Y-34629105D01*
X45645219Y-34573958D01*
X45645224Y-34573956D01*
X45794445Y-34481915D01*
X45918415Y-34357945D01*
X46010456Y-34208724D01*
X46010459Y-34208717D01*
X46013603Y-34199231D01*
X46065605Y-34042297D01*
X46065606Y-34042290D01*
X46076099Y-33939586D01*
X46076100Y-33939573D01*
X46076100Y-33889600D01*
X45101100Y-33889600D01*
X45101100Y-34639599D01*
X44601099Y-34639599D01*
X44601100Y-34639598D01*
X44601100Y-33889600D01*
X43626101Y-33889600D01*
X43626101Y-33939586D01*
X38000000Y-33939586D01*
X38000000Y-31874000D01*
X38019685Y-31806961D01*
X38072489Y-31761206D01*
X38124000Y-31750000D01*
X38698638Y-31750000D01*
X38765677Y-31769685D01*
X38786319Y-31786319D01*
X38938469Y-31938469D01*
X38959071Y-31969298D01*
X38960494Y-31968538D01*
X38963368Y-31973916D01*
X39072857Y-32137777D01*
X39072863Y-32137785D01*
X39212217Y-32277139D01*
X39316991Y-32347146D01*
X39376086Y-32386632D01*
X39376092Y-32386634D01*
X39381457Y-32389502D01*
X39380694Y-32390929D01*
X39411530Y-32411530D01*
X39500000Y-32500000D01*
X39740291Y-32500000D01*
X39750469Y-32500500D01*
X39751459Y-32500500D01*
X43951680Y-32500500D01*
X44018719Y-32520185D01*
X44064474Y-32572989D01*
X44074418Y-32642147D01*
X44045393Y-32705703D01*
X44016777Y-32730039D01*
X43907754Y-32797284D01*
X43783784Y-32921254D01*
X43691743Y-33070475D01*
X43691741Y-33070480D01*
X43636594Y-33236902D01*
X43636593Y-33236909D01*
X43626100Y-33339613D01*
X43626100Y-33389600D01*
X46076099Y-33389600D01*
X46076099Y-33339628D01*
X46076098Y-33339613D01*
X46065605Y-33236902D01*
X46010458Y-33070480D01*
X46010456Y-33070475D01*
X45918415Y-32921254D01*
X45794445Y-32797284D01*
X45645224Y-32705243D01*
X45645219Y-32705241D01*
X45595888Y-32688895D01*
X45538443Y-32649123D01*
X45511620Y-32584607D01*
X45523935Y-32515831D01*
X45571478Y-32464631D01*
X45579416Y-32460291D01*
X45973818Y-32263091D01*
X46029272Y-32250000D01*
X49220728Y-32250000D01*
X49276182Y-32263091D01*
X49759384Y-32504692D01*
X49810542Y-32552278D01*
X49827852Y-32619970D01*
X49805817Y-32686274D01*
X49751434Y-32730140D01*
X49703930Y-32739600D01*
X49601129Y-32739600D01*
X49601112Y-32739601D01*
X49498402Y-32750094D01*
X49331980Y-32805241D01*
X49331975Y-32805243D01*
X49182754Y-32897284D01*
X49058784Y-33021254D01*
X48966743Y-33170475D01*
X48966741Y-33170480D01*
X48911594Y-33336902D01*
X48911593Y-33336909D01*
X48901100Y-33439613D01*
X48901100Y-33789600D01*
X49885414Y-33789600D01*
X49881020Y-33793994D01*
X49828359Y-33885206D01*
X49801100Y-33986939D01*
X49801100Y-34092261D01*
X49828359Y-34193994D01*
X49881020Y-34285206D01*
X49885414Y-34289600D01*
X48901101Y-34289600D01*
X48901101Y-34639586D01*
X48911594Y-34742297D01*
X48966741Y-34908719D01*
X48966743Y-34908724D01*
X49058784Y-35057945D01*
X49182754Y-35181915D01*
X49331975Y-35273956D01*
X49331980Y-35273958D01*
X49498402Y-35329105D01*
X49498409Y-35329106D01*
X49601119Y-35339599D01*
X49951099Y-35339599D01*
X49951100Y-35339598D01*
X49951100Y-34355286D01*
X49955494Y-34359680D01*
X50046706Y-34412341D01*
X50148439Y-34439600D01*
X50253761Y-34439600D01*
X50355494Y-34412341D01*
X50446706Y-34359680D01*
X50451100Y-34355286D01*
X50451100Y-35339599D01*
X50801072Y-35339599D01*
X50801086Y-35339598D01*
X50903797Y-35329105D01*
X51070219Y-35273958D01*
X51070224Y-35273956D01*
X51219445Y-35181915D01*
X51343415Y-35057945D01*
X51435456Y-34908724D01*
X51435458Y-34908719D01*
X51490605Y-34742297D01*
X51490606Y-34742290D01*
X51501099Y-34639586D01*
X51501100Y-34639573D01*
X51501100Y-34289600D01*
X50516786Y-34289600D01*
X50521180Y-34285206D01*
X50573841Y-34193994D01*
X50601100Y-34092261D01*
X50601100Y-33986939D01*
X50573841Y-33885206D01*
X50521180Y-33793994D01*
X50516786Y-33789600D01*
X51501099Y-33789600D01*
X51501099Y-33439628D01*
X51501098Y-33439613D01*
X51490605Y-33336902D01*
X51435458Y-33170480D01*
X51435456Y-33170475D01*
X51343415Y-33021254D01*
X51219445Y-32897284D01*
X51070224Y-32805243D01*
X51070219Y-32805241D01*
X50903797Y-32750094D01*
X50903790Y-32750093D01*
X50801086Y-32739600D01*
X50796073Y-32739600D01*
X50729034Y-32719915D01*
X50683279Y-32667111D01*
X50673335Y-32597953D01*
X50702360Y-32534397D01*
X50740619Y-32504691D01*
X50749997Y-32500002D01*
X50749998Y-32500001D01*
X50750000Y-32500000D01*
X51500000Y-31750000D01*
X52244719Y-30757040D01*
X52256226Y-30743773D01*
X52963681Y-30036319D01*
X53025004Y-30002834D01*
X53051362Y-30000000D01*
X55126000Y-30000000D01*
X55193039Y-30019685D01*
G37*
%TD.AperFunction*%
%TD*%
M02*
