%TF.GenerationSoftware,KiCad,Pcbnew,10.0.6-10.0.6~ubuntu24.04.1*%
%TF.CreationDate,2026-09-13T15:43:53+02:00*%
%TF.ProjectId,new_PCB,6e65775f-5043-4422-9e6b-696361645f70,rev?*%
%TF.SameCoordinates,Original*%
%TF.FileFunction,Soldermask,Top*%
%TF.FilePolarity,Negative*%
%FSLAX46Y46*%
G04 Gerber Fmt 4.6, Leading zero omitted, Abs format (unit mm)*
G04 Created by KiCad (PCBNEW 10.0.6-10.0.6~ubuntu24.04.1) date 2026-09-13 15:43:53*
%MOMM*%
%LPD*%
G01*
G04 APERTURE LIST*
G04 Aperture macros list*
%AMRoundRect*
0 Rectangle with rounded corners*
0 $1 Rounding radius*
0 $2 $3 $4 $5 $6 $7 $8 $9 X,Y pos of 4 corners*
0 Add a 4 corners polygon primitive as box body*
4,1,4,$2,$3,$4,$5,$6,$7,$8,$9,$2,$3,0*
0 Add four circle primitives for the rounded corners*
1,1,$1+$1,$2,$3*
1,1,$1+$1,$4,$5*
1,1,$1+$1,$6,$7*
1,1,$1+$1,$8,$9*
0 Add four rect primitives between the rounded corners*
20,1,$1+$1,$2,$3,$4,$5,0*
20,1,$1+$1,$4,$5,$6,$7,0*
20,1,$1+$1,$6,$7,$8,$9,0*
20,1,$1+$1,$8,$9,$2,$3,0*%
G04 Aperture macros list end*
%ADD10C,3.920000*%
%ADD11RoundRect,0.102000X-1.858000X1.858000X-1.858000X-1.858000X1.858000X-1.858000X1.858000X1.858000X0*%
%ADD12O,2.804000X1.504000*%
%ADD13RoundRect,0.250000X-0.600000X0.400000X-0.600000X-0.400000X0.600000X-0.400000X0.600000X0.400000X0*%
%ADD14RoundRect,0.250000X0.350000X-0.850000X0.350000X0.850000X-0.350000X0.850000X-0.350000X-0.850000X0*%
%ADD15RoundRect,0.249997X2.650003X-2.950003X2.650003X2.950003X-2.650003X2.950003X-2.650003X-2.950003X0*%
%ADD16RoundRect,0.250000X0.550000X-0.550000X0.550000X0.550000X-0.550000X0.550000X-0.550000X-0.550000X0*%
%ADD17C,1.600000*%
%ADD18RoundRect,0.250000X-0.450000X0.350000X-0.450000X-0.350000X0.450000X-0.350000X0.450000X0.350000X0*%
%ADD19C,3.200000*%
%ADD20RoundRect,0.250000X0.475000X-0.250000X0.475000X0.250000X-0.475000X0.250000X-0.475000X-0.250000X0*%
%ADD21R,1.300000X0.600000*%
%ADD22RoundRect,0.102000X-0.765000X0.765000X-0.765000X-0.765000X0.765000X-0.765000X0.765000X0.765000X0*%
%ADD23C,1.734000*%
%ADD24RoundRect,0.250000X0.350000X0.450000X-0.350000X0.450000X-0.350000X-0.450000X0.350000X-0.450000X0*%
%ADD25R,0.600000X1.300000*%
%ADD26C,1.397000*%
%ADD27RoundRect,0.250000X0.450000X-0.350000X0.450000X0.350000X-0.450000X0.350000X-0.450000X-0.350000X0*%
%ADD28RoundRect,0.250000X-0.250000X-0.475000X0.250000X-0.475000X0.250000X0.475000X-0.250000X0.475000X0*%
%ADD29RoundRect,0.250000X0.250000X0.475000X-0.250000X0.475000X-0.250000X-0.475000X0.250000X-0.475000X0*%
%ADD30RoundRect,0.250000X0.550000X0.550000X-0.550000X0.550000X-0.550000X-0.550000X0.550000X-0.550000X0*%
%ADD31RoundRect,0.250000X0.850000X0.350000X-0.850000X0.350000X-0.850000X-0.350000X0.850000X-0.350000X0*%
%ADD32RoundRect,0.249997X2.950003X2.650003X-2.950003X2.650003X-2.950003X-2.650003X2.950003X-2.650003X0*%
%ADD33R,1.700000X1.700000*%
%ADD34C,1.700000*%
%ADD35RoundRect,0.250000X-0.350000X-0.450000X0.350000X-0.450000X0.350000X0.450000X-0.350000X0.450000X0*%
%ADD36RoundRect,0.250000X0.400000X0.600000X-0.400000X0.600000X-0.400000X-0.600000X0.400000X-0.600000X0*%
%ADD37O,1.600000X1.600000*%
G04 APERTURE END LIST*
D10*
%TO.C,J1*%
X39245000Y-87108750D03*
D11*
X39245000Y-94308750D03*
D12*
X33245000Y-83958750D03*
X33245000Y-97458750D03*
%TD*%
D10*
%TO.C,J2*%
X39245000Y-57608750D03*
D11*
X39245000Y-64808750D03*
D12*
X33245000Y-54458750D03*
X33245000Y-67958750D03*
%TD*%
D13*
%TO.C,D2*%
X48000000Y-45000000D03*
X48000000Y-48500000D03*
%TD*%
D14*
%TO.C,Q1*%
X48011250Y-94245000D03*
D15*
X50291250Y-87945000D03*
D14*
X52571250Y-94245000D03*
%TD*%
D16*
%TO.C,C9*%
X121550000Y-108700000D03*
D17*
X121550000Y-106200000D03*
%TD*%
D18*
%TO.C,R3*%
X123855000Y-48564500D03*
X123855000Y-50564500D03*
%TD*%
D19*
%TO.C,H3*%
X125500000Y-27250000D03*
%TD*%
D20*
%TO.C,C18*%
X115900000Y-33650000D03*
X115900000Y-31750000D03*
%TD*%
D21*
%TO.C,U4*%
X102405000Y-60299500D03*
X102405000Y-59029500D03*
X102405000Y-57759500D03*
X102405000Y-56489500D03*
X102405000Y-55219500D03*
X102405000Y-53949500D03*
X102405000Y-52679500D03*
X97105000Y-52679500D03*
X97105000Y-53949500D03*
X97105000Y-55219500D03*
X97105000Y-56489500D03*
X97105000Y-57759500D03*
X97105000Y-59029500D03*
X97105000Y-60299500D03*
%TD*%
D22*
%TO.C,U1*%
X127220000Y-65645000D03*
D23*
X124680000Y-65645000D03*
X122140000Y-65645000D03*
X119600000Y-65645000D03*
X117060000Y-65645000D03*
X114520000Y-65645000D03*
X111980000Y-65645000D03*
X109440000Y-65645000D03*
X106900000Y-65645000D03*
X104360000Y-65645000D03*
X101820000Y-65645000D03*
X99280000Y-65645000D03*
X96740000Y-65645000D03*
X94200000Y-65645000D03*
X91660000Y-65645000D03*
X89120000Y-65645000D03*
X86580000Y-65645000D03*
X84040000Y-65645000D03*
X81500000Y-65645000D03*
X78960000Y-65645000D03*
X76420000Y-65645000D03*
X73880000Y-65645000D03*
X127220000Y-91355000D03*
X124680000Y-91355000D03*
X122140000Y-91355000D03*
X119600000Y-91355000D03*
X117060000Y-91355000D03*
X114520000Y-91355000D03*
X111980000Y-91355000D03*
X109440000Y-91355000D03*
X106900000Y-91355000D03*
X104360000Y-91355000D03*
X101820000Y-91355000D03*
X99280000Y-91355000D03*
X96740000Y-91355000D03*
X94200000Y-91355000D03*
X91660000Y-91355000D03*
X89120000Y-91355000D03*
X86580000Y-91355000D03*
X84040000Y-91355000D03*
X81500000Y-91355000D03*
X78960000Y-91355000D03*
X76420000Y-91355000D03*
X73880000Y-91355000D03*
%TD*%
D20*
%TO.C,C14*%
X44851100Y-33639600D03*
X44851100Y-31739600D03*
%TD*%
D24*
%TO.C,R6*%
X120575000Y-58909500D03*
X118575000Y-58909500D03*
%TD*%
D16*
%TO.C,C2*%
X34650000Y-75632379D03*
D17*
X34650000Y-73132379D03*
%TD*%
D25*
%TO.C,U3*%
X120675000Y-50014500D03*
X119405000Y-50014500D03*
X118135000Y-50014500D03*
X116865000Y-50014500D03*
X115595000Y-50014500D03*
X114325000Y-50014500D03*
X113055000Y-50014500D03*
X113055000Y-55314500D03*
X114325000Y-55314500D03*
X115595000Y-55314500D03*
X116865000Y-55314500D03*
X118135000Y-55314500D03*
X119405000Y-55314500D03*
X120675000Y-55314500D03*
%TD*%
D18*
%TO.C,R4*%
X112155000Y-45664500D03*
X112155000Y-47664500D03*
%TD*%
D26*
%TO.C,J3*%
X39850000Y-31500000D03*
X39850000Y-34000000D03*
X39850000Y-36500000D03*
%TD*%
D27*
%TO.C,R9*%
X119630000Y-96255000D03*
X119630000Y-94255000D03*
%TD*%
D19*
%TO.C,H2*%
X125500000Y-115250000D03*
%TD*%
D28*
%TO.C,C4*%
X122705000Y-55314500D03*
X124605000Y-55314500D03*
%TD*%
D26*
%TO.C,J4*%
X75350000Y-31500000D03*
X75350000Y-34000000D03*
X75350000Y-36500000D03*
%TD*%
D20*
%TO.C,C5*%
X94733548Y-60310774D03*
X94733548Y-58410774D03*
%TD*%
D19*
%TO.C,H4*%
X33500000Y-27250000D03*
%TD*%
D29*
%TO.C,C19*%
X76030000Y-60005000D03*
X74130000Y-60005000D03*
%TD*%
D18*
%TO.C,R13*%
X110105000Y-45664500D03*
X110105000Y-47664500D03*
%TD*%
D16*
%TO.C,C17*%
X121250000Y-33932380D03*
D17*
X121250000Y-31432380D03*
%TD*%
D30*
%TO.C,C6*%
X62750000Y-83750000D03*
D17*
X60250000Y-83750000D03*
%TD*%
D26*
%TO.C,J6*%
X39848900Y-106410400D03*
X39848900Y-108910400D03*
X39848900Y-111410400D03*
%TD*%
D31*
%TO.C,Q2*%
X44040000Y-49030000D03*
D32*
X37740000Y-46750000D03*
D31*
X44040000Y-44470000D03*
%TD*%
D28*
%TO.C,C20*%
X122705000Y-57364500D03*
X124605000Y-57364500D03*
%TD*%
D24*
%TO.C,R15*%
X118155000Y-47564500D03*
X116155000Y-47564500D03*
%TD*%
D26*
%TO.C,J8*%
X110848900Y-106410400D03*
X110848900Y-108910400D03*
X110848900Y-111410400D03*
%TD*%
D16*
%TO.C,C8*%
X85998900Y-108810400D03*
D17*
X85998900Y-106310400D03*
%TD*%
D26*
%TO.C,J7*%
X75348900Y-106410400D03*
X75348900Y-108910400D03*
X75348900Y-111410400D03*
%TD*%
D33*
%TO.C,J9*%
X60000000Y-90250000D03*
D34*
X62540000Y-90250000D03*
%TD*%
D35*
%TO.C,R7*%
X115550000Y-96250000D03*
X117550000Y-96250000D03*
%TD*%
D20*
%TO.C,C16*%
X80351100Y-33489600D03*
X80351100Y-31589600D03*
%TD*%
D16*
%TO.C,C15*%
X85751100Y-33689600D03*
D17*
X85751100Y-31189600D03*
%TD*%
D24*
%TO.C,R5*%
X120575000Y-61009500D03*
X118575000Y-61009500D03*
%TD*%
D18*
%TO.C,R2*%
X116255000Y-43614500D03*
X116255000Y-45614500D03*
%TD*%
D24*
%TO.C,R12*%
X123905000Y-46564500D03*
X121905000Y-46564500D03*
%TD*%
D36*
%TO.C,D1*%
X52000000Y-98000000D03*
X48500000Y-98000000D03*
%TD*%
D24*
%TO.C,R14*%
X115105000Y-57864500D03*
X113105000Y-57864500D03*
%TD*%
D17*
%TO.C,U2*%
X62271000Y-77854000D03*
X62271000Y-75314000D03*
D37*
X62271000Y-67186000D03*
X62271000Y-64646000D03*
X43729000Y-64646000D03*
X43729000Y-67186000D03*
D17*
X43729000Y-75314000D03*
X43729000Y-77854000D03*
%TD*%
D19*
%TO.C,H1*%
X33500000Y-115250000D03*
%TD*%
D18*
%TO.C,R11*%
X44040000Y-52030000D03*
X44040000Y-54030000D03*
%TD*%
D16*
%TO.C,C12*%
X50201100Y-34039600D03*
D17*
X50201100Y-31539600D03*
%TD*%
D18*
%TO.C,R1*%
X114205000Y-45664500D03*
X114205000Y-47664500D03*
%TD*%
D27*
%TO.C,R8*%
X124980000Y-96255000D03*
X124980000Y-94255000D03*
%TD*%
D20*
%TO.C,C1*%
X127230000Y-96155000D03*
X127230000Y-94255000D03*
%TD*%
D30*
%TO.C,C21*%
X76330000Y-55005000D03*
D17*
X73830000Y-55005000D03*
%TD*%
D29*
%TO.C,C22*%
X76030000Y-62355000D03*
X74130000Y-62355000D03*
%TD*%
D20*
%TO.C,C10*%
X80648900Y-108560400D03*
X80648900Y-106660400D03*
%TD*%
D26*
%TO.C,J5*%
X110850000Y-31500000D03*
X110850000Y-34000000D03*
X110850000Y-36500000D03*
%TD*%
D20*
%TO.C,C11*%
X116150000Y-108450000D03*
X116150000Y-106550000D03*
%TD*%
D16*
%TO.C,C7*%
X50650000Y-109050000D03*
D17*
X50650000Y-106550000D03*
%TD*%
D20*
%TO.C,C13*%
X45300000Y-108650000D03*
X45300000Y-106750000D03*
%TD*%
%TO.C,C3*%
X39950000Y-75300000D03*
X39950000Y-73400000D03*
%TD*%
D24*
%TO.C,R10*%
X45071250Y-94245000D03*
X43071250Y-94245000D03*
%TD*%
M02*
