%TF.GenerationSoftware,Altium Limited,Altium Designer,24.2.2 (26)*%
G04 Layer_Physical_Order=1*
G04 Layer_Color=255*
%FSLAX45Y45*%
%MOMM*%
%TF.SameCoordinates,A195ED8F-B54E-4743-8023-4A5FD5FDB8DD*%
%TF.FilePolarity,Positive*%
%TF.FileFunction,Copper,L1,Top,Signal*%
%TF.Part,Single*%
G01*
G75*
%TA.AperFunction,SMDPad,CuDef*%
%ADD10R,0.95000X0.80000*%
%ADD11R,0.60000X1.50000*%
%ADD12O,0.60000X1.50000*%
%TA.AperFunction,NonConductor*%
%ADD13C,0.25400*%
%TA.AperFunction,Conductor*%
%ADD14C,0.25400*%
%ADD15C,0.70000*%
%ADD16C,0.30000*%
%TA.AperFunction,NonConductor*%
%ADD17C,0.15240*%
%TA.AperFunction,ComponentPad*%
%ADD18C,1.52400*%
%ADD19C,1.50000*%
D10*
X4318000Y2856001D02*
D03*
Y2985999D02*
D03*
X2476500Y2868701D02*
D03*
Y2998699D02*
D03*
X4318000Y2413000D02*
D03*
Y2543002D02*
D03*
D11*
X3581400Y2876799D02*
D03*
X2476500Y2527300D02*
D03*
D12*
X3454400Y2876799D02*
D03*
X3327400D02*
D03*
X3200400D02*
D03*
X3073400D02*
D03*
X2946400D02*
D03*
X2819400D02*
D03*
X3581400Y2336800D02*
D03*
X3454400D02*
D03*
X3327400D02*
D03*
X3200400D02*
D03*
X3073400D02*
D03*
X2946400D02*
D03*
X2819400D02*
D03*
X2349500Y2527300D02*
D03*
X2222500D02*
D03*
X2095500D02*
D03*
X1968500D02*
D03*
X1841500D02*
D03*
X1714500D02*
D03*
X2476500Y1987301D02*
D03*
X2349500D02*
D03*
X2222500D02*
D03*
X2095500D02*
D03*
X1968500D02*
D03*
X1841500D02*
D03*
X1714500D02*
D03*
D13*
X7023100Y0D02*
X7899400D01*
X7023100Y6477000D02*
X7899400D01*
X7874000Y0D02*
Y2814431D01*
Y3581289D02*
Y6477000D01*
Y0D02*
X7924800Y152400D01*
X7823200D02*
X7874000Y0D01*
X7823200Y6324600D02*
X7874000Y6477000D01*
X7924800Y6324600D01*
X0Y-660400D02*
Y88900D01*
X7112000Y-660400D02*
Y88900D01*
X0Y-635000D02*
X3157323D01*
X3873397D02*
X7112000D01*
X0D02*
X152400Y-685800D01*
X0Y-635000D02*
X152400Y-584200D01*
X6959600D02*
X7112000Y-635000D01*
X6959600Y-685800D02*
X7112000Y-635000D01*
D14*
X2364740Y2905760D02*
Y3708400D01*
X2743200D02*
X2857500Y3594100D01*
X2364740Y2905760D02*
X2401799Y2868701D01*
X2476500D01*
X2857500Y3230880D02*
Y3594100D01*
X2819400Y3192780D02*
X2857500Y3230880D01*
X2565400Y2973299D02*
X2841219Y2697480D01*
X2540000Y2998699D02*
X2565400Y2973299D01*
X3935959Y2985999D02*
X4024401D01*
X2476500Y1987301D02*
X3460501D01*
X3581400Y2108200D01*
Y2336800D01*
X2476500Y2527300D02*
Y2608580D01*
X2565400Y2697480D01*
Y2973299D01*
X3581400Y2786380D02*
Y2876799D01*
X3492500Y2697480D02*
X3581400Y2786380D01*
X2841219Y2697480D02*
X3492500D01*
X2476500Y2998699D02*
X2540000D01*
X1206500Y3517900D02*
X1621663Y3102737D01*
X2028063D01*
X2413000Y2717800D01*
Y2413000D02*
Y2717800D01*
Y2413000D02*
X2598420Y2227580D01*
X2849880D01*
X2882900Y2260600D01*
Y2481580D01*
X2944322Y2543002D01*
X4318000D01*
X3492500Y3517900D02*
X4024401Y2985999D01*
X4318000D01*
X2819400Y2876799D02*
Y3192780D01*
X2349500Y2250440D02*
Y2527300D01*
Y2250440D02*
X2438400Y2161540D01*
X2987040D01*
X3073400Y2247900D01*
Y2336800D01*
X2819400D02*
Y2529840D01*
X2895600Y2606040D01*
X3556000D01*
X3935959Y2985999D01*
D15*
X800100Y3606800D02*
X901700Y3708400D01*
X2364740D01*
X2743200D01*
X800100Y3167380D02*
Y3606800D01*
Y3167380D02*
X944880Y3022600D01*
X1714500Y2527300D02*
Y2921000D01*
X1612900Y3022600D02*
X1714500Y2921000D01*
X944880Y3022600D02*
X1612900D01*
X927100Y635000D02*
X2032000D01*
X3048000D01*
X762000Y800100D02*
X927100Y635000D01*
X762000Y800100D02*
Y1305560D01*
X1714500Y2258060D01*
Y2527300D01*
X3048000Y635000D02*
X4064000D01*
X5080000D01*
X6096000D01*
X2032000Y889000D02*
X3048000D01*
X927100D02*
X2032000D01*
X3048000D02*
X4064000D01*
X5080000D01*
X6096000D01*
D16*
X2476500Y2998699D02*
Y3517900D01*
X4318000Y2543002D02*
Y2856001D01*
X927100Y1143000D02*
X2032000D01*
X3048000D01*
X4064000D01*
X5080000D01*
X6096000D01*
X4318000Y1905000D02*
X5080000Y1143000D01*
X4318000Y1905000D02*
Y2413000D01*
X3815080D02*
X4318000D01*
X3751580Y2476500D02*
X3815080Y2413000D01*
X2987040Y2476500D02*
X3751580D01*
X2946400Y2435860D02*
X2987040Y2476500D01*
X2946400Y2336800D02*
Y2435860D01*
X4318000Y2413000D02*
X4386580D01*
X4406900Y2433320D01*
Y3042920D01*
X4315460Y3134360D02*
X4406900Y3042920D01*
X4135120Y3134360D02*
X4315460D01*
X3863340Y3406140D02*
X4135120Y3134360D01*
X3863340Y3406140D02*
Y3629660D01*
X3683000Y3810000D02*
X3863340Y3629660D01*
X3302000Y3810000D02*
X3683000D01*
X3121660Y3629660D02*
X3302000Y3810000D01*
X3121660Y3395980D02*
Y3629660D01*
Y3395980D02*
X3327400Y3190240D01*
Y2876799D02*
Y3190240D01*
X3238500Y3517900D02*
X3454400Y3302000D01*
Y2876799D02*
Y3302000D01*
D17*
X7813065Y2956638D02*
X7838457Y2905854D01*
X7889240Y2855071D01*
X7940023D01*
X7965415Y2880463D01*
Y2931246D01*
X7940023Y2956638D01*
X7914632D01*
X7889240Y2931246D01*
Y2855071D01*
X7965415Y3083597D02*
X7813065D01*
X7889240Y3007421D01*
Y3108989D01*
X7965415Y3159772D02*
X7940023D01*
Y3185164D01*
X7965415D01*
Y3159772D01*
X7813065Y3286731D02*
Y3388298D01*
X7838457D01*
X7940023Y3286731D01*
X7965415D01*
X7813065Y3439082D02*
Y3540649D01*
X7838457D01*
X7940023Y3439082D01*
X7965415D01*
X3197963Y-574065D02*
X3299530D01*
Y-599457D01*
X3197963Y-701023D01*
Y-726415D01*
X3350313D02*
X3401097D01*
X3375705D01*
Y-574065D01*
X3350313Y-599457D01*
X3477272Y-726415D02*
Y-701023D01*
X3502664D01*
Y-726415D01*
X3477272D01*
X3604231D02*
X3655015D01*
X3629623D01*
Y-574065D01*
X3604231Y-599457D01*
X3832757Y-726415D02*
X3731190D01*
X3832757Y-624848D01*
Y-599457D01*
X3807365Y-574065D01*
X3756582D01*
X3731190Y-599457D01*
D18*
X1206500Y3517900D02*
D03*
X1460500D02*
D03*
X1714500D02*
D03*
X1968500D02*
D03*
X2222500D02*
D03*
X2476500D02*
D03*
X2730500D02*
D03*
X2984500D02*
D03*
X3238500D02*
D03*
X3492500D02*
D03*
X3746500D02*
D03*
X4000500D02*
D03*
X4254500D02*
D03*
X4508500D02*
D03*
X4762500D02*
D03*
X5016500D02*
D03*
X5270500D02*
D03*
X5524500D02*
D03*
X5778500D02*
D03*
X6032500D02*
D03*
X6286500D02*
D03*
X952500Y6057900D02*
D03*
X1206500D02*
D03*
X1460500D02*
D03*
X1714500D02*
D03*
X1968500D02*
D03*
X2222500D02*
D03*
X2476500D02*
D03*
X2730500D02*
D03*
X2984500D02*
D03*
X3238500D02*
D03*
X3492500D02*
D03*
X3746500D02*
D03*
X4000500D02*
D03*
X4254500D02*
D03*
X4508500D02*
D03*
X5016500D02*
D03*
X5270500D02*
D03*
X5524500D02*
D03*
X5778500D02*
D03*
X6032500D02*
D03*
X6286500D02*
D03*
X952500Y3517900D02*
D03*
X4762500Y6057900D02*
D03*
D19*
X927100Y635000D02*
D03*
Y889000D02*
D03*
Y1143000D02*
D03*
X5080000Y635000D02*
D03*
Y889000D02*
D03*
Y1143000D02*
D03*
X2032000Y635000D02*
D03*
Y889000D02*
D03*
Y1143000D02*
D03*
X6096000Y635000D02*
D03*
Y889000D02*
D03*
Y1143000D02*
D03*
X3048000Y635000D02*
D03*
Y889000D02*
D03*
Y1143000D02*
D03*
X4064000Y635000D02*
D03*
Y889000D02*
D03*
Y1143000D02*
D03*
%TF.MD5,a9b4fb35efee95d61faf02b0bd96a3b8*%
M02*
