%TF.GenerationSoftware,Altium Limited,Altium Designer,24.2.2 (26)*%
G04 Layer_Physical_Order=2*
G04 Layer_Color=16711680*
%FSLAX45Y45*%
%MOMM*%
%TF.SameCoordinates,A195ED8F-B54E-4743-8023-4A5FD5FDB8DD*%
%TF.FilePolarity,Positive*%
%TF.FileFunction,Copper,L2,Bot,Signal*%
%TF.Part,Single*%
G01*
G75*
%TA.AperFunction,ComponentPad*%
%ADD18C,1.52400*%
%ADD19C,1.50000*%
G36*
X6805089Y6340239D02*
X6851314Y6321092D01*
X6892915Y6293294D01*
X6928294Y6257915D01*
X6956092Y6216314D01*
X6975239Y6170089D01*
X6985000Y6121017D01*
Y6096000D01*
Y381000D01*
Y355983D01*
X6975239Y306911D01*
X6956092Y260686D01*
X6928294Y219084D01*
X6892915Y183705D01*
X6851314Y155908D01*
X6805089Y136761D01*
X6756017Y127000D01*
X355983D01*
X306911Y136761D01*
X260686Y155908D01*
X219084Y183705D01*
X183705Y219084D01*
X155908Y260686D01*
X136761Y306911D01*
X127000Y355983D01*
Y381000D01*
Y635000D01*
Y6096000D01*
Y6121017D01*
X136761Y6170089D01*
X155908Y6216314D01*
X183705Y6257915D01*
X219084Y6293294D01*
X260686Y6321092D01*
X306911Y6340239D01*
X355983Y6350000D01*
X6756017D01*
X6805089Y6340239D01*
D02*
G37*
%LPC*%
G36*
X6299876Y6159500D02*
X6299200D01*
Y6070600D01*
X6388100D01*
Y6071276D01*
X6381176Y6097116D01*
X6367800Y6120284D01*
X6348884Y6139200D01*
X6325716Y6152576D01*
X6299876Y6159500D01*
D02*
G37*
G36*
X6045876D02*
X6045200D01*
Y6070600D01*
X6134100D01*
Y6071276D01*
X6127176Y6097116D01*
X6113800Y6120284D01*
X6094884Y6139200D01*
X6071716Y6152576D01*
X6045876Y6159500D01*
D02*
G37*
G36*
X965876D02*
X965200D01*
Y6070600D01*
X1054100D01*
Y6071276D01*
X1047176Y6097116D01*
X1033800Y6120284D01*
X1014884Y6139200D01*
X991716Y6152576D01*
X965876Y6159500D01*
D02*
G37*
G36*
X939800D02*
X939124D01*
X913284Y6152576D01*
X890116Y6139200D01*
X871200Y6120284D01*
X857824Y6097116D01*
X850900Y6071276D01*
Y6070600D01*
X939800D01*
Y6159500D01*
D02*
G37*
G36*
X6273800D02*
X6273124D01*
X6247284Y6152576D01*
X6224116Y6139200D01*
X6205200Y6120284D01*
X6191824Y6097116D01*
X6184900Y6071276D01*
Y6070600D01*
X6273800D01*
Y6159500D01*
D02*
G37*
G36*
X6019800D02*
X6019124D01*
X5993284Y6152576D01*
X5970116Y6139200D01*
X5951200Y6120284D01*
X5937824Y6097116D01*
X5930900Y6071276D01*
Y6070600D01*
X6019800D01*
Y6159500D01*
D02*
G37*
G36*
X5791165Y6154100D02*
X5765835D01*
X5741368Y6147544D01*
X5719432Y6134879D01*
X5701521Y6116968D01*
X5688856Y6095032D01*
X5682300Y6070565D01*
Y6045235D01*
X5688856Y6020768D01*
X5701521Y5998832D01*
X5719432Y5980921D01*
X5741368Y5968256D01*
X5765835Y5961700D01*
X5791165D01*
X5815632Y5968256D01*
X5837568Y5980921D01*
X5855479Y5998832D01*
X5868144Y6020768D01*
X5874700Y6045235D01*
Y6070565D01*
X5868144Y6095032D01*
X5855479Y6116968D01*
X5837568Y6134879D01*
X5815632Y6147544D01*
X5791165Y6154100D01*
D02*
G37*
G36*
X5537165D02*
X5511835D01*
X5487368Y6147544D01*
X5465432Y6134879D01*
X5447521Y6116968D01*
X5434856Y6095032D01*
X5428300Y6070565D01*
Y6045235D01*
X5434856Y6020768D01*
X5447521Y5998832D01*
X5465432Y5980921D01*
X5487368Y5968256D01*
X5511835Y5961700D01*
X5537165D01*
X5561632Y5968256D01*
X5583568Y5980921D01*
X5601479Y5998832D01*
X5614144Y6020768D01*
X5620700Y6045235D01*
Y6070565D01*
X5614144Y6095032D01*
X5601479Y6116968D01*
X5583568Y6134879D01*
X5561632Y6147544D01*
X5537165Y6154100D01*
D02*
G37*
G36*
X5283165D02*
X5257835D01*
X5233368Y6147544D01*
X5211432Y6134879D01*
X5193521Y6116968D01*
X5180856Y6095032D01*
X5174300Y6070565D01*
Y6045235D01*
X5180856Y6020768D01*
X5193521Y5998832D01*
X5211432Y5980921D01*
X5233368Y5968256D01*
X5257835Y5961700D01*
X5283165D01*
X5307632Y5968256D01*
X5329568Y5980921D01*
X5347479Y5998832D01*
X5360144Y6020768D01*
X5366700Y6045235D01*
Y6070565D01*
X5360144Y6095032D01*
X5347479Y6116968D01*
X5329568Y6134879D01*
X5307632Y6147544D01*
X5283165Y6154100D01*
D02*
G37*
G36*
X5029165D02*
X5003835D01*
X4979368Y6147544D01*
X4957432Y6134879D01*
X4939521Y6116968D01*
X4926856Y6095032D01*
X4920300Y6070565D01*
Y6045235D01*
X4926856Y6020768D01*
X4939521Y5998832D01*
X4957432Y5980921D01*
X4979368Y5968256D01*
X5003835Y5961700D01*
X5029165D01*
X5053632Y5968256D01*
X5075568Y5980921D01*
X5093479Y5998832D01*
X5106144Y6020768D01*
X5112700Y6045235D01*
Y6070565D01*
X5106144Y6095032D01*
X5093479Y6116968D01*
X5075568Y6134879D01*
X5053632Y6147544D01*
X5029165Y6154100D01*
D02*
G37*
G36*
X4775165D02*
X4749835D01*
X4725368Y6147544D01*
X4703432Y6134879D01*
X4685521Y6116968D01*
X4672856Y6095032D01*
X4666300Y6070565D01*
Y6045235D01*
X4672856Y6020768D01*
X4685521Y5998832D01*
X4703432Y5980921D01*
X4725368Y5968256D01*
X4749835Y5961700D01*
X4775165D01*
X4799632Y5968256D01*
X4821568Y5980921D01*
X4839479Y5998832D01*
X4852144Y6020768D01*
X4858700Y6045235D01*
Y6070565D01*
X4852144Y6095032D01*
X4839479Y6116968D01*
X4821568Y6134879D01*
X4799632Y6147544D01*
X4775165Y6154100D01*
D02*
G37*
G36*
X4521165D02*
X4495835D01*
X4471368Y6147544D01*
X4449432Y6134879D01*
X4431521Y6116968D01*
X4418856Y6095032D01*
X4412300Y6070565D01*
Y6045235D01*
X4418856Y6020768D01*
X4431521Y5998832D01*
X4449432Y5980921D01*
X4471368Y5968256D01*
X4495835Y5961700D01*
X4521165D01*
X4545632Y5968256D01*
X4567568Y5980921D01*
X4585479Y5998832D01*
X4598144Y6020768D01*
X4604700Y6045235D01*
Y6070565D01*
X4598144Y6095032D01*
X4585479Y6116968D01*
X4567568Y6134879D01*
X4545632Y6147544D01*
X4521165Y6154100D01*
D02*
G37*
G36*
X4267165D02*
X4241835D01*
X4217368Y6147544D01*
X4195432Y6134879D01*
X4177521Y6116968D01*
X4164856Y6095032D01*
X4158300Y6070565D01*
Y6045235D01*
X4164856Y6020768D01*
X4177521Y5998832D01*
X4195432Y5980921D01*
X4217368Y5968256D01*
X4241835Y5961700D01*
X4267165D01*
X4291632Y5968256D01*
X4313568Y5980921D01*
X4331479Y5998832D01*
X4344144Y6020768D01*
X4350700Y6045235D01*
Y6070565D01*
X4344144Y6095032D01*
X4331479Y6116968D01*
X4313568Y6134879D01*
X4291632Y6147544D01*
X4267165Y6154100D01*
D02*
G37*
G36*
X4013165D02*
X3987835D01*
X3963368Y6147544D01*
X3941432Y6134879D01*
X3923521Y6116968D01*
X3910856Y6095032D01*
X3904300Y6070565D01*
Y6045235D01*
X3910856Y6020768D01*
X3923521Y5998832D01*
X3941432Y5980921D01*
X3963368Y5968256D01*
X3987835Y5961700D01*
X4013165D01*
X4037632Y5968256D01*
X4059568Y5980921D01*
X4077479Y5998832D01*
X4090144Y6020768D01*
X4096700Y6045235D01*
Y6070565D01*
X4090144Y6095032D01*
X4077479Y6116968D01*
X4059568Y6134879D01*
X4037632Y6147544D01*
X4013165Y6154100D01*
D02*
G37*
G36*
X3759165D02*
X3733835D01*
X3709368Y6147544D01*
X3687432Y6134879D01*
X3669521Y6116968D01*
X3656856Y6095032D01*
X3650300Y6070565D01*
Y6045235D01*
X3656856Y6020768D01*
X3669521Y5998832D01*
X3687432Y5980921D01*
X3709368Y5968256D01*
X3733835Y5961700D01*
X3759165D01*
X3783632Y5968256D01*
X3805568Y5980921D01*
X3823479Y5998832D01*
X3836144Y6020768D01*
X3842700Y6045235D01*
Y6070565D01*
X3836144Y6095032D01*
X3823479Y6116968D01*
X3805568Y6134879D01*
X3783632Y6147544D01*
X3759165Y6154100D01*
D02*
G37*
G36*
X3505165D02*
X3479835D01*
X3455368Y6147544D01*
X3433432Y6134879D01*
X3415521Y6116968D01*
X3402856Y6095032D01*
X3396300Y6070565D01*
Y6045235D01*
X3402856Y6020768D01*
X3415521Y5998832D01*
X3433432Y5980921D01*
X3455368Y5968256D01*
X3479835Y5961700D01*
X3505165D01*
X3529632Y5968256D01*
X3551568Y5980921D01*
X3569479Y5998832D01*
X3582144Y6020768D01*
X3588700Y6045235D01*
Y6070565D01*
X3582144Y6095032D01*
X3569479Y6116968D01*
X3551568Y6134879D01*
X3529632Y6147544D01*
X3505165Y6154100D01*
D02*
G37*
G36*
X3251165D02*
X3225835D01*
X3201368Y6147544D01*
X3179432Y6134879D01*
X3161521Y6116968D01*
X3148856Y6095032D01*
X3142300Y6070565D01*
Y6045235D01*
X3148856Y6020768D01*
X3161521Y5998832D01*
X3179432Y5980921D01*
X3201368Y5968256D01*
X3225835Y5961700D01*
X3251165D01*
X3275632Y5968256D01*
X3297568Y5980921D01*
X3315479Y5998832D01*
X3328144Y6020768D01*
X3334700Y6045235D01*
Y6070565D01*
X3328144Y6095032D01*
X3315479Y6116968D01*
X3297568Y6134879D01*
X3275632Y6147544D01*
X3251165Y6154100D01*
D02*
G37*
G36*
X2997165D02*
X2971835D01*
X2947368Y6147544D01*
X2925432Y6134879D01*
X2907521Y6116968D01*
X2894856Y6095032D01*
X2888300Y6070565D01*
Y6045235D01*
X2894856Y6020768D01*
X2907521Y5998832D01*
X2925432Y5980921D01*
X2947368Y5968256D01*
X2971835Y5961700D01*
X2997165D01*
X3021632Y5968256D01*
X3043568Y5980921D01*
X3061479Y5998832D01*
X3074144Y6020768D01*
X3080700Y6045235D01*
Y6070565D01*
X3074144Y6095032D01*
X3061479Y6116968D01*
X3043568Y6134879D01*
X3021632Y6147544D01*
X2997165Y6154100D01*
D02*
G37*
G36*
X2743165D02*
X2717835D01*
X2693368Y6147544D01*
X2671432Y6134879D01*
X2653521Y6116968D01*
X2640856Y6095032D01*
X2634300Y6070565D01*
Y6045235D01*
X2640856Y6020768D01*
X2653521Y5998832D01*
X2671432Y5980921D01*
X2693368Y5968256D01*
X2717835Y5961700D01*
X2743165D01*
X2767632Y5968256D01*
X2789568Y5980921D01*
X2807479Y5998832D01*
X2820144Y6020768D01*
X2826700Y6045235D01*
Y6070565D01*
X2820144Y6095032D01*
X2807479Y6116968D01*
X2789568Y6134879D01*
X2767632Y6147544D01*
X2743165Y6154100D01*
D02*
G37*
G36*
X2489165D02*
X2463835D01*
X2439368Y6147544D01*
X2417432Y6134879D01*
X2399521Y6116968D01*
X2386856Y6095032D01*
X2380300Y6070565D01*
Y6045235D01*
X2386856Y6020768D01*
X2399521Y5998832D01*
X2417432Y5980921D01*
X2439368Y5968256D01*
X2463835Y5961700D01*
X2489165D01*
X2513632Y5968256D01*
X2535568Y5980921D01*
X2553479Y5998832D01*
X2566144Y6020768D01*
X2572700Y6045235D01*
Y6070565D01*
X2566144Y6095032D01*
X2553479Y6116968D01*
X2535568Y6134879D01*
X2513632Y6147544D01*
X2489165Y6154100D01*
D02*
G37*
G36*
X2235165D02*
X2209835D01*
X2185368Y6147544D01*
X2163432Y6134879D01*
X2145521Y6116968D01*
X2132856Y6095032D01*
X2126300Y6070565D01*
Y6045235D01*
X2132856Y6020768D01*
X2145521Y5998832D01*
X2163432Y5980921D01*
X2185368Y5968256D01*
X2209835Y5961700D01*
X2235165D01*
X2259632Y5968256D01*
X2281568Y5980921D01*
X2299479Y5998832D01*
X2312144Y6020768D01*
X2318700Y6045235D01*
Y6070565D01*
X2312144Y6095032D01*
X2299479Y6116968D01*
X2281568Y6134879D01*
X2259632Y6147544D01*
X2235165Y6154100D01*
D02*
G37*
G36*
X1981165D02*
X1955835D01*
X1931368Y6147544D01*
X1909432Y6134879D01*
X1891521Y6116968D01*
X1878856Y6095032D01*
X1872300Y6070565D01*
Y6045235D01*
X1878856Y6020768D01*
X1891521Y5998832D01*
X1909432Y5980921D01*
X1931368Y5968256D01*
X1955835Y5961700D01*
X1981165D01*
X2005632Y5968256D01*
X2027568Y5980921D01*
X2045479Y5998832D01*
X2058144Y6020768D01*
X2064700Y6045235D01*
Y6070565D01*
X2058144Y6095032D01*
X2045479Y6116968D01*
X2027568Y6134879D01*
X2005632Y6147544D01*
X1981165Y6154100D01*
D02*
G37*
G36*
X1727165D02*
X1701835D01*
X1677368Y6147544D01*
X1655432Y6134879D01*
X1637521Y6116968D01*
X1624856Y6095032D01*
X1618300Y6070565D01*
Y6045235D01*
X1624856Y6020768D01*
X1637521Y5998832D01*
X1655432Y5980921D01*
X1677368Y5968256D01*
X1701835Y5961700D01*
X1727165D01*
X1751632Y5968256D01*
X1773568Y5980921D01*
X1791479Y5998832D01*
X1804144Y6020768D01*
X1810700Y6045235D01*
Y6070565D01*
X1804144Y6095032D01*
X1791479Y6116968D01*
X1773568Y6134879D01*
X1751632Y6147544D01*
X1727165Y6154100D01*
D02*
G37*
G36*
X1473165D02*
X1447835D01*
X1423368Y6147544D01*
X1401432Y6134879D01*
X1383521Y6116968D01*
X1370856Y6095032D01*
X1364300Y6070565D01*
Y6045235D01*
X1370856Y6020768D01*
X1383521Y5998832D01*
X1401432Y5980921D01*
X1423368Y5968256D01*
X1447835Y5961700D01*
X1473165D01*
X1497632Y5968256D01*
X1519568Y5980921D01*
X1537479Y5998832D01*
X1550144Y6020768D01*
X1556700Y6045235D01*
Y6070565D01*
X1550144Y6095032D01*
X1537479Y6116968D01*
X1519568Y6134879D01*
X1497632Y6147544D01*
X1473165Y6154100D01*
D02*
G37*
G36*
X1219165D02*
X1193835D01*
X1169368Y6147544D01*
X1147432Y6134879D01*
X1129521Y6116968D01*
X1116856Y6095032D01*
X1110300Y6070565D01*
Y6045235D01*
X1116856Y6020768D01*
X1129521Y5998832D01*
X1147432Y5980921D01*
X1169368Y5968256D01*
X1193835Y5961700D01*
X1219165D01*
X1243632Y5968256D01*
X1265568Y5980921D01*
X1283479Y5998832D01*
X1296144Y6020768D01*
X1302700Y6045235D01*
Y6070565D01*
X1296144Y6095032D01*
X1283479Y6116968D01*
X1265568Y6134879D01*
X1243632Y6147544D01*
X1219165Y6154100D01*
D02*
G37*
G36*
X6388100Y6045200D02*
X6299200D01*
Y5956300D01*
X6299876D01*
X6325716Y5963224D01*
X6348884Y5976600D01*
X6367800Y5995516D01*
X6381176Y6018684D01*
X6388100Y6044524D01*
Y6045200D01*
D02*
G37*
G36*
X6273800D02*
X6184900D01*
Y6044524D01*
X6191824Y6018684D01*
X6205200Y5995516D01*
X6224116Y5976600D01*
X6247284Y5963224D01*
X6273124Y5956300D01*
X6273800D01*
Y6045200D01*
D02*
G37*
G36*
X6134100D02*
X6045200D01*
Y5956300D01*
X6045876D01*
X6071716Y5963224D01*
X6094884Y5976600D01*
X6113800Y5995516D01*
X6127176Y6018684D01*
X6134100Y6044524D01*
Y6045200D01*
D02*
G37*
G36*
X6019800D02*
X5930900D01*
Y6044524D01*
X5937824Y6018684D01*
X5951200Y5995516D01*
X5970116Y5976600D01*
X5993284Y5963224D01*
X6019124Y5956300D01*
X6019800D01*
Y6045200D01*
D02*
G37*
G36*
X1054100D02*
X965200D01*
Y5956300D01*
X965876D01*
X991716Y5963224D01*
X1014884Y5976600D01*
X1033800Y5995516D01*
X1047176Y6018684D01*
X1054100Y6044524D01*
Y6045200D01*
D02*
G37*
G36*
X939800D02*
X850900D01*
Y6044524D01*
X857824Y6018684D01*
X871200Y5995516D01*
X890116Y5976600D01*
X913284Y5963224D01*
X939124Y5956300D01*
X939800D01*
Y6045200D01*
D02*
G37*
G36*
X6299876Y3619500D02*
X6299200D01*
Y3530600D01*
X6388100D01*
Y3531276D01*
X6381176Y3557116D01*
X6367800Y3580284D01*
X6348884Y3599200D01*
X6325716Y3612576D01*
X6299876Y3619500D01*
D02*
G37*
G36*
X6273800D02*
X6273124D01*
X6247284Y3612576D01*
X6224116Y3599200D01*
X6205200Y3580284D01*
X6191824Y3557116D01*
X6184900Y3531276D01*
Y3530600D01*
X6273800D01*
Y3619500D01*
D02*
G37*
G36*
X6045165Y3614100D02*
X6019835D01*
X5995368Y3607544D01*
X5973432Y3594879D01*
X5955521Y3576968D01*
X5942856Y3555032D01*
X5936300Y3530565D01*
Y3505235D01*
X5942856Y3480768D01*
X5955521Y3458832D01*
X5973432Y3440921D01*
X5995368Y3428256D01*
X6019835Y3421700D01*
X6045165D01*
X6069632Y3428256D01*
X6091568Y3440921D01*
X6109479Y3458832D01*
X6122144Y3480768D01*
X6128700Y3505235D01*
Y3530565D01*
X6122144Y3555032D01*
X6109479Y3576968D01*
X6091568Y3594879D01*
X6069632Y3607544D01*
X6045165Y3614100D01*
D02*
G37*
G36*
X5791165D02*
X5765835D01*
X5741368Y3607544D01*
X5719432Y3594879D01*
X5701521Y3576968D01*
X5688856Y3555032D01*
X5682300Y3530565D01*
Y3505235D01*
X5688856Y3480768D01*
X5701521Y3458832D01*
X5719432Y3440921D01*
X5741368Y3428256D01*
X5765835Y3421700D01*
X5791165D01*
X5815632Y3428256D01*
X5837568Y3440921D01*
X5855479Y3458832D01*
X5868144Y3480768D01*
X5874700Y3505235D01*
Y3530565D01*
X5868144Y3555032D01*
X5855479Y3576968D01*
X5837568Y3594879D01*
X5815632Y3607544D01*
X5791165Y3614100D01*
D02*
G37*
G36*
X5537165D02*
X5511835D01*
X5487368Y3607544D01*
X5465432Y3594879D01*
X5447521Y3576968D01*
X5434856Y3555032D01*
X5428300Y3530565D01*
Y3505235D01*
X5434856Y3480768D01*
X5447521Y3458832D01*
X5465432Y3440921D01*
X5487368Y3428256D01*
X5511835Y3421700D01*
X5537165D01*
X5561632Y3428256D01*
X5583568Y3440921D01*
X5601479Y3458832D01*
X5614144Y3480768D01*
X5620700Y3505235D01*
Y3530565D01*
X5614144Y3555032D01*
X5601479Y3576968D01*
X5583568Y3594879D01*
X5561632Y3607544D01*
X5537165Y3614100D01*
D02*
G37*
G36*
X5283165D02*
X5257835D01*
X5233368Y3607544D01*
X5211432Y3594879D01*
X5193521Y3576968D01*
X5180856Y3555032D01*
X5174300Y3530565D01*
Y3505235D01*
X5180856Y3480768D01*
X5193521Y3458832D01*
X5211432Y3440921D01*
X5233368Y3428256D01*
X5257835Y3421700D01*
X5283165D01*
X5307632Y3428256D01*
X5329568Y3440921D01*
X5347479Y3458832D01*
X5360144Y3480768D01*
X5366700Y3505235D01*
Y3530565D01*
X5360144Y3555032D01*
X5347479Y3576968D01*
X5329568Y3594879D01*
X5307632Y3607544D01*
X5283165Y3614100D01*
D02*
G37*
G36*
X5029165D02*
X5003835D01*
X4979368Y3607544D01*
X4957432Y3594879D01*
X4939521Y3576968D01*
X4926856Y3555032D01*
X4920300Y3530565D01*
Y3505235D01*
X4926856Y3480768D01*
X4939521Y3458832D01*
X4957432Y3440921D01*
X4979368Y3428256D01*
X5003835Y3421700D01*
X5029165D01*
X5053632Y3428256D01*
X5075568Y3440921D01*
X5093479Y3458832D01*
X5106144Y3480768D01*
X5112700Y3505235D01*
Y3530565D01*
X5106144Y3555032D01*
X5093479Y3576968D01*
X5075568Y3594879D01*
X5053632Y3607544D01*
X5029165Y3614100D01*
D02*
G37*
G36*
X4775165D02*
X4749835D01*
X4725368Y3607544D01*
X4703432Y3594879D01*
X4685521Y3576968D01*
X4672856Y3555032D01*
X4666300Y3530565D01*
Y3505235D01*
X4672856Y3480768D01*
X4685521Y3458832D01*
X4703432Y3440921D01*
X4725368Y3428256D01*
X4749835Y3421700D01*
X4775165D01*
X4799632Y3428256D01*
X4821568Y3440921D01*
X4839479Y3458832D01*
X4852144Y3480768D01*
X4858700Y3505235D01*
Y3530565D01*
X4852144Y3555032D01*
X4839479Y3576968D01*
X4821568Y3594879D01*
X4799632Y3607544D01*
X4775165Y3614100D01*
D02*
G37*
G36*
X4521165D02*
X4495835D01*
X4471368Y3607544D01*
X4449432Y3594879D01*
X4431521Y3576968D01*
X4418856Y3555032D01*
X4412300Y3530565D01*
Y3505235D01*
X4418856Y3480768D01*
X4431521Y3458832D01*
X4449432Y3440921D01*
X4471368Y3428256D01*
X4495835Y3421700D01*
X4521165D01*
X4545632Y3428256D01*
X4567568Y3440921D01*
X4585479Y3458832D01*
X4598144Y3480768D01*
X4604700Y3505235D01*
Y3530565D01*
X4598144Y3555032D01*
X4585479Y3576968D01*
X4567568Y3594879D01*
X4545632Y3607544D01*
X4521165Y3614100D01*
D02*
G37*
G36*
X4267165D02*
X4241835D01*
X4217368Y3607544D01*
X4195432Y3594879D01*
X4177521Y3576968D01*
X4164856Y3555032D01*
X4158300Y3530565D01*
Y3505235D01*
X4164856Y3480768D01*
X4177521Y3458832D01*
X4195432Y3440921D01*
X4217368Y3428256D01*
X4241835Y3421700D01*
X4267165D01*
X4291632Y3428256D01*
X4313568Y3440921D01*
X4331479Y3458832D01*
X4344144Y3480768D01*
X4350700Y3505235D01*
Y3530565D01*
X4344144Y3555032D01*
X4331479Y3576968D01*
X4313568Y3594879D01*
X4291632Y3607544D01*
X4267165Y3614100D01*
D02*
G37*
G36*
X4013165D02*
X3987835D01*
X3963368Y3607544D01*
X3941432Y3594879D01*
X3923521Y3576968D01*
X3910856Y3555032D01*
X3904300Y3530565D01*
Y3505235D01*
X3910856Y3480768D01*
X3923521Y3458832D01*
X3941432Y3440921D01*
X3963368Y3428256D01*
X3987835Y3421700D01*
X4013165D01*
X4037632Y3428256D01*
X4059568Y3440921D01*
X4077479Y3458832D01*
X4090144Y3480768D01*
X4096700Y3505235D01*
Y3530565D01*
X4090144Y3555032D01*
X4077479Y3576968D01*
X4059568Y3594879D01*
X4037632Y3607544D01*
X4013165Y3614100D01*
D02*
G37*
G36*
X3759165D02*
X3733835D01*
X3709368Y3607544D01*
X3687432Y3594879D01*
X3669521Y3576968D01*
X3656856Y3555032D01*
X3650300Y3530565D01*
Y3505235D01*
X3656856Y3480768D01*
X3669521Y3458832D01*
X3687432Y3440921D01*
X3709368Y3428256D01*
X3733835Y3421700D01*
X3759165D01*
X3783632Y3428256D01*
X3805568Y3440921D01*
X3823479Y3458832D01*
X3836144Y3480768D01*
X3842700Y3505235D01*
Y3530565D01*
X3836144Y3555032D01*
X3823479Y3576968D01*
X3805568Y3594879D01*
X3783632Y3607544D01*
X3759165Y3614100D01*
D02*
G37*
G36*
X3505165D02*
X3479835D01*
X3455368Y3607544D01*
X3433432Y3594879D01*
X3415521Y3576968D01*
X3402856Y3555032D01*
X3396300Y3530565D01*
Y3505235D01*
X3402856Y3480768D01*
X3415521Y3458832D01*
X3433432Y3440921D01*
X3455368Y3428256D01*
X3479835Y3421700D01*
X3505165D01*
X3529632Y3428256D01*
X3551568Y3440921D01*
X3569479Y3458832D01*
X3582144Y3480768D01*
X3588700Y3505235D01*
Y3530565D01*
X3582144Y3555032D01*
X3569479Y3576968D01*
X3551568Y3594879D01*
X3529632Y3607544D01*
X3505165Y3614100D01*
D02*
G37*
G36*
X3251165D02*
X3225835D01*
X3201368Y3607544D01*
X3179432Y3594879D01*
X3161521Y3576968D01*
X3148856Y3555032D01*
X3142300Y3530565D01*
Y3505235D01*
X3148856Y3480768D01*
X3161521Y3458832D01*
X3179432Y3440921D01*
X3201368Y3428256D01*
X3225835Y3421700D01*
X3251165D01*
X3275632Y3428256D01*
X3297568Y3440921D01*
X3315479Y3458832D01*
X3328144Y3480768D01*
X3334700Y3505235D01*
Y3530565D01*
X3328144Y3555032D01*
X3315479Y3576968D01*
X3297568Y3594879D01*
X3275632Y3607544D01*
X3251165Y3614100D01*
D02*
G37*
G36*
X2997165D02*
X2971835D01*
X2947368Y3607544D01*
X2925432Y3594879D01*
X2907521Y3576968D01*
X2894856Y3555032D01*
X2888300Y3530565D01*
Y3505235D01*
X2894856Y3480768D01*
X2907521Y3458832D01*
X2925432Y3440921D01*
X2947368Y3428256D01*
X2971835Y3421700D01*
X2997165D01*
X3021632Y3428256D01*
X3043568Y3440921D01*
X3061479Y3458832D01*
X3074144Y3480768D01*
X3080700Y3505235D01*
Y3530565D01*
X3074144Y3555032D01*
X3061479Y3576968D01*
X3043568Y3594879D01*
X3021632Y3607544D01*
X2997165Y3614100D01*
D02*
G37*
G36*
X2743165D02*
X2717835D01*
X2693368Y3607544D01*
X2671432Y3594879D01*
X2653521Y3576968D01*
X2640856Y3555032D01*
X2634300Y3530565D01*
Y3505235D01*
X2640856Y3480768D01*
X2653521Y3458832D01*
X2671432Y3440921D01*
X2693368Y3428256D01*
X2717835Y3421700D01*
X2743165D01*
X2767632Y3428256D01*
X2789568Y3440921D01*
X2807479Y3458832D01*
X2820144Y3480768D01*
X2826700Y3505235D01*
Y3530565D01*
X2820144Y3555032D01*
X2807479Y3576968D01*
X2789568Y3594879D01*
X2767632Y3607544D01*
X2743165Y3614100D01*
D02*
G37*
G36*
X2489165D02*
X2463835D01*
X2439368Y3607544D01*
X2417432Y3594879D01*
X2399521Y3576968D01*
X2386856Y3555032D01*
X2380300Y3530565D01*
Y3505235D01*
X2386856Y3480768D01*
X2399521Y3458832D01*
X2417432Y3440921D01*
X2439368Y3428256D01*
X2463835Y3421700D01*
X2489165D01*
X2513632Y3428256D01*
X2535568Y3440921D01*
X2553479Y3458832D01*
X2566144Y3480768D01*
X2572700Y3505235D01*
Y3530565D01*
X2566144Y3555032D01*
X2553479Y3576968D01*
X2535568Y3594879D01*
X2513632Y3607544D01*
X2489165Y3614100D01*
D02*
G37*
G36*
X2235165D02*
X2209835D01*
X2185368Y3607544D01*
X2163432Y3594879D01*
X2145521Y3576968D01*
X2132856Y3555032D01*
X2126300Y3530565D01*
Y3505235D01*
X2132856Y3480768D01*
X2145521Y3458832D01*
X2163432Y3440921D01*
X2185368Y3428256D01*
X2209835Y3421700D01*
X2235165D01*
X2259632Y3428256D01*
X2281568Y3440921D01*
X2299479Y3458832D01*
X2312144Y3480768D01*
X2318700Y3505235D01*
Y3530565D01*
X2312144Y3555032D01*
X2299479Y3576968D01*
X2281568Y3594879D01*
X2259632Y3607544D01*
X2235165Y3614100D01*
D02*
G37*
G36*
X1981165D02*
X1955835D01*
X1931368Y3607544D01*
X1909432Y3594879D01*
X1891521Y3576968D01*
X1878856Y3555032D01*
X1872300Y3530565D01*
Y3505235D01*
X1878856Y3480768D01*
X1891521Y3458832D01*
X1909432Y3440921D01*
X1931368Y3428256D01*
X1955835Y3421700D01*
X1981165D01*
X2005632Y3428256D01*
X2027568Y3440921D01*
X2045479Y3458832D01*
X2058144Y3480768D01*
X2064700Y3505235D01*
Y3530565D01*
X2058144Y3555032D01*
X2045479Y3576968D01*
X2027568Y3594879D01*
X2005632Y3607544D01*
X1981165Y3614100D01*
D02*
G37*
G36*
X1727165D02*
X1701835D01*
X1677368Y3607544D01*
X1655432Y3594879D01*
X1637521Y3576968D01*
X1624856Y3555032D01*
X1618300Y3530565D01*
Y3505235D01*
X1624856Y3480768D01*
X1637521Y3458832D01*
X1655432Y3440921D01*
X1677368Y3428256D01*
X1701835Y3421700D01*
X1727165D01*
X1751632Y3428256D01*
X1773568Y3440921D01*
X1791479Y3458832D01*
X1804144Y3480768D01*
X1810700Y3505235D01*
Y3530565D01*
X1804144Y3555032D01*
X1791479Y3576968D01*
X1773568Y3594879D01*
X1751632Y3607544D01*
X1727165Y3614100D01*
D02*
G37*
G36*
X1473165D02*
X1447835D01*
X1423368Y3607544D01*
X1401432Y3594879D01*
X1383521Y3576968D01*
X1370856Y3555032D01*
X1364300Y3530565D01*
Y3505235D01*
X1370856Y3480768D01*
X1383521Y3458832D01*
X1401432Y3440921D01*
X1423368Y3428256D01*
X1447835Y3421700D01*
X1473165D01*
X1497632Y3428256D01*
X1519568Y3440921D01*
X1537479Y3458832D01*
X1550144Y3480768D01*
X1556700Y3505235D01*
Y3530565D01*
X1550144Y3555032D01*
X1537479Y3576968D01*
X1519568Y3594879D01*
X1497632Y3607544D01*
X1473165Y3614100D01*
D02*
G37*
G36*
X1219165D02*
X1193835D01*
X1169368Y3607544D01*
X1147432Y3594879D01*
X1129521Y3576968D01*
X1116856Y3555032D01*
X1110300Y3530565D01*
Y3505235D01*
X1116856Y3480768D01*
X1129521Y3458832D01*
X1147432Y3440921D01*
X1169368Y3428256D01*
X1193835Y3421700D01*
X1219165D01*
X1243632Y3428256D01*
X1265568Y3440921D01*
X1283479Y3458832D01*
X1296144Y3480768D01*
X1302700Y3505235D01*
Y3530565D01*
X1296144Y3555032D01*
X1283479Y3576968D01*
X1265568Y3594879D01*
X1243632Y3607544D01*
X1219165Y3614100D01*
D02*
G37*
G36*
X965165D02*
X939835D01*
X915368Y3607544D01*
X893432Y3594879D01*
X875521Y3576968D01*
X862856Y3555032D01*
X856300Y3530565D01*
Y3505235D01*
X862856Y3480768D01*
X875521Y3458832D01*
X893432Y3440921D01*
X915368Y3428256D01*
X939835Y3421700D01*
X965165D01*
X989632Y3428256D01*
X1011568Y3440921D01*
X1029479Y3458832D01*
X1042144Y3480768D01*
X1048700Y3505235D01*
Y3530565D01*
X1042144Y3555032D01*
X1029479Y3576968D01*
X1011568Y3594879D01*
X989632Y3607544D01*
X965165Y3614100D01*
D02*
G37*
G36*
X6388100Y3505200D02*
X6299200D01*
Y3416300D01*
X6299876D01*
X6325716Y3423224D01*
X6348884Y3436600D01*
X6367800Y3455516D01*
X6381176Y3478684D01*
X6388100Y3504524D01*
Y3505200D01*
D02*
G37*
G36*
X6273800D02*
X6184900D01*
Y3504524D01*
X6191824Y3478684D01*
X6205200Y3455516D01*
X6224116Y3436600D01*
X6247284Y3423224D01*
X6273124Y3416300D01*
X6273800D01*
Y3505200D01*
D02*
G37*
G36*
X6108507Y1238000D02*
X6083493D01*
X6059332Y1231526D01*
X6037669Y1219019D01*
X6019981Y1201331D01*
X6007474Y1179668D01*
X6001000Y1155507D01*
Y1130493D01*
X6007474Y1106332D01*
X6019981Y1084669D01*
X6037669Y1066981D01*
X6059332Y1054474D01*
X6083493Y1048000D01*
X6108507D01*
X6132668Y1054474D01*
X6154331Y1066981D01*
X6172019Y1084669D01*
X6184526Y1106332D01*
X6191000Y1130493D01*
Y1155507D01*
X6184526Y1179668D01*
X6172019Y1201331D01*
X6154331Y1219019D01*
X6132668Y1231526D01*
X6108507Y1238000D01*
D02*
G37*
G36*
X5092507D02*
X5067493D01*
X5043332Y1231526D01*
X5021669Y1219019D01*
X5003981Y1201331D01*
X4991474Y1179668D01*
X4985000Y1155507D01*
Y1130493D01*
X4991474Y1106332D01*
X5003981Y1084669D01*
X5021669Y1066981D01*
X5043332Y1054474D01*
X5067493Y1048000D01*
X5092507D01*
X5116668Y1054474D01*
X5138331Y1066981D01*
X5156019Y1084669D01*
X5168526Y1106332D01*
X5175000Y1130493D01*
Y1155507D01*
X5168526Y1179668D01*
X5156019Y1201331D01*
X5138331Y1219019D01*
X5116668Y1231526D01*
X5092507Y1238000D01*
D02*
G37*
G36*
X4076507D02*
X4051493D01*
X4027332Y1231526D01*
X4005669Y1219019D01*
X3987981Y1201331D01*
X3975474Y1179668D01*
X3969000Y1155507D01*
Y1130493D01*
X3975474Y1106332D01*
X3987981Y1084669D01*
X4005669Y1066981D01*
X4027332Y1054474D01*
X4051493Y1048000D01*
X4076507D01*
X4100668Y1054474D01*
X4122331Y1066981D01*
X4140019Y1084669D01*
X4152526Y1106332D01*
X4159000Y1130493D01*
Y1155507D01*
X4152526Y1179668D01*
X4140019Y1201331D01*
X4122331Y1219019D01*
X4100668Y1231526D01*
X4076507Y1238000D01*
D02*
G37*
G36*
X3060507D02*
X3035493D01*
X3011332Y1231526D01*
X2989669Y1219019D01*
X2971981Y1201331D01*
X2959474Y1179668D01*
X2953000Y1155507D01*
Y1130493D01*
X2959474Y1106332D01*
X2971981Y1084669D01*
X2989669Y1066981D01*
X3011332Y1054474D01*
X3035493Y1048000D01*
X3060507D01*
X3084668Y1054474D01*
X3106331Y1066981D01*
X3124019Y1084669D01*
X3136526Y1106332D01*
X3143000Y1130493D01*
Y1155507D01*
X3136526Y1179668D01*
X3124019Y1201331D01*
X3106331Y1219019D01*
X3084668Y1231526D01*
X3060507Y1238000D01*
D02*
G37*
G36*
X2044507D02*
X2019493D01*
X1995332Y1231526D01*
X1973669Y1219019D01*
X1955981Y1201331D01*
X1943474Y1179668D01*
X1937000Y1155507D01*
Y1130493D01*
X1943474Y1106332D01*
X1955981Y1084669D01*
X1973669Y1066981D01*
X1995332Y1054474D01*
X2019493Y1048000D01*
X2044507D01*
X2068668Y1054474D01*
X2090331Y1066981D01*
X2108019Y1084669D01*
X2120526Y1106332D01*
X2127000Y1130493D01*
Y1155507D01*
X2120526Y1179668D01*
X2108019Y1201331D01*
X2090331Y1219019D01*
X2068668Y1231526D01*
X2044507Y1238000D01*
D02*
G37*
G36*
X939607D02*
X914593D01*
X890432Y1231526D01*
X868769Y1219019D01*
X851081Y1201331D01*
X838574Y1179668D01*
X832100Y1155507D01*
Y1130493D01*
X838574Y1106332D01*
X851081Y1084669D01*
X868769Y1066981D01*
X890432Y1054474D01*
X914593Y1048000D01*
X939607D01*
X963768Y1054474D01*
X985431Y1066981D01*
X1003119Y1084669D01*
X1015626Y1106332D01*
X1022100Y1130493D01*
Y1155507D01*
X1015626Y1179668D01*
X1003119Y1201331D01*
X985431Y1219019D01*
X963768Y1231526D01*
X939607Y1238000D01*
D02*
G37*
G36*
X6108507Y984000D02*
X6083493D01*
X6059332Y977526D01*
X6037669Y965019D01*
X6019981Y947331D01*
X6007474Y925668D01*
X6001000Y901507D01*
Y876493D01*
X6007474Y852332D01*
X6019981Y830669D01*
X6037669Y812981D01*
X6059332Y800474D01*
X6083493Y794000D01*
X6108507D01*
X6132668Y800474D01*
X6154331Y812981D01*
X6172019Y830669D01*
X6184526Y852332D01*
X6191000Y876493D01*
Y901507D01*
X6184526Y925668D01*
X6172019Y947331D01*
X6154331Y965019D01*
X6132668Y977526D01*
X6108507Y984000D01*
D02*
G37*
G36*
X5092507D02*
X5067493D01*
X5043332Y977526D01*
X5021669Y965019D01*
X5003981Y947331D01*
X4991474Y925668D01*
X4985000Y901507D01*
Y876493D01*
X4991474Y852332D01*
X5003981Y830669D01*
X5021669Y812981D01*
X5043332Y800474D01*
X5067493Y794000D01*
X5092507D01*
X5116668Y800474D01*
X5138331Y812981D01*
X5156019Y830669D01*
X5168526Y852332D01*
X5175000Y876493D01*
Y901507D01*
X5168526Y925668D01*
X5156019Y947331D01*
X5138331Y965019D01*
X5116668Y977526D01*
X5092507Y984000D01*
D02*
G37*
G36*
X4076507D02*
X4051493D01*
X4027332Y977526D01*
X4005669Y965019D01*
X3987981Y947331D01*
X3975474Y925668D01*
X3969000Y901507D01*
Y876493D01*
X3975474Y852332D01*
X3987981Y830669D01*
X4005669Y812981D01*
X4027332Y800474D01*
X4051493Y794000D01*
X4076507D01*
X4100668Y800474D01*
X4122331Y812981D01*
X4140019Y830669D01*
X4152526Y852332D01*
X4159000Y876493D01*
Y901507D01*
X4152526Y925668D01*
X4140019Y947331D01*
X4122331Y965019D01*
X4100668Y977526D01*
X4076507Y984000D01*
D02*
G37*
G36*
X3060507D02*
X3035493D01*
X3011332Y977526D01*
X2989669Y965019D01*
X2971981Y947331D01*
X2959474Y925668D01*
X2953000Y901507D01*
Y876493D01*
X2959474Y852332D01*
X2971981Y830669D01*
X2989669Y812981D01*
X3011332Y800474D01*
X3035493Y794000D01*
X3060507D01*
X3084668Y800474D01*
X3106331Y812981D01*
X3124019Y830669D01*
X3136526Y852332D01*
X3143000Y876493D01*
Y901507D01*
X3136526Y925668D01*
X3124019Y947331D01*
X3106331Y965019D01*
X3084668Y977526D01*
X3060507Y984000D01*
D02*
G37*
G36*
X2044507D02*
X2019493D01*
X1995332Y977526D01*
X1973669Y965019D01*
X1955981Y947331D01*
X1943474Y925668D01*
X1937000Y901507D01*
Y876493D01*
X1943474Y852332D01*
X1955981Y830669D01*
X1973669Y812981D01*
X1995332Y800474D01*
X2019493Y794000D01*
X2044507D01*
X2068668Y800474D01*
X2090331Y812981D01*
X2108019Y830669D01*
X2120526Y852332D01*
X2127000Y876493D01*
Y901507D01*
X2120526Y925668D01*
X2108019Y947331D01*
X2090331Y965019D01*
X2068668Y977526D01*
X2044507Y984000D01*
D02*
G37*
G36*
X939607D02*
X914593D01*
X890432Y977526D01*
X868769Y965019D01*
X851081Y947331D01*
X838574Y925668D01*
X832100Y901507D01*
Y876493D01*
X838574Y852332D01*
X851081Y830669D01*
X868769Y812981D01*
X890432Y800474D01*
X914593Y794000D01*
X939607D01*
X963768Y800474D01*
X985431Y812981D01*
X1003119Y830669D01*
X1015626Y852332D01*
X1022100Y876493D01*
Y901507D01*
X1015626Y925668D01*
X1003119Y947331D01*
X985431Y965019D01*
X963768Y977526D01*
X939607Y984000D01*
D02*
G37*
G36*
X6109218Y735400D02*
X6108700D01*
Y647700D01*
X6196400D01*
Y648218D01*
X6189558Y673753D01*
X6176340Y696647D01*
X6157647Y715340D01*
X6134753Y728558D01*
X6109218Y735400D01*
D02*
G37*
G36*
X5093218D02*
X5092700D01*
Y647700D01*
X5180400D01*
Y648218D01*
X5173558Y673753D01*
X5160340Y696647D01*
X5141647Y715340D01*
X5118753Y728558D01*
X5093218Y735400D01*
D02*
G37*
G36*
X4077218D02*
X4076700D01*
Y647700D01*
X4164400D01*
Y648218D01*
X4157558Y673753D01*
X4144340Y696647D01*
X4125647Y715340D01*
X4102753Y728558D01*
X4077218Y735400D01*
D02*
G37*
G36*
X3061218D02*
X3060700D01*
Y647700D01*
X3148400D01*
Y648218D01*
X3141558Y673753D01*
X3128340Y696647D01*
X3109647Y715340D01*
X3086753Y728558D01*
X3061218Y735400D01*
D02*
G37*
G36*
X2045218D02*
X2044700D01*
Y647700D01*
X2132400D01*
Y648218D01*
X2125558Y673753D01*
X2112340Y696647D01*
X2093647Y715340D01*
X2070753Y728558D01*
X2045218Y735400D01*
D02*
G37*
G36*
X940318D02*
X939800D01*
Y647700D01*
X1027500D01*
Y648218D01*
X1020658Y673753D01*
X1007440Y696647D01*
X988747Y715340D01*
X965853Y728558D01*
X940318Y735400D01*
D02*
G37*
G36*
X914400D02*
X913882D01*
X888347Y728558D01*
X865453Y715340D01*
X846760Y696647D01*
X833542Y673753D01*
X826700Y648218D01*
Y647700D01*
X914400D01*
Y735400D01*
D02*
G37*
G36*
X6083300D02*
X6082782D01*
X6057247Y728558D01*
X6034353Y715340D01*
X6015660Y696647D01*
X6002442Y673753D01*
X5995600Y648218D01*
Y647700D01*
X6083300D01*
Y735400D01*
D02*
G37*
G36*
X5067300D02*
X5066782D01*
X5041247Y728558D01*
X5018353Y715340D01*
X4999660Y696647D01*
X4986442Y673753D01*
X4979600Y648218D01*
Y647700D01*
X5067300D01*
Y735400D01*
D02*
G37*
G36*
X4051300D02*
X4050782D01*
X4025247Y728558D01*
X4002353Y715340D01*
X3983660Y696647D01*
X3970442Y673753D01*
X3963600Y648218D01*
Y647700D01*
X4051300D01*
Y735400D01*
D02*
G37*
G36*
X3035300D02*
X3034782D01*
X3009247Y728558D01*
X2986353Y715340D01*
X2967660Y696647D01*
X2954442Y673753D01*
X2947600Y648218D01*
Y647700D01*
X3035300D01*
Y735400D01*
D02*
G37*
G36*
X2019300D02*
X2018782D01*
X1993247Y728558D01*
X1970353Y715340D01*
X1951660Y696647D01*
X1938442Y673753D01*
X1931600Y648218D01*
Y647700D01*
X2019300D01*
Y735400D01*
D02*
G37*
G36*
X6196400Y622300D02*
X6108700D01*
Y534600D01*
X6109218D01*
X6134753Y541442D01*
X6157647Y554660D01*
X6176340Y573353D01*
X6189558Y596247D01*
X6196400Y621782D01*
Y622300D01*
D02*
G37*
G36*
X6083300D02*
X5995600D01*
Y621782D01*
X6002442Y596247D01*
X6015660Y573353D01*
X6034353Y554660D01*
X6057247Y541442D01*
X6082782Y534600D01*
X6083300D01*
Y622300D01*
D02*
G37*
G36*
X5180400D02*
X5092700D01*
Y534600D01*
X5093218D01*
X5118753Y541442D01*
X5141647Y554660D01*
X5160340Y573353D01*
X5173558Y596247D01*
X5180400Y621782D01*
Y622300D01*
D02*
G37*
G36*
X5067300D02*
X4979600D01*
Y621782D01*
X4986442Y596247D01*
X4999660Y573353D01*
X5018353Y554660D01*
X5041247Y541442D01*
X5066782Y534600D01*
X5067300D01*
Y622300D01*
D02*
G37*
G36*
X4164400D02*
X4076700D01*
Y534600D01*
X4077218D01*
X4102753Y541442D01*
X4125647Y554660D01*
X4144340Y573353D01*
X4157558Y596247D01*
X4164400Y621782D01*
Y622300D01*
D02*
G37*
G36*
X4051300D02*
X3963600D01*
Y621782D01*
X3970442Y596247D01*
X3983660Y573353D01*
X4002353Y554660D01*
X4025247Y541442D01*
X4050782Y534600D01*
X4051300D01*
Y622300D01*
D02*
G37*
G36*
X3148400D02*
X3060700D01*
Y534600D01*
X3061218D01*
X3086753Y541442D01*
X3109647Y554660D01*
X3128340Y573353D01*
X3141558Y596247D01*
X3148400Y621782D01*
Y622300D01*
D02*
G37*
G36*
X3035300D02*
X2947600D01*
Y621782D01*
X2954442Y596247D01*
X2967660Y573353D01*
X2986353Y554660D01*
X3009247Y541442D01*
X3034782Y534600D01*
X3035300D01*
Y622300D01*
D02*
G37*
G36*
X2132400D02*
X2044700D01*
Y534600D01*
X2045218D01*
X2070753Y541442D01*
X2093647Y554660D01*
X2112340Y573353D01*
X2125558Y596247D01*
X2132400Y621782D01*
Y622300D01*
D02*
G37*
G36*
X2019300D02*
X1931600D01*
Y621782D01*
X1938442Y596247D01*
X1951660Y573353D01*
X1970353Y554660D01*
X1993247Y541442D01*
X2018782Y534600D01*
X2019300D01*
Y622300D01*
D02*
G37*
G36*
X1027500D02*
X939800D01*
Y534600D01*
X940318D01*
X965853Y541442D01*
X988747Y554660D01*
X1007440Y573353D01*
X1020658Y596247D01*
X1027500Y621782D01*
Y622300D01*
D02*
G37*
G36*
X914400D02*
X826700D01*
Y621782D01*
X833542Y596247D01*
X846760Y573353D01*
X865453Y554660D01*
X888347Y541442D01*
X913882Y534600D01*
X914400D01*
Y622300D01*
D02*
G37*
%LPD*%
D18*
X1206500Y3517900D02*
D03*
X1460500D02*
D03*
X1714500D02*
D03*
X1968500D02*
D03*
X2222500D02*
D03*
X2476500D02*
D03*
X2730500D02*
D03*
X2984500D02*
D03*
X3238500D02*
D03*
X3492500D02*
D03*
X3746500D02*
D03*
X4000500D02*
D03*
X4254500D02*
D03*
X4508500D02*
D03*
X4762500D02*
D03*
X5016500D02*
D03*
X5270500D02*
D03*
X5524500D02*
D03*
X5778500D02*
D03*
X6032500D02*
D03*
X6286500D02*
D03*
X952500Y6057900D02*
D03*
X1206500D02*
D03*
X1460500D02*
D03*
X1714500D02*
D03*
X1968500D02*
D03*
X2222500D02*
D03*
X2476500D02*
D03*
X2730500D02*
D03*
X2984500D02*
D03*
X3238500D02*
D03*
X3492500D02*
D03*
X3746500D02*
D03*
X4000500D02*
D03*
X4254500D02*
D03*
X4508500D02*
D03*
X5016500D02*
D03*
X5270500D02*
D03*
X5524500D02*
D03*
X5778500D02*
D03*
X6032500D02*
D03*
X6286500D02*
D03*
X952500Y3517900D02*
D03*
X4762500Y6057900D02*
D03*
D19*
X927100Y635000D02*
D03*
Y889000D02*
D03*
Y1143000D02*
D03*
X5080000Y635000D02*
D03*
Y889000D02*
D03*
Y1143000D02*
D03*
X2032000Y635000D02*
D03*
Y889000D02*
D03*
Y1143000D02*
D03*
X6096000Y635000D02*
D03*
Y889000D02*
D03*
Y1143000D02*
D03*
X3048000Y635000D02*
D03*
Y889000D02*
D03*
Y1143000D02*
D03*
X4064000Y635000D02*
D03*
Y889000D02*
D03*
Y1143000D02*
D03*
%TF.MD5,fba0ab1f40bc89c53dd340400a3c9d52*%
M02*
