%TF.GenerationSoftware,Altium Limited,Altium Designer,24.2.2 (26)*%
G04 Layer_Color=8388736*
%FSLAX45Y45*%
%MOMM*%
%TF.SameCoordinates,A195ED8F-B54E-4743-8023-4A5FD5FDB8DD*%
%TF.FilePolarity,Negative*%
%TF.FileFunction,Soldermask,Top*%
%TF.Part,Single*%
G01*
G75*
%TA.AperFunction,SMDPad,CuDef*%
%ADD22R,1.15320X1.00320*%
%ADD23R,0.80320X1.70320*%
%ADD24O,0.80320X1.70320*%
%TA.AperFunction,ComponentPad*%
%ADD25C,1.72720*%
%ADD26C,1.70320*%
D22*
X4318000Y2856001D02*
D03*
Y2985999D02*
D03*
X2476500Y2868701D02*
D03*
Y2998699D02*
D03*
X4318000Y2413000D02*
D03*
Y2543002D02*
D03*
D23*
X3581400Y2876799D02*
D03*
X2476500Y2527300D02*
D03*
D24*
X3454400Y2876799D02*
D03*
X3327400D02*
D03*
X3200400D02*
D03*
X3073400D02*
D03*
X2946400D02*
D03*
X2819400D02*
D03*
X3581400Y2336800D02*
D03*
X3454400D02*
D03*
X3327400D02*
D03*
X3200400D02*
D03*
X3073400D02*
D03*
X2946400D02*
D03*
X2819400D02*
D03*
X2349500Y2527300D02*
D03*
X2222500D02*
D03*
X2095500D02*
D03*
X1968500D02*
D03*
X1841500D02*
D03*
X1714500D02*
D03*
X2476500Y1987301D02*
D03*
X2349500D02*
D03*
X2222500D02*
D03*
X2095500D02*
D03*
X1968500D02*
D03*
X1841500D02*
D03*
X1714500D02*
D03*
D25*
X1206500Y3517900D02*
D03*
X1460500D02*
D03*
X1714500D02*
D03*
X1968500D02*
D03*
X2222500D02*
D03*
X2476500D02*
D03*
X2730500D02*
D03*
X2984500D02*
D03*
X3238500D02*
D03*
X3492500D02*
D03*
X3746500D02*
D03*
X4000500D02*
D03*
X4254500D02*
D03*
X4508500D02*
D03*
X4762500D02*
D03*
X5016500D02*
D03*
X5270500D02*
D03*
X5524500D02*
D03*
X5778500D02*
D03*
X6032500D02*
D03*
X6286500D02*
D03*
X952500Y6057900D02*
D03*
X1206500D02*
D03*
X1460500D02*
D03*
X1714500D02*
D03*
X1968500D02*
D03*
X2222500D02*
D03*
X2476500D02*
D03*
X2730500D02*
D03*
X2984500D02*
D03*
X3238500D02*
D03*
X3492500D02*
D03*
X3746500D02*
D03*
X4000500D02*
D03*
X4254500D02*
D03*
X4508500D02*
D03*
X5016500D02*
D03*
X5270500D02*
D03*
X5524500D02*
D03*
X5778500D02*
D03*
X6032500D02*
D03*
X6286500D02*
D03*
X952500Y3517900D02*
D03*
X4762500Y6057900D02*
D03*
D26*
X927100Y635000D02*
D03*
Y889000D02*
D03*
Y1143000D02*
D03*
X5080000Y635000D02*
D03*
Y889000D02*
D03*
Y1143000D02*
D03*
X2032000Y635000D02*
D03*
Y889000D02*
D03*
Y1143000D02*
D03*
X6096000Y635000D02*
D03*
Y889000D02*
D03*
Y1143000D02*
D03*
X3048000Y635000D02*
D03*
Y889000D02*
D03*
Y1143000D02*
D03*
X4064000Y635000D02*
D03*
Y889000D02*
D03*
Y1143000D02*
D03*
%TF.MD5,21ea4b0eaf9eb268ed7994f28b6966f4*%
M02*
